<svg width="18" height="19" viewBox="0 0 18 19" fill="none" xmlns="http://www.w3.org/2000/svg">
<path d="M17.9999 1.49725C17.9998 1.46527 17.9981 1.43332 17.995 1.40142C17.9935 1.38635 17.9907 1.3717 17.9886 1.35681C17.9861 1.33935 17.9841 1.3219 17.9806 1.30462C17.9773 1.28772 17.9726 1.27136 17.9684 1.25476C17.9647 1.23974 17.9614 1.22467 17.9568 1.20977C17.9519 1.19348 17.9459 1.17779 17.9401 1.16186C17.9348 1.14697 17.9299 1.13201 17.9238 1.11736C17.9177 1.10265 17.9106 1.08861 17.9038 1.07427C17.8966 1.05895 17.8898 1.04351 17.8818 1.02856C17.8746 1.01507 17.8663 1.00231 17.8585 0.98918C17.8497 0.974288 17.8412 0.959152 17.8315 0.944626C17.822 0.930466 17.8114 0.917098 17.8012 0.903488C17.7919 0.890976 17.7832 0.878158 17.7732 0.865951C17.7546 0.843307 17.7347 0.821639 17.7142 0.800701C17.7117 0.798137 17.7096 0.795391 17.7071 0.792826C17.7042 0.790018 17.7011 0.787638 17.6982 0.784826C17.6776 0.764685 17.6563 0.745092 17.634 0.72672C17.6219 0.716893 17.6093 0.708287 17.5969 0.699071C17.5831 0.688756 17.5696 0.678071 17.5553 0.668433C17.5411 0.65891 17.5262 0.650671 17.5117 0.641942C17.4982 0.633886 17.4851 0.625463 17.4713 0.618077C17.4568 0.610327 17.4418 0.603796 17.4271 0.596776C17.4122 0.589758 17.3976 0.582373 17.3824 0.576026C17.3684 0.570289 17.3542 0.565651 17.34 0.560584C17.3234 0.554541 17.3069 0.548133 17.2898 0.543006C17.2762 0.538856 17.2623 0.535926 17.2485 0.532381C17.2307 0.527804 17.2131 0.52286 17.1948 0.519256C17.1797 0.516265 17.1644 0.514556 17.1492 0.512298C17.1321 0.509734 17.1153 0.506621 17.098 0.504912C17.0728 0.502471 17.0474 0.501616 17.0221 0.501068C17.0147 0.500976 17.0074 0.5 17 0.5H4.00002C3.7348 0.5 3.48045 0.605357 3.29291 0.792893C3.10538 0.980429 3.00002 1.23478 3.00002 1.5C3.00002 1.76521 3.10538 2.01957 3.29291 2.2071C3.48045 2.39464 3.7348 2.5 4.00002 2.5H14.5858L0.29293 16.7928C0.105382 16.9804 1.14875e-05 17.2347 9.39231e-10 17.4999C-1.14856e-05 17.7652 0.105336 18.0195 0.292869 18.2071C0.480401 18.3946 0.734756 18.5 0.999978 18.5C1.2652 18.5 1.51956 18.3947 1.70711 18.2071L16 3.91425V14.5C16 14.7652 16.1054 15.0196 16.2929 15.2071C16.4804 15.3946 16.7348 15.5 17 15.5C17.2652 15.5 17.5196 15.3946 17.7071 15.2071C17.8946 15.0196 18 14.7652 18 14.5V1.5L17.9999 1.49725Z" fill="#85FD33"/>
</svg>
