<svg width="50" height="50" viewBox="0 0 50 50" fill="none" xmlns="http://www.w3.org/2000/svg">
<path d="M25 0L46.6506 12.5V37.5L25 50L3.34937 37.5V12.5L25 0Z" fill="url(#paint0_linear_3_5148)"/>
<path d="M25 0L46.6506 12.5V37.5L25 50L3.34937 37.5V12.5L25 0Z" fill="black" fill-opacity="0.2"/>
<path d="M24.9999 47.6748L5.36328 36.3376L5.36328 13.6632L24.9999 2.32597L44.6365 13.6632L44.6365 36.3376L24.9999 47.6748Z" fill="url(#paint1_linear_3_5148)"/>
<circle cx="25.0001" cy="25.0001" r="15.9884" fill="url(#paint2_linear_3_5148)"/>
<circle cx="25.0001" cy="25.0001" r="15.9884" fill="black" fill-opacity="0.2"/>
<circle cx="25.0002" cy="25.0002" r="15.407" fill="#00FE00"/>
<circle cx="25.0002" cy="25.0002" r="15.407" fill="url(#paint3_linear_3_5148)"/>
<defs>
<linearGradient id="paint0_linear_3_5148" x1="11.7733" y1="6.5407" x2="38.5174" y2="40.6977" gradientUnits="userSpaceOnUse">
<stop stop-color="#01780D"/>
<stop offset="0.991552" stop-color="#01EA01"/>
</linearGradient>
<linearGradient id="paint1_linear_3_5148" x1="36.9962" y1="41.7425" x2="12.7399" y2="10.763" gradientUnits="userSpaceOnUse">
<stop stop-color="#01780D"/>
<stop offset="0.991552" stop-color="#01EA01"/>
</linearGradient>
<linearGradient id="paint2_linear_3_5148" x1="16.5411" y1="13.1947" x2="33.645" y2="35.0393" gradientUnits="userSpaceOnUse">
<stop stop-color="#19CD2B"/>
<stop offset="0.991552" stop-color="#01EA01"/>
</linearGradient>
<linearGradient id="paint3_linear_3_5148" x1="17.5001" y1="12" x2="33.0001" y2="38.5" gradientUnits="userSpaceOnUse">
<stop stop-color="white" stop-opacity="0.54"/>
<stop offset="1" stop-color="#01E802"/>
</linearGradient>
</defs>
</svg>
