<svg xmlns="http://www.w3.org/2000/svg" viewBox="0 0 1020 1020" width="1020" height="1020"
     preserveAspectRatio="xMidYMid meet" style="width: 100%; height: 100%; transform: translate3d(0px, 0px, 0px);">
    <defs>
        <clipPath id="__lottie_element_4">
            <rect width="1020" height="1020" x="0" y="0"></rect>
        </clipPath>
    </defs>
    <g clip-path="url(#__lottie_element_4)">
        <g transform="matrix(1,0,0,1,510,510)" opacity="1" style="display: block;">
            <path stroke-linecap="butt" stroke-linejoin="miter" fill-opacity="0" stroke-miterlimit="4"
                  stroke="rgb(0,0,0)" stroke-opacity="1" stroke-width="1"
                  d=" M-252.43899536132812,-353.5530090332031 C-308.22698974609375,-353.5530090332031 -353.5530090332031,-308.22698974609375 -353.5530090332031,-252.43899536132812 C-353.5530090332031,-196.6510009765625 -308.22698974609375,-151.32400512695312 -252.43899536132812,-151.32400512695312 C-196.6510009765625,-151.32400512695312 -151.32400512695312,-196.6510009765625 -151.32400512695312,-252.43899536132812 C-151.32400512695312,-308.22698974609375 -196.6510009765625,-353.5530090332031 -252.43899536132812,-353.5530090332031z"></path>
            <g opacity="1" transform="matrix(1,0,0,1,0,0)">
                <path fill="rgb(255,255,255)" fill-opacity="1"
                      d=" M-252.43899536132812,-353.5530090332031 C-308.22698974609375,-353.5530090332031 -353.5530090332031,-308.22698974609375 -353.5530090332031,-252.43899536132812 C-353.5530090332031,-196.6510009765625 -308.22698974609375,-151.32400512695312 -252.43899536132812,-151.32400512695312 C-196.6510009765625,-151.32400512695312 -151.32400512695312,-196.6510009765625 -151.32400512695312,-252.43899536132812 C-151.32400512695312,-308.22698974609375 -196.6510009765625,-353.5530090332031 -252.43899536132812,-353.5530090332031z"></path>
            </g>
        </g>
        <g transform="matrix(1,0,0,1,510.0000305175781,510)" opacity="1" style="display: block;">
            <path stroke-linecap="butt" stroke-linejoin="miter" fill-opacity="0" stroke-miterlimit="4"
                  stroke="rgb(0,0,0)" stroke-opacity="1" stroke-width="1"
                  d=" M252.43899536132812,-353.5530090332031 C196.6510009765625,-353.5530090332031 151.32400512695312,-308.22698974609375 151.32400512695312,-252.43899536132812 C151.32400512695312,-196.6510009765625 196.6510009765625,-151.32400512695312 252.43899536132812,-151.32400512695312 C308.22698974609375,-151.32400512695312 353.5530090332031,-196.6510009765625 353.5530090332031,-252.43899536132812 C353.5530090332031,-308.22698974609375 308.22698974609375,-353.5530090332031 252.43899536132812,-353.5530090332031z"></path>
            <g opacity="1" transform="matrix(1,0,0,1,0,0)">
                <path fill="rgb(255,255,255)" fill-opacity="1"
                      d=" M252.43899536132812,-353.5530090332031 C196.6510009765625,-353.5530090332031 151.32400512695312,-308.22698974609375 151.32400512695312,-252.43899536132812 C151.32400512695312,-196.6510009765625 196.6510009765625,-151.32400512695312 252.43899536132812,-151.32400512695312 C308.22698974609375,-151.32400512695312 353.5530090332031,-196.6510009765625 353.5530090332031,-252.43899536132812 C353.5530090332031,-308.22698974609375 308.22698974609375,-353.5530090332031 252.43899536132812,-353.5530090332031z"></path>
            </g>
        </g>
        <g transform="matrix(1,0,0,1,510.0000305175781,510.0000305175781)" opacity="1" style="display: block;">
            <path stroke-linecap="butt" stroke-linejoin="miter" fill-opacity="0" stroke-miterlimit="4"
                  stroke="rgb(0,0,0)" stroke-opacity="1" stroke-width="1"
                  d=" M252.43899536132812,151.32400512695312 C196.6510009765625,151.32400512695312 151.32400512695312,196.6510009765625 151.32400512695312,252.43899536132812 C151.32400512695312,308.22698974609375 196.6510009765625,353.5530090332031 252.43899536132812,353.5530090332031 C308.22698974609375,353.5530090332031 353.5530090332031,308.22698974609375 353.5530090332031,252.43899536132812 C353.5530090332031,196.6510009765625 308.22698974609375,151.32400512695312 252.43899536132812,151.32400512695312z"></path>
            <g opacity="1" transform="matrix(1,0,0,1,0,0)">
                <path fill="rgb(255,255,255)" fill-opacity="1"
                      d=" M252.43899536132812,151.32400512695312 C196.6510009765625,151.32400512695312 151.32400512695312,196.6510009765625 151.32400512695312,252.43899536132812 C151.32400512695312,308.22698974609375 196.6510009765625,353.5530090332031 252.43899536132812,353.5530090332031 C308.22698974609375,353.5530090332031 353.5530090332031,308.22698974609375 353.5530090332031,252.43899536132812 C353.5530090332031,196.6510009765625 308.22698974609375,151.32400512695312 252.43899536132812,151.32400512695312z"></path>
            </g>
        </g>
        <g transform="matrix(1,0,0,1,510,510.0000305175781)" opacity="1" style="display: block;">
            <path stroke-linecap="butt" stroke-linejoin="miter" fill-opacity="0" stroke-miterlimit="4"
                  stroke="rgb(0,0,0)" stroke-opacity="1" stroke-width="1"
                  d=" M-252.43899536132812,151.32400512695312 C-308.22698974609375,151.32400512695312 -353.5530090332031,196.6510009765625 -353.5530090332031,252.43899536132812 C-353.5530090332031,308.22698974609375 -308.22698974609375,353.5530090332031 -252.43899536132812,353.5530090332031 C-196.6510009765625,353.5530090332031 -151.32400512695312,308.22698974609375 -151.32400512695312,252.43899536132812 C-151.32400512695312,196.6510009765625 -196.6510009765625,151.32400512695312 -252.43899536132812,151.32400512695312z"></path>
            <g opacity="1" transform="matrix(1,0,0,1,0,0)">
                <path fill="rgb(255,255,255)" fill-opacity="1"
                      d=" M-252.43899536132812,151.32400512695312 C-308.22698974609375,151.32400512695312 -353.5530090332031,196.6510009765625 -353.5530090332031,252.43899536132812 C-353.5530090332031,308.22698974609375 -308.22698974609375,353.5530090332031 -252.43899536132812,353.5530090332031 C-196.6510009765625,353.5530090332031 -151.32400512695312,308.22698974609375 -151.32400512695312,252.43899536132812 C-151.32400512695312,196.6510009765625 -196.6510009765625,151.32400512695312 -252.43899536132812,151.32400512695312z"></path>
            </g>
        </g>
        <g transform="matrix(1,0,0,1,510,510)" opacity="1" style="display: block;">
            <path stroke-linecap="butt" stroke-linejoin="miter" fill-opacity="0" stroke-miterlimit="4"
                  stroke="rgb(0,0,0)" stroke-opacity="1" stroke-width="1"
                  d=" M0,-353.5530090332031 C-55.78799819946289,-353.5530090332031 -101.11499786376953,-308.22698974609375 -101.11499786376953,-252.43899536132812 C-101.11499786376953,-196.6510009765625 -55.78799819946289,-151.32400512695312 0,-151.32400512695312 C55.78799819946289,-151.32400512695312 101.11499786376953,-196.6510009765625 101.11499786376953,-252.43899536132812 C101.11499786376953,-308.22698974609375 55.78799819946289,-353.5530090332031 0,-353.5530090332031z"></path>
            <g opacity="1" transform="matrix(1,0,0,1,0,0)">
                <path fill="rgb(255,255,255)" fill-opacity="1"
                      d=" M0,-353.5530090332031 C-55.78799819946289,-353.5530090332031 -101.11499786376953,-308.22698974609375 -101.11499786376953,-252.43899536132812 C-101.11499786376953,-196.6510009765625 -55.78799819946289,-151.32400512695312 0,-151.32400512695312 C55.78799819946289,-151.32400512695312 101.11499786376953,-196.6510009765625 101.11499786376953,-252.43899536132812 C101.11499786376953,-308.22698974609375 55.78799819946289,-353.5530090332031 0,-353.5530090332031z"></path>
            </g>
        </g>
        <g transform="matrix(1,0,0,1,510.0000305175781,510)" opacity="1" style="display: block;">
            <path stroke-linecap="butt" stroke-linejoin="miter" fill-opacity="0" stroke-miterlimit="4"
                  stroke="rgb(0,0,0)" stroke-opacity="1" stroke-width="1"
                  d=" M252.43899536132812,-101.11499786376953 C196.6510009765625,-101.11499786376953 151.32400512695312,-55.78799819946289 151.32400512695312,0 C151.32400512695312,55.78799819946289 196.6510009765625,101.11499786376953 252.43899536132812,101.11499786376953 C308.22698974609375,101.11499786376953 353.5530090332031,55.78799819946289 353.5530090332031,0 C353.5530090332031,-55.78799819946289 308.22698974609375,-101.11499786376953 252.43899536132812,-101.11499786376953z"></path>
            <g opacity="1" transform="matrix(1,0,0,1,0,0)">
                <path fill="rgb(255,255,255)" fill-opacity="1"
                      d=" M252.43899536132812,-101.11499786376953 C196.6510009765625,-101.11499786376953 151.32400512695312,-55.78799819946289 151.32400512695312,0 C151.32400512695312,55.78799819946289 196.6510009765625,101.11499786376953 252.43899536132812,101.11499786376953 C308.22698974609375,101.11499786376953 353.5530090332031,55.78799819946289 353.5530090332031,0 C353.5530090332031,-55.78799819946289 308.22698974609375,-101.11499786376953 252.43899536132812,-101.11499786376953z"></path>
            </g>
        </g>
        <g transform="matrix(1,0,0,1,510,510)" opacity="1" style="display: block;">
            <path stroke-linecap="butt" stroke-linejoin="miter" fill-opacity="0" stroke-miterlimit="4"
                  stroke="rgb(0,0,0)" stroke-opacity="1" stroke-width="1"
                  d=" M-252.43899536132812,-101.11499786376953 C-308.22698974609375,-101.11499786376953 -353.5530090332031,-55.78799819946289 -353.5530090332031,0 C-353.5530090332031,55.78799819946289 -308.22698974609375,101.11499786376953 -252.43899536132812,101.11499786376953 C-196.6510009765625,101.11499786376953 -151.32400512695312,55.78799819946289 -151.32400512695312,0 C-151.32400512695312,-55.78799819946289 -196.6510009765625,-101.11499786376953 -252.43899536132812,-101.11499786376953z"></path>
            <g opacity="1" transform="matrix(1,0,0,1,0,0)">
                <path fill="rgb(255,255,255)" fill-opacity="1"
                      d=" M-252.43899536132812,-101.11499786376953 C-308.22698974609375,-101.11499786376953 -353.5530090332031,-55.78799819946289 -353.5530090332031,0 C-353.5530090332031,55.78799819946289 -308.22698974609375,101.11499786376953 -252.43899536132812,101.11499786376953 C-196.6510009765625,101.11499786376953 -151.32400512695312,55.78799819946289 -151.32400512695312,0 C-151.32400512695312,-55.78799819946289 -196.6510009765625,-101.11499786376953 -252.43899536132812,-101.11499786376953z"></path>
            </g>
        </g>
        <g transform="matrix(1,0,0,1,510,510.0000305175781)" opacity="1" style="display: block;">
            <path stroke-linecap="butt" stroke-linejoin="miter" fill-opacity="0" stroke-miterlimit="4"
                  stroke="rgb(0,0,0)" stroke-opacity="1" stroke-width="1"
                  d=" M0,151.32400512695312 C-55.78799819946289,151.32400512695312 -101.11499786376953,196.6510009765625 -101.11499786376953,252.43899536132812 C-101.11499786376953,308.22698974609375 -55.78799819946289,353.5530090332031 0,353.5530090332031 C55.78799819946289,353.5530090332031 101.11499786376953,308.22698974609375 101.11499786376953,252.43899536132812 C101.11499786376953,196.6510009765625 55.78799819946289,151.32400512695312 0,151.32400512695312z"></path>
            <g opacity="1" transform="matrix(1,0,0,1,0,0)">
                <path fill="rgb(255,255,255)" fill-opacity="1"
                      d=" M0,151.32400512695312 C-55.78799819946289,151.32400512695312 -101.11499786376953,196.6510009765625 -101.11499786376953,252.43899536132812 C-101.11499786376953,308.22698974609375 -55.78799819946289,353.5530090332031 0,353.5530090332031 C55.78799819946289,353.5530090332031 101.11499786376953,308.22698974609375 101.11499786376953,252.43899536132812 C101.11499786376953,196.6510009765625 55.78799819946289,151.32400512695312 0,151.32400512695312z"></path>
            </g>
        </g>
        <g transform="matrix(0.6325778365135193,0.7744967937469482,-0.7744967937469482,0.6325778365135193,510,510)"
           opacity="1" style="display: none;">
            <path stroke-linecap="butt" stroke-linejoin="miter" fill-opacity="0" stroke-miterlimit="4"
                  stroke="rgb(0,0,0)" stroke-opacity="1" stroke-width="1"
                  d=" M-301.4280090332031,-234.48300170898438 C-338.3869934082031,-234.48300170898438 -369.07000732421875,-264.4679870605469 -369.07000732421875,-302.125 C-369.07000732421875,-339.7820129394531 -339.0849914550781,-369.76800537109375 -301.4280090332031,-369.76800537109375 C-263.77099609375,-369.76800537109375 -233.78599548339844,-339.7820129394531 -233.78599548339844,-302.125 C-233.78599548339844,-264.4679870605469 -264.468994140625,-234.48300170898438 -301.4280090332031,-234.48300170898438z M301.60198974609375,-234.65699768066406 C264.64300537109375,-234.65699768066406 233.9600067138672,-264.64300537109375 233.9600067138672,-302.29998779296875 C233.9600067138672,-339.9570007324219 263.94500732421875,-369.9419860839844 301.60198974609375,-369.9419860839844 C339.2590026855469,-369.9419860839844 369.2449951171875,-339.9570007324219 369.2449951171875,-302.29998779296875 C369.2449951171875,-264.64300537109375 338.5610046386719,-234.65699768066406 301.60198974609375,-234.65699768066406z M-301.95098876953125,369.5929870605469 C-338.9100036621094,369.5929870605469 -369.5929870605469,339.6080017089844 -369.5929870605469,301.95098876953125 C-369.5929870605469,264.29400634765625 -339.6080017089844,234.3090057373047 -301.95098876953125,234.3090057373047 C-264.29400634765625,234.3090057373047 -234.3090057373047,264.29400634765625 -234.3090057373047,301.95098876953125 C-234.3090057373047,339.6080017089844 -264.99200439453125,369.5929870605469 -301.95098876953125,369.5929870605469z M301.6889953613281,369.3320007324219 C264.7300109863281,369.3320007324219 234.0469970703125,339.34600830078125 234.0469970703125,301.6889953613281 C234.0469970703125,264.0320129394531 264.0320129394531,234.0469970703125 301.6889953613281,234.0469970703125 C339.34600830078125,234.0469970703125 369.3320007324219,264.0320129394531 369.3320007324219,301.6889953613281 C369.3320007324219,339.34600830078125 338.64801025390625,369.3320007324219 301.6889953613281,369.3320007324219z"></path>
            <g opacity="1" transform="matrix(1,0,0,1,0,0)">
                <path fill="rgb(255,255,255)" fill-opacity="1"
                      d=" M-301.4280090332031,-234.48300170898438 C-338.3869934082031,-234.48300170898438 -369.07000732421875,-264.4679870605469 -369.07000732421875,-302.125 C-369.07000732421875,-339.7820129394531 -339.0849914550781,-369.76800537109375 -301.4280090332031,-369.76800537109375 C-263.77099609375,-369.76800537109375 -233.78599548339844,-339.7820129394531 -233.78599548339844,-302.125 C-233.78599548339844,-264.4679870605469 -264.468994140625,-234.48300170898438 -301.4280090332031,-234.48300170898438z"></path>
            </g>
            <g opacity="1" transform="matrix(1,0,0,1,0,0)">
                <path fill="rgb(255,255,255)" fill-opacity="1"
                      d=" M301.60198974609375,-234.65699768066406 C264.64300537109375,-234.65699768066406 233.9600067138672,-264.64300537109375 233.9600067138672,-302.29998779296875 C233.9600067138672,-339.9570007324219 263.94500732421875,-369.9419860839844 301.60198974609375,-369.9419860839844 C339.2590026855469,-369.9419860839844 369.2449951171875,-339.9570007324219 369.2449951171875,-302.29998779296875 C369.2449951171875,-264.64300537109375 338.5610046386719,-234.65699768066406 301.60198974609375,-234.65699768066406z"></path>
            </g>
            <g opacity="1" transform="matrix(1,0,0,1,0,0)">
                <path fill="rgb(255,255,255)" fill-opacity="1"
                      d=" M-301.95098876953125,369.5929870605469 C-338.9100036621094,369.5929870605469 -369.5929870605469,339.6080017089844 -369.5929870605469,301.95098876953125 C-369.5929870605469,264.29400634765625 -339.6080017089844,234.3090057373047 -301.95098876953125,234.3090057373047 C-264.29400634765625,234.3090057373047 -234.3090057373047,264.29400634765625 -234.3090057373047,301.95098876953125 C-234.3090057373047,339.6080017089844 -264.99200439453125,369.5929870605469 -301.95098876953125,369.5929870605469z"></path>
            </g>
            <g opacity="1" transform="matrix(1,0,0,1,0,0)">
                <path fill="rgb(255,255,255)" fill-opacity="1"
                      d=" M301.6889953613281,369.3320007324219 C264.7300109863281,369.3320007324219 234.0469970703125,339.34600830078125 234.0469970703125,301.6889953613281 C234.0469970703125,264.0320129394531 264.0320129394531,234.0469970703125 301.6889953613281,234.0469970703125 C339.34600830078125,234.0469970703125 369.3320007324219,264.0320129394531 369.3320007324219,301.6889953613281 C369.3320007324219,339.34600830078125 338.64801025390625,369.3320007324219 301.6889953613281,369.3320007324219z"></path>
            </g>
        </g>
        <g transform="matrix(1,0,0,1,510,510)" opacity="1" style="display: block;">
            <path stroke-linecap="butt" stroke-linejoin="miter" fill-opacity="0" stroke-miterlimit="4"
                  stroke="rgb(0,0,0)" stroke-opacity="1" stroke-width="1"
                  d=" M0,-101.11499786376953 C-55.78799819946289,-101.11499786376953 -101.11499786376953,-55.78799819946289 -101.11499786376953,0 C-101.11499786376953,55.78799819946289 -55.78799819946289,101.11499786376953 0,101.11499786376953 C55.78799819946289,101.11499786376953 101.11499786376953,55.78799819946289 101.11499786376953,0 C101.11499786376953,-55.78799819946289 55.78799819946289,-101.11499786376953 0,-101.11499786376953z"></path>
            <g opacity="1" transform="matrix(1,0,0,1,0,0)">
                <path fill="rgb(255,255,255)" fill-opacity="1"
                      d=" M0,-101.11499786376953 C-55.78799819946289,-101.11499786376953 -101.11499786376953,-55.78799819946289 -101.11499786376953,0 C-101.11499786376953,55.78799819946289 -55.78799819946289,101.11499786376953 0,101.11499786376953 C55.78799819946289,101.11499786376953 101.11499786376953,55.78799819946289 101.11499786376953,0 C101.11499786376953,-55.78799819946289 55.78799819946289,-101.11499786376953 0,-101.11499786376953z"></path>
            </g>
        </g>
    </g>
</svg>