<svg xmlns="http://www.w3.org/2000/svg" viewBox="0 0 1020 1020" width="1020" height="1020"
     preserveAspectRatio="xMidYMid meet" style="width: 100%; height: 100%; transform: translate3d(0px, 0px, 0px);">
    <defs>
        <clipPath id="__lottie_element_4">
            <rect width="1020" height="1020" x="0" y="0"></rect>
        </clipPath>
    </defs>
    <g clip-path="url(#__lottie_element_4)">
        <g transform="matrix(1,0,0,1,612.2730102539062,609.907958984375)" opacity="1" style="display: block;">
            <path stroke-linecap="butt" stroke-linejoin="miter" fill-opacity="0" stroke-miterlimit="4"
                  stroke="rgb(0,0,0)" stroke-opacity="1" stroke-width="1"
                  d=" M-252.43899536132812,-320.31298828125 C-289.8869934082031,-320.31298828125 -320.31298828125,-289.8869934082031 -320.31298828125,-252.43899536132812 C-320.31298828125,-214.99099731445312 -289.8869934082031,-184.56399536132812 -252.43899536132812,-184.56399536132812 C-214.99099731445312,-184.56399536132812 -184.56399536132812,-214.99099731445312 -184.56399536132812,-252.43899536132812 C-184.56399536132812,-289.8869934082031 -214.99099731445312,-320.31298828125 -252.43899536132812,-320.31298828125z"></path>
            <g opacity="1" transform="matrix(1,0,0,1,0,0)">
                <path fill="rgb(255,255,255)" fill-opacity="1"
                      d=" M-252.43899536132812,-320.31298828125 C-289.8869934082031,-320.31298828125 -320.31298828125,-289.8869934082031 -320.31298828125,-252.43899536132812 C-320.31298828125,-214.99099731445312 -289.8869934082031,-184.56399536132812 -252.43899536132812,-184.56399536132812 C-214.99099731445312,-184.56399536132812 -184.56399536132812,-214.99099731445312 -184.56399536132812,-252.43899536132812 C-184.56399536132812,-289.8869934082031 -214.99099731445312,-320.31298828125 -252.43899536132812,-320.31298828125z"></path>
            </g>
        </g>
        <g transform="matrix(1,0,0,1,407.0920104980469,609.907958984375)" opacity="1" style="display: block;">
            <path stroke-linecap="butt" stroke-linejoin="miter" fill-opacity="0" stroke-miterlimit="4"
                  stroke="rgb(0,0,0)" stroke-opacity="1" stroke-width="1"
                  d=" M252.43899536132812,-320.010986328125 C215.1580047607422,-320.010986328125 184.86700439453125,-289.7200012207031 184.86700439453125,-252.43899536132812 C184.86700439453125,-215.1580047607422 215.1580047607422,-184.86700439453125 252.43899536132812,-184.86700439453125 C289.7200012207031,-184.86700439453125 320.010986328125,-215.1580047607422 320.010986328125,-252.43899536132812 C320.010986328125,-289.7200012207031 289.7200012207031,-320.010986328125 252.43899536132812,-320.010986328125z"></path>
            <g opacity="1" transform="matrix(1,0,0,1,0,0)">
                <path fill="rgb(255,255,255)" fill-opacity="1"
                      d=" M252.43899536132812,-320.010986328125 C215.1580047607422,-320.010986328125 184.86700439453125,-289.7200012207031 184.86700439453125,-252.43899536132812 C184.86700439453125,-215.1580047607422 215.1580047607422,-184.86700439453125 252.43899536132812,-184.86700439453125 C289.7200012207031,-184.86700439453125 320.010986328125,-215.1580047607422 320.010986328125,-252.43899536132812 C320.010986328125,-289.7200012207031 289.7200012207031,-320.010986328125 252.43899536132812,-320.010986328125z"></path>
            </g>
        </g>
        <g transform="matrix(1,0,0,1,407.4090270996094,410.0650329589844)" opacity="1" style="display: block;">
            <path stroke-linecap="butt" stroke-linejoin="miter" fill-opacity="0" stroke-miterlimit="4"
                  stroke="rgb(0,0,0)" stroke-opacity="1" stroke-width="1"
                  d=" M252.43899536132812,185.21499633789062 C215.35000610351562,185.21499633789062 185.21499633789062,215.35000610351562 185.21499633789062,252.43899536132812 C185.21499633789062,289.52801513671875 215.35000610351562,319.6619873046875 252.43899536132812,319.6619873046875 C289.52801513671875,319.6619873046875 319.6619873046875,289.52801513671875 319.6619873046875,252.43899536132812 C319.6619873046875,215.35000610351562 289.52801513671875,185.21499633789062 252.43899536132812,185.21499633789062z"></path>
            <g opacity="1" transform="matrix(1,0,0,1,0,0)">
                <path fill="rgb(255,255,255)" fill-opacity="1"
                      d=" M252.43899536132812,185.21499633789062 C215.35000610351562,185.21499633789062 185.21499633789062,215.35000610351562 185.21499633789062,252.43899536132812 C185.21499633789062,289.52801513671875 215.35000610351562,319.6619873046875 252.43899536132812,319.6619873046875 C289.52801513671875,319.6619873046875 319.6619873046875,289.52801513671875 319.6619873046875,252.43899536132812 C319.6619873046875,215.35000610351562 289.52801513671875,185.21499633789062 252.43899536132812,185.21499633789062z"></path>
            </g>
        </g>
        <g transform="matrix(1,0,0,1,612.5910034179688,410.0650329589844)" opacity="1" style="display: block;">
            <path stroke-linecap="butt" stroke-linejoin="miter" fill-opacity="0" stroke-miterlimit="4"
                  stroke="rgb(0,0,0)" stroke-opacity="1" stroke-width="1"
                  d=" M-252.43899536132812,184.83599853515625 C-289.73699951171875,184.83599853515625 -320.0409851074219,215.14100646972656 -320.0409851074219,252.43899536132812 C-320.0409851074219,289.73699951171875 -289.73699951171875,320.0409851074219 -252.43899536132812,320.0409851074219 C-215.14100646972656,320.0409851074219 -184.83599853515625,289.73699951171875 -184.83599853515625,252.43899536132812 C-184.83599853515625,215.14100646972656 -215.14100646972656,184.83599853515625 -252.43899536132812,184.83599853515625z"></path>
            <g opacity="1" transform="matrix(1,0,0,1,0,0)">
                <path fill="rgb(255,255,255)" fill-opacity="1"
                      d=" M-252.43899536132812,184.83599853515625 C-289.73699951171875,184.83599853515625 -320.0409851074219,215.14100646972656 -320.0409851074219,252.43899536132812 C-320.0409851074219,289.73699951171875 -289.73699951171875,320.0409851074219 -252.43899536132812,320.0409851074219 C-215.14100646972656,320.0409851074219 -184.83599853515625,289.73699951171875 -184.83599853515625,252.43899536132812 C-184.83599853515625,215.14100646972656 -215.14100646972656,184.83599853515625 -252.43899536132812,184.83599853515625z"></path>
            </g>
        </g>
        <g transform="matrix(1,0,0,1,510.7810363769531,381.21234130859375)" opacity="1" style="display: none;">
            <path stroke-linecap="butt" stroke-linejoin="miter" fill-opacity="0" stroke-miterlimit="4"
                  stroke="rgb(0,0,0)" stroke-opacity="1" stroke-width="1"
                  d=" M0,-320.6619873046875 C-37.64099884033203,-320.6619873046875 -68.2229995727539,-290.0799865722656 -68.2229995727539,-252.43899536132812 C-68.2229995727539,-214.79800415039062 -37.64099884033203,-184.21499633789062 0,-184.21499633789062 C37.64099884033203,-184.21499633789062 68.2229995727539,-214.79800415039062 68.2229995727539,-252.43899536132812 C68.2229995727539,-290.0799865722656 37.64099884033203,-320.6619873046875 0,-320.6619873046875z"></path>
            <g opacity="1" transform="matrix(1,0,0,1,0,0)">
                <path fill="rgb(255,255,255)" fill-opacity="1"
                      d=" M0,-320.6619873046875 C-37.64099884033203,-320.6619873046875 -68.2229995727539,-290.0799865722656 -68.2229995727539,-252.43899536132812 C-68.2229995727539,-214.79800415039062 -37.64099884033203,-184.21499633789062 0,-184.21499633789062 C37.64099884033203,-184.21499633789062 68.2229995727539,-214.79800415039062 68.2229995727539,-252.43899536132812 C68.2229995727539,-290.0799865722656 37.64099884033203,-320.6619873046875 0,-320.6619873046875z"></path>
            </g>
        </g>
        <g transform="matrix(1,0,0,1,638.885009765625,509.1138610839844)" opacity="1" style="display: none;">
            <path stroke-linecap="butt" stroke-linejoin="miter" fill-opacity="0" stroke-miterlimit="4"
                  stroke="rgb(0,0,0)" stroke-opacity="1" stroke-width="1"
                  d=" M252.43899536132812,-68.2229995727539 C214.79800415039062,-68.2229995727539 184.21499633789062,-37.64099884033203 184.21499633789062,0 C184.21499633789062,37.64099884033203 214.79800415039062,68.2229995727539 252.43899536132812,68.2229995727539 C290.0799865722656,68.2229995727539 320.6619873046875,37.64099884033203 320.6619873046875,0 C320.6619873046875,-37.64099884033203 290.0799865722656,-68.2229995727539 252.43899536132812,-68.2229995727539z"></path>
            <g opacity="1" transform="matrix(1,0,0,1,0,0)">
                <path fill="rgb(255,255,255)" fill-opacity="1"
                      d=" M252.43899536132812,-68.2229995727539 C214.79800415039062,-68.2229995727539 184.21499633789062,-37.64099884033203 184.21499633789062,0 C184.21499633789062,37.64099884033203 214.79800415039062,68.2229995727539 252.43899536132812,68.2229995727539 C290.0799865722656,68.2229995727539 320.6619873046875,37.64099884033203 320.6619873046875,0 C320.6619873046875,-37.64099884033203 290.0799865722656,-68.2229995727539 252.43899536132812,-68.2229995727539z"></path>
            </g>
        </g>
        <g transform="matrix(1,0,0,1,381.07110595703125,510.4394226074219)" opacity="1" style="display: none;">
            <path stroke-linecap="butt" stroke-linejoin="miter" fill-opacity="0" stroke-miterlimit="4"
                  stroke="rgb(0,0,0)" stroke-opacity="1" stroke-width="1"
                  d=" M-252.43899536132812,-67.7770004272461 C-289.8330078125,-67.7770004272461 -320.2149963378906,-37.39400100708008 -320.2149963378906,0 C-320.2149963378906,37.39400100708008 -289.8330078125,67.7770004272461 -252.43899536132812,67.7770004272461 C-215.0449981689453,67.7770004272461 -184.66200256347656,37.39400100708008 -184.66200256347656,0 C-184.66200256347656,-37.39400100708008 -215.0449981689453,-67.7770004272461 -252.43899536132812,-67.7770004272461z"></path>
            <g opacity="1" transform="matrix(1,0,0,1,0,0)">
                <path fill="rgb(255,255,255)" fill-opacity="1"
                      d=" M-252.43899536132812,-67.7770004272461 C-289.8330078125,-67.7770004272461 -320.2149963378906,-37.39400100708008 -320.2149963378906,0 C-320.2149963378906,37.39400100708008 -289.8330078125,67.7770004272461 -252.43899536132812,67.7770004272461 C-215.0449981689453,67.7770004272461 -184.66200256347656,37.39400100708008 -184.66200256347656,0 C-184.66200256347656,-37.39400100708008 -215.0449981689453,-67.7770004272461 -252.43899536132812,-67.7770004272461z"></path>
            </g>
        </g>
        <g transform="matrix(1,0,0,1,509.5605773925781,638.6380615234375)" opacity="1" style="display: none;">
            <path stroke-linecap="butt" stroke-linejoin="miter" fill-opacity="0" stroke-miterlimit="4"
                  stroke="rgb(0,0,0)" stroke-opacity="1" stroke-width="1"
                  d=" M0,186.43899536132812 C-36.41400146484375,186.43899536132812 -66,216.02499389648438 -66,252.43899536132812 C-66,288.8529968261719 -36.41400146484375,318.4389953613281 0,318.4389953613281 C36.41400146484375,318.4389953613281 66,288.8529968261719 66,252.43899536132812 C66,216.02499389648438 36.41400146484375,186.43899536132812 0,186.43899536132812z"></path>
            <g opacity="1" transform="matrix(1,0,0,1,0,0)">
                <path fill="rgb(255,255,255)" fill-opacity="1"
                      d=" M0,186.43899536132812 C-36.41400146484375,186.43899536132812 -66,216.02499389648438 -66,252.43899536132812 C-66,288.8529968261719 -36.41400146484375,318.4389953613281 0,318.4389953613281 C36.41400146484375,318.4389953613281 66,288.8529968261719 66,252.43899536132812 C66,216.02499389648438 36.41400146484375,186.43899536132812 0,186.43899536132812z"></path>
            </g>
        </g>
        <g transform="matrix(0,1,-1,0,510,510)" opacity="1" style="display: block;">
            <path stroke-linecap="butt" stroke-linejoin="miter" fill-opacity="0" stroke-miterlimit="4"
                  stroke="rgb(0,0,0)" stroke-opacity="1" stroke-width="1"
                  d=" M-301.4280090332031,-234.48300170898438 C-338.3869934082031,-234.48300170898438 -369.07000732421875,-264.4679870605469 -369.07000732421875,-302.125 C-369.07000732421875,-339.7820129394531 -339.0849914550781,-369.76800537109375 -301.4280090332031,-369.76800537109375 C-263.77099609375,-369.76800537109375 -233.78599548339844,-339.7820129394531 -233.78599548339844,-302.125 C-233.78599548339844,-264.4679870605469 -264.468994140625,-234.48300170898438 -301.4280090332031,-234.48300170898438z M301.60198974609375,-234.65699768066406 C264.64300537109375,-234.65699768066406 233.9600067138672,-264.64300537109375 233.9600067138672,-302.29998779296875 C233.9600067138672,-339.9570007324219 263.94500732421875,-369.9419860839844 301.60198974609375,-369.9419860839844 C339.2590026855469,-369.9419860839844 369.2449951171875,-339.9570007324219 369.2449951171875,-302.29998779296875 C369.2449951171875,-264.64300537109375 338.5610046386719,-234.65699768066406 301.60198974609375,-234.65699768066406z M-301.95098876953125,369.5929870605469 C-338.9100036621094,369.5929870605469 -369.5929870605469,339.6080017089844 -369.5929870605469,301.95098876953125 C-369.5929870605469,264.29400634765625 -339.6080017089844,234.3090057373047 -301.95098876953125,234.3090057373047 C-264.29400634765625,234.3090057373047 -234.3090057373047,264.29400634765625 -234.3090057373047,301.95098876953125 C-234.3090057373047,339.6080017089844 -264.99200439453125,369.5929870605469 -301.95098876953125,369.5929870605469z M301.6889953613281,369.3320007324219 C264.7300109863281,369.3320007324219 234.0469970703125,339.34600830078125 234.0469970703125,301.6889953613281 C234.0469970703125,264.0320129394531 264.0320129394531,234.0469970703125 301.6889953613281,234.0469970703125 C339.34600830078125,234.0469970703125 369.3320007324219,264.0320129394531 369.3320007324219,301.6889953613281 C369.3320007324219,339.34600830078125 338.64801025390625,369.3320007324219 301.6889953613281,369.3320007324219z"></path>
            <g opacity="1" transform="matrix(1,0,0,1,0,0)">
                <path fill="rgb(255,255,255)" fill-opacity="1"
                      d=" M-301.4280090332031,-234.48300170898438 C-338.3869934082031,-234.48300170898438 -369.07000732421875,-264.4679870605469 -369.07000732421875,-302.125 C-369.07000732421875,-339.7820129394531 -339.0849914550781,-369.76800537109375 -301.4280090332031,-369.76800537109375 C-263.77099609375,-369.76800537109375 -233.78599548339844,-339.7820129394531 -233.78599548339844,-302.125 C-233.78599548339844,-264.4679870605469 -264.468994140625,-234.48300170898438 -301.4280090332031,-234.48300170898438z"></path>
            </g>
            <g opacity="1" transform="matrix(1,0,0,1,0,0)">
                <path fill="rgb(255,255,255)" fill-opacity="1"
                      d=" M301.60198974609375,-234.65699768066406 C264.64300537109375,-234.65699768066406 233.9600067138672,-264.64300537109375 233.9600067138672,-302.29998779296875 C233.9600067138672,-339.9570007324219 263.94500732421875,-369.9419860839844 301.60198974609375,-369.9419860839844 C339.2590026855469,-369.9419860839844 369.2449951171875,-339.9570007324219 369.2449951171875,-302.29998779296875 C369.2449951171875,-264.64300537109375 338.5610046386719,-234.65699768066406 301.60198974609375,-234.65699768066406z"></path>
            </g>
            <g opacity="1" transform="matrix(1,0,0,1,0,0)">
                <path fill="rgb(255,255,255)" fill-opacity="1"
                      d=" M-301.95098876953125,369.5929870605469 C-338.9100036621094,369.5929870605469 -369.5929870605469,339.6080017089844 -369.5929870605469,301.95098876953125 C-369.5929870605469,264.29400634765625 -339.6080017089844,234.3090057373047 -301.95098876953125,234.3090057373047 C-264.29400634765625,234.3090057373047 -234.3090057373047,264.29400634765625 -234.3090057373047,301.95098876953125 C-234.3090057373047,339.6080017089844 -264.99200439453125,369.5929870605469 -301.95098876953125,369.5929870605469z"></path>
            </g>
            <g opacity="1" transform="matrix(1,0,0,1,0,0)">
                <path fill="rgb(255,255,255)" fill-opacity="1"
                      d=" M301.6889953613281,369.3320007324219 C264.7300109863281,369.3320007324219 234.0469970703125,339.34600830078125 234.0469970703125,301.6889953613281 C234.0469970703125,264.0320129394531 264.0320129394531,234.0469970703125 301.6889953613281,234.0469970703125 C339.34600830078125,234.0469970703125 369.3320007324219,264.0320129394531 369.3320007324219,301.6889953613281 C369.3320007324219,339.34600830078125 338.64801025390625,369.3320007324219 301.6889953613281,369.3320007324219z"></path>
            </g>
        </g>
        <g transform="matrix(1,0,0,1,510,510)" opacity="1" style="display: block;">
            <path stroke-linecap="butt" stroke-linejoin="miter" fill-opacity="0" stroke-miterlimit="4"
                  stroke="rgb(0,0,0)" stroke-opacity="1" stroke-width="1"
                  d=" M0,-67 C-36.965999603271484,-67 -67,-36.965999603271484 -67,0 C-67,36.965999603271484 -36.965999603271484,67 0,67 C36.965999603271484,67 67,36.965999603271484 67,0 C67,-36.965999603271484 36.965999603271484,-67 0,-67z"></path>
            <g opacity="1" transform="matrix(1,0,0,1,0,0)">
                <path fill="rgb(255,255,255)" fill-opacity="1"
                      d=" M0,-67 C-36.965999603271484,-67 -67,-36.965999603271484 -67,0 C-67,36.965999603271484 -36.965999603271484,67 0,67 C36.965999603271484,67 67,36.965999603271484 67,0 C67,-36.965999603271484 36.965999603271484,-67 0,-67z"></path>
            </g>
        </g>
    </g>
</svg>