<?xml version="1.0" encoding="utf-8"?>
<!-- Generator: Adobe Illustrator 26.0.2, SVG Export Plug-In . SVG Version: 6.00 Build 0)  -->
<svg version="1.1" id="Bold" xmlns="http://www.w3.org/2000/svg" xmlns:xlink="http://www.w3.org/1999/xlink" x="0px" y="0px"
     viewBox="0 0 500 500" style="enable-background:new 0 0 500 500;" xml:space="preserve">
<style type="text/css">
	.st0{fill:#FFFFFF;}
	.st1{fill-rule:evenodd;clip-rule:evenodd;}
	.st2{fill:#E40061;}
	.st3{fill-rule:evenodd;clip-rule:evenodd;fill:#FFFFFF;}
</style>
    <path class="st0" d="M403.6,148c-45.8-32.9-88.5-34.2-96.6-34.4l-5.2,5c58.4,16.3,86.7,41.9,86.7,41.9
	c-50.2-24.3-97.6-32.8-138.5-33.3c-41,0.5-88.3,9-138.5,33.3c0,0,28.2-25.5,86.7-41.9l-5.2-5c-8.2,0.2-50.9,1.6-96.7,34.4
	c0,0-51.2,85.9-51.2,191.3c1.8-2.1,31.7,45.4,109.2,47c0,0,13-14.5,22.4-27.3c-45.2-12.8-62.1-38.4-62.1-38.4
	c46.8,28.9,90.7,40.1,135.3,38.7c44.6,1.6,88.4-9.6,135.3-38.7c0,0-17.1,25.5-62.1,38.4c9.4,12.8,22.4,27.3,22.4,27.3
	c77.4-1.7,107.4-49,109.2-47C454.8,233.9,403.6,148,403.6,148z M187,306.4c-19.8,0-35.8-16.3-35.8-36.5s16-36.5,35.8-36.5v0.2
	c19.5,0,35.7,16.3,35.8,36.5C222.8,290.1,206.9,306.4,187,306.4z M313,306.4c-19.8,0-35.8-16.3-35.8-36.3
	c0-20.2,16.1-36.5,35.8-36.5v-0.2c19.8,0,35.8,16.3,35.8,36.5S332.8,306.4,313,306.4z"/>
</svg>
