<?xml version="1.0" encoding="utf-8"?>
<!-- Generator: Adobe Illustrator 26.0.2, SVG Export Plug-In . SVG Version: 6.00 Build 0)  -->
<svg version="1.1" id="Layer_1" xmlns="http://www.w3.org/2000/svg" xmlns:xlink="http://www.w3.org/1999/xlink" x="0px"
     y="0px"
     viewBox="0 0 1440.1 77.9" style="enable-background:new 0 0 1440.1 77.9;" xml:space="preserve">
<style type="text/css">
	.st0{fill:url(#SVGID_1_);}
</style>
    <g>
	<rect y="4.7" width="1440.1" height="73.2"/>
        <g id="nav">

			<linearGradient id="SVGID_1_" gradientUnits="userSpaceOnUse" x1="-3.897148e-07" y1="977.6778" x2="1440.1"
                            y2="977.6778" gradientTransform="matrix(-1 0 0 -1 1440.1 984.8278)">
			<stop offset="0" style="stop-color:#2afe30"/>
                <stop offset="1" style="stop-color:#1b8520 "/>
		</linearGradient>
            <polygon class="st0" points="236.3,3.7 239.9,0 299.4,0 303.1,3.7 491.8,3.7 495,0.5 512.5,0.5 515.6,3.7 541,3.7 543.8,0.9
			550,0.9 552.8,3.7 871.3,3.7 873.7,1.2 890,1.2 892.4,3.7 1437,3.7 1437,4.1 1440.1,4.1 1440.1,11.4 1413,11.4 1407.4,5.8
			1239.8,5.8 1231.2,14.3 1073.9,14.3 1066.4,6.8 895.6,6.8 894.5,5.8 869.2,5.8 862.8,12.1 857.9,12.1 851.6,5.8 599.2,5.8
			597.9,7.1 556.2,7.1 554.9,5.8 538.9,5.8 536.2,8.4 520.4,8.4 517.8,5.8 0,5.8 0,3.7 		"/>
	</g>
</g>
</svg>
