<?xml version="1.0" encoding="utf-8"?>
<!-- Generator: Adobe Illustrator 26.0.2, SVG Export Plug-In . SVG Version: 6.00 Build 0)  -->
<svg version="1.1" id="Bold" xmlns="http://www.w3.org/2000/svg" xmlns:xlink="http://www.w3.org/1999/xlink" x="0px"
     y="0px"
     viewBox="0 0 500 500" style="enable-background:new 0 0 500 500;" xml:space="preserve">
<style type="text/css">
	.st0{fill:#FFFFFF;}
	.st1{fill-rule:evenodd;clip-rule:evenodd;}
	.st2{fill:#E40061;}
	.st3{fill-rule:evenodd;clip-rule:evenodd;fill:#FFFFFF;}
</style>
    <path class="st0" d="M429.7,120.5l34.2-32.6v-7.2H345.6l-84.3,209.8L165.5,80.7h-124v7.2l39.8,47.9c3.9,3.5,5.9,8.8,5.4,14v188.6
	c1.3,6.8-1,13.8-5.8,18.7l-44.9,54.4v7h127.3v-7.2L118.5,357c-4.8-4.9-7.2-11.8-6.2-18.7V175.3l111.8,243.4h13l96.1-243.4v193.9
	c0,5.1,0,6.2-3.3,9.5l-34.6,33.4v7.2h167.7v-7.2l-33.3-32.7c-2.9-2.2-4.4-5.9-3.8-9.5V130C425.3,126.4,426.8,122.7,429.7,120.5
	L429.7,120.5z"/>
</svg>
