<?xml version="1.0" encoding="utf-8"?>
<!-- Generator: Adobe Illustrator 26.0.2, SVG Export Plug-In . SVG Version: 6.00 Build 0)  -->
<svg version="1.1" id="Bold" xmlns="http://www.w3.org/2000/svg" xmlns:xlink="http://www.w3.org/1999/xlink" x="0px"
     y="0px"
     viewBox="0 0 500 500" style="enable-background:new 0 0 500 500;" xml:space="preserve">
<style type="text/css">
	.st0{fill:#FFFFFF;}
	.st1{fill-rule:evenodd;clip-rule:evenodd;}
	.st2{fill:#E40061;}
	.st3{fill-rule:evenodd;clip-rule:evenodd;fill:#FFFFFF;}
</style>
    <g>
	<path class="st0" d="M418.9,163c17.3-12.7,32.3-27.7,43.8-45c-16.1,6.9-32.3,11.5-49.6,13.8c18.4-10.4,32.3-27.7,38-48.4
		c-17.3,9.2-35.7,16.1-55.3,20.7c-16.1-17.3-39.2-27.7-63.4-27.7C284,76.5,246,115.7,246,163c0,6.9,1.2,13.8,2.3,19.6
		c-73.8-2.3-137.2-38-179.8-89.9c-6.9,12.7-11.5,27.7-11.5,43.8c0,30,15,56.5,38,72.6c-13.8,0-27.7-4.6-39.2-10.4v1.2
		c0,42.6,30,77.2,69.2,85.3c-6.9,2.3-15,3.5-23.1,3.5c-5.8,0-11.5,0-16.1-1.2c11.5,34.6,43.8,59.9,80.7,61.1
		c-30,23.1-66.9,36.9-108.3,36.9c-6.9,0-13.8,0-20.7-1.2c38,25.4,84.1,39.2,133.7,39.2C325.5,421.2,425.8,293.2,418.9,163z"/>
</g>
</svg>
