<svg width="780" height="788" viewBox="0 0 780 788" fill="none" xmlns="http://www.w3.org/2000/svg">
<path d="M77.6159 539.86V566.042H70.5079V546.405H70.3545L64.6272 549.831V543.797L71.0704 539.86H77.6159ZM92.8588 566.399C90.7963 566.399 88.964 566.046 87.3617 565.338C85.7679 564.622 84.5151 563.638 83.6032 562.385C82.6912 561.132 82.231 559.692 82.2225 558.064H89.3816C89.3901 558.567 89.5435 559.019 89.8418 559.419C90.1486 559.811 90.5662 560.118 91.0946 560.34C91.623 560.561 92.2282 560.672 92.91 560.672C93.5662 560.672 94.1458 560.557 94.6486 560.327C95.1515 560.088 95.5435 559.76 95.8247 559.343C96.106 558.925 96.2424 558.448 96.2338 557.911C96.2424 557.382 96.0804 556.914 95.748 556.505C95.4242 556.095 94.9682 555.776 94.3801 555.546C93.7921 555.316 93.1145 555.201 92.3475 555.201H89.6884V550.292H92.3475C93.0549 550.292 93.677 550.176 94.214 549.946C94.7594 549.716 95.1813 549.397 95.4796 548.988C95.7864 548.578 95.9355 548.11 95.927 547.581C95.9355 547.07 95.812 546.618 95.5563 546.226C95.3006 545.834 94.9426 545.527 94.4824 545.306C94.0307 545.084 93.5066 544.973 92.91 544.973C92.2622 544.973 91.6827 545.088 91.1713 545.318C90.6685 545.549 90.2722 545.868 89.9824 546.277C89.6926 546.686 89.5435 547.155 89.535 547.684H82.7338C82.7424 546.081 83.1813 544.667 84.0506 543.439C84.9284 542.212 86.1301 541.249 87.6557 540.55C89.1813 539.851 90.9327 539.502 92.91 539.502C94.8446 539.502 96.5534 539.83 98.0364 540.486C99.5279 541.142 100.691 542.046 101.526 543.196C102.37 544.338 102.788 545.647 102.779 547.121C102.796 548.587 102.293 549.789 101.271 550.726C100.257 551.664 98.9696 552.218 97.41 552.388V552.593C99.5236 552.823 101.113 553.47 102.178 554.536C103.244 555.593 103.768 556.922 103.751 558.524C103.759 560.059 103.299 561.418 102.37 562.603C101.45 563.787 100.167 564.716 98.5222 565.39C96.8858 566.063 94.998 566.399 92.8588 566.399ZM121.547 561.132V559.752C121.547 558.644 121.786 557.621 122.263 556.684C122.749 555.746 123.452 554.992 124.373 554.421C125.293 553.85 126.414 553.564 127.735 553.564C129.09 553.564 130.228 553.845 131.148 554.408C132.077 554.97 132.78 555.72 133.258 556.658C133.735 557.595 133.974 558.627 133.974 559.752V561.132C133.974 562.24 133.731 563.263 133.245 564.201C132.768 565.138 132.065 565.892 131.136 566.463C130.207 567.034 129.073 567.32 127.735 567.32C126.397 567.32 125.268 567.034 124.347 566.463C123.427 565.892 122.728 565.138 122.251 564.201C121.782 563.263 121.547 562.24 121.547 561.132ZM125.996 559.752V561.132C125.996 561.618 126.116 562.1 126.354 562.577C126.601 563.046 127.062 563.28 127.735 563.28C128.442 563.28 128.907 563.05 129.128 562.59C129.359 562.13 129.474 561.644 129.474 561.132V559.752C129.474 559.24 129.367 558.746 129.154 558.269C128.941 557.792 128.468 557.553 127.735 557.553C127.062 557.553 126.601 557.792 126.354 558.269C126.116 558.746 125.996 559.24 125.996 559.752ZM107.843 546.149V544.769C107.843 543.644 108.086 542.613 108.572 541.675C109.066 540.738 109.773 539.988 110.694 539.425C111.614 538.863 112.726 538.581 114.03 538.581C115.386 538.581 116.523 538.863 117.444 539.425C118.373 539.988 119.076 540.738 119.553 541.675C120.03 542.613 120.269 543.644 120.269 544.769V546.149C120.269 547.274 120.026 548.301 119.54 549.23C119.063 550.159 118.36 550.901 117.431 551.455C116.502 552.009 115.369 552.286 114.03 552.286C112.692 552.286 111.563 552.005 110.643 551.442C109.722 550.88 109.023 550.134 108.546 549.205C108.077 548.276 107.843 547.257 107.843 546.149ZM112.343 544.769V546.149C112.343 546.661 112.462 547.147 112.701 547.607C112.94 548.067 113.383 548.297 114.03 548.297C114.738 548.297 115.202 548.067 115.424 547.607C115.654 547.147 115.769 546.661 115.769 546.149V544.769C115.769 544.257 115.663 543.763 115.449 543.286C115.236 542.809 114.763 542.57 114.03 542.57C113.357 542.57 112.905 542.817 112.675 543.311C112.454 543.797 112.343 544.283 112.343 544.769ZM110.016 566.042L128.016 539.86H131.647L113.647 566.042H110.016Z" fill="url(#paint0_linear_3_4616)"/>
<path d="M77.6159 539.86V566.042H70.5079V546.405H70.3545L64.6272 549.831V543.797L71.0704 539.86H77.6159ZM92.8588 566.399C90.7963 566.399 88.964 566.046 87.3617 565.338C85.7679 564.622 84.5151 563.638 83.6032 562.385C82.6912 561.132 82.231 559.692 82.2225 558.064H89.3816C89.3901 558.567 89.5435 559.019 89.8418 559.419C90.1486 559.811 90.5662 560.118 91.0946 560.34C91.623 560.561 92.2282 560.672 92.91 560.672C93.5662 560.672 94.1458 560.557 94.6486 560.327C95.1515 560.088 95.5435 559.76 95.8247 559.343C96.106 558.925 96.2424 558.448 96.2338 557.911C96.2424 557.382 96.0804 556.914 95.748 556.505C95.4242 556.095 94.9682 555.776 94.3801 555.546C93.7921 555.316 93.1145 555.201 92.3475 555.201H89.6884V550.292H92.3475C93.0549 550.292 93.677 550.176 94.214 549.946C94.7594 549.716 95.1813 549.397 95.4796 548.988C95.7864 548.578 95.9355 548.11 95.927 547.581C95.9355 547.07 95.812 546.618 95.5563 546.226C95.3006 545.834 94.9426 545.527 94.4824 545.306C94.0307 545.084 93.5066 544.973 92.91 544.973C92.2622 544.973 91.6827 545.088 91.1713 545.318C90.6685 545.549 90.2722 545.868 89.9824 546.277C89.6926 546.686 89.5435 547.155 89.535 547.684H82.7338C82.7424 546.081 83.1813 544.667 84.0506 543.439C84.9284 542.212 86.1301 541.249 87.6557 540.55C89.1813 539.851 90.9327 539.502 92.91 539.502C94.8446 539.502 96.5534 539.83 98.0364 540.486C99.5279 541.142 100.691 542.046 101.526 543.196C102.37 544.338 102.788 545.647 102.779 547.121C102.796 548.587 102.293 549.789 101.271 550.726C100.257 551.664 98.9696 552.218 97.41 552.388V552.593C99.5236 552.823 101.113 553.47 102.178 554.536C103.244 555.593 103.768 556.922 103.751 558.524C103.759 560.059 103.299 561.418 102.37 562.603C101.45 563.787 100.167 564.716 98.5222 565.39C96.8858 566.063 94.998 566.399 92.8588 566.399ZM121.547 561.132V559.752C121.547 558.644 121.786 557.621 122.263 556.684C122.749 555.746 123.452 554.992 124.373 554.421C125.293 553.85 126.414 553.564 127.735 553.564C129.09 553.564 130.228 553.845 131.148 554.408C132.077 554.97 132.78 555.72 133.258 556.658C133.735 557.595 133.974 558.627 133.974 559.752V561.132C133.974 562.24 133.731 563.263 133.245 564.201C132.768 565.138 132.065 565.892 131.136 566.463C130.207 567.034 129.073 567.32 127.735 567.32C126.397 567.32 125.268 567.034 124.347 566.463C123.427 565.892 122.728 565.138 122.251 564.201C121.782 563.263 121.547 562.24 121.547 561.132ZM125.996 559.752V561.132C125.996 561.618 126.116 562.1 126.354 562.577C126.601 563.046 127.062 563.28 127.735 563.28C128.442 563.28 128.907 563.05 129.128 562.59C129.359 562.13 129.474 561.644 129.474 561.132V559.752C129.474 559.24 129.367 558.746 129.154 558.269C128.941 557.792 128.468 557.553 127.735 557.553C127.062 557.553 126.601 557.792 126.354 558.269C126.116 558.746 125.996 559.24 125.996 559.752ZM107.843 546.149V544.769C107.843 543.644 108.086 542.613 108.572 541.675C109.066 540.738 109.773 539.988 110.694 539.425C111.614 538.863 112.726 538.581 114.03 538.581C115.386 538.581 116.523 538.863 117.444 539.425C118.373 539.988 119.076 540.738 119.553 541.675C120.03 542.613 120.269 543.644 120.269 544.769V546.149C120.269 547.274 120.026 548.301 119.54 549.23C119.063 550.159 118.36 550.901 117.431 551.455C116.502 552.009 115.369 552.286 114.03 552.286C112.692 552.286 111.563 552.005 110.643 551.442C109.722 550.88 109.023 550.134 108.546 549.205C108.077 548.276 107.843 547.257 107.843 546.149ZM112.343 544.769V546.149C112.343 546.661 112.462 547.147 112.701 547.607C112.94 548.067 113.383 548.297 114.03 548.297C114.738 548.297 115.202 548.067 115.424 547.607C115.654 547.147 115.769 546.661 115.769 546.149V544.769C115.769 544.257 115.663 543.763 115.449 543.286C115.236 542.809 114.763 542.57 114.03 542.57C113.357 542.57 112.905 542.817 112.675 543.311C112.454 543.797 112.343 544.283 112.343 544.769ZM110.016 566.042L128.016 539.86H131.647L113.647 566.042H110.016Z" fill="black" fill-opacity="0.2"/>
<path d="M65.5079 594.86V605.042H64.2749V594.86H65.5079ZM75.9139 594.86V605.042H74.7207L69.1724 597.047H69.073V605.042H67.84V594.86H69.0332L74.6014 602.874H74.7008V594.86H75.9139ZM78.6587 594.86L81.6814 603.431H81.8007L84.8234 594.86H86.116L82.3774 605.042H81.1047L77.366 594.86H78.6587ZM87.562 605.042V594.86H93.7069V595.953H88.7949V599.394H93.3887V600.488H88.7949V603.948H93.7864V605.042H87.562ZM101.357 597.405C101.298 596.901 101.056 596.51 100.631 596.232C100.207 595.953 99.6869 595.814 99.0704 595.814C98.6197 595.814 98.2252 595.887 97.8872 596.033C97.5524 596.179 97.2906 596.379 97.1017 596.635C96.9161 596.89 96.8233 597.18 96.8233 597.505C96.8233 597.776 96.8879 598.01 97.0171 598.206C97.1497 598.398 97.3188 598.559 97.5243 598.688C97.7297 598.814 97.9452 598.918 98.1706 599.001C98.3959 599.081 98.6031 599.145 98.792 599.195L99.8261 599.473C100.091 599.543 100.386 599.639 100.711 599.762C101.039 599.884 101.352 600.052 101.651 600.264C101.952 600.473 102.201 600.741 102.396 601.069C102.592 601.397 102.69 601.8 102.69 602.277C102.69 602.827 102.546 603.325 102.257 603.769C101.972 604.213 101.555 604.566 101.004 604.828C100.457 605.09 99.793 605.22 99.0108 605.22C98.2816 605.22 97.6502 605.103 97.1166 604.867C96.5863 604.632 96.1687 604.304 95.8637 603.883C95.5621 603.462 95.3914 602.973 95.3517 602.417H96.6244C96.6575 602.801 96.7868 603.119 97.0122 603.371C97.2409 603.62 97.5292 603.805 97.8772 603.928C98.2286 604.047 98.6064 604.107 99.0108 604.107C99.4814 604.107 99.904 604.031 100.279 603.878C100.653 603.722 100.95 603.507 101.168 603.232C101.387 602.953 101.497 602.629 101.497 602.257C101.497 601.919 101.402 601.644 101.213 601.432C101.024 601.22 100.776 601.048 100.467 600.915C100.159 600.783 99.8261 600.667 99.4681 600.567L98.2153 600.209C97.4198 599.98 96.7901 599.654 96.3261 599.23C95.8621 598.805 95.6301 598.25 95.6301 597.564C95.6301 596.994 95.7842 596.497 96.0924 596.073C96.404 595.645 96.8216 595.314 97.3453 595.078C97.8723 594.84 98.4606 594.72 99.1102 594.72C99.7664 594.72 100.35 594.838 100.86 595.073C101.371 595.305 101.775 595.624 102.073 596.028C102.375 596.432 102.534 596.891 102.551 597.405H101.357ZM104.02 595.953V594.86H111.656V595.953H108.455V605.042H107.222V595.953H104.02ZM121.586 599.951C121.586 601.024 121.393 601.952 121.005 602.735C120.617 603.517 120.085 604.12 119.409 604.544C118.733 604.969 117.96 605.181 117.092 605.181C116.224 605.181 115.451 604.969 114.775 604.544C114.099 604.12 113.567 603.517 113.179 602.735C112.792 601.952 112.598 601.024 112.598 599.951C112.598 598.877 112.792 597.949 113.179 597.167C113.567 596.384 114.099 595.781 114.775 595.357C115.451 594.933 116.224 594.72 117.092 594.72C117.96 594.72 118.733 594.933 119.409 595.357C120.085 595.781 120.617 596.384 121.005 597.167C121.393 597.949 121.586 598.877 121.586 599.951ZM120.393 599.951C120.393 599.069 120.246 598.325 119.951 597.718C119.659 597.112 119.263 596.653 118.763 596.341C118.265 596.03 117.709 595.874 117.092 595.874C116.476 595.874 115.917 596.03 115.417 596.341C114.919 596.653 114.523 597.112 114.228 597.718C113.937 598.325 113.791 599.069 113.791 599.951C113.791 600.832 113.937 601.576 114.228 602.183C114.523 602.789 114.919 603.248 115.417 603.56C115.917 603.872 116.476 604.027 117.092 604.027C117.709 604.027 118.265 603.872 118.763 603.56C119.263 603.248 119.659 602.789 119.951 602.183C120.246 601.576 120.393 600.832 120.393 599.951ZM123.52 605.042V594.86H126.96C127.755 594.86 128.408 594.996 128.919 595.267C129.429 595.536 129.807 595.905 130.052 596.376C130.297 596.847 130.42 597.382 130.42 597.982C130.42 598.582 130.297 599.114 130.052 599.578C129.807 600.042 129.431 600.406 128.924 600.671C128.417 600.933 127.769 601.064 126.98 601.064H124.196V599.951H126.94C127.484 599.951 127.921 599.871 128.253 599.712C128.587 599.553 128.829 599.327 128.978 599.036C129.131 598.741 129.207 598.39 129.207 597.982C129.207 597.574 129.131 597.218 128.978 596.913C128.826 596.608 128.582 596.373 128.248 596.207C127.913 596.038 127.47 595.953 126.92 595.953H124.753V605.042H123.52ZM128.312 600.468L130.818 605.042H129.386L126.92 600.468H128.312ZM137.903 597.405C137.843 596.901 137.601 596.51 137.177 596.232C136.753 595.953 136.232 595.814 135.616 595.814C135.165 595.814 134.771 595.887 134.433 596.033C134.098 596.179 133.836 596.379 133.647 596.635C133.462 596.89 133.369 597.18 133.369 597.505C133.369 597.776 133.433 598.01 133.563 598.206C133.695 598.398 133.864 598.559 134.07 598.688C134.275 598.814 134.491 598.918 134.716 599.001C134.941 599.081 135.149 599.145 135.337 599.195L136.372 599.473C136.637 599.543 136.932 599.639 137.257 599.762C137.585 599.884 137.898 600.052 138.196 600.264C138.498 600.473 138.746 600.741 138.942 601.069C139.137 601.397 139.235 601.8 139.235 602.277C139.235 602.827 139.091 603.325 138.803 603.769C138.518 604.213 138.1 604.566 137.55 604.828C137.003 605.09 136.338 605.22 135.556 605.22C134.827 605.22 134.196 605.103 133.662 604.867C133.132 604.632 132.714 604.304 132.409 603.883C132.108 603.462 131.937 602.973 131.897 602.417H133.17C133.203 602.801 133.332 603.119 133.558 603.371C133.786 603.62 134.075 603.805 134.423 603.928C134.774 604.047 135.152 604.107 135.556 604.107C136.027 604.107 136.449 604.031 136.824 603.878C137.199 603.722 137.495 603.507 137.714 603.232C137.933 602.953 138.042 602.629 138.042 602.257C138.042 601.919 137.948 601.644 137.759 601.432C137.57 601.22 137.321 601.048 137.013 600.915C136.705 600.783 136.372 600.667 136.014 600.567L134.761 600.209C133.965 599.98 133.336 599.654 132.872 599.23C132.408 598.805 132.176 598.25 132.176 597.564C132.176 596.994 132.33 596.497 132.638 596.073C132.949 595.645 133.367 595.314 133.891 595.078C134.418 594.84 135.006 594.72 135.656 594.72C136.312 594.72 136.895 594.838 137.406 595.073C137.916 595.305 138.32 595.624 138.619 596.028C138.92 596.432 139.079 596.891 139.096 597.405H137.903Z" fill="#FBFBFB"/>
<path d="M695.615 156.86V183.042H688.507V163.406H688.354L682.627 166.832V160.798L689.07 156.86H695.615ZM700.375 178.951V173.428L710.909 156.86H715.921V164.224H713.057L707.381 173.224V173.428H722.927V178.951H700.375ZM713.108 183.042V177.264L713.262 174.86V156.86H719.909V183.042H713.108ZM740.531 178.133V176.752C740.531 175.644 740.77 174.622 741.247 173.684C741.733 172.747 742.436 171.992 743.357 171.421C744.277 170.85 745.398 170.565 746.719 170.565C748.074 170.565 749.212 170.846 750.132 171.408C751.061 171.971 751.764 172.721 752.242 173.658C752.719 174.596 752.958 175.627 752.958 176.752V178.133C752.958 179.241 752.715 180.264 752.229 181.201C751.752 182.139 751.048 182.893 750.119 183.464C749.19 184.035 748.057 184.32 746.719 184.32C745.381 184.32 744.252 184.035 743.331 183.464C742.411 182.893 741.712 182.139 741.235 181.201C740.766 180.264 740.531 179.241 740.531 178.133ZM744.98 176.752V178.133C744.98 178.619 745.1 179.1 745.338 179.578C745.585 180.046 746.046 180.281 746.719 180.281C747.426 180.281 747.891 180.051 748.112 179.59C748.342 179.13 748.458 178.644 748.458 178.133V176.752C748.458 176.241 748.351 175.747 748.138 175.269C747.925 174.792 747.452 174.553 746.719 174.553C746.046 174.553 745.585 174.792 745.338 175.269C745.1 175.747 744.98 176.241 744.98 176.752ZM726.827 163.15V161.769C726.827 160.644 727.07 159.613 727.556 158.676C728.05 157.738 728.757 156.988 729.678 156.426C730.598 155.863 731.71 155.582 733.014 155.582C734.369 155.582 735.507 155.863 736.428 156.426C737.357 156.988 738.06 157.738 738.537 158.676C739.014 159.613 739.253 160.644 739.253 161.769V163.15C739.253 164.275 739.01 165.302 738.524 166.231C738.047 167.16 737.344 167.901 736.415 168.455C735.486 169.009 734.352 169.286 733.014 169.286C731.676 169.286 730.547 169.005 729.627 168.443C728.706 167.88 728.007 167.134 727.53 166.205C727.061 165.276 726.827 164.258 726.827 163.15ZM731.327 161.769V163.15C731.327 163.661 731.446 164.147 731.685 164.607C731.923 165.068 732.367 165.298 733.014 165.298C733.722 165.298 734.186 165.068 734.408 164.607C734.638 164.147 734.753 163.661 734.753 163.15V161.769C734.753 161.258 734.646 160.764 734.433 160.286C734.22 159.809 733.747 159.57 733.014 159.57C732.341 159.57 731.889 159.818 731.659 160.312C731.438 160.798 731.327 161.283 731.327 161.769ZM729 183.042L747 156.86H750.631L732.631 183.042H729Z" fill="url(#paint1_linear_3_4616)"/>
<path d="M695.615 156.86V183.042H688.507V163.406H688.354L682.627 166.832V160.798L689.07 156.86H695.615ZM700.375 178.951V173.428L710.909 156.86H715.921V164.224H713.057L707.381 173.224V173.428H722.927V178.951H700.375ZM713.108 183.042V177.264L713.262 174.86V156.86H719.909V183.042H713.108ZM740.531 178.133V176.752C740.531 175.644 740.77 174.622 741.247 173.684C741.733 172.747 742.436 171.992 743.357 171.421C744.277 170.85 745.398 170.565 746.719 170.565C748.074 170.565 749.212 170.846 750.132 171.408C751.061 171.971 751.764 172.721 752.242 173.658C752.719 174.596 752.958 175.627 752.958 176.752V178.133C752.958 179.241 752.715 180.264 752.229 181.201C751.752 182.139 751.048 182.893 750.119 183.464C749.19 184.035 748.057 184.32 746.719 184.32C745.381 184.32 744.252 184.035 743.331 183.464C742.411 182.893 741.712 182.139 741.235 181.201C740.766 180.264 740.531 179.241 740.531 178.133ZM744.98 176.752V178.133C744.98 178.619 745.1 179.1 745.338 179.578C745.585 180.046 746.046 180.281 746.719 180.281C747.426 180.281 747.891 180.051 748.112 179.59C748.342 179.13 748.458 178.644 748.458 178.133V176.752C748.458 176.241 748.351 175.747 748.138 175.269C747.925 174.792 747.452 174.553 746.719 174.553C746.046 174.553 745.585 174.792 745.338 175.269C745.1 175.747 744.98 176.241 744.98 176.752ZM726.827 163.15V161.769C726.827 160.644 727.07 159.613 727.556 158.676C728.05 157.738 728.757 156.988 729.678 156.426C730.598 155.863 731.71 155.582 733.014 155.582C734.369 155.582 735.507 155.863 736.428 156.426C737.357 156.988 738.06 157.738 738.537 158.676C739.014 159.613 739.253 160.644 739.253 161.769V163.15C739.253 164.275 739.01 165.302 738.524 166.231C738.047 167.16 737.344 167.901 736.415 168.455C735.486 169.009 734.352 169.286 733.014 169.286C731.676 169.286 730.547 169.005 729.627 168.443C728.706 167.88 728.007 167.134 727.53 166.205C727.061 165.276 726.827 164.258 726.827 163.15ZM731.327 161.769V163.15C731.327 163.661 731.446 164.147 731.685 164.607C731.923 165.068 732.367 165.298 733.014 165.298C733.722 165.298 734.186 165.068 734.408 164.607C734.638 164.147 734.753 163.661 734.753 163.15V161.769C734.753 161.258 734.646 160.764 734.433 160.286C734.22 159.809 733.747 159.57 733.014 159.57C732.341 159.57 731.889 159.818 731.659 160.312C731.438 160.798 731.327 161.283 731.327 161.769ZM729 183.042L747 156.86H750.631L732.631 183.042H729Z" fill="black" fill-opacity="0.2"/>
<path d="M681.718 212.954V211.86H689.354V212.954H686.152V222.042H684.919V212.954H681.718ZM691.117 222.042V211.86H694.557C695.353 211.86 696.006 211.996 696.516 212.268C697.026 212.536 697.404 212.906 697.65 213.377C697.895 213.847 698.017 214.382 698.017 214.982C698.017 215.582 697.895 216.114 697.65 216.578C697.404 217.042 697.028 217.407 696.521 217.672C696.014 217.934 695.366 218.065 694.577 218.065H691.793V216.951H694.537C695.081 216.951 695.518 216.872 695.85 216.712C696.185 216.553 696.427 216.328 696.576 216.036C696.728 215.741 696.804 215.39 696.804 214.982C696.804 214.575 696.728 214.218 696.576 213.913C696.423 213.609 696.18 213.373 695.845 213.207C695.51 213.038 695.068 212.954 694.517 212.954H692.35V222.042H691.117ZM695.909 217.468L698.415 222.042H696.983L694.517 217.468H695.909ZM699.932 222.042V211.86H706.077V212.954H701.165V216.394H705.759V217.488H701.165V220.948H706.156V222.042H699.932ZM708.577 222.042H707.284L711.023 211.86H712.296L716.034 222.042H714.742L711.699 213.471H711.619L708.577 222.042ZM709.054 218.065H714.264V219.158H709.054V218.065ZM723.048 214.406C722.989 213.902 722.747 213.511 722.322 213.232C721.898 212.954 721.378 212.815 720.761 212.815C720.311 212.815 719.916 212.888 719.578 213.033C719.243 213.179 718.982 213.38 718.793 213.635C718.607 213.89 718.514 214.18 718.514 214.505C718.514 214.777 718.579 215.011 718.708 215.206C718.841 215.398 719.01 215.559 719.215 215.688C719.421 215.814 719.636 215.919 719.861 216.002C720.087 216.081 720.294 216.146 720.483 216.195L721.517 216.474C721.782 216.543 722.077 216.64 722.402 216.762C722.73 216.885 723.043 217.052 723.342 217.264C723.643 217.473 723.892 217.742 724.087 218.07C724.283 218.398 724.381 218.801 724.381 219.278C724.381 219.828 724.236 220.325 723.948 220.769C723.663 221.213 723.245 221.566 722.695 221.828C722.148 222.09 721.484 222.221 720.702 222.221C719.973 222.221 719.341 222.103 718.807 221.868C718.277 221.633 717.86 221.305 717.555 220.884C717.253 220.463 717.082 219.974 717.043 219.417H718.315C718.348 219.801 718.478 220.12 718.703 220.372C718.932 220.62 719.22 220.806 719.568 220.928C719.919 221.048 720.297 221.107 720.702 221.107C721.172 221.107 721.595 221.031 721.969 220.879C722.344 220.723 722.641 220.507 722.859 220.232C723.078 219.954 723.187 219.629 723.187 219.258C723.187 218.92 723.093 218.645 722.904 218.433C722.715 218.22 722.467 218.048 722.158 217.916C721.85 217.783 721.517 217.667 721.159 217.568L719.906 217.21C719.111 216.981 718.481 216.654 718.017 216.23C717.553 215.806 717.321 215.251 717.321 214.565C717.321 213.995 717.475 213.497 717.783 213.073C718.095 212.646 718.513 212.314 719.036 212.079C719.563 211.84 720.151 211.721 720.801 211.721C721.457 211.721 722.041 211.839 722.551 212.074C723.062 212.306 723.466 212.624 723.764 213.028C724.066 213.433 724.225 213.892 724.241 214.406H723.048ZM732.95 211.86H734.183V218.602C734.183 219.298 734.019 219.919 733.69 220.466C733.366 221.01 732.907 221.439 732.313 221.754C731.72 222.065 731.024 222.221 730.225 222.221C729.426 222.221 728.73 222.065 728.137 221.754C727.544 221.439 727.083 221.01 726.755 220.466C726.43 219.919 726.268 219.298 726.268 218.602V211.86H727.501V218.502C727.501 218.999 727.61 219.442 727.829 219.83C728.048 220.214 728.359 220.517 728.764 220.739C729.171 220.958 729.658 221.068 730.225 221.068C730.792 221.068 731.279 220.958 731.687 220.739C732.095 220.517 732.406 220.214 732.622 219.83C732.84 219.442 732.95 218.999 732.95 218.502V211.86ZM736.505 222.042V211.86H739.945C740.741 211.86 741.394 211.996 741.904 212.268C742.414 212.536 742.792 212.906 743.037 213.377C743.283 213.847 743.405 214.382 743.405 214.982C743.405 215.582 743.283 216.114 743.037 216.578C742.792 217.042 742.416 217.407 741.909 217.672C741.402 217.934 740.754 218.065 739.965 218.065H737.181V216.951H739.925C740.469 216.951 740.906 216.872 741.238 216.712C741.572 216.553 741.814 216.328 741.964 216.036C742.116 215.741 742.192 215.39 742.192 214.982C742.192 214.575 742.116 214.218 741.964 213.913C741.811 213.609 741.568 213.373 741.233 213.207C740.898 213.038 740.456 212.954 739.905 212.954H737.738V222.042H736.505ZM741.297 217.468L743.803 222.042H742.371L739.905 217.468H741.297ZM744.103 211.86H745.515L748.339 216.613H748.458L751.282 211.86H752.694L749.015 217.846V222.042H747.782V217.846L744.103 211.86Z" fill="#FBFBFB"/>
<path d="M692.78 566.042V560.928L702.547 552.848C703.195 552.311 703.749 551.809 704.209 551.34C704.678 550.863 705.036 550.372 705.283 549.87C705.539 549.367 705.667 548.809 705.667 548.195C705.667 547.522 705.522 546.946 705.232 546.469C704.951 545.992 704.559 545.625 704.056 545.37C703.553 545.105 702.973 544.973 702.317 544.973C701.661 544.973 701.081 545.105 700.578 545.37C700.084 545.634 699.701 546.022 699.428 546.533C699.155 547.044 699.019 547.667 699.019 548.399H692.269C692.269 546.559 692.682 544.973 693.509 543.644C694.336 542.314 695.503 541.292 697.012 540.576C698.52 539.86 700.289 539.502 702.317 539.502C704.414 539.502 706.229 539.838 707.763 540.512C709.306 541.176 710.495 542.114 711.33 543.324C712.174 544.534 712.595 545.953 712.595 547.581C712.595 548.587 712.387 549.588 711.969 550.586C711.551 551.574 710.801 552.669 709.719 553.871C708.637 555.073 707.098 556.505 705.104 558.167L702.649 560.212V560.365H712.877V566.042H692.78ZM714.875 561.951V556.428L725.409 539.86H730.421V547.223H727.557L721.881 556.223V556.428H737.427V561.951H714.875ZM727.608 566.042V560.263L727.762 557.86V539.86H734.409V566.042H727.608ZM755.031 561.132V559.752C755.031 558.644 755.27 557.621 755.747 556.684C756.233 555.746 756.936 554.992 757.857 554.421C758.777 553.85 759.898 553.564 761.219 553.564C762.574 553.564 763.712 553.845 764.632 554.408C765.561 554.97 766.264 555.72 766.742 556.658C767.219 557.595 767.458 558.627 767.458 559.752V561.132C767.458 562.24 767.215 563.263 766.729 564.201C766.252 565.138 765.548 565.892 764.619 566.463C763.69 567.034 762.557 567.32 761.219 567.32C759.881 567.32 758.752 567.034 757.831 566.463C756.911 565.892 756.212 565.138 755.735 564.201C755.266 563.263 755.031 562.24 755.031 561.132ZM759.48 559.752V561.132C759.48 561.618 759.6 562.1 759.838 562.577C760.085 563.046 760.546 563.28 761.219 563.28C761.926 563.28 762.391 563.05 762.612 562.59C762.842 562.13 762.958 561.644 762.958 561.132V559.752C762.958 559.24 762.851 558.746 762.638 558.269C762.425 557.792 761.952 557.553 761.219 557.553C760.546 557.553 760.085 557.792 759.838 558.269C759.6 558.746 759.48 559.24 759.48 559.752ZM741.327 546.149V544.769C741.327 543.644 741.57 542.613 742.056 541.675C742.55 540.738 743.257 539.988 744.178 539.425C745.098 538.863 746.21 538.581 747.514 538.581C748.869 538.581 750.007 538.863 750.928 539.425C751.857 539.988 752.56 540.738 753.037 541.675C753.514 542.613 753.753 543.644 753.753 544.769V546.149C753.753 547.274 753.51 548.301 753.024 549.23C752.547 550.159 751.844 550.901 750.915 551.455C749.986 552.009 748.852 552.286 747.514 552.286C746.176 552.286 745.047 552.005 744.127 551.442C743.206 550.88 742.507 550.134 742.03 549.205C741.561 548.276 741.327 547.257 741.327 546.149ZM745.827 544.769V546.149C745.827 546.661 745.946 547.147 746.185 547.607C746.423 548.067 746.867 548.297 747.514 548.297C748.222 548.297 748.686 548.067 748.908 547.607C749.138 547.147 749.253 546.661 749.253 546.149V544.769C749.253 544.257 749.146 543.763 748.933 543.286C748.72 542.809 748.247 542.57 747.514 542.57C746.841 542.57 746.389 542.817 746.159 543.311C745.938 543.797 745.827 544.283 745.827 544.769ZM743.5 566.042L761.5 539.86H765.131L747.131 566.042H743.5Z" fill="url(#paint2_linear_3_4616)"/>
<path d="M692.78 566.042V560.928L702.547 552.848C703.195 552.311 703.749 551.809 704.209 551.34C704.678 550.863 705.036 550.372 705.283 549.87C705.539 549.367 705.667 548.809 705.667 548.195C705.667 547.522 705.522 546.946 705.232 546.469C704.951 545.992 704.559 545.625 704.056 545.37C703.553 545.105 702.973 544.973 702.317 544.973C701.661 544.973 701.081 545.105 700.578 545.37C700.084 545.634 699.701 546.022 699.428 546.533C699.155 547.044 699.019 547.667 699.019 548.399H692.269C692.269 546.559 692.682 544.973 693.509 543.644C694.336 542.314 695.503 541.292 697.012 540.576C698.52 539.86 700.289 539.502 702.317 539.502C704.414 539.502 706.229 539.838 707.763 540.512C709.306 541.176 710.495 542.114 711.33 543.324C712.174 544.534 712.595 545.953 712.595 547.581C712.595 548.587 712.387 549.588 711.969 550.586C711.551 551.574 710.801 552.669 709.719 553.871C708.637 555.073 707.098 556.505 705.104 558.167L702.649 560.212V560.365H712.877V566.042H692.78ZM714.875 561.951V556.428L725.409 539.86H730.421V547.223H727.557L721.881 556.223V556.428H737.427V561.951H714.875ZM727.608 566.042V560.263L727.762 557.86V539.86H734.409V566.042H727.608ZM755.031 561.132V559.752C755.031 558.644 755.27 557.621 755.747 556.684C756.233 555.746 756.936 554.992 757.857 554.421C758.777 553.85 759.898 553.564 761.219 553.564C762.574 553.564 763.712 553.845 764.632 554.408C765.561 554.97 766.264 555.72 766.742 556.658C767.219 557.595 767.458 558.627 767.458 559.752V561.132C767.458 562.24 767.215 563.263 766.729 564.201C766.252 565.138 765.548 565.892 764.619 566.463C763.69 567.034 762.557 567.32 761.219 567.32C759.881 567.32 758.752 567.034 757.831 566.463C756.911 565.892 756.212 565.138 755.735 564.201C755.266 563.263 755.031 562.24 755.031 561.132ZM759.48 559.752V561.132C759.48 561.618 759.6 562.1 759.838 562.577C760.085 563.046 760.546 563.28 761.219 563.28C761.926 563.28 762.391 563.05 762.612 562.59C762.842 562.13 762.958 561.644 762.958 561.132V559.752C762.958 559.24 762.851 558.746 762.638 558.269C762.425 557.792 761.952 557.553 761.219 557.553C760.546 557.553 760.085 557.792 759.838 558.269C759.6 558.746 759.48 559.24 759.48 559.752ZM741.327 546.149V544.769C741.327 543.644 741.57 542.613 742.056 541.675C742.55 540.738 743.257 539.988 744.178 539.425C745.098 538.863 746.21 538.581 747.514 538.581C748.869 538.581 750.007 538.863 750.928 539.425C751.857 539.988 752.56 540.738 753.037 541.675C753.514 542.613 753.753 543.644 753.753 544.769V546.149C753.753 547.274 753.51 548.301 753.024 549.23C752.547 550.159 751.844 550.901 750.915 551.455C749.986 552.009 748.852 552.286 747.514 552.286C746.176 552.286 745.047 552.005 744.127 551.442C743.206 550.88 742.507 550.134 742.03 549.205C741.561 548.276 741.327 547.257 741.327 546.149ZM745.827 544.769V546.149C745.827 546.661 745.946 547.147 746.185 547.607C746.423 548.067 746.867 548.297 747.514 548.297C748.222 548.297 748.686 548.067 748.908 547.607C749.138 547.147 749.253 546.661 749.253 546.149V544.769C749.253 544.257 749.146 543.763 748.933 543.286C748.72 542.809 748.247 542.57 747.514 542.57C746.841 542.57 746.389 542.817 746.159 543.311C745.938 543.797 745.827 544.283 745.827 544.769ZM743.5 566.042L761.5 539.86H765.131L747.131 566.042H743.5Z" fill="black" fill-opacity="0.2"/>
<path d="M691.718 595.953V594.86H699.354V595.953H696.152V605.042H694.919V595.953H691.718ZM701.117 605.042V594.86H707.262V595.953H702.35V599.394H706.944V600.488H702.35V603.948H707.341V605.042H701.117ZM709.762 605.042H708.469L712.208 594.86H713.48L717.219 605.042H715.926L712.884 596.47H712.804L709.762 605.042ZM710.239 601.064H715.449V602.158H710.239V601.064ZM718.665 594.86H720.137L723.597 603.311H723.716L727.176 594.86H728.648V605.042H727.495V597.306H727.395L724.213 605.042H723.1L719.918 597.306H719.818V605.042H718.665V594.86Z" fill="#FBFBFB"/>
<path d="M377.616 706.86V733.042H370.508V713.405H370.354L364.627 716.831V710.797L371.07 706.86H377.616ZM393.575 733.399C392.049 733.399 390.6 733.161 389.228 732.684C387.865 732.198 386.654 731.435 385.597 730.395C384.541 729.355 383.71 728 383.105 726.33C382.508 724.659 382.214 722.635 382.222 720.257C382.231 718.135 382.504 716.226 383.041 714.53C383.586 712.834 384.357 711.39 385.355 710.196C386.36 709.003 387.562 708.091 388.96 707.461C390.357 706.821 391.913 706.502 393.626 706.502C395.552 706.502 397.248 706.872 398.714 707.614C400.18 708.355 401.347 709.348 402.217 710.593C403.095 711.828 403.606 713.192 403.751 714.684H396.745C396.583 713.942 396.208 713.401 395.62 713.06C395.041 712.711 394.376 712.536 393.626 712.536C392.134 712.536 391.039 713.184 390.34 714.479C389.65 715.774 389.296 717.479 389.279 719.593H389.433C389.765 718.792 390.268 718.105 390.941 717.534C391.615 716.963 392.399 716.524 393.293 716.218C394.188 715.911 395.134 715.757 396.132 715.757C397.717 715.757 399.102 716.115 400.286 716.831C401.48 717.547 402.409 718.527 403.073 719.772C403.738 721.016 404.066 722.439 404.058 724.042C404.066 725.917 403.623 727.557 402.728 728.963C401.842 730.37 400.61 731.461 399.034 732.236C397.457 733.012 395.637 733.399 393.575 733.399ZM393.524 728.03C394.231 728.03 394.857 727.868 395.403 727.544C395.957 727.22 396.387 726.777 396.694 726.215C397.009 725.652 397.163 725.013 397.154 724.297C397.163 723.573 397.009 722.934 396.694 722.38C396.387 721.817 395.957 721.374 395.403 721.05C394.857 720.726 394.231 720.564 393.524 720.564C393.004 720.564 392.522 720.658 392.079 720.845C391.644 721.024 391.265 721.284 390.941 721.625C390.617 721.958 390.362 722.354 390.174 722.814C389.995 723.266 389.901 723.76 389.893 724.297C389.901 725.013 390.063 725.652 390.379 726.215C390.694 726.777 391.124 727.22 391.67 727.544C392.215 727.868 392.833 728.03 393.524 728.03ZM421.899 728.132V726.752C421.899 725.644 422.138 724.621 422.615 723.684C423.101 722.746 423.804 721.992 424.724 721.421C425.645 720.85 426.766 720.564 428.087 720.564C429.442 720.564 430.579 720.845 431.5 721.408C432.429 721.97 433.132 722.72 433.609 723.658C434.087 724.595 434.325 725.627 434.325 726.752V728.132C434.325 729.24 434.082 730.263 433.596 731.201C433.119 732.138 432.416 732.892 431.487 733.463C430.558 734.034 429.425 734.32 428.087 734.32C426.748 734.32 425.619 734.034 424.699 733.463C423.778 732.892 423.079 732.138 422.602 731.201C422.133 730.263 421.899 729.24 421.899 728.132ZM426.348 726.752V728.132C426.348 728.618 426.467 729.1 426.706 729.577C426.953 730.046 427.413 730.28 428.087 730.28C428.794 730.28 429.258 730.05 429.48 729.59C429.71 729.13 429.825 728.644 429.825 728.132V726.752C429.825 726.24 429.719 725.746 429.506 725.269C429.293 724.792 428.82 724.553 428.087 724.553C427.413 724.553 426.953 724.792 426.706 725.269C426.467 725.746 426.348 726.24 426.348 726.752ZM408.195 713.149V711.769C408.195 710.644 408.437 709.613 408.923 708.675C409.418 707.738 410.125 706.988 411.045 706.425C411.966 705.863 413.078 705.581 414.382 705.581C415.737 705.581 416.875 705.863 417.795 706.425C418.724 706.988 419.427 707.738 419.905 708.675C420.382 709.613 420.621 710.644 420.621 711.769V713.149C420.621 714.274 420.378 715.301 419.892 716.23C419.415 717.159 418.712 717.901 417.783 718.455C416.854 719.009 415.72 719.286 414.382 719.286C413.044 719.286 411.915 719.005 410.994 718.442C410.074 717.88 409.375 717.134 408.898 716.205C408.429 715.276 408.195 714.257 408.195 713.149ZM412.695 711.769V713.149C412.695 713.661 412.814 714.147 413.052 714.607C413.291 715.067 413.734 715.297 414.382 715.297C415.089 715.297 415.554 715.067 415.775 714.607C416.006 714.147 416.121 713.661 416.121 713.149V711.769C416.121 711.257 416.014 710.763 415.801 710.286C415.588 709.809 415.115 709.57 414.382 709.57C413.709 709.57 413.257 709.817 413.027 710.311C412.805 710.797 412.695 711.283 412.695 711.769ZM410.368 733.042L428.368 706.86H431.998L413.998 733.042H410.368Z" fill="url(#paint3_linear_3_4616)"/>
<path d="M377.616 706.86V733.042H370.508V713.405H370.354L364.627 716.831V710.797L371.07 706.86H377.616ZM393.575 733.399C392.049 733.399 390.6 733.161 389.228 732.684C387.865 732.198 386.654 731.435 385.597 730.395C384.541 729.355 383.71 728 383.105 726.33C382.508 724.659 382.214 722.635 382.222 720.257C382.231 718.135 382.504 716.226 383.041 714.53C383.586 712.834 384.357 711.39 385.355 710.196C386.36 709.003 387.562 708.091 388.96 707.461C390.357 706.821 391.913 706.502 393.626 706.502C395.552 706.502 397.248 706.872 398.714 707.614C400.18 708.355 401.347 709.348 402.217 710.593C403.095 711.828 403.606 713.192 403.751 714.684H396.745C396.583 713.942 396.208 713.401 395.62 713.06C395.041 712.711 394.376 712.536 393.626 712.536C392.134 712.536 391.039 713.184 390.34 714.479C389.65 715.774 389.296 717.479 389.279 719.593H389.433C389.765 718.792 390.268 718.105 390.941 717.534C391.615 716.963 392.399 716.524 393.293 716.218C394.188 715.911 395.134 715.757 396.132 715.757C397.717 715.757 399.102 716.115 400.286 716.831C401.48 717.547 402.409 718.527 403.073 719.772C403.738 721.016 404.066 722.439 404.058 724.042C404.066 725.917 403.623 727.557 402.728 728.963C401.842 730.37 400.61 731.461 399.034 732.236C397.457 733.012 395.637 733.399 393.575 733.399ZM393.524 728.03C394.231 728.03 394.857 727.868 395.403 727.544C395.957 727.22 396.387 726.777 396.694 726.215C397.009 725.652 397.163 725.013 397.154 724.297C397.163 723.573 397.009 722.934 396.694 722.38C396.387 721.817 395.957 721.374 395.403 721.05C394.857 720.726 394.231 720.564 393.524 720.564C393.004 720.564 392.522 720.658 392.079 720.845C391.644 721.024 391.265 721.284 390.941 721.625C390.617 721.958 390.362 722.354 390.174 722.814C389.995 723.266 389.901 723.76 389.893 724.297C389.901 725.013 390.063 725.652 390.379 726.215C390.694 726.777 391.124 727.22 391.67 727.544C392.215 727.868 392.833 728.03 393.524 728.03ZM421.899 728.132V726.752C421.899 725.644 422.138 724.621 422.615 723.684C423.101 722.746 423.804 721.992 424.724 721.421C425.645 720.85 426.766 720.564 428.087 720.564C429.442 720.564 430.579 720.845 431.5 721.408C432.429 721.97 433.132 722.72 433.609 723.658C434.087 724.595 434.325 725.627 434.325 726.752V728.132C434.325 729.24 434.082 730.263 433.596 731.201C433.119 732.138 432.416 732.892 431.487 733.463C430.558 734.034 429.425 734.32 428.087 734.32C426.748 734.32 425.619 734.034 424.699 733.463C423.778 732.892 423.079 732.138 422.602 731.201C422.133 730.263 421.899 729.24 421.899 728.132ZM426.348 726.752V728.132C426.348 728.618 426.467 729.1 426.706 729.577C426.953 730.046 427.413 730.28 428.087 730.28C428.794 730.28 429.258 730.05 429.48 729.59C429.71 729.13 429.825 728.644 429.825 728.132V726.752C429.825 726.24 429.719 725.746 429.506 725.269C429.293 724.792 428.82 724.553 428.087 724.553C427.413 724.553 426.953 724.792 426.706 725.269C426.467 725.746 426.348 726.24 426.348 726.752ZM408.195 713.149V711.769C408.195 710.644 408.437 709.613 408.923 708.675C409.418 707.738 410.125 706.988 411.045 706.425C411.966 705.863 413.078 705.581 414.382 705.581C415.737 705.581 416.875 705.863 417.795 706.425C418.724 706.988 419.427 707.738 419.905 708.675C420.382 709.613 420.621 710.644 420.621 711.769V713.149C420.621 714.274 420.378 715.301 419.892 716.23C419.415 717.159 418.712 717.901 417.783 718.455C416.854 719.009 415.72 719.286 414.382 719.286C413.044 719.286 411.915 719.005 410.994 718.442C410.074 717.88 409.375 717.134 408.898 716.205C408.429 715.276 408.195 714.257 408.195 713.149ZM412.695 711.769V713.149C412.695 713.661 412.814 714.147 413.052 714.607C413.291 715.067 413.734 715.297 414.382 715.297C415.089 715.297 415.554 715.067 415.775 714.607C416.006 714.147 416.121 713.661 416.121 713.149V711.769C416.121 711.257 416.014 710.763 415.801 710.286C415.588 709.809 415.115 709.57 414.382 709.57C413.709 709.57 413.257 709.817 413.027 710.311C412.805 710.797 412.695 711.283 412.695 711.769ZM410.368 733.042L428.368 706.86H431.998L413.998 733.042H410.368Z" fill="black" fill-opacity="0.2"/>
<path d="M364.275 772.042V761.86H365.508V770.948H370.241V772.042H364.275ZM373.243 761.86V772.042H372.01V761.86H373.243ZM379.274 768.86H380.626L381.76 770.351L382.058 770.749L383.748 772.996H382.396L381.282 771.505L381.004 771.127L379.274 768.86ZM384.166 766.951C384.166 768.024 383.972 768.952 383.584 769.735C383.196 770.517 382.665 771.12 381.988 771.544C381.312 771.969 380.54 772.181 379.672 772.181C378.803 772.181 378.031 771.969 377.355 771.544C376.679 771.12 376.147 770.517 375.759 769.735C375.371 768.952 375.177 768.024 375.177 766.951C375.177 765.877 375.371 764.949 375.759 764.167C376.147 763.384 376.679 762.781 377.355 762.357C378.031 761.933 378.803 761.72 379.672 761.72C380.54 761.72 381.312 761.933 381.988 762.357C382.665 762.781 383.196 763.384 383.584 764.167C383.972 764.949 384.166 765.877 384.166 766.951ZM382.973 766.951C382.973 766.069 382.825 765.325 382.53 764.718C382.239 764.112 381.843 763.653 381.342 763.341C380.845 763.03 380.288 762.874 379.672 762.874C379.055 762.874 378.497 763.03 377.996 763.341C377.499 763.653 377.103 764.112 376.808 764.718C376.516 765.325 376.37 766.069 376.37 766.951C376.37 767.832 376.516 768.576 376.808 769.183C377.103 769.789 377.499 770.248 377.996 770.56C378.497 770.872 379.055 771.027 379.672 771.027C380.288 771.027 380.845 770.872 381.342 770.56C381.843 770.248 382.239 769.789 382.53 769.183C382.825 768.576 382.973 767.832 382.973 766.951ZM392.781 761.86H394.014V768.601C394.014 769.297 393.85 769.919 393.522 770.466C393.197 771.009 392.738 771.438 392.145 771.753C391.551 772.065 390.855 772.22 390.056 772.22C389.258 772.22 388.562 772.065 387.968 771.753C387.375 771.438 386.914 771.009 386.586 770.466C386.261 769.919 386.099 769.297 386.099 768.601V761.86H387.332V768.502C387.332 768.999 387.441 769.441 387.66 769.829C387.879 770.214 388.19 770.517 388.595 770.739C389.002 770.958 389.49 771.067 390.056 771.067C390.623 771.067 391.11 770.958 391.518 770.739C391.926 770.517 392.237 770.214 392.453 769.829C392.672 769.441 392.781 768.999 392.781 768.502V761.86ZM397.569 761.86V772.042H396.336V761.86H397.569ZM403.043 772.042H399.901V761.86H403.182C404.17 761.86 405.015 762.064 405.718 762.471C406.421 762.876 406.959 763.457 407.334 764.216C407.708 764.972 407.895 765.877 407.895 766.931C407.895 767.991 407.707 768.904 407.329 769.67C406.951 770.432 406.401 771.019 405.678 771.43C404.956 771.838 404.077 772.042 403.043 772.042ZM401.134 770.948H402.964C403.805 770.948 404.503 770.785 405.057 770.461C405.61 770.136 406.023 769.673 406.295 769.073C406.566 768.474 406.702 767.759 406.702 766.931C406.702 766.109 406.568 765.401 406.3 764.808C406.031 764.211 405.63 763.754 405.096 763.436C404.563 763.114 403.898 762.953 403.103 762.953H401.134V770.948ZM411.057 761.86V772.042H409.824V761.86H411.057ZM412.832 762.953V761.86H420.468V762.953H417.267V772.042H416.034V762.953H412.832ZM421.356 761.86H422.768L425.592 766.613H425.711L428.535 761.86H429.947L426.268 767.845V772.042H425.035V767.845L421.356 761.86Z" fill="#FBFBFB"/>
<path d="M55.0079 163.399C52.9454 163.399 51.113 163.046 49.5107 162.338C47.917 161.622 46.6642 160.638 45.7522 159.385C44.8403 158.132 44.3801 156.692 44.3715 155.064H51.5306C51.5392 155.567 51.6926 156.019 51.9909 156.419C52.2977 156.811 52.7153 157.118 53.2437 157.34C53.7721 157.561 54.3772 157.672 55.059 157.672C55.7153 157.672 56.2948 157.557 56.7977 157.327C57.3005 157.088 57.6926 156.76 57.9738 156.343C58.2551 155.925 58.3914 155.448 58.3829 154.911C58.3914 154.382 58.2295 153.914 57.8971 153.505C57.5732 153.095 57.1173 152.776 56.5292 152.546C55.9411 152.316 55.2636 152.201 54.4965 152.201H51.8374V147.292H54.4965C55.2039 147.292 55.8261 147.176 56.363 146.946C56.9085 146.716 57.3303 146.397 57.6286 145.988C57.9355 145.578 58.0846 145.11 58.0761 144.581C58.0846 144.07 57.961 143.618 57.7053 143.226C57.4497 142.834 57.0917 142.527 56.6315 142.306C56.1798 142.084 55.6556 141.973 55.059 141.973C54.4113 141.973 53.8318 142.088 53.3204 142.318C52.8176 142.549 52.4213 142.868 52.1315 143.277C51.8417 143.686 51.6926 144.155 51.684 144.684H44.8829C44.8914 143.081 45.3303 141.667 46.1997 140.439C47.0775 139.212 48.2792 138.249 49.8048 137.55C51.3303 136.851 53.0818 136.502 55.059 136.502C56.9937 136.502 58.7025 136.83 60.1855 137.486C61.6769 138.142 62.8403 139.046 63.6755 140.196C64.5193 141.338 64.9369 142.647 64.9284 144.121C64.9454 145.587 64.4426 146.789 63.4198 147.726C62.4056 148.664 61.1187 149.218 59.559 149.388V149.593C61.6727 149.823 63.2622 150.47 64.3275 151.536C65.3928 152.593 65.917 153.922 65.8999 155.524C65.9085 157.059 65.4482 158.418 64.5193 159.603C63.5988 160.787 62.3161 161.716 60.6713 162.39C59.0349 163.063 57.1471 163.399 55.0079 163.399ZM79.1966 163.399C77.1852 163.399 75.3997 163.046 73.84 162.338C72.2889 161.622 71.0659 160.638 70.171 159.385C69.2846 158.132 68.8329 156.692 68.8159 155.064H75.7193C75.7448 155.968 76.0943 156.688 76.7676 157.225C77.4494 157.762 78.2591 158.03 79.1966 158.03C79.921 158.03 80.5602 157.877 81.1142 157.57C81.6681 157.255 82.1028 156.811 82.4181 156.24C82.7335 155.669 82.8869 155.005 82.8784 154.246C82.8869 153.479 82.7335 152.814 82.4181 152.252C82.1028 151.681 81.6681 151.242 81.1142 150.935C80.5602 150.62 79.921 150.462 79.1966 150.462C78.4466 150.462 77.7519 150.645 77.1127 151.012C76.4821 151.37 76.0176 151.868 75.7193 152.507L69.4806 151.28L70.5034 136.86H88.0943V142.536H76.3329L75.8216 148.314H75.975C76.3841 147.522 77.0914 146.865 78.0971 146.345C79.1028 145.817 80.2704 145.553 81.6 145.553C83.1596 145.553 84.5488 145.915 85.7676 146.64C86.9948 147.364 87.9622 148.365 88.6696 149.644C89.3855 150.914 89.7392 152.38 89.7306 154.042C89.7392 155.865 89.3045 157.485 88.4267 158.899C87.5573 160.306 86.3343 161.409 84.7576 162.211C83.1809 163.003 81.3272 163.399 79.1966 163.399ZM107.419 158.132V156.752C107.419 155.644 107.657 154.621 108.134 153.684C108.62 152.746 109.323 151.992 110.244 151.421C111.164 150.85 112.285 150.564 113.606 150.564C114.961 150.564 116.099 150.845 117.019 151.408C117.948 151.97 118.652 152.72 119.129 153.658C119.606 154.595 119.845 155.627 119.845 156.752V158.132C119.845 159.24 119.602 160.263 119.116 161.201C118.639 162.138 117.936 162.892 117.007 163.463C116.078 164.034 114.944 164.32 113.606 164.32C112.268 164.32 111.139 164.034 110.218 163.463C109.298 162.892 108.599 162.138 108.122 161.201C107.653 160.263 107.419 159.24 107.419 158.132ZM111.867 156.752V158.132C111.867 158.618 111.987 159.1 112.225 159.577C112.473 160.046 112.933 160.28 113.606 160.28C114.313 160.28 114.778 160.05 115 159.59C115.23 159.13 115.345 158.644 115.345 158.132V156.752C115.345 156.24 115.238 155.746 115.025 155.269C114.812 154.792 114.339 154.553 113.606 154.553C112.933 154.553 112.473 154.792 112.225 155.269C111.987 155.746 111.867 156.24 111.867 156.752ZM93.714 143.149V141.769C93.714 140.644 93.9569 139.613 94.4427 138.675C94.937 137.738 95.6444 136.988 96.5649 136.425C97.4853 135.863 98.5976 135.581 99.9015 135.581C101.257 135.581 102.394 135.863 103.315 136.425C104.244 136.988 104.947 137.738 105.424 138.675C105.902 139.613 106.14 140.644 106.14 141.769V143.149C106.14 144.274 105.897 145.301 105.411 146.23C104.934 147.159 104.231 147.901 103.302 148.455C102.373 149.009 101.24 149.286 99.9015 149.286C98.5635 149.286 97.4342 149.005 96.5138 148.442C95.5933 147.88 94.8944 147.134 94.4172 146.205C93.9484 145.276 93.714 144.257 93.714 143.149ZM98.214 141.769V143.149C98.214 143.661 98.3334 144.147 98.572 144.607C98.8106 145.067 99.2538 145.297 99.9015 145.297C100.609 145.297 101.073 145.067 101.295 144.607C101.525 144.147 101.64 143.661 101.64 143.149V141.769C101.64 141.257 101.534 140.763 101.321 140.286C101.108 139.809 100.634 139.57 99.9015 139.57C99.2282 139.57 98.7765 139.817 98.5464 140.311C98.3248 140.797 98.214 141.283 98.214 141.769ZM95.8873 163.042L113.887 136.86H117.518L99.518 163.042H95.8873Z" fill="url(#paint4_linear_3_4616)"/>
<path d="M55.0079 163.399C52.9454 163.399 51.113 163.046 49.5107 162.338C47.917 161.622 46.6642 160.638 45.7522 159.385C44.8403 158.132 44.3801 156.692 44.3715 155.064H51.5306C51.5392 155.567 51.6926 156.019 51.9909 156.419C52.2977 156.811 52.7153 157.118 53.2437 157.34C53.7721 157.561 54.3772 157.672 55.059 157.672C55.7153 157.672 56.2948 157.557 56.7977 157.327C57.3005 157.088 57.6926 156.76 57.9738 156.343C58.2551 155.925 58.3914 155.448 58.3829 154.911C58.3914 154.382 58.2295 153.914 57.8971 153.505C57.5732 153.095 57.1173 152.776 56.5292 152.546C55.9411 152.316 55.2636 152.201 54.4965 152.201H51.8374V147.292H54.4965C55.2039 147.292 55.8261 147.176 56.363 146.946C56.9085 146.716 57.3303 146.397 57.6286 145.988C57.9355 145.578 58.0846 145.11 58.0761 144.581C58.0846 144.07 57.961 143.618 57.7053 143.226C57.4497 142.834 57.0917 142.527 56.6315 142.306C56.1798 142.084 55.6556 141.973 55.059 141.973C54.4113 141.973 53.8318 142.088 53.3204 142.318C52.8176 142.549 52.4213 142.868 52.1315 143.277C51.8417 143.686 51.6926 144.155 51.684 144.684H44.8829C44.8914 143.081 45.3303 141.667 46.1997 140.439C47.0775 139.212 48.2792 138.249 49.8048 137.55C51.3303 136.851 53.0818 136.502 55.059 136.502C56.9937 136.502 58.7025 136.83 60.1855 137.486C61.6769 138.142 62.8403 139.046 63.6755 140.196C64.5193 141.338 64.9369 142.647 64.9284 144.121C64.9454 145.587 64.4426 146.789 63.4198 147.726C62.4056 148.664 61.1187 149.218 59.559 149.388V149.593C61.6727 149.823 63.2622 150.47 64.3275 151.536C65.3928 152.593 65.917 153.922 65.8999 155.524C65.9085 157.059 65.4482 158.418 64.5193 159.603C63.5988 160.787 62.3161 161.716 60.6713 162.39C59.0349 163.063 57.1471 163.399 55.0079 163.399ZM79.1966 163.399C77.1852 163.399 75.3997 163.046 73.84 162.338C72.2889 161.622 71.0659 160.638 70.171 159.385C69.2846 158.132 68.8329 156.692 68.8159 155.064H75.7193C75.7448 155.968 76.0943 156.688 76.7676 157.225C77.4494 157.762 78.2591 158.03 79.1966 158.03C79.921 158.03 80.5602 157.877 81.1142 157.57C81.6681 157.255 82.1028 156.811 82.4181 156.24C82.7335 155.669 82.8869 155.005 82.8784 154.246C82.8869 153.479 82.7335 152.814 82.4181 152.252C82.1028 151.681 81.6681 151.242 81.1142 150.935C80.5602 150.62 79.921 150.462 79.1966 150.462C78.4466 150.462 77.7519 150.645 77.1127 151.012C76.4821 151.37 76.0176 151.868 75.7193 152.507L69.4806 151.28L70.5034 136.86H88.0943V142.536H76.3329L75.8216 148.314H75.975C76.3841 147.522 77.0914 146.865 78.0971 146.345C79.1028 145.817 80.2704 145.553 81.6 145.553C83.1596 145.553 84.5488 145.915 85.7676 146.64C86.9948 147.364 87.9622 148.365 88.6696 149.644C89.3855 150.914 89.7392 152.38 89.7306 154.042C89.7392 155.865 89.3045 157.485 88.4267 158.899C87.5573 160.306 86.3343 161.409 84.7576 162.211C83.1809 163.003 81.3272 163.399 79.1966 163.399ZM107.419 158.132V156.752C107.419 155.644 107.657 154.621 108.134 153.684C108.62 152.746 109.323 151.992 110.244 151.421C111.164 150.85 112.285 150.564 113.606 150.564C114.961 150.564 116.099 150.845 117.019 151.408C117.948 151.97 118.652 152.72 119.129 153.658C119.606 154.595 119.845 155.627 119.845 156.752V158.132C119.845 159.24 119.602 160.263 119.116 161.201C118.639 162.138 117.936 162.892 117.007 163.463C116.078 164.034 114.944 164.32 113.606 164.32C112.268 164.32 111.139 164.034 110.218 163.463C109.298 162.892 108.599 162.138 108.122 161.201C107.653 160.263 107.419 159.24 107.419 158.132ZM111.867 156.752V158.132C111.867 158.618 111.987 159.1 112.225 159.577C112.473 160.046 112.933 160.28 113.606 160.28C114.313 160.28 114.778 160.05 115 159.59C115.23 159.13 115.345 158.644 115.345 158.132V156.752C115.345 156.24 115.238 155.746 115.025 155.269C114.812 154.792 114.339 154.553 113.606 154.553C112.933 154.553 112.473 154.792 112.225 155.269C111.987 155.746 111.867 156.24 111.867 156.752ZM93.714 143.149V141.769C93.714 140.644 93.9569 139.613 94.4427 138.675C94.937 137.738 95.6444 136.988 96.5649 136.425C97.4853 135.863 98.5976 135.581 99.9015 135.581C101.257 135.581 102.394 135.863 103.315 136.425C104.244 136.988 104.947 137.738 105.424 138.675C105.902 139.613 106.14 140.644 106.14 141.769V143.149C106.14 144.274 105.897 145.301 105.411 146.23C104.934 147.159 104.231 147.901 103.302 148.455C102.373 149.009 101.24 149.286 99.9015 149.286C98.5635 149.286 97.4342 149.005 96.5138 148.442C95.5933 147.88 94.8944 147.134 94.4172 146.205C93.9484 145.276 93.714 144.257 93.714 143.149ZM98.214 141.769V143.149C98.214 143.661 98.3334 144.147 98.572 144.607C98.8106 145.067 99.2538 145.297 99.9015 145.297C100.609 145.297 101.073 145.067 101.295 144.607C101.525 144.147 101.64 143.661 101.64 143.149V141.769C101.64 141.257 101.534 140.763 101.321 140.286C101.108 139.809 100.634 139.57 99.9015 139.57C99.2282 139.57 98.7765 139.817 98.5464 140.311C98.3248 140.797 98.214 141.283 98.214 141.769ZM95.8873 163.042L113.887 136.86H117.518L99.518 163.042H95.8873Z" fill="black" fill-opacity="0.2"/>
<path d="M52.4681 195.042H51.2352C51.1623 194.687 51.0347 194.375 50.8524 194.107C50.6734 193.838 50.4546 193.613 50.1961 193.431C49.9409 193.245 49.6575 193.106 49.346 193.013C49.0344 192.92 48.7096 192.874 48.3715 192.874C47.7551 192.874 47.1966 193.03 46.6961 193.341C46.199 193.653 45.8029 194.112 45.5079 194.718C45.2162 195.325 45.0704 196.069 45.0704 196.951C45.0704 197.832 45.2162 198.576 45.5079 199.183C45.8029 199.789 46.199 200.248 46.6961 200.56C47.1966 200.872 47.7551 201.027 48.3715 201.027C48.7096 201.027 49.0344 200.981 49.346 200.888C49.6575 200.795 49.9409 200.658 50.1961 200.475C50.4546 200.29 50.6734 200.063 50.8524 199.794C51.0347 199.523 51.1623 199.211 51.2352 198.86H52.4681C52.3753 199.38 52.2063 199.846 51.961 200.257C51.7158 200.668 51.4108 201.017 51.0463 201.306C50.6817 201.591 50.2723 201.808 49.8183 201.957C49.3675 202.106 48.8853 202.181 48.3715 202.181C47.5032 202.181 46.7309 201.969 46.0548 201.544C45.3786 201.12 44.8467 200.517 44.4589 199.735C44.0711 198.952 43.8772 198.024 43.8772 196.951C43.8772 195.877 44.0711 194.949 44.4589 194.167C44.8467 193.384 45.3786 192.781 46.0548 192.357C46.7309 191.933 47.5032 191.72 48.3715 191.72C48.8853 191.72 49.3675 191.795 49.8183 191.944C50.2723 192.093 50.6817 192.312 51.0463 192.6C51.4108 192.885 51.7158 193.234 51.961 193.644C52.2063 194.052 52.3753 194.518 52.4681 195.042ZM62.9114 196.951C62.9114 198.024 62.7175 198.952 62.3297 199.735C61.9419 200.517 61.41 201.12 60.7338 201.544C60.0577 201.969 59.2855 202.181 58.4171 202.181C57.5487 202.181 56.7765 201.969 56.1003 201.544C55.4242 201.12 54.8922 200.517 54.5044 199.735C54.1167 198.952 53.9228 198.024 53.9228 196.951C53.9228 195.877 54.1167 194.949 54.5044 194.167C54.8922 193.384 55.4242 192.781 56.1003 192.357C56.7765 191.933 57.5487 191.72 58.4171 191.72C59.2855 191.72 60.0577 191.933 60.7338 192.357C61.41 192.781 61.9419 193.384 62.3297 194.167C62.7175 194.949 62.9114 195.877 62.9114 196.951ZM61.7182 196.951C61.7182 196.069 61.5707 195.325 61.2757 194.718C60.9841 194.112 60.588 193.653 60.0875 193.341C59.5904 193.03 59.0336 192.874 58.4171 192.874C57.8006 192.874 57.2421 193.03 56.7417 193.341C56.2445 193.653 55.8484 194.112 55.5534 194.718C55.2618 195.325 55.1159 196.069 55.1159 196.951C55.1159 197.832 55.2618 198.576 55.5534 199.183C55.8484 199.789 56.2445 200.248 56.7417 200.56C57.2421 200.872 57.8006 201.027 58.4171 201.027C59.0336 201.027 59.5904 200.872 60.0875 200.56C60.588 200.248 60.9841 199.789 61.2757 199.183C61.5707 198.576 61.7182 197.832 61.7182 196.951ZM64.8446 191.86H66.3161L69.7764 200.311H69.8957L73.3559 191.86H74.8275V202.042H73.6741V194.306H73.5747L70.3929 202.042H69.2792L66.0974 194.306H65.998V202.042H64.8446V191.86ZM77.1596 191.86H78.6312L82.0915 200.311H82.2108L85.671 191.86H87.1426V202.042H85.9892V194.306H85.8898L82.7079 202.042H81.5943L78.4125 194.306H78.313V202.042H77.1596V191.86ZM96.1565 191.86H97.3895V198.601C97.3895 199.297 97.2254 199.919 96.8973 200.466C96.5725 201.009 96.1134 201.438 95.5202 201.753C94.9269 202.065 94.2309 202.22 93.4321 202.22C92.6333 202.22 91.9373 202.065 91.344 201.753C90.7508 201.438 90.2901 201.009 89.9619 200.466C89.6371 199.919 89.4747 199.297 89.4747 198.601V191.86H90.7077V198.502C90.7077 198.999 90.817 199.441 91.0358 199.829C91.2545 200.214 91.5661 200.517 91.9704 200.739C92.3781 200.958 92.8653 201.067 93.4321 201.067C93.9989 201.067 94.4861 200.958 94.8937 200.739C95.3014 200.517 95.613 200.214 95.8284 199.829C96.0472 199.441 96.1565 198.999 96.1565 198.502V191.86ZM107.786 191.86V202.042H106.592L101.044 194.047H100.945V202.042H99.7117V191.86H100.905L106.473 199.874H106.572V191.86H107.786ZM111.346 191.86V202.042H110.113V191.86H111.346ZM113.121 192.953V191.86H120.757V192.953H117.556V202.042H116.323V192.953H113.121ZM121.645 191.86H123.057L125.881 196.613H126L128.824 191.86H130.236L126.557 197.845V202.042H125.324V197.845L121.645 191.86Z" fill="#FBFBFB"/>
<path d="M115.681 409.245C108.213 359.841 114.15 309.337 132.872 263.011C151.593 216.685 182.411 176.237 222.107 145.892C261.804 115.547 308.92 96.4195 358.535 90.5073C408.15 84.5952 458.442 92.1156 504.157 112.283L391.547 367.547L115.681 409.245Z" fill="url(#paint5_linear_3_4616)"/>
<path d="M524.184 114.074C561.732 130.712 595.144 155.435 622.034 186.477C648.923 217.519 668.629 254.115 679.742 293.652L411.152 369.152L524.184 114.074Z" fill="url(#paint6_linear_3_4616)"/>
<path d="M228.279 616.962C197.094 595.049 170.729 566.979 150.811 534.483C130.893 501.987 117.845 465.755 112.471 428.021L388.684 388.683L228.279 616.962Z" fill="url(#paint7_linear_3_4616)"/>
<path d="M693.99 317.039C713.703 382.055 709.015 452.031 680.806 513.837C652.597 575.643 602.805 625.032 540.772 652.738L426.993 397.992L693.99 317.039Z" fill="url(#paint8_linear_3_4616)"/>
<path d="M514.136 654.111C470.93 672.598 423.755 679.872 376.987 675.258C330.22 670.644 285.376 654.292 246.616 627.718L404.38 397.606L514.136 654.111Z" fill="url(#paint9_linear_3_4616)"/>
<defs>
<linearGradient id="paint0_linear_3_4616" x1="80.4664" y1="527.198" x2="117.359" y2="577.01" gradientUnits="userSpaceOnUse">
<stop stop-color="#01780D"/>
<stop offset="0.991552" stop-color="#01EA01"/>
</linearGradient>
<linearGradient id="paint1_linear_3_4616" x1="698.701" y1="144.199" x2="735.447" y2="194.482" gradientUnits="userSpaceOnUse">
<stop stop-color="#01780D"/>
<stop offset="0.991552" stop-color="#01EA01"/>
</linearGradient>
<linearGradient id="paint2_linear_3_4616" x1="709.879" y1="527.198" x2="745.844" y2="579.694" gradientUnits="userSpaceOnUse">
<stop stop-color="#01780D"/>
<stop offset="0.991552" stop-color="#01EA01"/>
</linearGradient>
<linearGradient id="paint3_linear_3_4616" x1="380.702" y1="694.198" x2="417.448" y2="744.481" gradientUnits="userSpaceOnUse">
<stop stop-color="#01780D"/>
<stop offset="0.991552" stop-color="#01EA01"/>
</linearGradient>
<linearGradient id="paint4_linear_3_4616" x1="61.8792" y1="124.198" x2="97.8445" y2="176.694" gradientUnits="userSpaceOnUse">
<stop stop-color="#01780D"/>
<stop offset="0.991552" stop-color="#01EA01"/>
</linearGradient>
<linearGradient id="paint5_linear_3_4616" x1="585.792" y1="10.0007" x2="125.396" y2="473.515" gradientUnits="userSpaceOnUse">
<stop stop-color="#06FF1A"/>
<stop offset="1" stop-color="#06FF1A" stop-opacity="0"/>
</linearGradient>
<linearGradient id="paint6_linear_3_4616" x1="525.71" y1="116.583" x2="367.238" y2="715.829" gradientUnits="userSpaceOnUse">
<stop stop-color="#02790E"/>
<stop offset="1" stop-color="#091B00" stop-opacity="0"/>
</linearGradient>
<linearGradient id="paint7_linear_3_4616" x1="315.467" y1="704.55" x2="57.6345" y2="-91.4892" gradientUnits="userSpaceOnUse">
<stop stop-color="#56F65E"/>
<stop offset="1" stop-opacity="0"/>
</linearGradient>
<linearGradient id="paint8_linear_3_4616" x1="570.635" y1="255.242" x2="559.739" y2="876.261" gradientUnits="userSpaceOnUse">
<stop stop-color="#00FF18"/>
<stop offset="1" stop-opacity="0"/>
</linearGradient>
<linearGradient id="paint9_linear_3_4616" x1="404.365" y1="397.542" x2="374.032" y2="901.69" gradientUnits="userSpaceOnUse">
<stop stop-color="#02790E"/>
<stop offset="0.0001" stop-color="#0C3B00"/>
<stop offset="0.0002" stop-color="#0C3B00"/>
<stop offset="1" stop-opacity="0"/>
</linearGradient>
</defs>
</svg>
