<svg width="85" height="86" viewBox="0 0 85 86" fill="none" xmlns="http://www.w3.org/2000/svg">
<path d="M42.5 85.7725C65.9721 85.7725 85 66.7446 85 43.2725C85 19.8004 65.9721 0.772461 42.5 0.772461C19.0279 0.772461 0 19.8004 0 43.2725C0 66.7446 19.0279 85.7725 42.5 85.7725Z" fill="url(#paint0_linear_3_4851)"/>
<path d="M42.5 51.538V62.4212C46.1125 64.8903 50.3965 66.3126 55.0342 66.258C65.2506 66.1218 74.4877 58.8591 77.4725 49.417C65.8018 50.1573 54.1422 50.8796 42.5 51.538Z" fill="url(#paint1_linear_3_4851)"/>
<path d="M58.9948 58.5918C66.386 58.5164 73.1392 54.8534 77.4725 49.4173C78.078 47.4591 78.4052 45.4002 78.405 43.2727C78.3459 30.9304 67.32 20.4832 55.0342 20.2872C50.3964 20.2327 46.1127 21.6548 42.5 24.1239V51.5381C46.6939 55.9364 52.5152 58.6592 58.9948 58.5918Z" fill="url(#paint2_linear_3_4851)"/>
<path d="M11.5709 29.5815C8.49378 33.4346 6.59174 38.1607 6.59473 43.2725C6.65383 55.6148 17.6798 66.0622 29.9656 66.2581C34.6034 66.3128 38.8871 64.8902 42.4998 62.4213C42.4998 60.5614 42.4998 58.7015 42.4998 56.8415C32.1852 47.6691 21.5142 38.4134 11.5709 29.5815Z" fill="url(#paint3_linear_3_4851)"/>
<path d="M29.9656 20.2872C17.6798 20.4834 6.65383 30.9304 6.59473 43.2727C6.65383 55.615 17.6798 66.0623 29.9656 66.2582C34.6034 66.313 38.8871 64.8904 42.4997 62.4214C42.4997 49.6557 42.4997 36.8899 42.4997 24.1241C38.8871 21.655 34.6034 20.2325 29.9656 20.2872Z" fill="url(#paint4_radial_3_4851)"/>
<path d="M55.0342 20.2872C67.3202 20.4832 78.3459 30.9304 78.405 43.2727C78.3459 55.615 67.32 66.0623 55.0342 66.2582C50.3964 66.313 46.1127 64.8904 42.5 62.4214C42.5 49.6557 42.5 36.8899 42.5 24.1241C46.1125 21.655 50.3965 20.2325 55.0342 20.2872Z" fill="url(#paint5_linear_3_4851)"/>
<path d="M55.0342 20.2872C67.3202 20.4832 78.3459 30.9304 78.405 43.2727C78.3459 55.615 67.32 66.0623 55.0342 66.2582C50.3964 66.313 46.1127 64.8904 42.5 62.4214C42.5 49.6557 42.5 36.8899 42.5 24.1241C46.1125 21.655 50.3965 20.2325 55.0342 20.2872Z" fill="black" fill-opacity="0.2"/>
<path d="M29.9658 20.2872C22.6796 20.3725 15.9878 24.0836 11.5711 29.5815C10.9303 31.5536 10.5591 33.6259 10.5101 35.7641C10.2452 48.1785 21.0812 58.5353 33.5795 58.6489C36.7448 58.666 39.7528 58.02 42.5002 56.8415C42.5002 45.9356 42.5002 35.0298 42.5002 24.1239C38.8874 21.655 34.6036 20.2325 29.9658 20.2872Z" fill="url(#paint6_linear_3_4851)"/>
<path d="M42.407 62.3573C36.034 57.9876 32.2303 50.8529 32.2319 43.2723C32.2301 35.6917 36.0339 28.5571 42.407 24.1873L42.5 24.1235L42.593 24.1873C48.966 28.5568 52.7699 35.6915 52.7681 43.2723C52.7699 50.8527 48.966 57.9874 42.593 62.3573L42.5 62.421L42.407 62.3573Z" fill="url(#paint7_linear_3_4851)"/>
<path d="M42.5 53.4824C48.1388 53.4824 52.71 48.9113 52.71 43.2725C52.71 37.6337 48.1388 33.0625 42.5 33.0625C36.8612 33.0625 32.29 37.6337 32.29 43.2725C32.29 48.9113 36.8612 53.4824 42.5 53.4824Z" fill="url(#paint8_linear_3_4851)"/>
<path d="M47.605 43.2725C47.6043 46.0899 45.3146 48.3771 42.5 48.3774C39.6854 48.3773 37.3957 46.0901 37.395 43.2725C37.3957 40.455 39.6854 38.1678 42.5 38.1675C45.3146 38.1678 47.6043 40.4552 47.605 43.2725Z" fill="url(#paint9_linear_3_4851)"/>
<path d="M47.605 43.2725C47.6043 46.0899 45.3146 48.3771 42.5 48.3774C39.6854 48.3773 37.3957 46.0901 37.395 43.2725C37.3957 40.455 39.6854 38.1678 42.5 38.1675C45.3146 38.1678 47.6043 40.4552 47.605 43.2725Z" fill="url(#paint10_linear_3_4851)"/>
<path d="M43.7758 45.8247C40.9582 45.8249 38.6699 43.5385 38.6723 40.7206C38.6725 40.4083 38.7026 40.1028 38.7567 39.8057C37.9127 40.7164 37.3949 41.934 37.395 43.2722C37.3957 46.0897 39.6854 48.3769 42.5 48.3772C45.0029 48.3772 47.0883 46.5681 47.5213 44.1868C46.5885 45.1932 45.2557 45.8244 43.7758 45.8247Z" fill="url(#paint11_linear_3_4851)"/>
<path d="M47.605 43.2725C47.6043 46.0899 45.3146 48.3771 42.5 48.3774C39.6854 48.3773 37.3957 46.0901 37.395 43.2725C37.3957 40.455 39.6854 38.1678 42.5 38.1675C45.3146 38.1678 47.6043 40.4552 47.605 43.2725Z" fill="url(#paint12_linear_3_4851)"/>
<path d="M47.605 43.2725C47.6043 46.0899 45.3146 48.3771 42.5 48.3774C39.6854 48.3773 37.3957 46.0901 37.395 43.2725C37.3957 40.455 39.6854 38.1678 42.5 38.1675C45.3146 38.1678 47.6043 40.4552 47.605 43.2725Z" fill="black" fill-opacity="0.2"/>
<defs>
<linearGradient id="paint0_linear_3_4851" x1="37.7417" y1="10.0052" x2="41.4855" y2="86.4707" gradientUnits="userSpaceOnUse">
<stop stop-color="#00FF19"/>
<stop offset="1" stop-color="#00FF19" stop-opacity="0"/>
</linearGradient>
<linearGradient id="paint1_linear_3_4851" x1="21.6157" y1="90.7117" x2="122.891" y2="-10.5633" gradientUnits="userSpaceOnUse">
<stop stop-color="#006946"/>
<stop offset="0.2513" stop-color="#008547"/>
<stop offset="0.3421" stop-color="#128F45"/>
<stop offset="0.5244" stop-color="#41AA41"/>
<stop offset="0.7788" stop-color="#8CD63A"/>
<stop offset="1" stop-color="#D3FF33"/>
</linearGradient>
<linearGradient id="paint2_linear_3_4851" x1="-27.9721" y1="124.838" x2="171.377" y2="-74.5115" gradientUnits="userSpaceOnUse">
<stop stop-color="#006946"/>
<stop offset="0.2513" stop-color="#008547"/>
<stop offset="0.3421" stop-color="#128F45"/>
<stop offset="0.5244" stop-color="#41AA41"/>
<stop offset="0.7788" stop-color="#8CD63A"/>
<stop offset="1" stop-color="#D3FF33"/>
</linearGradient>
<linearGradient id="paint3_linear_3_4851" x1="-9.95221" y1="82.9888" x2="59.3029" y2="13.7339" gradientUnits="userSpaceOnUse">
<stop stop-color="#00AA45"/>
<stop offset="0.7542" stop-color="#D3FF33"/>
<stop offset="1" stop-color="#F9FCCA"/>
</linearGradient>
<radialGradient id="paint4_radial_3_4851" cx="0" cy="0" r="1" gradientUnits="userSpaceOnUse" gradientTransform="translate(29.379 43.2727) scale(33.1088)">
<stop stop-color="#D3FF33" stop-opacity="0"/>
<stop offset="0.1409" stop-color="#CFFD33" stop-opacity="0.113"/>
<stop offset="0.2791" stop-color="#C3F635" stop-opacity="0.223"/>
<stop offset="0.4162" stop-color="#B0EB37" stop-opacity="0.333"/>
<stop offset="0.5527" stop-color="#94DC3A" stop-opacity="0.442"/>
<stop offset="0.6888" stop-color="#70C83F" stop-opacity="0.551"/>
<stop offset="0.8247" stop-color="#44B044" stop-opacity="0.66"/>
<stop offset="0.9579" stop-color="#12944A" stop-opacity="0.766"/>
<stop offset="1" stop-color="#008A4C" stop-opacity="0.8"/>
</radialGradient>
<linearGradient id="paint5_linear_3_4851" x1="50.9544" y1="26.2997" x2="76.2847" y2="51.5655" gradientUnits="userSpaceOnUse">
<stop stop-color="#01780D"/>
<stop offset="0.991552" stop-color="#01EA01"/>
</linearGradient>
<linearGradient id="paint6_linear_3_4851" x1="-86.7745" y1="156.914" x2="114.141" y2="-44.0019" gradientUnits="userSpaceOnUse">
<stop stop-color="#00AA45"/>
<stop offset="0.7542" stop-color="#D3FF33"/>
<stop offset="1" stop-color="#F9FCCA"/>
</linearGradient>
<linearGradient id="paint7_linear_3_4851" x1="-52.9298" y1="138.702" x2="48.2824" y2="37.4897" gradientUnits="userSpaceOnUse">
<stop stop-color="#DDFF59"/>
<stop offset="1" stop-color="white"/>
</linearGradient>
<linearGradient id="paint8_linear_3_4851" x1="-2.36009" y1="88.1325" x2="68.5907" y2="17.1818" gradientUnits="userSpaceOnUse">
<stop stop-color="#006946"/>
<stop offset="0.2513" stop-color="#008547"/>
<stop offset="0.3421" stop-color="#128F45"/>
<stop offset="0.5244" stop-color="#41AA41"/>
<stop offset="0.7788" stop-color="#8CD63A"/>
<stop offset="1" stop-color="#D3FF33"/>
</linearGradient>
<linearGradient id="paint9_linear_3_4851" x1="36.717" y1="49.0555" x2="81.7561" y2="4.01656" gradientUnits="userSpaceOnUse">
<stop stop-color="#006946"/>
<stop offset="0.2513" stop-color="#008547"/>
<stop offset="0.3421" stop-color="#128F45"/>
<stop offset="0.5244" stop-color="#41AA41"/>
<stop offset="0.7788" stop-color="#8CD63A"/>
<stop offset="1" stop-color="#D3FF33"/>
</linearGradient>
<linearGradient id="paint10_linear_3_4851" x1="35.7397" y1="50.0328" x2="82.243" y2="3.52947" gradientUnits="userSpaceOnUse">
<stop stop-color="#006946"/>
<stop offset="0.2513" stop-color="#008547"/>
<stop offset="0.3421" stop-color="#128F45"/>
<stop offset="0.5244" stop-color="#41AA41"/>
<stop offset="0.7788" stop-color="#8CD63A"/>
<stop offset="1" stop-color="#D3FF33"/>
</linearGradient>
<linearGradient id="paint11_linear_3_4851" x1="40.5224" y1="45.2526" x2="64.6535" y2="21.1216" gradientUnits="userSpaceOnUse">
<stop stop-color="#006946"/>
<stop offset="0.2513" stop-color="#008547"/>
<stop offset="0.3421" stop-color="#128F45"/>
<stop offset="0.5244" stop-color="#41AA41"/>
<stop offset="0.7788" stop-color="#8CD63A"/>
<stop offset="1" stop-color="#D3FF33"/>
</linearGradient>
<linearGradient id="paint12_linear_3_4851" x1="39.7991" y1="39.5031" x2="45.2603" y2="46.4779" gradientUnits="userSpaceOnUse">
<stop stop-color="#01780D"/>
<stop offset="0.991552" stop-color="#01EA01"/>
</linearGradient>
</defs>
</svg>
