<svg width="85" height="85" viewBox="0 0 85 85" fill="none" xmlns="http://www.w3.org/2000/svg">
<path d="M42.5 85C65.9721 85 85 65.9721 85 42.5C85 19.0279 65.9721 0 42.5 0C19.0279 0 0 19.0279 0 42.5C0 65.9721 19.0279 85 42.5 85Z" fill="url(#paint0_linear_3_4869)"/>
<path d="M42.5 85C65.9721 85 85 65.9721 85 42.5C85 19.0279 65.9721 0 42.5 0C19.0279 0 0 19.0279 0 42.5C0 65.9721 19.0279 85 42.5 85Z" fill="url(#paint1_radial_3_4869)"/>
<path d="M42.5 85C65.9721 85 85 65.9721 85 42.5C85 19.0279 65.9721 0 42.5 0C19.0279 0 0 19.0279 0 42.5C0 65.9721 19.0279 85 42.5 85Z" fill="url(#paint2_linear_3_4869)"/>
<path d="M42.4788 42.5545C30.9293 54.1423 15.8984 57.4236 8.64962 50.2844C1.34378 43.1879 5.06169 28.5934 16.8017 16.8774C28.5177 5.13742 43.112 1.4195 50.2086 8.72519C57.348 15.9741 54.0667 31.005 42.4788 42.5545Z" fill="url(#paint3_linear_3_4869)"/>
<path d="M42.4789 42.5541C30.9292 54.1418 15.9232 57.4482 8.70465 50.338C1.42952 43.2704 5.16852 28.6972 16.9072 16.9823C28.622 5.24372 43.1952 1.50471 50.2629 8.77985C57.373 15.9984 54.0664 31.0044 42.4789 42.5541Z" fill="url(#paint4_linear_3_4869)"/>
<path d="M42.4789 42.5541C30.9292 54.1418 15.9232 57.4482 8.70465 50.338C1.42952 43.2704 5.16852 28.6972 16.9072 16.9823C28.622 5.24372 43.1952 1.50471 50.2629 8.77985C57.373 15.9984 54.0664 31.0044 42.4789 42.5541Z" fill="black" fill-opacity="0.2"/>
<path d="M42.479 42.5543C32.5453 52.5121 19.6037 55.4128 13.4092 49.2872C7.17843 43.1886 10.3546 30.5228 20.4085 20.4838C30.4475 10.4299 43.1133 7.25353 49.2119 13.4844C55.3376 19.679 52.4368 32.6207 42.479 42.5543Z" fill="url(#paint5_linear_3_4869)"/>
<path d="M42.4788 42.5545C34.1592 50.8883 23.2952 53.3583 18.1171 48.2206C12.9177 43.0989 15.5495 32.397 23.94 24.0155C32.3214 15.6253 43.0235 12.9934 48.1451 18.1927C53.2826 23.3711 50.8128 34.235 42.4788 42.5545Z" fill="url(#paint6_linear_3_4869)"/>
<path d="M68.0477 68.123C56.3316 79.8624 41.7605 83.6039 34.694 76.3289C27.5854 69.1108 30.8912 54.1036 42.4788 42.5541C54.0283 30.9665 69.0357 27.6605 76.2537 34.7693C83.5286 41.8356 79.7873 56.4071 68.0477 68.123Z" fill="url(#paint7_linear_3_4869)"/>
<path d="M68.0477 68.123C56.3316 79.8624 41.7605 83.6039 34.694 76.3289C27.5854 69.1108 30.8912 54.1036 42.4788 42.5541C54.0283 30.9665 69.0357 27.6605 76.2537 34.7693C83.5286 41.8356 79.7873 56.4071 68.0477 68.123Z" fill="black" fill-opacity="0.2"/>
<path d="M64.5474 64.6227C54.508 74.6773 41.8431 77.8553 35.7455 71.6247C29.6211 65.4304 32.5213 52.4879 42.4791 42.5544C52.4128 32.5966 65.3551 29.6962 71.5495 35.8208C77.78 41.9184 74.6021 54.5831 64.5474 64.6227Z" fill="url(#paint8_linear_3_4869)"/>
<path d="M61.0164 61.0916C52.6343 69.4823 41.9334 72.1155 36.8124 66.9162C31.6753 61.7382 34.145 50.8737 42.479 42.5541C50.7987 34.2203 61.6629 31.7505 66.8411 36.8875C72.0405 42.0086 69.4072 52.7096 61.0164 61.0916Z" fill="url(#paint9_linear_3_4869)"/>
<path d="M52.3838 27.4618C54.1002 29.1821 55.8196 30.9013 57.5397 32.6177C62.9583 29.0731 68.3465 25.5745 73.6716 22.1717C74.0624 21.922 74.1531 21.3933 73.8732 21.0003C72.5432 19.133 71.0323 17.3423 69.3459 15.6561C67.6595 13.9699 65.8689 12.459 64.0014 11.129C63.6084 10.8489 63.0795 10.9396 62.8298 11.3306C59.4272 16.6553 55.9284 22.0434 52.3838 27.4618Z" fill="url(#paint10_linear_3_4869)"/>
<path d="M27.4632 52.3823C29.1833 54.0986 30.9027 55.818 32.619 57.5381C29.0739 62.957 25.5744 68.3459 22.1706 73.6718C21.9207 74.0628 21.392 74.1534 20.999 73.8735C19.1317 72.5438 17.341 71.033 15.655 69.3468C13.9688 67.6606 12.4582 65.8699 11.1284 64.0024C10.8485 63.6093 10.9391 63.0805 11.3301 62.8308C16.6557 59.427 22.0444 55.9276 27.4632 52.3823Z" fill="url(#paint11_linear_3_4869)"/>
<path d="M60.5391 42.5C60.5276 52.3814 52.383 60.5255 42.5011 60.5376C32.6191 60.5265 24.4755 52.3824 24.4639 42.5C24.4757 32.6178 32.6194 24.4734 42.5011 24.4624C52.3829 24.4744 60.5274 32.6186 60.5391 42.5Z" fill="url(#paint12_linear_3_4869)"/>
<path d="M60.5391 42.5C60.5276 52.3814 52.383 60.5255 42.5011 60.5376C32.6191 60.5265 24.4755 52.3824 24.4639 42.5C24.4757 32.6178 32.6194 24.4734 42.5011 24.4624C52.3829 24.4744 60.5274 32.6186 60.5391 42.5Z" fill="url(#paint13_radial_3_4869)"/>
<path d="M45.0463 55.431C35.1309 55.4337 27.0019 47.3165 27.0233 37.416C27.0285 35.5415 27.325 33.7333 27.868 32.0308C25.7316 34.991 24.4635 38.6018 24.4639 42.5C24.4755 52.3825 32.6191 60.5265 42.5011 60.5376C50.5228 60.5355 57.3786 55.1594 59.7068 47.8751C56.4169 52.42 51.0664 55.4242 45.0463 55.431Z" fill="url(#paint14_linear_3_4869)"/>
<defs>
<linearGradient id="paint0_linear_3_4869" x1="37.7417" y1="9.23269" x2="41.4855" y2="85.6982" gradientUnits="userSpaceOnUse">
<stop stop-color="#00FF19"/>
<stop offset="1" stop-color="#00FF19" stop-opacity="0"/>
</linearGradient>
<radialGradient id="paint1_radial_3_4869" cx="0" cy="0" r="1" gradientUnits="userSpaceOnUse" gradientTransform="translate(42.5 42.5) scale(42.5)">
<stop stop-color="#8D00DB" stop-opacity="0.8"/>
<stop offset="1" stop-color="#FC54FF" stop-opacity="0"/>
</radialGradient>
<linearGradient id="paint2_linear_3_4869" x1="37.7417" y1="9.23269" x2="41.4855" y2="85.6982" gradientUnits="userSpaceOnUse">
<stop stop-color="#00FF19"/>
<stop offset="1" stop-color="#00FF19" stop-opacity="0"/>
</linearGradient>
<linearGradient id="paint3_linear_3_4869" x1="-46.1148" y1="29.4902" x2="88.2021" y2="29.4901" gradientUnits="userSpaceOnUse">
<stop stop-color="#B31DE7"/>
<stop offset="1" stop-color="#FC54FF"/>
</linearGradient>
<linearGradient id="paint4_linear_3_4869" x1="16.5237" y1="11.4701" x2="42.7376" y2="44.9498" gradientUnits="userSpaceOnUse">
<stop stop-color="#01780D"/>
<stop offset="0.991552" stop-color="#01EA01"/>
</linearGradient>
<linearGradient id="paint5_linear_3_4869" x1="28.9512" y1="14.8739" x2="30.8097" y2="52.8332" gradientUnits="userSpaceOnUse">
<stop stop-color="#00FF19"/>
<stop offset="1" stop-color="#00FF19" stop-opacity="0"/>
</linearGradient>
<linearGradient id="paint6_linear_3_4869" x1="31.1526" y1="19.3645" x2="32.7105" y2="51.1848" gradientUnits="userSpaceOnUse">
<stop stop-color="#00FF19"/>
<stop offset="1" stop-color="#00FF19" stop-opacity="0"/>
</linearGradient>
<linearGradient id="paint7_linear_3_4869" x1="42.5051" y1="37.4515" x2="68.7189" y2="70.931" gradientUnits="userSpaceOnUse">
<stop stop-color="#01780D"/>
<stop offset="0.991552" stop-color="#01EA01"/>
</linearGradient>
<linearGradient id="paint8_linear_3_4869" x1="51.2826" y1="37.2054" x2="53.1411" y2="75.1645" gradientUnits="userSpaceOnUse">
<stop stop-color="#00FF19"/>
<stop offset="1" stop-color="#00FF19" stop-opacity="0"/>
</linearGradient>
<linearGradient id="paint9_linear_3_4869" x1="49.845" y1="38.0564" x2="51.4029" y2="69.8767" gradientUnits="userSpaceOnUse">
<stop stop-color="#00FF19"/>
<stop offset="1" stop-color="#00FF19" stop-opacity="0"/>
</linearGradient>
<linearGradient id="paint10_linear_3_4869" x1="61.9977" y1="13.3181" x2="62.9513" y2="32.7956" gradientUnits="userSpaceOnUse">
<stop stop-color="#00FF19"/>
<stop offset="1" stop-color="#00FF19" stop-opacity="0"/>
</linearGradient>
<linearGradient id="paint11_linear_3_4869" x1="20.5802" y1="54.7344" x2="21.534" y2="74.214" gradientUnits="userSpaceOnUse">
<stop stop-color="#00FF19"/>
<stop offset="1" stop-color="#00FF19" stop-opacity="0"/>
</linearGradient>
<linearGradient id="paint12_linear_3_4869" x1="9.00001" y1="76.001" x2="64.6808" y2="20.3203" gradientUnits="userSpaceOnUse">
<stop stop-color="#FC54FF"/>
<stop offset="0.0874" stop-color="#FD71FF"/>
<stop offset="0.2362" stop-color="#FD9CFF"/>
<stop offset="0.3873" stop-color="#FEC0FF"/>
<stop offset="0.5388" stop-color="#FEDCFF"/>
<stop offset="0.691" stop-color="#FFEFFF"/>
<stop offset="0.8441" stop-color="#FFFBFF"/>
<stop offset="1" stop-color="white"/>
</linearGradient>
<radialGradient id="paint13_radial_3_4869" cx="0" cy="0" r="1" gradientUnits="userSpaceOnUse" gradientTransform="translate(47.3562 42.5) scale(33.2657 25.98)">
<stop stop-color="#D3FF33" stop-opacity="0"/>
<stop offset="0.1409" stop-color="#CFFD33" stop-opacity="0.113"/>
<stop offset="0.2791" stop-color="#C3F635" stop-opacity="0.223"/>
<stop offset="0.4162" stop-color="#B0EB37" stop-opacity="0.333"/>
<stop offset="0.5527" stop-color="#94DC3A" stop-opacity="0.442"/>
<stop offset="0.6888" stop-color="#70C83F" stop-opacity="0.551"/>
<stop offset="0.8247" stop-color="#44B044" stop-opacity="0.66"/>
<stop offset="0.9579" stop-color="#12944A" stop-opacity="0.766"/>
<stop offset="1" stop-color="#008A4C" stop-opacity="0.8"/>
</radialGradient>
<linearGradient id="paint14_linear_3_4869" x1="40.1124" y1="35.1272" x2="41.1289" y2="60.793" gradientUnits="userSpaceOnUse">
<stop stop-color="#00FF19"/>
<stop offset="1" stop-color="#00FF19" stop-opacity="0"/>
</linearGradient>
</defs>
</svg>
