<svg width="85" height="85" viewBox="0 0 85 85" fill="none" xmlns="http://www.w3.org/2000/svg">
<path d="M42.5 85C65.9721 85 85 65.9721 85 42.5C85 19.0279 65.9721 0 42.5 0C19.0279 0 0 19.0279 0 42.5C0 65.9721 19.0279 85 42.5 85Z" fill="url(#paint0_linear_3_4887)"/>
<path d="M42.5 85C65.9721 85 85 65.9721 85 42.5C85 19.0279 65.9721 0 42.5 0C19.0279 0 0 19.0279 0 42.5C0 65.9721 19.0279 85 42.5 85Z" fill="url(#paint1_linear_3_4887)"/>
<path d="M56.2922 25.6577C53.9313 19.9287 48.4641 16.1027 42.4614 16.1045C42.4696 23.759 42.478 31.4136 42.4868 39.0681C42.4911 39.0711 42.4956 39.0739 42.4999 39.0769C47.5813 35.6736 52.64 32.2824 57.6387 28.9423C57.1898 27.8479 56.7409 26.7532 56.2922 25.6577Z" fill="url(#paint2_linear_3_4887)"/>
<path d="M49.3764 25.6029C48.1959 19.8764 45.4629 16.1046 42.4614 16.105C36.4589 16.1042 30.991 19.9296 28.6298 25.659C28.181 26.7544 27.732 27.8493 27.2827 28.9436C32.303 32.28 37.3834 35.6683 42.4868 39.0688C45.0253 35.6683 47.5524 32.2708 50.0498 28.8862C49.8251 27.7918 49.6007 26.6973 49.3764 25.6029Z" fill="url(#paint3_linear_3_4887)"/>
<path d="M56.2921 25.6577C53.9312 19.9287 48.464 16.1027 42.4614 16.1045C36.4589 16.1037 30.991 19.9292 28.6298 25.6585C28.181 26.7539 27.732 27.8488 27.2827 28.9431C32.303 32.2796 37.3834 35.6678 42.4868 39.0683C42.4911 39.0713 42.4956 39.0741 42.4999 39.0771C47.5813 35.6737 52.6399 32.2825 57.6387 28.9425C57.1898 27.8479 56.7409 26.7532 56.2921 25.6577Z" fill="url(#paint4_radial_3_4887)"/>
<path fill-rule="evenodd" clip-rule="evenodd" d="M37.9619 30.2699C52.5207 29.2386 67.3884 33.1998 80.3274 41.4464C80.7206 41.6968 80.9206 42.0994 80.9248 42.5003C68.9578 44.7391 56.9513 47.1305 44.948 49.5213C44.1329 49.6836 43.3178 49.846 42.5028 50.0083C42.5019 50.0085 42.501 50.0087 42.5002 50.0089C41.6862 49.8469 40.8722 49.6847 40.0581 49.5226C28.0527 47.1314 16.044 44.7395 4.0752 42.5004C4.07968 42.099 4.27939 41.6967 4.67252 41.4465C14.9178 34.9207 26.4138 31.0522 37.9619 30.27C37.9619 30.27 37.9619 30.27 37.9619 30.2699Z" fill="url(#paint5_linear_3_4887)"/>
<path fill-rule="evenodd" clip-rule="evenodd" d="M37.9315 54.4367C52.5908 55.4379 67.5864 51.593 80.3512 43.5447C80.739 43.3003 80.9301 42.9005 80.9255 42.4999C77.8791 42.4763 74.833 42.4556 71.7868 42.4375C71.7867 42.4375 71.7867 42.4375 71.7866 42.4376C49.2162 42.3043 26.6457 42.325 4.07528 42.5C4.07063 42.9009 4.26188 43.3005 4.64953 43.5447C14.7579 49.9148 26.3034 53.6748 37.9308 54.4367C37.9311 54.4367 37.9313 54.4367 37.9315 54.4367Z" fill="url(#paint6_radial_3_4887)"/>
<path d="M60.9218 29.7213C60.4394 29.2405 59.7916 28.9654 59.1201 28.9578C56.0969 28.9248 53.0736 28.9007 50.0503 28.8857C52.0978 30.5959 54.153 32.3075 56.2128 34.0173C59.2489 34.0374 62.2851 34.0641 65.3212 34.0976C63.8533 32.6417 62.3863 31.1824 60.9218 29.7213Z" fill="url(#paint7_linear_3_4887)"/>
<path d="M60.9218 29.7213C60.4394 29.2405 59.7916 28.9654 59.1201 28.9578C56.0969 28.9248 53.0736 28.9007 50.0503 28.8857C52.0978 30.5959 54.153 32.3075 56.2128 34.0173C59.2489 34.0374 62.2851 34.0641 65.3212 34.0976C63.8533 32.6417 62.3863 31.1824 60.9218 29.7213Z" fill="black" fill-opacity="0.2"/>
<path d="M56.2123 34.0174C44.0084 33.9367 31.8046 33.9636 19.6006 34.0985C21.0682 32.6426 22.5347 31.1835 23.9987 29.7222C24.4823 29.2413 25.1294 28.9658 25.8004 28.9589C33.8836 28.87 41.9667 28.8458 50.0498 28.886C50.721 28.8895 51.3657 29.1614 51.8438 29.6418C53.2966 31.1006 54.7534 32.5597 56.2123 34.0174Z" fill="url(#paint8_linear_3_4887)"/>
<path d="M56.2123 34.0174C44.0084 33.9367 31.8046 33.9636 19.6006 34.0985C21.0682 32.6426 22.5347 31.1835 23.9987 29.7222C24.4823 29.2413 25.1294 28.9658 25.8004 28.9589C33.8836 28.87 41.9667 28.8458 50.0498 28.886C50.721 28.8895 51.3657 29.1614 51.8438 29.6418C53.2966 31.1006 54.7534 32.5597 56.2123 34.0174Z" fill="black" fill-opacity="0.2"/>
<path d="M47.4776 53.1476C46.0997 54.8497 44.7226 56.5524 43.3481 58.2544C45.6921 58.2537 48.0363 58.2504 50.3802 58.2444C51.0554 58.2427 51.7045 57.9723 52.1842 57.4928C53.6398 56.0386 55.0966 54.5853 56.5529 53.1343C53.5279 53.1408 50.5028 53.1452 47.4776 53.1476Z" fill="url(#paint9_linear_3_4887)"/>
<path d="M47.4776 53.1477C41.1077 53.1527 34.7379 53.1481 28.3682 53.1343C29.8245 54.5851 31.2812 56.0384 32.7369 57.4927C33.217 57.972 33.8654 58.2426 34.541 58.2444C37.4768 58.252 40.4124 58.2554 43.3481 58.2545C44.3128 58.2545 45.195 57.7075 45.6278 56.8424C46.2442 55.6106 46.8608 54.3791 47.4776 53.1477Z" fill="url(#paint10_linear_3_4887)"/>
<path d="M27.5712 76.2168C27.3295 76.8586 27.647 77.6012 28.285 77.8731C32.7092 79.7566 37.4924 80.8096 42.5001 80.8088C47.4818 80.8094 52.2409 79.767 56.6458 77.9022C57.2853 77.6316 57.6039 76.8873 57.3617 76.2448C55.1115 70.2694 52.7659 64.2642 50.3804 58.2448C47.7597 56.5516 45.1315 54.8516 42.5001 53.1499C39.8426 54.8516 37.1878 56.5516 34.541 58.2446C32.1594 64.2547 29.8177 70.2507 27.5712 76.2168Z" fill="url(#paint11_linear_3_4887)"/>
<path d="M28.3682 53.1343C29.8245 54.5851 31.2812 56.0384 32.7369 57.4928C33.2166 57.972 33.8653 58.2422 34.541 58.2444C39.8207 58.258 45.1004 58.2582 50.3803 58.2446C51.0557 58.2432 51.7045 57.9725 52.1843 57.493C53.6399 56.0387 55.0967 54.5853 56.553 53.1343C47.158 53.1547 37.7632 53.1547 28.3682 53.1343Z" fill="url(#paint12_linear_3_4887)"/>
<path d="M28.3682 53.1343C29.8245 54.5851 31.2812 56.0384 32.7369 57.4928C33.2166 57.972 33.8653 58.2422 34.541 58.2444C39.8207 58.258 45.1004 58.2582 50.3803 58.2446C51.0557 58.2432 51.7045 57.9725 52.1843 57.493C53.6399 56.0387 55.0967 54.5853 56.553 53.1343C47.158 53.1547 37.7632 53.1547 28.3682 53.1343Z" fill="black" fill-opacity="0.2"/>
<defs>
<linearGradient id="paint0_linear_3_4887" x1="37.7417" y1="9.23269" x2="41.4855" y2="85.6982" gradientUnits="userSpaceOnUse">
<stop stop-color="#00FF19"/>
<stop offset="1" stop-color="#00FF19" stop-opacity="0"/>
</linearGradient>
<linearGradient id="paint1_linear_3_4887" x1="37.7417" y1="9.23269" x2="41.4855" y2="85.6982" gradientUnits="userSpaceOnUse">
<stop stop-color="#00FF19"/>
<stop offset="1" stop-color="#00FF19" stop-opacity="0"/>
</linearGradient>
<linearGradient id="paint2_linear_3_4887" x1="26.9776" y1="45.5962" x2="54.636" y2="17.9378" gradientUnits="userSpaceOnUse">
<stop offset="0.0056" stop-color="#DDA2FC"/>
<stop offset="0.0409" stop-color="#DFA7FC"/>
<stop offset="0.3266" stop-color="#EDCDFD"/>
<stop offset="0.591" stop-color="#F7E9FE"/>
<stop offset="0.8237" stop-color="#FDF9FF"/>
<stop offset="1" stop-color="white"/>
</linearGradient>
<linearGradient id="paint3_linear_3_4887" x1="13.8064" y1="53.2538" x2="65.3758" y2="1.68437" gradientUnits="userSpaceOnUse">
<stop offset="0.0056" stop-color="#DDA2FC"/>
<stop offset="0.0409" stop-color="#DFA7FC"/>
<stop offset="0.3266" stop-color="#EDCDFD"/>
<stop offset="0.591" stop-color="#F7E9FE"/>
<stop offset="0.8237" stop-color="#FDF9FF"/>
<stop offset="1" stop-color="white"/>
</linearGradient>
<radialGradient id="paint4_radial_3_4887" cx="0" cy="0" r="1" gradientUnits="userSpaceOnUse" gradientTransform="translate(46.5457 27.5908) scale(27.9919 16.544)">
<stop stop-color="#D3FF33" stop-opacity="0"/>
<stop offset="0.1409" stop-color="#CFFD33" stop-opacity="0.113"/>
<stop offset="0.2791" stop-color="#C3F635" stop-opacity="0.223"/>
<stop offset="0.4162" stop-color="#B0EB37" stop-opacity="0.333"/>
<stop offset="0.5527" stop-color="#94DC3A" stop-opacity="0.442"/>
<stop offset="0.6888" stop-color="#70C83F" stop-opacity="0.551"/>
<stop offset="0.8247" stop-color="#44B044" stop-opacity="0.66"/>
<stop offset="0.9579" stop-color="#12944A" stop-opacity="0.766"/>
<stop offset="1" stop-color="#008A4C" stop-opacity="0.8"/>
</radialGradient>
<linearGradient id="paint5_linear_3_4887" x1="38.1979" y1="32.2709" x2="38.4254" y2="50.2124" gradientUnits="userSpaceOnUse">
<stop stop-color="#00FF19"/>
<stop offset="1" stop-color="#00FF19" stop-opacity="0"/>
</linearGradient>
<radialGradient id="paint6_radial_3_4887" cx="0" cy="0" r="1" gradientUnits="userSpaceOnUse" gradientTransform="translate(52.8423 48.4718) scale(70.8654 8.81583)">
<stop stop-color="#D3FF33" stop-opacity="0"/>
<stop offset="0.1409" stop-color="#CFFD33" stop-opacity="0.113"/>
<stop offset="0.2791" stop-color="#C3F635" stop-opacity="0.223"/>
<stop offset="0.4162" stop-color="#B0EB37" stop-opacity="0.333"/>
<stop offset="0.5527" stop-color="#94DC3A" stop-opacity="0.442"/>
<stop offset="0.6888" stop-color="#70C83F" stop-opacity="0.551"/>
<stop offset="0.8247" stop-color="#44B044" stop-opacity="0.66"/>
<stop offset="0.9579" stop-color="#12944A" stop-opacity="0.766"/>
<stop offset="1" stop-color="#008A4C" stop-opacity="0.8"/>
</radialGradient>
<linearGradient id="paint7_linear_3_4887" x1="53.6461" y1="29.5675" x2="55.0785" y2="34.928" gradientUnits="userSpaceOnUse">
<stop stop-color="#01780D"/>
<stop offset="0.991552" stop-color="#01EA01"/>
</linearGradient>
<linearGradient id="paint8_linear_3_4887" x1="28.2214" y1="29.5515" x2="28.8583" y2="35.2449" gradientUnits="userSpaceOnUse">
<stop stop-color="#01780D"/>
<stop offset="0.991552" stop-color="#01EA01"/>
</linearGradient>
<linearGradient id="paint9_linear_3_4887" x1="37.5486" y1="67.6077" x2="66.6536" y2="38.5026" gradientUnits="userSpaceOnUse">
<stop stop-color="#C96FF8"/>
<stop offset="0.1795" stop-color="#CE7BF9"/>
<stop offset="0.5008" stop-color="#DA9AFB"/>
<stop offset="0.924" stop-color="#EECBFE"/>
<stop offset="1" stop-color="#F2D5FF"/>
</linearGradient>
<linearGradient id="paint10_linear_3_4887" x1="29.9941" y1="62.0852" x2="74.6647" y2="17.4145" gradientUnits="userSpaceOnUse">
<stop stop-color="#C96FF8"/>
<stop offset="0.1795" stop-color="#CE7BF9"/>
<stop offset="0.5008" stop-color="#DA9AFB"/>
<stop offset="0.924" stop-color="#EECBFE"/>
<stop offset="1" stop-color="#F2D5FF"/>
</linearGradient>
<linearGradient id="paint11_linear_3_4887" x1="40.7897" y1="56.1542" x2="41.9151" y2="81.0447" gradientUnits="userSpaceOnUse">
<stop stop-color="#00FF19"/>
<stop offset="1" stop-color="#00FF19" stop-opacity="0"/>
</linearGradient>
<linearGradient id="paint12_linear_3_4887" x1="35.0047" y1="53.8041" x2="35.7914" y2="59.3346" gradientUnits="userSpaceOnUse">
<stop stop-color="#01780D"/>
<stop offset="0.991552" stop-color="#01EA01"/>
</linearGradient>
</defs>
</svg>
