<svg width="142" height="160" viewBox="0 0 142 160" fill="none" xmlns="http://www.w3.org/2000/svg">
<path d="M10 80H56.1103C64.9468 80 72.1103 72.8366 72.1103 64V22C72.1103 13.1634 79.2737 6 88.1103 6H131" stroke="url(#paint0_linear_3_4935)"/>
<path d="M10 80H56.1103C64.9468 80 72.1103 72.8366 72.1103 64V22C72.1103 13.1634 79.2737 6 88.1103 6H131" stroke="black" stroke-opacity="0.2"/>
<circle cx="5.5" cy="79.5" r="5.5" fill="url(#paint1_linear_3_4935)"/>
<circle cx="5.5" cy="79.5" r="5.5" fill="black" fill-opacity="0.2"/>
<circle cx="136.5" cy="5.5" r="5.5" fill="url(#paint2_linear_3_4935)"/>
<circle cx="136.5" cy="5.5" r="5.5" fill="black" fill-opacity="0.2"/>
<path d="M9.5 80H55.9828C64.8194 80 71.9828 87.1634 71.9828 96V138.5C71.9828 147.337 79.1462 154.5 87.9828 154.5H131.226" stroke="url(#paint3_linear_3_4935)"/>
<path d="M9.5 80H55.9828C64.8194 80 71.9828 87.1634 71.9828 96V138.5C71.9828 147.337 79.1462 154.5 87.9828 154.5H131.226" stroke="black" stroke-opacity="0.2"/>
<ellipse rx="5.5" ry="5.94164" transform="matrix(1 0 0 -1 136.5 154.058)" fill="url(#paint4_linear_3_4935)"/>
<ellipse rx="5.5" ry="5.94164" transform="matrix(1 0 0 -1 136.5 154.058)" fill="black" fill-opacity="0.2"/>
<defs>
<linearGradient id="paint0_linear_3_4935" x1="38.4913" y1="15.6802" x2="70.255" y2="82.014" gradientUnits="userSpaceOnUse">
<stop stop-color="#01780D"/>
<stop offset="0.991552" stop-color="#01EA01"/>
</linearGradient>
<linearGradient id="paint1_linear_3_4935" x1="2.59012" y1="75.439" x2="8.47384" y2="82.9535" gradientUnits="userSpaceOnUse">
<stop stop-color="#01780D"/>
<stop offset="0.991552" stop-color="#01EA01"/>
</linearGradient>
<linearGradient id="paint2_linear_3_4935" x1="133.59" y1="1.43895" x2="139.474" y2="8.95349" gradientUnits="userSpaceOnUse">
<stop stop-color="#01780D"/>
<stop offset="0.991552" stop-color="#01EA01"/>
</linearGradient>
<linearGradient id="paint3_linear_3_4935" x1="38.1622" y1="144.754" x2="70.1556" y2="77.9912" gradientUnits="userSpaceOnUse">
<stop stop-color="#01780D"/>
<stop offset="0.991552" stop-color="#01EA01"/>
</linearGradient>
<linearGradient id="paint4_linear_3_4935" x1="2.59012" y1="1.5545" x2="9.04676" y2="9.18782" gradientUnits="userSpaceOnUse">
<stop stop-color="#01780D"/>
<stop offset="0.991552" stop-color="#01EA01"/>
</linearGradient>
</defs>
</svg>
