<svg width="142" height="160" viewBox="0 0 142 160" fill="none" xmlns="http://www.w3.org/2000/svg">
<path d="M132 80H85.8897C77.0532 80 69.8897 72.8366 69.8897 64V22C69.8897 13.1634 62.7263 6 53.8897 6H11" stroke="url(#paint0_linear_3_4943)"/>
<path d="M132 80H85.8897C77.0532 80 69.8897 72.8366 69.8897 64V22C69.8897 13.1634 62.7263 6 53.8897 6H11" stroke="black" stroke-opacity="0.2"/>
<circle r="5.5" transform="matrix(-1 0 0 1 136.5 79.5)" fill="url(#paint1_linear_3_4943)"/>
<circle r="5.5" transform="matrix(-1 0 0 1 136.5 79.5)" fill="black" fill-opacity="0.2"/>
<circle r="5.5" transform="matrix(-1 0 0 1 5.5 5.5)" fill="url(#paint2_linear_3_4943)"/>
<circle r="5.5" transform="matrix(-1 0 0 1 5.5 5.5)" fill="black" fill-opacity="0.2"/>
<path d="M132.5 80H86.0172C77.1806 80 70.0172 87.1634 70.0172 96V138.5C70.0172 147.337 62.8538 154.5 54.0172 154.5H10.7743" stroke="url(#paint3_linear_3_4943)"/>
<path d="M132.5 80H86.0172C77.1806 80 70.0172 87.1634 70.0172 96V138.5C70.0172 147.337 62.8538 154.5 54.0172 154.5H10.7743" stroke="black" stroke-opacity="0.2"/>
<ellipse cx="5.5" cy="154.058" rx="5.5" ry="5.94164" transform="rotate(180 5.5 154.058)" fill="url(#paint4_linear_3_4943)"/>
<ellipse cx="5.5" cy="154.058" rx="5.5" ry="5.94164" transform="rotate(180 5.5 154.058)" fill="black" fill-opacity="0.2"/>
<defs>
<linearGradient id="paint0_linear_3_4943" x1="103.509" y1="15.6802" x2="71.745" y2="82.014" gradientUnits="userSpaceOnUse">
<stop stop-color="#01780D"/>
<stop offset="0.991552" stop-color="#01EA01"/>
</linearGradient>
<linearGradient id="paint1_linear_3_4943" x1="2.59012" y1="1.43895" x2="8.47384" y2="8.95349" gradientUnits="userSpaceOnUse">
<stop stop-color="#01780D"/>
<stop offset="0.991552" stop-color="#01EA01"/>
</linearGradient>
<linearGradient id="paint2_linear_3_4943" x1="2.59012" y1="1.43895" x2="8.47384" y2="8.95349" gradientUnits="userSpaceOnUse">
<stop stop-color="#01780D"/>
<stop offset="0.991552" stop-color="#01EA01"/>
</linearGradient>
<linearGradient id="paint3_linear_3_4943" x1="103.838" y1="144.754" x2="71.8444" y2="77.9912" gradientUnits="userSpaceOnUse">
<stop stop-color="#01780D"/>
<stop offset="0.991552" stop-color="#01EA01"/>
</linearGradient>
<linearGradient id="paint4_linear_3_4943" x1="2.59012" y1="149.671" x2="9.04676" y2="157.305" gradientUnits="userSpaceOnUse">
<stop stop-color="#01780D"/>
<stop offset="0.991552" stop-color="#01EA01"/>
</linearGradient>
</defs>
</svg>
