<svg width="25" height="25" viewBox="0 0 25 25" fill="none" xmlns="http://www.w3.org/2000/svg">
<path d="M11.5641 24.0584C11.5859 24.078 11.6087 24.0964 11.6325 24.1137C11.6438 24.1219 11.6556 24.1288 11.6672 24.1364C11.6807 24.1453 11.6939 24.1545 11.708 24.1625C11.7217 24.1705 11.736 24.1771 11.7501 24.1841C11.7628 24.1906 11.7753 24.1974 11.7885 24.2032C11.8029 24.2095 11.8176 24.2147 11.8323 24.2202C11.8459 24.2254 11.8594 24.231 11.8734 24.2355C11.8875 24.24 11.9019 24.2433 11.9162 24.2471C11.9314 24.2512 11.9465 24.2557 11.962 24.2589C11.976 24.2618 11.9902 24.2635 12.0044 24.2658C12.0205 24.2684 12.0364 24.2714 12.0528 24.2731C12.0688 24.2748 12.085 24.2752 12.1011 24.276C12.1159 24.2767 12.1304 24.2782 12.1454 24.2782C12.1733 24.2783 12.2013 24.2769 12.2293 24.2746C12.2327 24.2743 12.2361 24.2744 12.2395 24.2741C12.2433 24.2737 12.247 24.2729 12.2508 24.2725C12.2784 24.2696 12.306 24.2658 12.3335 24.2605C12.3482 24.2576 12.3626 24.2535 12.3771 24.25C12.3934 24.2461 12.4097 24.2427 12.4258 24.238C12.4419 24.2333 12.4574 24.2273 12.4731 24.2219C12.4876 24.2169 12.5021 24.2123 12.5164 24.2066C12.5314 24.2006 12.5459 24.1935 12.5606 24.1869C12.5753 24.1802 12.5901 24.1738 12.6046 24.1665C12.6179 24.1596 12.6306 24.1519 12.6435 24.1445C12.6588 24.1359 12.6742 24.1276 12.6892 24.1181C12.7011 24.1105 12.7124 24.102 12.724 24.094C12.7391 24.0836 12.7543 24.0735 12.769 24.0622C12.7812 24.0528 12.7926 24.0425 12.8043 24.0326C12.8175 24.0215 12.8309 24.011 12.8436 23.9992C12.8622 23.9819 12.8798 23.9637 12.8972 23.9452C12.9022 23.9398 12.9077 23.935 12.9127 23.9295L20.3603 15.8538C20.5381 15.657 20.637 15.4035 20.6352 15.1491C20.6334 14.8947 20.531 14.6602 20.3507 14.4972C20.1703 14.3342 19.9267 14.2561 19.6734 14.28C19.4201 14.3039 19.1779 14.4278 19.0001 14.6246L13.1711 20.9091L13.0329 1.52036C13.0311 1.26595 12.9288 1.03145 12.7484 0.868443C12.568 0.705433 12.3244 0.627262 12.0711 0.651137C11.8178 0.675013 11.5756 0.798972 11.3978 0.995747C11.22 1.19252 11.1211 1.44599 11.1229 1.7004L11.2611 21.0892L4.06148 14.5834C3.8811 14.4204 3.63747 14.3422 3.38419 14.3661C3.1309 14.39 2.88872 14.514 2.7109 14.7107C2.53308 14.9075 2.43421 15.161 2.43602 15.4154C2.43783 15.6698 2.54019 15.9043 2.72057 16.0673L11.5621 24.0568L11.5641 24.0584Z" fill="#00FF19"/>
</svg>
