<svg marginLeft="0px" width="6" height="12" viewBox="0 0 6 12" fill="none" xmlns="http://www.w3.org/2000/svg">
<path d="M0.862096 0.361314L5.0821 4.58131C5.36058 4.86384 5.51669 5.24461 5.51669 5.64131C5.51669 6.03802 5.36058 6.41879 5.0821 6.70131L0.862096 10.9213C0.767944 11.0155 0.640246 11.0684 0.507096 11.0684C0.373945 11.0684 0.246247 11.0155 0.152096 10.9213C0.0579437 10.8272 0.00504996 10.6995 0.00504995 10.5663C0.00504994 10.4332 0.0579437 10.3055 0.152096 10.2113L4.3721 5.99131C4.41993 5.94642 4.45805 5.89221 4.48411 5.83201C4.51017 5.77181 4.52361 5.70691 4.52361 5.64131C4.52361 5.57572 4.51017 5.51082 4.48411 5.45062C4.45805 5.39042 4.41993 5.3362 4.3721 5.29131L0.152095 1.07131C0.0566172 0.978488 0.00192478 0.851536 4.94061e-05 0.718385C-0.00182596 0.585234 0.0492696 0.456792 0.142095 0.361314C0.234921 0.265836 0.361873 0.211143 0.495024 0.209268C0.628175 0.207392 0.756617 0.258488 0.852095 0.351314L0.862096 0.361314Z" fill="#858585"/>
</svg>
