<svg width="24" height="25" viewBox="0 0 24 25" fill="none" xmlns="http://www.w3.org/2000/svg">
<path fill-rule="evenodd" clip-rule="evenodd" d="M12.9752 22.2018C12.6544 22.2337 12.3291 22.25 12 22.25C10.5874 22.25 9.24503 21.9496 8.03317 21.4092C7.80139 21.3059 7.57438 21.1937 7.35257 21.0732C4.31325 19.4222 2.25 16.202 2.25 12.5C2.25 7.11522 6.61522 2.75 12 2.75C14.8899 2.75 17.4861 4.00728 19.2715 6.00467C20.4141 7.28292 21.2247 8.86428 21.5676 10.6132C21.5781 10.6667 21.5881 10.7203 21.5977 10.7741C21.6978 11.3343 21.75 11.911 21.75 12.5C21.75 17.5557 17.9021 21.7126 12.9752 22.2018ZM19.75 12.5C19.75 16.7457 16.3358 20.1941 12.1032 20.2493C11.9063 19.5663 11.8008 18.8446 11.8008 18.0982C11.8008 13.8525 15.2149 10.4041 19.4476 10.3489C19.6445 11.0319 19.75 11.7536 19.75 12.5ZM9.2453 19.7461C9.48576 19.8376 9.73196 19.9174 9.9832 19.985C9.86351 19.3745 9.80078 18.7437 9.80078 18.0982C9.80078 13.0425 13.6487 8.88562 18.5756 8.39637C18.4174 8.14333 18.2449 7.90008 18.0594 7.66774C17.2034 7.34216 16.2749 7.16388 15.3047 7.16388C11.0245 7.16388 7.55469 10.6337 7.55469 14.9139C7.55469 16.7414 8.18722 18.4211 9.2453 19.7461ZM5.81819 17.1749C5.64589 16.4492 5.55469 15.6922 5.55469 14.9139C5.55469 9.77239 9.53438 5.5604 14.5814 5.1903C13.7739 4.90515 12.9051 4.75 12 4.75C7.71979 4.75 4.25 8.21979 4.25 12.5C4.25 14.2559 4.83393 15.8754 5.81819 17.1749Z" fill="white"/>
</svg>
