<svg width="670" height="601" viewBox="0 0 670 601" fill="none" xmlns="http://www.w3.org/2000/svg">
<path d="M369.981 475.294C361.84 476.525 353.619 477.154 345.385 477.176C265.407 477.32 212.457 418.33 227.109 345.417C241.761 272.503 318.487 213.285 398.468 213.141C403.015 238.363 408.897 264.041 415.959 289.437C362.824 289.533 311.866 328.876 302.12 377.313C293.713 419.133 318.773 454.042 359.958 462.753" stroke="#00FF19" stroke-width="1.5" stroke-miterlimit="10"/>
<path d="M392.339 465.592C385.07 465.592 366.486 464.147 359.958 462.764" stroke="#00FF19" stroke-width="1.5" stroke-miterlimit="10"/>
<path d="M398.468 213.141C403.014 238.363 408.897 264.041 415.958 289.437C362.824 289.533 311.866 328.876 302.119 377.313C277.472 365.486 252.244 354.767 227.108 345.417C241.767 272.507 318.486 213.285 398.468 213.141Z" stroke="#00FF19" stroke-width="1.5" stroke-miterlimit="10"/>
<path d="M321.752 231.298C335.512 254.34 350.061 277.962 364.993 301.499" stroke="#00FF19" stroke-width="1.5" stroke-miterlimit="10"/>
<path d="M260.282 278.751C281.425 296.095 302.919 314.358 324.164 333.023" stroke="#00FF19" stroke-width="1.5" stroke-miterlimit="10"/>
<path d="M423.422 314.795C378.237 314.877 334.893 348.334 326.613 389.522" stroke="#00FF19" stroke-width="1.5" stroke-miterlimit="10"/>
<path d="M431.655 339.955C393.87 340.023 357.625 368.001 350.693 402.446" stroke="#00FF19" stroke-width="1.5" stroke-miterlimit="10"/>
<path d="M364.993 301.499C379.928 325.04 395.369 348.689 410.889 371.793" stroke="#00FF19" stroke-width="1.5" stroke-miterlimit="10"/>
<path d="M324.164 333.023C345.408 351.692 366.578 370.921 387.085 390.178" stroke="#00FF19" stroke-width="1.5" stroke-miterlimit="10"/>
<path d="M302.119 377.313C326.77 389.14 351.028 402.155 374.223 416.001" stroke="#00FF19" stroke-width="1.5" stroke-miterlimit="10"/>
<path d="M326.613 389.522C317.694 439.131 363.213 470.307 406.864 465.592" stroke="#00FF19" stroke-width="1.5" stroke-miterlimit="10"/>
<path d="M350.7 402.446C343.772 436.897 368.915 465.791 406.7 465.726" stroke="#00FF19" stroke-width="1.5" stroke-miterlimit="10"/>
<path d="M306.355 421.555C330.277 426.526 353.79 433.293 376.693 441.799" stroke="#00FF19" stroke-width="1.5" stroke-miterlimit="10"/>
<path d="M334.542 452.953C354.181 453.09 391.153 459.59 410.379 464.199" stroke="#00FF19" stroke-width="1.5" stroke-miterlimit="10"/>
<path d="M410.889 371.792C426.555 395.121 440.804 415.727 456.463 437.723" stroke="#00FF19" stroke-width="1.5" stroke-miterlimit="10"/>
<path d="M496.114 363.485C495.962 368.015 495.433 372.526 494.532 376.968C493.115 384.019 490.501 400.03 487.461 406.603" stroke="#00FF19" stroke-width="1.5" stroke-miterlimit="10"/>
<path d="M516.74 344.898C507.083 354.299 499.609 365.087 494.536 376.968C504.275 328.531 469.096 289.341 415.965 289.437C408.883 264.041 403.015 238.363 398.468 213.141C478.446 212.998 531.399 271.987 516.74 344.898Z" stroke="#00FF19" stroke-width="1.5" stroke-miterlimit="10"/>
<path d="M510.366 278.3C501.519 295.572 494.78 313.845 490.296 332.726" stroke="#00FF19" stroke-width="1.5" stroke-miterlimit="10"/>
<path d="M467.935 231.035C464.129 254.273 462.187 277.778 462.127 301.325" stroke="#00FF19" stroke-width="1.5" stroke-miterlimit="10"/>
<path d="M440.606 364.762C431.311 340.183 423.02 314.843 415.958 289.437C469.093 289.341 504.272 328.531 494.529 376.968" stroke="#00FF19" stroke-width="1.5" stroke-miterlimit="10"/>
<path d="M487.454 406.603C495.735 365.411 468.597 314.709 423.416 314.795" stroke="#00FF19" stroke-width="1.5" stroke-miterlimit="10"/>
<path d="M487.379 407.009C494.303 372.565 469.438 339.886 431.655 339.954" stroke="#00FF19" stroke-width="1.5" stroke-miterlimit="10"/>
<path d="M490.297 332.726C485.867 351.491 483.737 370.725 483.953 390.004" stroke="#00FF19" stroke-width="1.5" stroke-miterlimit="10"/>
<path d="M462.11 301.325C462.037 324.889 463.844 348.421 467.514 371.697" stroke="#00FF19" stroke-width="1.5" stroke-miterlimit="10"/>
<path d="M467.514 371.694C470.001 387.413 473.356 402.982 477.564 418.33" stroke="#00FF19" stroke-width="1.5" stroke-miterlimit="10"/>
<path d="M302.12 377.313C326.77 389.14 351.028 402.155 374.224 416.001" stroke="#00FF19" stroke-width="1.5" stroke-miterlimit="10"/>
<path d="M397.33 430.291C394.488 444.44 399.872 456.895 410.39 464.206" stroke="#00FF19" stroke-width="1.5" stroke-miterlimit="10"/>
<path d="M419.716 445.137C418.643 450.466 419.081 455.484 420.741 459.884" stroke="#00FF19" stroke-width="1.5" stroke-miterlimit="10"/>
<path d="M302.12 377.313C326.77 389.14 351.028 402.155 374.224 416.001" stroke="#00FF19" stroke-width="1.5" stroke-miterlimit="10"/>
<path d="M364.993 301.499C379.928 325.04 395.369 348.689 410.889 371.793" stroke="#00FF19" stroke-width="1.5" stroke-miterlimit="10"/>
<path d="M324.164 333.023C345.408 351.692 366.578 370.921 387.085 390.178" stroke="#00FF19" stroke-width="1.5" stroke-miterlimit="10"/>
<path d="M376.693 441.799C353.79 433.293 330.277 426.526 306.355 421.555C273.776 415.444 266.667 413.91 233.479 412.069" stroke="#00FF19" stroke-width="1.5" stroke-miterlimit="10"/>
<path d="M432.273 453.933C411.233 438.434 397.644 429.983 374.223 416.014C379.904 387.773 409.621 364.831 440.605 364.772C449.989 389.587 456.319 405.26 467.63 428.281" stroke="#00FF19" stroke-width="1.5" stroke-miterlimit="10"/>
<path d="M450.348 389.365C425.601 389.41 401.866 407.734 397.33 430.29" stroke="#00FF19" stroke-width="1.5" stroke-miterlimit="10"/>
<path d="M460.76 413.449C441.603 413.483 423.228 427.67 419.716 445.137" stroke="#00FF19" stroke-width="1.5" stroke-miterlimit="10"/>
<path d="M387.075 390.178C407.776 409.619 425.561 426.901 444.718 446.203" stroke="#00FF19" stroke-width="1.5" stroke-miterlimit="10"/>
<path d="M376.693 441.799C391.303 447.234 405.629 453.403 419.617 460.284" stroke="#00FF19" stroke-width="1.5" stroke-miterlimit="10"/>
<path d="M440.606 364.762C431.311 340.183 423.02 314.842 415.958 289.437C469.093 289.341 504.272 328.531 494.529 376.968" stroke="#00FF19" stroke-width="1.5" stroke-miterlimit="10"/>
<path d="M485.08 409.787C479.806 397.553 466.975 389.338 450.349 389.365" stroke="#00FF19" stroke-width="1.5" stroke-miterlimit="10"/>
<path d="M477.906 418.043C473.233 415.119 467.385 413.439 460.761 413.449" stroke="#00FF19" stroke-width="1.5" stroke-miterlimit="10"/>
<path d="M440.606 364.762C431.311 340.183 423.02 314.842 415.958 289.437C469.093 289.341 504.272 328.531 494.529 376.968" stroke="#00FF19" stroke-width="1.5" stroke-miterlimit="10"/>
<path d="M395.219 1.00066C391.12 21.3197 388.527 43.4117 387.479 66.6721C242.615 66.9317 103.671 174.174 77.121 306.217C50.571 438.26 146.468 545.096 291.311 544.836C436.155 544.576 575.102 437.321 601.652 305.277C628.202 173.234 532.305 66.3988 387.461 66.6584C388.51 43.3981 391.12 21.3061 395.219 1.00066ZM395.219 1.00066C576.615 0.659059 696.729 134.475 663.48 299.849C630.231 465.223 456.201 599.538 274.795 599.866C93.3885 600.194 -26.7186 466.392 6.53041 301.018C39.7795 135.643 213.793 1.31494 395.219 1.00066Z" stroke="#00FF19" stroke-width="1.5" stroke-miterlimit="10"/>
<path d="M395.219 1.00074C391.119 21.3198 388.527 43.4118 387.478 66.6721C242.614 66.9318 103.67 174.174 77.1204 306.217C52.5653 302.726 28.8165 300.977 6.52978 301.018C39.7788 135.64 213.792 1.31502 395.219 1.00074Z" stroke="#00FF19" stroke-width="1.5" stroke-miterlimit="10"/>
<path d="M391.612 21.8733C222.497 22.1807 60.2757 147.402 29.2778 301.571" stroke="#00FF19" stroke-width="1.5" stroke-miterlimit="10"/>
<path d="M389.026 43.8081C232.123 44.0916 81.6196 160.274 52.8594 303.306" stroke="#00FF19" stroke-width="1.5" stroke-miterlimit="10"/>
<path d="M221.199 42.168C228.919 59.6892 238.112 78.9903 248.528 99.5382" stroke="#00FF19" stroke-width="1.5" stroke-miterlimit="10"/>
<path d="M81.7598 149.803C98.9428 160.024 117.591 172.025 137.19 185.471" stroke="#00FF19" stroke-width="1.5" stroke-miterlimit="10"/>
<path d="M6.53005 301.018C28.8168 300.977 52.5656 302.726 77.1207 306.217C50.574 438.263 146.468 545.096 291.311 544.836C284.431 561.032 278.87 579.547 274.787 599.866C93.3848 600.187 -26.719 466.392 6.53005 301.018Z" stroke="#00FF19" stroke-width="1.5" stroke-miterlimit="10"/>
<path d="M29.2782 301.571C-1.71624 455.74 110.24 580.469 279.365 580.169" stroke="#00FF19" stroke-width="1.5" stroke-miterlimit="10"/>
<path d="M52.8595 303.306C24.0992 446.343 127.98 562.067 284.882 561.787" stroke="#00FF19" stroke-width="1.5" stroke-miterlimit="10"/>
<path d="M20.9902 452.068C42.7346 441.613 65.3874 433.165 88.6669 426.826" stroke="#00FF19" stroke-width="1.5" stroke-miterlimit="10"/>
<path d="M117.229 559.279C131.668 542.043 147.847 526.344 165.509 512.431" stroke="#00FF19" stroke-width="1.5" stroke-miterlimit="10"/>
<path d="M274.794 599.866C278.876 579.547 284.438 561.032 291.318 544.836C436.161 544.576 575.108 437.32 601.658 305.277C620.382 301.704 641.176 299.876 663.462 299.835C630.213 465.213 456.2 599.538 274.794 599.866Z" stroke="#00FF19" stroke-width="1.5" stroke-miterlimit="10"/>
<path d="M279.365 580.169C448.462 579.865 610.697 454.64 641.695 300.471" stroke="#00FF19" stroke-width="1.5" stroke-miterlimit="10"/>
<path d="M284.878 561.787C441.781 561.503 592.288 445.324 621.048 302.288" stroke="#00FF19" stroke-width="1.5" stroke-miterlimit="10"/>
<path d="M448.798 558.685C441.074 541.16 434.836 525.439 430.255 511.956" stroke="#00FF19" stroke-width="1.5" stroke-miterlimit="10"/>
<path d="M588.23 451.05C571.047 440.829 555.353 432.405 541.583 426.013" stroke="#00FF19" stroke-width="1.5" stroke-miterlimit="10"/>
<path d="M663.463 299.836C641.176 299.877 620.382 301.704 601.658 305.277C628.205 173.231 532.311 66.3988 387.468 66.6584C388.51 43.3981 391.12 21.306 395.219 1.00065C576.615 0.659047 696.712 134.461 663.463 299.836Z" stroke="#00FF19" stroke-width="1.5" stroke-miterlimit="10"/>
<path d="M641.695 300.471C672.693 146.302 560.733 21.5691 391.611 21.8731" stroke="#00FF19" stroke-width="1.5" stroke-miterlimit="10"/>
<path d="M621.051 302.302C649.808 159.266 545.928 43.5417 389.025 43.8218" stroke="#00FF19" stroke-width="1.5" stroke-miterlimit="10"/>
<path d="M649.006 148.785C627.699 159.074 607.882 171.144 590.112 184.654" stroke="#00FF19" stroke-width="1.5" stroke-miterlimit="10"/>
<path d="M552.763 41.5706C537.787 59.4264 524.561 78.6792 513.266 99.0638" stroke="#00FF19" stroke-width="1.5" stroke-miterlimit="10"/>
<path d="M387.461 66.6585C386.436 89.321 386.87 113.37 388.759 138.127C277.964 138.329 171.685 220.367 151.377 321.371C126.935 314.902 102.142 309.843 77.1206 306.217C103.671 174.174 242.614 66.9317 387.461 66.6585Z" stroke="#00FF19" stroke-width="1.5" stroke-miterlimit="10"/>
<path d="M248.524 99.5386C258.674 119.56 270.097 141.003 282.487 163.266" stroke="#00FF19" stroke-width="1.5" stroke-miterlimit="10"/>
<path d="M137.189 185.471C156.289 198.592 176.523 213.241 197.327 229.016" stroke="#00FF19" stroke-width="1.5" stroke-miterlimit="10"/>
<path d="M77.1207 306.217C102.142 309.842 126.935 314.902 151.377 321.371C131.071 422.372 204.426 504.092 315.221 503.89C306.065 515.276 298.024 529.057 291.308 544.836C146.471 545.095 50.5741 438.263 77.1207 306.217Z" stroke="#00FF19" stroke-width="1.5" stroke-miterlimit="10"/>
<path d="M88.667 426.826C112.107 420.451 136.036 416.035 160.207 413.626" stroke="#00FF19" stroke-width="1.5" stroke-miterlimit="10"/>
<path d="M165.509 512.431C182.074 499.415 200.006 488.24 218.989 479.103" stroke="#00FF19" stroke-width="1.5" stroke-miterlimit="10"/>
<path d="M291.318 544.846C298.024 529.067 306.065 515.286 315.231 503.901C426.022 503.702 532.301 421.661 552.61 320.66C566.913 313.937 583.423 308.765 601.669 305.288C575.108 437.32 436.165 544.576 291.318 544.846Z" stroke="#00FF19" stroke-width="1.5" stroke-miterlimit="10"/>
<path d="M430.255 511.956C425.79 498.821 422.838 487.64 421.492 478.741" stroke="#00FF19" stroke-width="1.5" stroke-miterlimit="10"/>
<path d="M541.586 426.013C528.171 419.786 516.413 415.423 506.653 413.001" stroke="#00FF19" stroke-width="1.5" stroke-miterlimit="10"/>
<path d="M601.658 305.277C583.413 308.755 566.903 313.927 552.599 320.65C572.905 219.632 499.551 137.929 388.759 138.127C386.87 113.37 386.436 89.3209 387.461 66.6584C532.304 66.3988 628.198 173.231 601.658 305.277Z" stroke="#00FF19" stroke-width="1.5" stroke-miterlimit="10"/>
<path d="M590.112 184.668C573.129 197.525 557.591 212.187 543.769 228.394" stroke="#00FF19" stroke-width="1.5" stroke-miterlimit="10"/>
<path d="M513.266 99.0637C501.973 119.473 492.511 140.844 484.991 162.925" stroke="#00FF19" stroke-width="1.5" stroke-miterlimit="10"/>
<path d="M395.219 1.00066C391.12 21.3197 388.527 43.4117 387.479 66.6721C242.615 66.9317 103.671 174.174 77.121 306.217C50.571 438.26 146.468 545.096 291.311 544.836C436.155 544.576 575.102 437.321 601.652 305.277C628.202 173.234 532.305 66.3988 387.461 66.6584C388.51 43.3981 391.12 21.3061 395.219 1.00066ZM395.219 1.00066C576.615 0.659059 696.729 134.475 663.48 299.849C630.231 465.223 456.201 599.538 274.795 599.866C93.3885 600.194 -26.7186 466.392 6.53041 301.018C39.7795 135.643 213.793 1.31494 395.219 1.00066Z" stroke="#00FF19" stroke-width="1.5" stroke-miterlimit="10"/>
<path d="M387.461 66.6584C386.436 89.3209 386.87 113.37 388.759 138.127C277.964 138.329 171.686 220.367 151.377 321.371C131.068 422.375 204.426 504.092 315.221 503.89C426.015 503.689 532.291 421.651 552.6 320.65C572.908 219.649 499.551 137.929 388.759 138.127C386.87 113.37 386.436 89.3209 387.461 66.6584C532.305 66.3988 628.205 173.241 601.652 305.278C575.098 437.314 436.165 544.576 291.318 544.846C146.471 545.116 50.5742 438.263 77.1276 306.227C103.681 174.191 242.615 66.9317 387.461 66.6584Z" stroke="#00FF19" stroke-width="1.5" stroke-miterlimit="10"/>
<path d="M395.219 1.00074C391.119 21.3198 388.527 43.4118 387.478 66.6721C242.614 66.9318 103.67 174.174 77.1204 306.217C52.5653 302.726 28.8165 300.977 6.52978 301.018C39.7788 135.64 213.792 1.31502 395.219 1.00074Z" stroke="#00FF19" stroke-width="1.5" stroke-miterlimit="10"/>
<path d="M221.199 42.168C228.919 59.6892 238.112 78.9903 248.528 99.5382" stroke="#00FF19" stroke-width="1.5" stroke-miterlimit="10"/>
<path d="M81.7598 149.803C98.9428 160.024 117.591 172.025 137.19 185.471" stroke="#00FF19" stroke-width="1.5" stroke-miterlimit="10"/>
<path d="M6.53005 301.018C28.8168 300.977 52.5656 302.726 77.1207 306.217C50.574 438.263 146.468 545.096 291.311 544.836C284.431 561.032 278.87 579.547 274.787 599.866C93.3848 600.187 -26.719 466.392 6.53005 301.018Z" stroke="#00FF19" stroke-width="1.5" stroke-miterlimit="10"/>
<path d="M20.9902 452.068C42.7346 441.613 65.3874 433.165 88.6669 426.826" stroke="#00FF19" stroke-width="1.5" stroke-miterlimit="10"/>
<path d="M117.229 559.279C131.668 542.043 147.847 526.344 165.509 512.431" stroke="#00FF19" stroke-width="1.5" stroke-miterlimit="10"/>
<path d="M663.463 299.836C641.176 299.877 620.382 301.704 601.658 305.277C628.205 173.231 532.311 66.3988 387.468 66.6584C388.51 43.3981 391.12 21.306 395.219 1.00065C576.615 0.659047 696.712 134.461 663.463 299.836Z" stroke="#00FF19" stroke-width="1.5" stroke-miterlimit="10"/>
<path d="M649.006 148.785C627.699 159.074 607.882 171.144 590.112 184.654" stroke="#00FF19" stroke-width="1.5" stroke-miterlimit="10"/>
<path d="M552.763 41.5706C537.787 59.4264 524.561 78.6792 513.266 99.0638" stroke="#00FF19" stroke-width="1.5" stroke-miterlimit="10"/>
<path d="M387.461 66.6585C386.436 89.321 386.87 113.37 388.759 138.127C277.964 138.329 171.685 220.367 151.377 321.371C126.935 314.902 102.142 309.843 77.1206 306.217C103.671 174.174 242.614 66.9317 387.461 66.6585Z" stroke="#00FF19" stroke-width="1.5" stroke-miterlimit="10"/>
<path d="M386.921 89.7581C253.648 89.9972 125.804 188.685 101.375 310.179" stroke="#00FF19" stroke-width="1.5" stroke-miterlimit="10"/>
<path d="M387.362 113.63C265.461 113.849 148.527 204.113 126.186 315.242" stroke="#00FF19" stroke-width="1.5" stroke-miterlimit="10"/>
<path d="M248.524 99.5386C258.674 119.56 270.097 141.003 282.487 163.266" stroke="#00FF19" stroke-width="1.5" stroke-miterlimit="10"/>
<path d="M137.189 185.471C156.289 198.592 176.523 213.241 197.327 229.016" stroke="#00FF19" stroke-width="1.5" stroke-miterlimit="10"/>
<path d="M77.1207 306.217C102.142 309.842 126.935 314.902 151.377 321.371C131.071 422.372 204.426 504.092 315.221 503.89C306.065 515.276 298.024 529.057 291.308 544.836C146.471 545.095 50.5741 438.263 77.1207 306.217Z" stroke="#00FF19" stroke-width="1.5" stroke-miterlimit="10"/>
<path d="M101.375 310.179C76.9465 431.677 165.185 529.976 298.461 529.737" stroke="#00FF19" stroke-width="1.5" stroke-miterlimit="10"/>
<path d="M126.179 315.242C103.824 426.368 184.544 516.277 306.444 516.059" stroke="#00FF19" stroke-width="1.5" stroke-miterlimit="10"/>
<path d="M88.667 426.826C112.107 420.451 136.036 416.035 160.207 413.626" stroke="#00FF19" stroke-width="1.5" stroke-miterlimit="10"/>
<path d="M165.509 512.431C182.074 499.415 200.006 488.24 218.989 479.103" stroke="#00FF19" stroke-width="1.5" stroke-miterlimit="10"/>
<path d="M291.318 544.846C298.024 529.067 306.065 515.286 315.231 503.901C426.022 503.702 532.301 421.661 552.61 320.66C566.913 313.937 583.423 308.765 601.669 305.288C575.108 437.32 436.165 544.576 291.318 544.846Z" stroke="#00FF19" stroke-width="1.5" stroke-miterlimit="10"/>
<path d="M298.461 529.737C431.737 529.497 559.579 430.813 584.007 309.315" stroke="#00FF19" stroke-width="1.5" stroke-miterlimit="10"/>
<path d="M306.444 516.059C428.345 515.84 545.279 425.576 567.62 314.45" stroke="#00FF19" stroke-width="1.5" stroke-miterlimit="10"/>
<path d="M430.255 511.956C425.79 498.821 422.838 487.64 421.492 478.741" stroke="#00FF19" stroke-width="1.5" stroke-miterlimit="10"/>
<path d="M541.586 426.013C528.171 419.786 516.413 415.423 506.653 413.001" stroke="#00FF19" stroke-width="1.5" stroke-miterlimit="10"/>
<path d="M601.658 305.277C583.413 308.755 566.903 313.927 552.599 320.65C572.905 219.632 499.551 137.929 388.759 138.127C386.87 113.37 386.436 89.3209 387.461 66.6584C532.304 66.3988 628.198 173.231 601.658 305.277Z" stroke="#00FF19" stroke-width="1.5" stroke-miterlimit="10"/>
<path d="M584.007 309.315C608.436 187.818 520.198 89.5191 386.921 89.7582" stroke="#00FF19" stroke-width="1.5" stroke-miterlimit="10"/>
<path d="M567.62 314.45C589.961 203.32 509.256 113.411 387.362 113.63" stroke="#00FF19" stroke-width="1.5" stroke-miterlimit="10"/>
<path d="M590.112 184.668C573.129 197.525 557.591 212.187 543.769 228.394" stroke="#00FF19" stroke-width="1.5" stroke-miterlimit="10"/>
<path d="M513.266 99.0637C501.973 119.473 492.511 140.844 484.991 162.925" stroke="#00FF19" stroke-width="1.5" stroke-miterlimit="10"/>
<path d="M388.759 138.127C390.72 163.28 393.96 188.318 398.468 213.141C318.486 213.285 241.767 272.507 227.109 345.417C201.741 335.992 176.263 327.899 151.377 321.371C171.686 220.367 277.965 138.329 388.759 138.127Z" stroke="#00FF19" stroke-width="1.5" stroke-miterlimit="10"/>
<path d="M282.487 163.266C294.649 185.129 307.859 208.017 321.752 231.284" stroke="#00FF19" stroke-width="1.5" stroke-miterlimit="10"/>
<path d="M197.327 229.016C217.752 244.508 238.929 261.24 260.283 278.751" stroke="#00FF19" stroke-width="1.5" stroke-miterlimit="10"/>
<path d="M151.377 321.371C176.263 327.899 201.74 335.992 227.108 345.417C212.457 418.33 265.406 477.32 345.381 477.176C334.354 483.725 324.201 492.713 315.22 503.89C204.425 504.092 131.071 422.371 151.377 321.371Z" stroke="#00FF19" stroke-width="1.5" stroke-miterlimit="10"/>
<path d="M160.208 413.627C184.554 411.197 209.053 410.658 233.483 412.014" stroke="#00FF19" stroke-width="1.5" stroke-miterlimit="10"/>
<path d="M218.988 479.103C237.161 470.386 256.256 463.739 275.914 459.29C292.216 454.76 315.22 453.94 334.542 452.967" stroke="#00FF19" stroke-width="1.5" stroke-miterlimit="10"/>
<path d="M315.22 503.89C324.205 492.713 334.35 483.735 345.381 477.176C425.359 477.033 502.078 417.811 516.74 344.897C526.49 335.408 538.556 327.25 552.609 320.643C532.29 421.651 426.012 503.692 315.22 503.89Z" stroke="#00FF19" stroke-width="1.5" stroke-miterlimit="10"/>
<path d="M421.492 478.741C420.167 470.003 420.372 463.368 422.097 459.02" stroke="#00FF19" stroke-width="1.5" stroke-miterlimit="10"/>
<path d="M506.652 413.001C497.063 410.641 489.299 410.159 483.57 411.567" stroke="#00FF19" stroke-width="1.5" stroke-miterlimit="10"/>
<path d="M552.6 320.65C538.556 327.25 526.49 335.407 516.73 344.904C531.399 271.987 478.446 212.998 398.468 213.141C393.96 188.318 390.72 163.28 388.759 138.127C499.551 137.929 572.905 219.632 552.6 320.65Z" stroke="#00FF19" stroke-width="1.5" stroke-miterlimit="10"/>
<path d="M543.769 228.394C530.751 243.689 519.543 260.435 510.366 278.3" stroke="#00FF19" stroke-width="1.5" stroke-miterlimit="10"/>
<path d="M484.991 162.925C477.433 185.121 471.728 207.906 467.935 231.045" stroke="#00FF19" stroke-width="1.5" stroke-miterlimit="10"/>
<path d="M487.454 406.88C487.584 402.828 487.112 400.017 486.197 396.338C481.524 377.757 464.074 364.704 440.639 364.749C431.348 340.17 423.053 314.832 415.996 289.43" stroke="#00FF19" stroke-width="1.5" stroke-miterlimit="10"/>
<path d="M345.405 477.245C345.405 477.245 360.337 465.845 406.865 465.593" stroke="#00FF19" stroke-width="1.5" stroke-miterlimit="10"/>
<path d="M316.71 491.346C414.616 495.75 512.088 426.098 534.419 335.811" stroke="#00FF19" stroke-width="1.5" stroke-miterlimit="10"/>
<path d="M179.867 319.871C202.209 229.566 299.67 159.932 397.576 164.332" stroke="#00FF19" stroke-width="1.5" stroke-miterlimit="10"/>
<path d="M316.71 491.346C218.801 486.943 157.536 410.173 179.867 319.857" stroke="#00FF19" stroke-width="1.5" stroke-miterlimit="10"/>
<path d="M397.576 164.332C495.485 168.735 556.75 245.509 534.419 335.821" stroke="#00FF19" stroke-width="1.5" stroke-miterlimit="10"/>
<path d="M264.744 360.475C277.059 299.518 341.409 250.035 408.474 249.929" stroke="#00FF19" stroke-width="1.5" stroke-miterlimit="10"/>
<path d="M362.045 470.566C294.98 470.662 252.426 421.432 264.744 360.475" stroke="#00FF19" stroke-width="1.5" stroke-miterlimit="10"/>
<path d="M408.474 249.93C475.539 249.834 518.558 308.403 506.243 369.36" stroke="#00FF19" stroke-width="1.5" stroke-miterlimit="10"/>
<path d="M329.131 483.445C417.653 487.425 505.785 424.462 525.974 342.817" stroke="#00FF19" stroke-width="1.5" stroke-miterlimit="10"/>
<path d="M205.406 328.404C225.595 246.756 313.724 183.797 402.249 187.777" stroke="#00FF19" stroke-width="1.5" stroke-miterlimit="10"/>
<path d="M329.131 483.445C240.609 479.465 185.213 410.05 205.406 328.405" stroke="#00FF19" stroke-width="1.5" stroke-miterlimit="10"/>
<path d="M402.25 187.777C490.771 191.757 546.167 261.169 525.974 342.817" stroke="#00FF19" stroke-width="1.5" stroke-miterlimit="10"/>
<path d="M496.808 390.633C502.341 380.652 506.547 369.991 509.317 358.921" stroke="#00FF19" stroke-width="1.5" stroke-miterlimit="10"/>
<path d="M246.922 347.121C263.449 280.292 335.584 228.756 408.043 232.015" stroke="#00FF19" stroke-width="1.5" stroke-miterlimit="10"/>
<path d="M246.922 347.121C230.395 413.951 275.737 470.785 348.193 474.027C348.193 474.027 380.109 473.6 398.611 468.404" stroke="#00FF19" stroke-width="1.5" stroke-miterlimit="10"/>
<path d="M408.043 232.015C480.499 235.271 525.841 292.091 509.314 358.921" stroke="#00FF19" stroke-width="1.5" stroke-miterlimit="10"/>
<path d="M285.463 365.924C299.086 310.842 358.547 268.359 418.271 271.044" stroke="#00FF19" stroke-width="1.5" stroke-miterlimit="10"/>
<path d="M285.463 365.924C273.373 414.815 301.45 457.202 349.686 467.997C358.723 470.022 368.013 470.684 377.247 469.962C386.685 469.227 401.501 467.768 406.878 465.582" stroke="#00FF19" stroke-width="1.5" stroke-miterlimit="10"/>
<path d="M418.271 271.044C477.998 273.73 515.371 320.578 501.747 375.649C501.747 375.649 499.786 389.56 487.461 406.603" stroke="#00FF19" stroke-width="1.5" stroke-miterlimit="10"/>
<path d="M374.224 416C369.134 445.584 386.655 465.418 410.39 464.202" stroke="#00FF19" stroke-width="1.5" stroke-miterlimit="10"/>
<path style="mix-blend-mode:multiply" d="M486.566 407.221C466.506 432.842 438.399 453.431 406.851 465.398C363.685 470.071 315.784 436.265 327.491 390.189C337.726 349.926 378.541 316.376 423.231 316.308C467.921 316.24 494.754 366.491 486.566 407.221Z" fill="url(#paint0_radial_3_4367)"/>
<path style="mix-blend-mode:multiply" d="M486.566 407.221C466.506 432.842 438.399 453.431 406.851 465.398C363.685 470.071 315.784 436.265 327.491 390.189C337.726 349.926 378.541 316.376 423.231 316.308C467.921 316.24 494.754 366.491 486.566 407.221Z" fill="url(#paint1_radial_3_4367)"/>
<defs>
<radialGradient id="paint0_radial_3_4367" cx="0" cy="0" r="1" gradientUnits="userSpaceOnUse" gradientTransform="translate(443.622 427.27) rotate(-93.2397) scale(127.8 131.723)">
<stop offset="0.26" stop-color="#00FF19"/>
<stop offset="0.29" stop-color="#00FF19"/>
<stop offset="0.49" stop-color="#00FF19"/>
<stop offset="0.67" stop-color="#00FF19"/>
<stop offset="0.82" stop-color="#00FF19"/>
<stop offset="0.94" stop-color="#F4F4F4"/>
<stop offset="1" stop-color="white"/>
</radialGradient>
<radialGradient id="paint1_radial_3_4367" cx="0" cy="0" r="1" gradientUnits="userSpaceOnUse" gradientTransform="translate(443.622 427.27) rotate(-93.2397) scale(127.8 131.723)">
<stop/>
<stop offset="0.03" stop-color="#181818"/>
<stop offset="0.1" stop-color="#484848"/>
<stop offset="0.17" stop-color="#737373"/>
<stop offset="0.25" stop-color="#999999"/>
<stop offset="0.33" stop-color="#B9B9B9"/>
<stop offset="0.42" stop-color="#D3D3D3"/>
<stop offset="0.51" stop-color="#E6E6E6"/>
<stop offset="0.62" stop-color="#F4F4F4"/>
<stop offset="0.76" stop-color="#FDFDFD"/>
<stop offset="1" stop-color="white"/>
</radialGradient>
</defs>
</svg>
