<svg width="90" height="92" viewBox="0 0 90 92" fill="none" xmlns="http://www.w3.org/2000/svg">
<path d="M88.6377 38.3237C88.3825 37.0759 87.8783 35.8924 87.1552 34.8439C85.8398 33.1805 84.5592 34.2732 84.5592 34.2732C84.3225 32.326 83.9387 30.3996 83.4109 28.5104C81.955 22.9656 79.4196 17.7625 75.95 13.1989C70.0202 5.61274 60.0399 -0.84594 43.399 0.309385C8.60008 2.73835 1.8282 28.1485 0.944309 33.3823C0.885578 33.6743 0.84375 33.9694 0.819033 34.2662C0.816287 34.6072 0.907769 34.9423 1.08339 35.2346C1.259 35.5269 1.51193 35.765 1.81428 35.9226C1.68901 36.4794 1.58461 37.0431 1.48021 37.6069C1.01496 40.1603 0.782014 42.7507 0.784234 45.3462C0.775033 51.0857 1.928 56.7677 4.17365 62.0497L3.1436 64.4926C2.23187 66.6431 18.0515 81.2239 23.3896 86.0957L24.8442 87.4111C27.475 89.7775 36.5506 88.7265 39.0492 89.6452C40.6946 90.1626 42.4715 90.0687 44.0532 89.3808C44.0532 89.3808 44.8397 92.1647 51.013 91.3991C57.1864 90.6335 74.558 77.5422 78.1075 74.1249C81.657 70.7077 78.7339 69.1904 78.7339 69.1904C79.4855 68.0699 80.1815 66.9076 80.8218 65.7105L80.9819 65.4321C86.5149 64.5204 90.2036 44.504 88.6377 38.3237Z" fill="url(#paint0_radial_270_217)"/>
<g opacity="0.58">
<g style="mix-blend-mode:multiply" opacity="0.5">
<path d="M41.4851 44.6293C48.8068 47.8169 48.9738 32.916 55.2794 37.3772C55.8306 37.9056 56.5477 38.2269 57.3089 38.2865C58.0701 38.3462 58.8285 38.1405 59.4553 37.7043C62.8238 36.3681 64.7934 40.4883 68.503 38.8318C76.3188 42.1447 82.7636 23.2558 76.5833 30.2087C67.3337 42.1447 71.9272 22.5529 80.5643 25.5247C70.6257 14.7162 66.0531 51.1298 42.2855 27.202C38.9587 29.29 35.2491 27.898 31.637 27.6405C21.7819 28.768 39.8843 30.1391 31.9432 34.9622C30.252 35.7556 28.5051 34.649 26.7999 35.0875C21.3435 41.6297 -2.82789 24.3137 6.93669 35.345C15.0379 48.2067 32.1033 31.8512 41.4851 44.6293ZM34.3165 35.3241C37.3092 32.8186 42.1811 27.5222 44.269 34.1618C45.3826 34.642 47.2826 33.2292 47.9507 34.8578C50.1361 42.5414 30.3494 40.8571 34.3374 35.3241H34.3165Z" fill="url(#paint1_radial_270_217)"/>
</g>
<g style="mix-blend-mode:multiply" opacity="0.5">
<path d="M24.5309 13.5052C35.7084 16.7833 74.4257 6.91427 46.5726 4.17908C65.1831 13.6514 2.09954 7.81209 24.5309 13.5052Z" fill="url(#paint2_radial_270_217)"/>
</g>
<g style="mix-blend-mode:multiply" opacity="0.5">
<path d="M21.5939 24.9053C37.0377 15.7671 56.5807 31.9764 66.6028 21.2862C67.0552 17.6741 57.0192 23.924 58.0841 18.7041C60.7218 12.0923 79.1165 20.2492 69.7765 13.1363C60.5061 9.60767 56.1771 23.5203 47.6235 19.6158C43.2388 16.9642 38.4227 21.5437 33.9545 21.3419C29.9178 17.4235 26.5771 22.8521 22.088 23.6247C17.9609 24.8705 12.8106 23.7708 10.5487 19.8455C8.47469 24.2859 18.1975 26.0954 21.5939 24.9053Z" fill="url(#paint3_radial_270_217)"/>
</g>
<path style="mix-blend-mode:multiply" opacity="0.5" d="M72.3029 64.2351C67.8973 64.4787 65.531 56.1965 61.1672 59.2658C61.4804 68.8077 51.2983 77.3056 41.2414 80.8411C35.6735 82.4001 20.8631 74.1806 23.8419 84.4324C39.1534 78.8646 47.4704 91.0651 57.6595 71.5081C59.6013 71.5637 60.8262 71.9883 61.5431 72.6495C60.7427 71.5846 60.2903 70.485 60.8471 69.4549C64.1252 67.9446 61.216 62.7666 64.5358 62.1123C75.0868 69.5245 62.5383 68.9747 79.9169 63.5669C90.2035 59.064 76.8128 62.7874 72.3029 64.2351Z" fill="url(#paint4_linear_270_217)"/>
<path style="mix-blend-mode:multiply" opacity="0.5" d="M60.7568 85.72C59.8938 77.7441 70.0203 79.1848 73.5002 77.1038C70.7163 72.8792 68.2247 78.3565 65.1485 76.6305C64.4525 75.6492 63.0605 74.466 61.9957 73.2272C64.4525 77.3543 54.1868 87.3277 60.7568 85.72Z" fill="url(#paint5_linear_270_217)"/>
<g style="mix-blend-mode:multiply" opacity="0.5">
<path d="M61.564 72.6494C61.7032 72.8443 61.8563 73.0392 62.0163 73.2271C61.8924 73.0149 61.7402 72.8206 61.564 72.6494V72.6494Z" fill="url(#paint6_radial_270_217)"/>
</g>
<g style="mix-blend-mode:multiply" opacity="0.5">
<path d="M35.2213 73.6795C41.318 75.0088 57.6248 65.1468 51.6603 60.7691C50.3727 64.7988 38.8612 74.4868 38.896 65.9889C46.1133 60.9222 51.0409 52.9393 58.119 48.2067C63.3527 48.4503 59.2464 53.8163 66.9718 49.8562C78.9705 59.4746 89.9391 39.6809 84.2947 35.2406C85.0881 53.5588 60.9168 47.5525 52.5024 43.5923C38.8195 58.0826 44.3525 42.2839 30.9271 45.0957C18.4621 59.4537 3.90222 46.425 1.05566 47.121C14.8778 74.7444 33.4117 38.0245 34.8663 50.2529C33.3769 52.4591 37.3162 50.4408 37.6085 51.9511C38.0957 60.1636 46.865 46.8843 49.8994 50.9976C50.4006 56.4262 36.1956 69.1626 34.2539 60.6577C32.9315 56.6837 27.5377 60.442 27.8091 63.0102C29.2637 63.1494 32.7227 61.3259 32.841 63.7061C29.737 73.3733 21.6079 63.7757 16.0192 65.1468C15.1005 65.627 15.0588 66.7267 16.235 66.8868C21.0372 71.3828 9.12206 71.0626 7.58395 67.3739C-0.726041 54.7141 5.58648 66.9912 10.2287 72.733C13.2979 74.3825 16.061 72.7817 18.3507 70.7286C23.9325 70.1648 29.3054 74.5077 35.2213 73.6795Z" fill="url(#paint7_radial_270_217)"/>
</g>
</g>
<g style="mix-blend-mode:screen">
<path d="M3.34561 47.0792C11.5582 57.1639 30.0782 23.7848 55.4605 41.6366C80.8429 59.4885 85.4781 29.2204 69.9021 14.751C57.7294 3.43437 46.2388 -1.33308 26.3547 5.45967C6.47055 12.2524 -2.14566 40.363 3.34561 47.0792Z" fill="url(#paint8_radial_270_217)"/>
</g>
<g style="mix-blend-mode:multiply" opacity="0.5">
<path d="M29.5979 15.5932C29.7092 12.3221 49.141 6.24618 46.7607 11.6261C44.3805 17.006 33.0151 13.9994 33.0151 13.9994C33.0151 13.9994 28.5887 19.9778 44.0534 18.4606C59.518 16.9434 65.3781 4.46447 40.8936 6.88648C16.4091 9.30848 5.2943 23.3603 21.2322 24.8497C37.1701 26.3391 76.7156 28.775 67.4591 11.2224C58.5715 -5.63418 32.6602 1.95895 32.6602 1.95895C32.6602 1.95895 60.2349 -6.3232 72.4771 15.4679C85.6242 38.8597 13.9523 26.1164 11.7182 25.4621C9.48409 24.8079 5.45437 22.6434 10.6603 19.1496C15.8662 15.6558 20.1186 7.31798 29.4517 6.78904C38.7848 6.2601 57.0264 1.64576 58.3836 9.57296C59.9773 18.739 29.2012 27.0351 29.5979 15.5932Z" fill="url(#paint9_radial_270_217)"/>
</g>
<path style="mix-blend-mode:multiply" opacity="0.5" d="M84.5594 34.2662C84.5594 34.2662 77.7875 52.2642 50.9575 56.8647C24.1275 61.4651 39.9889 30.1948 16.43 35.9853C-7.12888 41.7758 23.3341 43.8011 19.5201 53.2734C15.7062 62.7457 1.62653 52.1738 1.72397 36.4377C1.72397 36.4377 -0.238687 54.721 15.6853 58.2984C33.4049 62.2724 14.8849 71.3758 4.1599 62.0288C4.1599 62.0288 11.3215 73.6447 21.0513 67.7219C30.7811 61.7992 22.4433 58.7368 21.8238 57.0317C21.2044 55.3265 24.8305 47.7961 15.7549 41.7202C6.67934 35.6443 30.3705 33.5911 32.4584 50.4269C34.5463 67.2626 58.9473 57.0456 60.0052 58.0826C61.0631 59.1196 61.2371 62.7457 68.1064 54.7558C74.9757 46.766 78.8871 51.7283 80.467 47.7961C82.0469 43.8638 84.5594 34.2662 84.5594 34.2662Z" fill="url(#paint10_linear_270_217)"/>
<path style="mix-blend-mode:multiply" opacity="0.5" d="M80.996 65.4113C80.996 65.4113 52.8645 82.3862 31.832 71.9604C31.832 71.9604 39.9332 82.5671 59.3162 76.7488C76.9315 71.4663 44.0534 89.3529 44.0534 89.3529C44.0534 89.3529 74.76 78.962 67.3409 74.6469L77.697 68.3831C79.068 67.7429 80.2167 66.7082 80.996 65.4113V65.4113Z" fill="url(#paint11_linear_270_217)"/>
<path d="M80.9958 65.4113C80.9958 65.4113 54.7018 84.8987 32.8689 73.067C32.8689 73.067 40.9631 83.3118 60.3601 77.5352C79.757 71.7586 44.0533 89.3668 44.0533 89.3668C44.0533 89.3668 76.1379 79.7693 68.4125 75.4473L78.7687 69.1835C79.7507 68.0839 80.5074 66.8022 80.9958 65.4113V65.4113Z" fill="#00FF19"/>
<g style="mix-blend-mode:screen" opacity="0.5">
<path d="M31.6231 16.3587C31.7415 13.018 49.4402 6.36441 47.053 11.7513C44.6658 17.1382 34.9778 16.1429 34.9778 16.1429C34.9778 16.1429 29.0271 20.1726 44.4918 18.6693C59.9564 17.166 66.2968 5.82851 41.8123 8.22963C17.3277 10.6308 7.22213 26.3251 23.1392 27.7936C39.0562 29.2621 79.583 31.6632 70.0203 14.2986C60.4575 -3.0661 32.6532 1.9519 32.6532 1.9519C32.6532 1.9519 61.8286 -6.08665 74.4537 17.5905C87.0787 41.2677 17.2025 27.3343 14.9684 26.6731C12.7343 26.0119 8.00858 22.873 13.2702 19.3862C18.5318 15.8993 20.752 8.14612 30.099 7.57541C39.4459 7.00471 57.9938 2.41821 59.4345 10.3106C61.2231 20.0404 31.2264 27.8006 31.6231 16.3587Z" fill="url(#paint12_radial_270_217)"/>
</g>
<g style="mix-blend-mode:screen" opacity="0.5">
<path d="M84.5592 34.2662C84.5592 34.2662 78.5738 55.1456 51.7438 59.7599C24.9138 64.3743 42.3411 31.2874 18.7962 37.071C-4.74879 42.8546 26.5842 44.5041 22.4361 53.8302C17.2859 65.4113 1.6403 52.1668 1.73773 36.4307C1.73773 36.4307 0.645049 55.1595 18.3995 58.9735C36.1539 62.7874 16.931 75.1202 5.12019 63.386C5.12019 63.386 12.3723 75.851 22.109 69.9351C31.8458 64.0193 24.4754 60.8874 23.8142 59.1475C23.153 57.4075 26.9739 49.2855 17.8984 43.2374C8.8228 37.1893 32.3678 35.7348 34.4696 52.5705C36.5715 69.4062 59.9842 59.2797 61.0351 60.3306C62.0861 61.3816 63.2483 64.9102 70.0829 56.9134C76.9174 48.9166 80.8705 53.8859 82.4504 49.9536C84.0303 46.0213 84.5592 34.2662 84.5592 34.2662Z" fill="url(#paint13_radial_270_217)"/>
</g>
<g style="mix-blend-mode:screen" opacity="0.5">
<path d="M80.9958 65.4113C80.9958 65.4113 54.7018 84.8987 32.8689 73.067C32.8689 73.067 41.9166 84.669 61.2996 78.8993C80.6826 73.1297 44.0533 89.3738 44.0533 89.3738C44.0533 89.3738 77.0844 81.1334 69.3243 76.7975L78.7409 69.1835C79.7328 68.0863 80.4991 66.8045 80.9958 65.4113V65.4113Z" fill="url(#paint14_radial_270_217)"/>
</g>
<g style="mix-blend-mode:multiply" opacity="0.5">
<path d="M54.1103 70.8747C52.3843 78.0154 68.4823 71.5707 80.8359 65.6896L80.996 65.4113C86.5151 64.4856 90.2177 44.5319 88.6518 38.3238C88.3966 37.0759 87.8924 35.8924 87.1693 34.8439C88.0393 63.0101 55.4953 65.1607 54.1103 70.8747Z" fill="url(#paint15_radial_270_217)"/>
</g>
<g style="mix-blend-mode:multiply" opacity="0.5">
<path d="M12.1914 50.754C2.71917 44.0447 8.65587 38.6787 5.67708 38.2263C2.69829 37.774 0.909625 33.3545 0.909625 33.3545C0.850894 33.6465 0.809066 33.9416 0.784349 34.2384C0.779629 34.5877 0.87385 34.9312 1.05612 35.2293C1.23839 35.5273 1.50128 35.7677 1.8144 35.9227C1.68912 36.4794 1.58472 37.0432 1.48033 37.6069L1.6404 37.6765C4.06937 61.4929 21.6568 57.4562 12.1914 50.754Z" fill="url(#paint16_radial_270_217)"/>
</g>
<path style="mix-blend-mode:multiply" opacity="0.5" d="M42.0699 83.4023C33.2866 82.5115 35.1727 71.9604 24.0232 74.0136C12.8736 76.0667 3.14379 64.4647 3.14379 64.4647C2.23206 66.6431 18.0517 81.2239 23.3898 86.0957C40.6083 92.102 50.185 84.2236 42.0699 83.4023Z" fill="url(#paint17_linear_270_217)"/>
<g style="mix-blend-mode:multiply" opacity="0.3">
<path d="M58.2513 34.2663C31.5187 34.6699 38.0679 53.2178 44.8955 54.0042C51.723 54.7907 86.4663 46.425 83.4109 28.5036C81.955 22.9587 79.4197 17.7556 75.95 13.192C76.0405 13.4217 84.8446 33.8556 58.2513 34.2663Z" fill="url(#paint18_radial_270_217)"/>
</g>
<path d="M30.635 16.3587C30.7463 13.0458 49.4264 6.36444 47.074 11.7513C44.7216 17.1382 34.0522 14.7788 34.0522 14.7788C34.0522 14.7788 29.424 20.1518 44.8956 18.6485C60.3672 17.1452 65.3782 4.46442 40.8937 6.88643C16.4092 9.30843 6.30357 24.9819 22.2136 26.4504C38.1237 27.9189 78.6436 30.2992 69.0391 12.9414C59.4346 -4.41627 32.6533 1.95194 32.6533 1.95194C32.6533 1.95194 60.8822 -7.45074 73.5003 16.2265C86.1184 39.9037 14.9824 26.8749 12.7483 26.2416C10.5142 25.6083 6.48452 23.4159 11.6974 19.9291C16.9103 16.4422 21.1488 8.09743 30.4888 7.56849C39.8289 7.03954 59.5529 2.30688 59.4207 10.3524C59.2884 18.3979 30.2383 27.8006 30.635 16.3587Z" fill="#00FF19"/>
<path d="M84.5593 34.2662C84.5593 34.2662 78.7688 54.7767 51.9249 59.3632C25.081 63.9497 41.0119 30.9603 17.4669 36.7439C-6.07802 42.5275 24.9626 44.7686 21.1487 54.2339C17.3347 63.6992 1.66127 52.1459 1.72391 36.4307C1.72391 36.4307 -0.287472 55.417 17.4669 59.238C35.2214 63.0589 15.9776 73.7561 4.15983 62.0219C4.15983 62.0219 11.4189 74.4938 21.1487 68.571C30.8785 62.6483 23.515 59.5233 22.8608 57.7903C22.2066 56.0573 26.0136 47.9213 16.945 41.8733C7.87636 35.8252 31.4074 34.3776 33.5162 51.2133C35.625 68.049 59.0308 57.9226 60.0817 58.9735C61.1327 60.0244 62.288 63.5461 69.1295 55.5493C75.9709 47.5525 79.9171 52.5287 81.49 48.5895C83.0629 44.6502 84.5593 34.2662 84.5593 34.2662Z" fill="#00FF19"/>
<path d="M48.4451 25.6639C48.4451 25.6639 71.482 24.968 68.3153 13.2059C68.3292 13.2059 75.978 26.0885 48.4451 25.6639Z" fill="#414141"/>
<path d="M35.0752 11.7165C35.0752 11.7165 44.9859 7.74246 47.2061 10.4568C47.2061 10.4568 47.1574 5.66845 35.0752 11.7165Z" fill="#414141"/>
<path d="M10.0339 37.9688C10.0339 37.9688 22.2414 33.097 27.0576 36.7161C27.0576 36.7161 24.0092 30.9533 10.0339 37.9688Z" fill="#414141"/>
<path d="M38.8474 55.6398C38.8474 55.6398 55.7945 58.883 73.6464 47.469C73.6742 47.469 50.9992 62.349 38.8474 55.6398Z" fill="#414141"/>
<defs>
<radialGradient id="paint0_radial_270_217" cx="0" cy="0" r="1" gradientUnits="userSpaceOnUse" gradientTransform="translate(38.4075 86.0329) rotate(180) scale(62.49 81.3526)">
<stop stop-color="#4F4F4F"/>
<stop offset="0.16" stop-color="#414141"/>
<stop offset="0.72" stop-color="#141516"/>
<stop offset="1" stop-color="#030405"/>
</radialGradient>
<radialGradient id="paint1_radial_270_217" cx="0" cy="0" r="1" gradientUnits="userSpaceOnUse" gradientTransform="translate(68.766 23.311) scale(164.407 21.3169)">
<stop stop-color="#777779"/>
<stop offset="1" stop-color="#4F4F4F"/>
</radialGradient>
<radialGradient id="paint2_radial_270_217" cx="0" cy="0" r="1" gradientUnits="userSpaceOnUse" gradientTransform="translate(35.3417 13.5635) rotate(180) scale(26.0778 8.89197)">
<stop stop-color="#4F4F4F"/>
<stop offset="0.16" stop-color="#414141"/>
<stop offset="0.72" stop-color="#141516"/>
<stop offset="1" stop-color="#030405"/>
</radialGradient>
<radialGradient id="paint3_radial_270_217" cx="0" cy="0" r="1" gradientUnits="userSpaceOnUse" gradientTransform="translate(62.7444 12.4671) scale(134.553 12.5292)">
<stop stop-color="#777779"/>
<stop offset="1" stop-color="#4F4F4F"/>
</radialGradient>
<linearGradient id="paint4_linear_270_217" x1="5392.82" y1="3730.28" x2="10608.5" y2="3730.28" gradientUnits="userSpaceOnUse">
<stop stop-color="#29364C"/>
<stop offset="1" stop-color="white"/>
</linearGradient>
<linearGradient id="paint5_linear_270_217" x1="2147.23" y1="2018.94" x2="2469.97" y2="2018.94" gradientUnits="userSpaceOnUse">
<stop stop-color="#29364C"/>
<stop offset="1" stop-color="white"/>
</linearGradient>
<radialGradient id="paint6_radial_270_217" cx="0" cy="0" r="1" gradientUnits="userSpaceOnUse" gradientTransform="translate(61.9461 72.6453) scale(0.97958 0.569671)">
<stop stop-color="#777779"/>
<stop offset="1" stop-color="#4F4F4F"/>
</radialGradient>
<radialGradient id="paint7_radial_270_217" cx="0" cy="0" r="1" gradientUnits="userSpaceOnUse" gradientTransform="translate(37.2072 71.4804) rotate(180) scale(60.0454 34.3382)">
<stop stop-color="#4F4F4F"/>
<stop offset="0.16" stop-color="#414141"/>
<stop offset="0.72" stop-color="#141516"/>
<stop offset="1" stop-color="#030405"/>
</radialGradient>
<radialGradient id="paint8_radial_270_217" cx="0" cy="0" r="1" gradientUnits="userSpaceOnUse" gradientTransform="translate(66.8854 1.99362) scale(167.066 46.0488)">
<stop stop-color="#777779"/>
<stop offset="1" stop-color="#4F4F4F"/>
</radialGradient>
<radialGradient id="paint9_radial_270_217" cx="0" cy="0" r="1" gradientUnits="userSpaceOnUse" gradientTransform="translate(63.8346 0.045743) scale(142.854 28.8523)">
<stop stop-color="#777779"/>
<stop offset="1" stop-color="#4F4F4F"/>
</radialGradient>
<linearGradient id="paint10_linear_270_217" x1="1.66133" y1="51.8327" x2="84.5594" y2="51.8327" gradientUnits="userSpaceOnUse">
<stop stop-color="#29364C"/>
<stop offset="0.14" stop-color="#2D3A4F"/>
<stop offset="0.28" stop-color="#384459"/>
<stop offset="0.42" stop-color="#4B5669"/>
<stop offset="0.55" stop-color="#66707F"/>
<stop offset="0.68" stop-color="#89909C"/>
<stop offset="0.81" stop-color="#B4B8C0"/>
<stop offset="0.94" stop-color="#E5E7E9"/>
<stop offset="1" stop-color="white"/>
</linearGradient>
<linearGradient id="paint11_linear_270_217" x1="31.832" y1="77.3821" x2="80.996" y2="77.3821" gradientUnits="userSpaceOnUse">
<stop stop-color="#29364C"/>
<stop offset="0.11" stop-color="#2F3B51"/>
<stop offset="0.25" stop-color="#3E4A5E"/>
<stop offset="0.4" stop-color="#586374"/>
<stop offset="0.57" stop-color="#7D8592"/>
<stop offset="0.74" stop-color="#ACB1B9"/>
<stop offset="0.92" stop-color="#E4E5E8"/>
<stop offset="1" stop-color="white"/>
</linearGradient>
<radialGradient id="paint12_radial_270_217" cx="0" cy="0" r="1" gradientUnits="userSpaceOnUse" gradientTransform="translate(65.8616 0.419244) scale(140.971 30.2816)">
<stop stop-color="#777779"/>
<stop offset="1" stop-color="#4F4F4F"/>
</radialGradient>
<radialGradient id="paint13_radial_270_217" cx="0" cy="0" r="1" gradientUnits="userSpaceOnUse" gradientTransform="translate(71.6873 34.0017) scale(179.367 36.7462)">
<stop stop-color="#777779"/>
<stop offset="1" stop-color="#4F4F4F"/>
</radialGradient>
<radialGradient id="paint14_radial_270_217" cx="0" cy="0" r="1" gradientUnits="userSpaceOnUse" gradientTransform="translate(73.5173 65.2412) scale(104.213 23.6309)">
<stop stop-color="#777779"/>
<stop offset="1" stop-color="#4F4F4F"/>
</radialGradient>
<radialGradient id="paint15_radial_270_217" cx="0" cy="0" r="1" gradientUnits="userSpaceOnUse" gradientTransform="translate(83.5696 34.5658) scale(75.8543 38.6347)">
<stop stop-color="#777779"/>
<stop offset="1" stop-color="#4F4F4F"/>
</radialGradient>
<radialGradient id="paint16_radial_270_217" cx="0" cy="0" r="1" gradientUnits="userSpaceOnUse" gradientTransform="translate(12.7627 33.1943) scale(30.7099 22.2553)">
<stop stop-color="#777779"/>
<stop offset="1" stop-color="#4F4F4F"/>
</radialGradient>
<linearGradient id="paint17_linear_270_217" x1="3771.17" y1="3213.64" x2="3771.17" y2="4031.96" gradientUnits="userSpaceOnUse">
<stop stop-color="#29364C"/>
<stop offset="1" stop-color="white"/>
</linearGradient>
<radialGradient id="paint18_radial_270_217" cx="0" cy="0" r="1" gradientUnits="userSpaceOnUse" gradientTransform="translate(76.6475 12.902) scale(96.8926 40.2972)">
<stop stop-color="#777779"/>
<stop offset="1" stop-color="#4F4F4F"/>
</radialGradient>
</defs>
</svg>
