<svg width="93" height="93" viewBox="0 0 93 93" fill="none" xmlns="http://www.w3.org/2000/svg">
<g clip-path="url(#clip0_3_4308)">
<path fill-rule="evenodd" clip-rule="evenodd" d="M83.4409 28.6663C83.0925 28.9712 83.6917 30.7872 83.6917 31.3139C83.6917 33.2546 82.2983 33.116 83.2179 35.32C83.4198 35.7893 83.5286 36.2929 83.5384 36.8033C83.5384 41.1836 86.3254 41.8629 86.1721 44.2749C86.1024 45.3977 85.2663 48.8216 85.2524 49.5147C85.2524 53.5208 86.4926 53.4792 86.2696 58.4418C86.2696 59.3151 85.0712 62.8361 85.113 63.0856C85.1462 63.3373 85.2482 63.5751 85.4079 63.7731C85.5676 63.9711 85.7789 64.1217 86.0188 64.2084C86.3179 64.2849 86.6326 64.2774 86.9277 64.1869C87.2229 64.0964 87.4871 63.9263 87.691 63.6955C88.9721 61.6806 89.9971 59.5155 90.7427 57.2497C90.9238 56.7784 90.4222 56.21 90.6033 55.7387C91.2025 54.0753 92.9722 51.2474 93.0001 51.0256C93.0279 50.8039 92.1222 49.7503 91.9828 49.0018C91.8853 48.4889 92.3591 47.6849 92.3451 47.477C91.9102 46.6593 91.524 45.8169 91.1886 44.9541C91.1072 44.2799 91.1307 43.5973 91.2582 42.9302C91.2582 42.9302 90.7148 41.6827 90.7427 41.6272C91.0951 41.0503 91.3449 40.4172 91.4812 39.7559C91.0353 38.3697 89.7393 36.2349 89.5861 35.7082C89.4328 35.1814 89.7672 34.9596 89.6558 34.6131C89.0426 32.7556 85.2802 26.9474 83.4409 28.6108V28.6663ZM34.9482 69.5591C34.7932 70.8392 34.4989 72.0988 34.0703 73.3157C33.8613 73.787 31.8687 74.2999 33.2761 75.7831C35.5056 78.1258 37.763 79.5259 39.4213 81.5359C40.3671 82.9317 41.2234 84.3854 41.9852 85.8885C44.5631 90.0471 51.5166 89.1461 55.9199 88.8411C58.0519 88.7025 62.1905 88.7302 62.3159 88.7025C62.7618 88.5916 64.8102 87.5381 66.1062 87.1084C67.7923 86.5539 71.1226 85.8331 71.262 85.7222C71.72 85.1726 72.1346 84.5887 72.5022 83.9756C72.5022 83.8508 73.9792 83.5458 74.1743 83.4072C74.6851 82.2672 75.3009 81.1767 76.0137 80.1497C76.3063 79.817 77.24 79.9972 77.3236 79.9279C77.4072 79.8586 78.3129 78.3337 78.4105 78.1951C78.508 78.0565 80.5982 77.3218 80.6679 77.1832C81.6433 75.1178 81.9359 72.789 82.772 70.6681C83.7614 68.1729 83.8311 67.2719 83.5245 66.0659C83.203 65.0704 83.2275 63.9962 83.5942 63.0163C84.0611 61.7819 84.3246 60.4806 84.3745 59.1626C84.2212 57.4992 82.5351 53.6178 80.3056 53.6178C78.3686 53.6178 75.7908 55.4199 74.6342 56.8754C71.7636 60.4656 70.7743 64.1807 65.1725 64.1807C63.4028 64.1807 62.3856 63.1826 60.811 63.8896C57.4806 65.2758 60.1282 67.8402 44.9812 66.2322C38.836 65.5807 35.7146 65.1371 35.0179 69.573L34.9482 69.5591ZM31.0883 36.1933C27.535 36.9835 24.121 42.2094 21.8914 45.4254C21.5861 45.7755 21.4179 46.2234 21.4177 46.6868C21.5013 47.3522 26.671 58.9131 27.3399 59.7448C30.0293 63.0578 49.2173 62.8638 55.7527 62.4341C56.3946 62.3981 57.013 62.1818 57.5363 61.8103C58.4839 61.1172 59.1249 60.7983 60.0864 60.1191C60.5684 59.7665 61.1622 59.5991 61.7585 59.6478C62.8132 59.8797 63.8513 60.1807 64.866 60.5488C65.5625 60.7945 66.3027 60.8937 67.0398 60.8399C70.9554 60.0637 70.9275 56.2516 74.3973 53.6733C75.9438 52.5402 77.6297 51.6086 79.4138 50.9009C80.4864 50.2726 81.3989 49.4067 82.0804 48.3705C82.762 47.3343 83.1941 46.1557 83.3434 44.9264C83.0641 44.0257 82.7002 43.1531 82.2565 42.3203C80.7933 38.6746 81.7269 38.841 81.1277 36.5399C80.9605 35.9299 80.2917 35.5557 79.7343 35.1537C78.6056 34.3635 79.0375 34.6131 77.8809 32.908C77.658 32.6031 77.7137 32.1595 77.5186 31.8268C77.2829 31.4122 76.971 31.0454 76.599 30.7456C76.4875 30.6485 76.2924 30.7456 76.167 30.7456C75.6374 31.0783 75.2612 31.6882 74.676 31.91C74.3694 32.0209 74.035 31.6882 73.7005 31.6882C70.621 31.6882 71.8612 32.6724 68.8931 31.6882C62.7619 29.5119 59.6962 31.6882 54.5961 33.5873C53.983 33.8229 53.3281 34.1002 53.4813 34.1695C54.1168 34.5174 54.7105 34.9359 55.251 35.4171C55.7175 35.7605 56.1146 36.1885 56.4216 36.6785C56.4732 36.7922 56.4901 36.9185 56.4703 37.0417C56.4505 37.1649 56.3948 37.2796 56.3101 37.3716C56.115 37.5518 55.683 37.7181 55.5019 37.5102C54.7862 36.4741 53.8236 35.6305 52.7002 35.0548C51.5768 34.4791 50.3276 34.1892 49.0641 34.2111C47.8935 34.2111 44.8836 35.5973 41.5811 35.8884C37.0663 36.3458 32.1334 35.8884 31.0883 36.124V36.1933ZM34.0843 19.1431C33.8056 22.6086 34.5302 24.48 34.5581 26.989C34.5581 27.4464 34.2236 29.2069 34.8228 29.8584C36.3814 30.9156 38.1183 31.6857 39.9508 32.1318C42.2721 32.355 44.6104 31.9377 46.7091 30.9258C48.1722 30.5238 49.496 29.6782 51.4469 31.4109C52.6871 32.5199 54.4568 33.3239 55.8084 31.6327C56.5306 30.7381 57.1088 29.7373 57.5224 28.6663C57.6474 28.2028 57.5978 27.7098 57.3831 27.2801C56.896 26.388 56.3465 25.5311 55.7388 24.7156L56.0453 24.8958C56.8278 25.5956 57.5633 26.3458 58.247 27.1415C58.4421 27.4187 58.1773 27.89 58.4142 28.1395C61.3126 31.203 63.8069 28.6524 66.4406 29.401C67.3045 29.6505 68.1685 29.8307 69.0324 30.0941C70.3248 30.2498 71.6313 29.9507 72.7251 29.2485C73.0037 29.1014 73.2402 28.8866 73.4127 28.6241C73.5853 28.3615 73.6881 28.0598 73.7118 27.747C73.7354 27.4343 73.6791 27.1206 73.548 26.8354C73.4169 26.5501 73.2153 26.3025 72.962 26.1157C72.2488 25.3727 71.6009 24.5704 71.0251 23.7175C69.3808 21.264 70.4956 19.9887 66.552 16.7866C63.9575 14.5046 61.0246 12.6343 57.8568 11.2418C56.567 10.6861 55.2151 10.2859 53.8297 10.0496C51.0428 9.57833 46.3746 9.03771 46.1796 10.6596C46.1796 11.0616 46.1796 11.5329 45.9706 11.8517C45.8425 11.9813 45.6878 12.0818 45.517 12.1464C45.3462 12.211 45.1635 12.2382 44.9812 12.226C44.382 12.226 43.8107 11.8517 43.1975 11.8517C42.7101 11.8881 42.2355 12.025 41.8041 12.2537C38.7524 13.8062 34.4744 15.2202 34.14 19.1847L34.0843 19.1431ZM58.5954 3.47906C57.731 3.13617 56.8469 2.84456 55.9478 2.60575C55.0531 2.55731 54.1561 2.64139 53.2863 2.85527C52.2941 3.07052 51.3204 3.36251 50.3739 3.72857C49.4264 4.10285 45.6779 6.32076 46.5558 7.59606C46.9878 8.21985 51.1682 8.26144 51.9067 8.17827C58.9716 7.41586 58.1495 9.0793 61.9118 11.7269C63.1979 12.533 64.5608 13.2109 65.9807 13.7508C72.2235 16.5232 72.6554 22.7195 73.2268 23.9948C73.444 24.5034 73.7955 24.944 74.244 25.2701C76.6408 27.0028 75.9998 26.0325 77.8531 28.8881C78.3269 29.6227 78.7588 30.2743 78.9678 30.5792C79.1472 30.8147 79.3789 31.0057 79.6448 31.1371C79.9107 31.2686 80.2037 31.337 80.5007 31.337C80.7976 31.337 81.0906 31.2686 81.3565 31.1371C81.6224 31.0057 81.8542 30.8147 82.0335 30.5792C82.1588 30.0084 82.1588 29.4173 82.0335 28.8465C82.0335 28.597 81.6572 28.4445 81.6294 28.195C81.3786 25.2701 86.4229 27.7375 84.904 23.7037C84.4024 22.3175 83.3294 21.3333 82.7302 20.058C82.2564 19.0461 81.9499 17.2024 81.699 16.8697C81.4482 16.537 80.5007 16.5509 80.4728 16.3707C80.3649 15.8017 80.2158 15.2411 80.0269 14.6934C79.3941 14.6049 78.7663 14.4846 78.1457 14.333C77.6457 14.1678 77.1753 13.9245 76.7522 13.6122C76.585 13.4042 75.7211 11.5745 75.5957 11.4358C75.4703 11.2972 74.1325 10.9091 73.4776 10.5071C72.8227 10.1051 72.1538 9.24564 71.3735 8.76047C70.5931 8.2753 69.7013 8.23372 68.9767 7.74855C68.1608 7.1166 67.3924 6.42629 66.6775 5.68311C66.5242 5.58608 65.5766 5.47518 65.0471 5.29498C64.5176 5.11477 64.1832 4.85139 63.7373 4.67119C63.0591 4.41242 62.3657 4.19485 61.661 4.01967C60.6716 3.79788 59.6405 3.7563 58.6372 3.52064L58.5954 3.47906ZM40.4803 8.05351C39.0434 8.66102 37.8278 9.69134 36.9966 11.0061C36.8766 11.257 36.8518 11.5425 36.9269 11.8101C37.0663 12.2953 40.0204 11.8101 40.2573 11.616C40.5773 11.2423 40.9268 10.8947 41.3024 10.5764C42.1664 10.0496 42.891 10.41 43.8246 10.4378C43.95 10.4378 44.1312 10.4378 44.173 10.2576C44.3681 9.75853 44.7582 8.40006 44.173 8.03965C43.3369 7.49903 41.386 7.90103 40.3827 8.03965L40.4803 8.05351ZM32.1195 3.89492C33.8195 4.38009 35.7704 4.49098 37.4425 4.96229C39.1147 5.4336 43.0164 7.13862 44.5353 6.22373C45.9288 5.44746 47.6427 4.15829 48.9665 3.45133C49.8409 2.95162 50.7781 2.56939 51.7534 2.31465C51.9206 2.31465 51.7534 1.94038 51.642 1.81562C51.3314 1.48942 50.9432 1.24629 50.5132 1.10866C49.7468 0.900731 48.9247 1.03935 48.1444 0.886867C47.44 0.693925 46.7469 0.462541 46.0681 0.193768C45.9148 0.193768 45.2877 0.401699 45.2041 0.373975C44.6607 0.235355 43.5599 0.0551492 43.3787 0.0135632C43.1976 -0.0280227 42.4033 0.471008 41.8738 0.581904C41.3442 0.6928 41.1073 0.48487 40.7311 0.581904C40.1916 0.67913 39.6638 0.832452 39.1565 1.03935C38.7663 1.19183 38.1253 1.5661 38.0138 1.60769C37.9024 1.64928 36.6204 1.41362 36.481 1.45521C36.3417 1.4968 35.0876 2.42555 34.4187 2.67506C33.9225 2.80812 33.4132 2.88714 32.8998 2.91072C32.7465 2.91072 32.3982 3.60382 32.1334 3.95037L32.1195 3.89492ZM25.1521 6.83366C24.5948 8.21985 24.8317 10.9922 23.6333 13.0161C23.4828 13.3012 23.2849 13.559 23.048 13.7785C22.2119 14.4439 20.4701 16.6479 20.6095 18.0064C20.76 19.5596 20.4448 21.1224 19.7037 22.4977C16.9168 27.6821 16.5405 28.1257 15.7741 29.8723C15.3125 31.301 15.3125 32.8378 15.7741 34.2665C17.07 37.9954 20.93 35.0012 22.6579 33.9338C24.7062 32.6585 26.9219 33.0467 27.5071 32.811C30.4473 31.5773 31.4228 29.5396 31.4506 26.587C31.4506 24.4245 31.1441 19.351 31.9383 17.6044C32.3146 16.7866 33.2343 16.2182 33.3318 15.2895C33.5826 13.4042 32.7605 13.2102 34.5302 11.4636C35.422 10.5625 36.4392 9.78626 37.3171 8.8575C37.8476 8.34706 38.2818 7.7461 38.5991 7.08317C38.7106 6.77821 38.7245 6.20987 38.418 6.09897C36.3603 5.50751 34.2517 5.1084 32.1195 4.90684C31.6318 4.83753 31.1301 5.08705 30.6285 5.05932C30.1268 5.0316 29.3465 4.7405 28.7055 4.69891C28.3101 4.63165 27.9035 4.6798 27.535 4.83753C26.6292 5.37815 25.5005 5.86332 25.0964 6.83366H25.1521ZM16.5545 39.4093C13.6421 40.6846 16.0389 42.1817 17.3348 42.958C17.8922 43.2491 17.5717 44.3442 19.425 44.8986C19.5827 44.9778 19.7569 45.0191 19.9336 45.0191C20.1103 45.0191 20.2845 44.9778 20.4422 44.8986C20.8603 44.5105 20.8603 43.8451 21.1668 43.3738C21.6685 42.5837 22.3513 41.9876 22.8529 41.1282C23.3546 40.2687 24.6644 37.7597 23.5079 36.8033C23.4033 36.7317 23.2794 36.6934 23.1525 36.6934C23.0256 36.6934 22.9017 36.7317 22.7972 36.8033C20.7627 38.1894 19.007 38.3419 16.5545 39.4232V39.4093ZM38.0835 90.6986C39.7433 90.2908 41.4461 90.0814 43.1557 90.0748C43.6435 90.0748 44.1312 90.4907 44.5492 90.3382C47.1132 89.4095 48.5903 90.6293 50.7501 90.5739C52.7001 90.5023 54.6422 90.2892 56.5609 89.9362C56.2265 90.1441 55.892 90.3243 55.5715 90.5461C55.0511 91.043 54.4762 91.4801 53.8576 91.8492C53.1172 92.1425 52.3274 92.293 51.5305 92.2927C50.7381 92.148 49.9378 92.0508 49.1337 92.0016C48.0747 92.1403 47.1411 92.875 46.082 93.0413C45.7058 93.0413 45.3574 92.7641 44.9951 92.6809C44.6328 92.5977 44.1033 92.6809 43.6853 92.5423C43.2672 92.4036 43.0164 92.0848 42.6262 92.0016C41.7344 91.7937 40.7729 91.9185 39.8393 91.669C39.1956 91.4065 38.5795 91.0815 37.9999 90.6986H38.0835ZM30.7539 76.9337C29.3506 76.7514 27.9254 77.0184 26.685 77.6961C25.6399 78.8051 28.371 82.1181 28.6915 82.7973C29.3678 84.1868 29.7384 85.7037 29.7785 87.247C29.7708 87.7314 29.891 88.2093 30.1268 88.6332C30.5414 89.2061 31.0794 89.6797 31.7014 90.0194C32.4232 90.4742 33.2463 90.7456 34.0982 90.8095C35.1519 90.6636 36.1883 90.4128 37.1917 90.061C41.3721 89.257 41.2606 88.5084 38.5016 83.2825C37.4983 81.3972 33.0113 77.5436 30.7539 76.9891V76.9337ZM11.6216 74.2999C11.1757 74.1751 10.4929 74.189 10.2281 74.591C9.96335 74.993 10.2281 75.6445 10.4789 76.0742C11.3708 77.4604 12.6806 78.4446 13.6142 79.7615C14.3388 80.7734 14.4085 82.3121 15.4258 83.0191C16.9864 84.0865 19.1602 83.8924 20.8463 84.7518C23.0759 85.8885 22.8251 87.1915 25.7235 87.5242C25.9807 87.5782 26.2481 87.5587 26.4946 87.4679C26.7412 87.3772 26.957 87.2189 27.1169 87.0113C28.1899 85.0291 25.2218 83.1577 25.3472 78.4446C25.3472 78.0288 25.3472 77.5991 24.8038 77.6268C22.6477 77.8696 20.467 77.7808 18.3381 77.3634C16.429 76.8782 14.4503 75.09 11.6216 74.3554V74.2999ZM13.3077 42.6391C13.3077 42.348 12.9454 41.0312 11.0781 41.4332C10.2825 41.5942 9.51334 41.8648 8.79283 42.2371C7.39937 43.0273 6.25673 45.564 5.18376 46.77C4.84933 47.1443 3.95751 46.6868 3.59521 46.4928C3.47567 46.4345 3.34031 46.4165 3.20959 46.4415C3.07887 46.4665 2.95988 46.5332 2.8706 46.6314C2.70338 46.8532 2.27141 47.6017 1.65829 48.5721C1.47073 48.8691 1.26113 49.1517 1.03123 49.4177C0.48778 50.0414 0.0697291 50.1939 0.432031 51.9821C0.720989 53.2326 0.921224 54.5018 1.03123 55.7803C1.10091 57.1665 0.529571 59.329 0.668917 59.7726C0.808264 60.2161 1.9091 61.3251 2.06238 61.7271C2.21567 62.1291 2.06239 63.1133 2.13206 63.2381C3.00995 64.7213 3.52554 64.9847 4.4731 66.4263C4.86327 67.0362 5.16984 67.7155 5.58788 68.3115C6.01159 68.9687 6.51207 69.5736 7.07888 70.1136C9.21088 71.9295 16.8332 74.591 19.1045 74.8405C21.8698 75.1338 24.666 74.8938 27.3399 74.1336C29.4858 73.3157 31.9383 67.3273 31.3809 65.8164C31.2277 65.4005 30.8096 65.1371 30.4752 64.8322C29.9698 64.3639 29.4345 63.9287 28.8727 63.5292C28.121 63.0127 27.4042 62.4478 26.7268 61.838C25.7567 61.2936 25.0003 60.4386 24.5808 59.4121C23.8702 57.4576 21.4873 52.7584 20.7209 51.095C18.8816 46.6868 19.5644 45.3006 15.0356 45.3006C13.0569 45.3006 13.5028 43.9144 13.2659 42.653L13.3077 42.6391ZM0.0418614 44.566C-0.000845042 45.147 0.135241 45.7272 0.432031 46.2294C0.654985 46.5205 1.19845 46.77 1.49108 46.5482C1.78371 46.3264 1.63042 44.0947 2.77307 43.7758C3.27472 43.6649 3.56735 44.4412 4.04113 44.6491C5.93624 45.5086 6.47969 40.8094 6.82806 40.241C8.40268 37.9399 12.9175 41.142 12.165 34.821C11.9142 32.6724 11.3289 32.0486 12.4995 30.2743C14.4085 27.3217 15.6905 26.1157 17.1815 23.3433C18.0315 21.7214 16.9168 20.2105 17.4881 17.7985C18.0594 15.3865 20.6791 14.2221 21.8496 12.9468C23.3825 11.2695 22.7136 7.72082 21.8496 7.99806C19.6619 8.69116 17.934 10.3685 16.011 11.6299C14.7151 12.4755 12.4716 14.1528 12.2347 14.3053C11.9978 14.4577 11.3708 16.1628 10.8412 16.9806C9.87974 18.3668 8.63955 19.4342 7.63625 20.7511C7.00919 21.5828 6.61903 22.5947 5.9641 23.4264C5.36436 24.152 4.70736 24.8288 3.99932 25.4503C3.76244 25.5751 2.94029 29.8168 2.25749 31.9654C1.99273 32.7971 1.42139 33.518 1.17057 34.3497C0.841519 35.4342 0.622141 36.5487 0.515656 37.6766C0.248718 39.9361 0.0998709 42.2079 0.0697367 44.4828L0.0418614 44.566Z" fill="url(#paint0_radial_3_4308)"/>
<g style="mix-blend-mode:multiply">
<path fill-rule="evenodd" clip-rule="evenodd" d="M65.2424 44.7739C65.6186 44.6769 67.0539 45.7165 67.1236 45.966C67.2416 46.9975 67.1613 48.0419 66.8867 49.0434C66.4769 49.9811 65.885 50.8291 65.1449 51.5385C64.3725 51.7885 63.535 51.749 62.7899 51.4276C61.7448 50.8454 64.6153 44.9264 65.2424 44.7739ZM72.5581 35.9161C73.2995 36.2217 73.9583 36.6965 74.4811 37.3023C74.9283 38.7248 75.1585 40.2061 75.1639 41.6965C75.1247 43.647 74.6935 45.57 73.8958 47.3522C73.0598 49.0018 69.0883 49.279 68.9072 48.8632C68.0711 46.9086 69.1302 44.6214 69.5761 42.5421C69.7433 41.7658 72.2376 35.9022 72.5581 35.9577V35.9161ZM56.7562 71.4721C56.7454 72.1666 56.5164 72.8404 56.1013 73.3989C55.4133 73.8816 54.6369 74.2254 53.816 74.4108C52.7138 74.598 51.5877 74.598 50.4856 74.4108C49.7135 74.2686 48.9786 73.9715 48.3257 73.5375C48.0023 72.965 47.8937 72.297 48.0191 71.6523C48.416 71.249 48.8897 70.9285 49.4126 70.7097C50.5157 70.9765 51.6501 71.0931 52.7848 71.0562C53.2028 71.0562 54.5127 69.5591 54.9725 69.5175C55.6971 69.5175 56.8259 71.2226 56.798 71.4721H56.7562ZM57.9824 69.5314C57.9132 69.9079 57.9824 70.2966 58.1775 70.6265C58.6287 70.8694 59.1481 70.9571 59.6546 70.876C60.4322 70.515 61.118 69.9843 61.6612 69.3235C62.0947 68.8579 62.4309 68.3113 62.6505 67.7155C62.7342 67.5075 61.7169 66.7174 61.5497 66.7867C60.1759 67.448 58.9598 68.3931 57.9824 69.5591V69.5314ZM9.58731 55.0872C9.41209 54.904 9.18655 54.776 8.93878 54.7193C8.691 54.6626 8.43194 54.6797 8.19384 54.7684C7.85941 54.8654 7.70613 55.3229 7.65039 55.6556C7.50684 56.5742 7.50684 57.5093 7.65039 58.428C7.72333 58.9077 7.95941 59.348 8.31925 59.6755C8.91794 60.1085 9.5943 60.4238 10.3119 60.6043C10.7021 60.729 11.9423 59.7726 11.789 59.4122C11.2183 57.8992 10.465 56.4609 9.54551 55.1288L9.58731 55.0872ZM15.3284 60.632C14.7942 60.5593 14.2502 60.6116 13.7398 60.7845C13.6117 60.8951 13.5204 61.0418 13.4781 61.2052C13.4358 61.3686 13.4445 61.541 13.5029 61.6994C14.4998 62.2432 15.5767 62.6268 16.694 62.8361C16.9448 62.8361 17.3629 62.7529 17.3768 62.5034C17.3907 62.2539 15.9833 60.937 15.3284 60.632V60.632ZM26.8245 74.2861C19.0629 70.3493 5.92248 62.2954 4.7659 56.9724C4.07193 53.4875 3.5834 49.9652 3.30278 46.4235C3.21307 46.4197 3.12366 46.4364 3.04151 46.4725C2.95935 46.5085 2.88663 46.5629 2.82899 46.6314C2.66177 46.8532 2.2298 47.6017 1.61668 48.5721C1.42912 48.8691 1.21952 49.1517 0.98962 49.4177C0.446168 50.0415 0.0281166 50.1939 0.390418 51.9821C0.679376 53.2327 0.879611 54.5018 0.98962 55.7803C1.05929 57.1665 0.487958 59.329 0.627305 59.7726C0.766652 60.2161 1.86749 61.3251 2.02077 61.7271C2.17405 62.1291 2.02078 63.1133 2.09045 63.2381C2.96833 64.7213 3.48393 64.9847 4.43149 66.4263C4.82166 67.0362 5.1282 67.7155 5.54624 68.3115C5.96995 68.9687 6.47046 69.5736 7.03726 70.1136C9.16927 71.9295 16.7915 74.591 19.0629 74.8405C21.6444 75.1032 24.2521 74.9156 26.7688 74.2861H26.8245ZM3.13555 43.9283C2.80112 38.037 2.99621 31.9932 4.43149 28.6801C6.03397 24.9235 12.7923 17.0777 15.9694 14.1112C18.003 12.1754 20.2196 10.4392 22.5884 8.92683C22.4211 8.37235 22.1564 8.03966 21.8638 8.1367C19.676 8.8298 17.9481 10.5071 16.0251 11.7685C14.7292 12.6141 12.4857 14.2914 12.2488 14.4439C12.0119 14.5964 11.3849 16.3014 10.8554 17.1193C9.89388 18.5055 8.65369 19.5728 7.65039 20.8897C7.02333 21.7214 6.63316 22.7334 5.97824 23.5651C5.3785 24.2906 4.72148 24.9674 4.01344 25.5889C3.77655 25.7137 2.95441 29.9554 2.27161 32.1041C2.00685 32.9358 1.43553 33.6566 1.1847 34.4883C0.855657 35.5728 0.636258 36.6873 0.529773 37.8152C0.262835 40.0747 0.113988 42.3465 0.0838536 44.6214C0.0411471 45.2024 0.177234 45.7826 0.474023 46.2849C0.696977 46.576 1.24044 46.8255 1.53307 46.6037C1.8257 46.3819 1.67242 44.1501 2.81506 43.8313C2.88329 43.8189 2.95339 43.8212 3.02067 43.8379C3.08795 43.8547 3.15087 43.8855 3.20523 43.9283H3.13555ZM24.9433 7.55449C27.3257 6.39566 29.8375 5.52091 32.4262 4.94844H32.1754C31.6877 4.87913 31.1861 5.12865 30.6844 5.10092C30.1828 5.0732 29.4024 4.7821 28.7614 4.74051C28.366 4.67325 27.9594 4.7214 27.5909 4.87913C26.6851 5.41975 25.5564 5.90492 25.1523 6.87526C25.0625 7.10927 24.9925 7.35039 24.9433 7.59608V7.55449ZM32.1057 3.89493C32.9676 4.12247 33.8424 4.29837 34.7254 4.42169L36.8017 4.01969C40.6276 3.24044 44.5614 3.13721 48.4232 3.71473L48.9388 3.42363C49.8132 2.92391 50.7504 2.54168 51.7258 2.28694C51.893 2.28694 51.7258 1.91267 51.6143 1.78791C51.3037 1.46171 50.9155 1.21858 50.4856 1.08095C49.7192 0.873021 48.897 1.01164 48.1167 0.859159C47.4123 0.666217 46.7192 0.434834 46.0404 0.16606C45.8871 0.16606 45.2601 0.373989 45.1765 0.346265C44.633 0.207645 43.5322 0.0274392 43.351 -0.0141467C43.1699 -0.0557327 42.3756 0.443298 41.8461 0.554194C41.3165 0.66509 41.0797 0.45716 40.7034 0.554194C40.1639 0.65142 39.6361 0.804742 39.1288 1.01164C38.7386 1.16412 38.0977 1.53839 37.9862 1.57998C37.8747 1.62157 36.5927 1.38591 36.4534 1.4275C36.314 1.46909 35.0599 2.39784 34.391 2.64735C33.8948 2.78041 33.3855 2.85943 32.8721 2.88301C32.7189 2.88301 32.3705 3.57611 32.1057 3.92265V3.89493ZM58.4144 8.15056C60.5672 9.66102 62.6113 11.3192 64.5317 13.1131L65.9949 13.7508C72.2376 16.5232 72.6696 22.7195 73.2409 23.9948C73.4581 24.5034 73.8096 24.944 74.2581 25.2701C76.6549 27.0028 76.0139 26.0325 77.8672 28.8881C78.341 29.6228 78.773 30.2743 78.982 30.5792C79.1613 30.8147 79.393 31.0057 79.6589 31.1372C79.9249 31.2686 80.2178 31.3371 80.5148 31.3371C80.8118 31.3371 81.1047 31.2686 81.3706 31.1372C81.6366 31.0057 81.8683 30.8147 82.0476 30.5792C82.1729 30.0084 82.1729 29.4173 82.0476 28.8465C82.0476 28.597 81.6714 28.4445 81.6435 28.195C81.3927 25.2701 86.437 27.7375 84.9182 23.7037C84.4165 22.3175 83.3435 21.3333 82.7443 20.058C82.2705 19.0461 81.964 17.2024 81.7132 16.8697C81.4623 16.5371 80.5148 16.5509 80.4869 16.3707C80.3789 15.8017 80.23 15.2411 80.041 14.6934C79.4083 14.6049 78.7804 14.4846 78.1598 14.333C77.6598 14.1679 77.1894 13.9245 76.7664 13.6122C76.5992 13.4042 75.7352 11.5745 75.6098 11.4358C75.4844 11.2972 74.1466 10.9091 73.4917 10.5071C72.8368 10.1051 72.1679 9.24565 71.3876 8.76048C70.6072 8.27532 69.7154 8.23373 68.9908 7.74856C68.1749 7.11661 67.4065 6.4263 66.6916 5.68313C66.5383 5.58609 65.5908 5.4752 65.0613 5.29499C64.5317 5.11478 64.1973 4.85141 63.7514 4.6712C63.0732 4.41244 62.3798 4.19486 61.6751 4.01969C60.6857 3.7979 59.6546 3.75631 58.6513 3.52066C57.7869 3.17777 56.9028 2.88616 56.0037 2.64735C55.109 2.5989 54.212 2.68299 53.3422 2.89687C52.35 3.11212 51.3763 3.40411 50.4298 3.77018C50.2279 3.85291 50.0323 3.9502 49.8446 4.06128C50.52 4.215 51.1855 4.40942 51.8372 4.64348C54.1997 5.5122 56.4278 6.70676 58.4562 8.19214L58.4144 8.15056ZM75.9442 31.0505C77.1708 34.5735 77.8063 38.2733 77.8254 42.0015C77.8117 42.9411 77.6663 43.8742 77.3934 44.7739C76.4953 47.8175 75.4348 50.8113 74.2163 53.7426L74.3975 53.6178C75.944 52.4848 77.6298 51.5531 79.414 50.8454C80.4866 50.2171 81.3991 49.3512 82.0806 48.315C82.7621 47.2788 83.1943 46.1003 83.3435 44.8709C83.0643 43.9702 82.7004 43.0977 82.2566 42.2649C80.7935 38.6192 81.7271 38.7855 81.1279 36.4844C80.9607 35.8745 80.2919 35.5002 79.7345 35.0982C78.6058 34.3081 79.0377 34.5576 77.8811 32.8526C77.6582 32.5476 77.7139 32.1041 77.5188 31.7714C77.2831 31.3568 76.9712 30.99 76.5992 30.6901C76.4877 30.5931 76.2926 30.6901 76.1671 30.6901L75.9024 30.8842L75.9442 31.0505ZM83.5526 36.7894C83.5526 41.1698 86.3395 41.849 86.1862 44.261C86.1165 45.3838 85.2805 48.8077 85.2665 49.5008C85.2665 53.5069 86.5067 53.4654 86.2837 58.428C86.2837 59.3013 85.0854 62.8222 85.1272 63.0717C85.1603 63.3234 85.2623 63.5613 85.422 63.7593C85.5818 63.9573 85.7931 64.1078 86.0329 64.1945C86.3321 64.271 86.6467 64.2636 86.9418 64.173C87.237 64.0825 87.5012 63.9124 87.7051 63.6816C88.9862 61.6667 90.0112 59.5016 90.7568 57.2358C90.9379 56.7645 90.4363 56.1962 90.6174 55.7249C91.2166 54.0614 92.9863 51.2336 93.0142 51.0118C93.0421 50.79 92.1363 49.7365 91.997 48.9879C91.8994 48.4751 92.3732 47.6711 92.3593 47.4631C91.9243 46.6455 91.5381 45.8031 91.2027 44.9402C91.1213 44.2661 91.1448 43.5834 91.2724 42.9164C91.2724 42.9164 90.7289 41.6688 90.7568 41.6134C91.1028 41.0397 91.3479 40.4115 91.4814 39.7559C91.0355 38.3697 89.7395 36.2349 89.5862 35.7082C89.433 35.1814 89.7674 34.9596 89.6559 34.6131C89.0428 32.7556 85.2804 26.9474 83.441 28.6108C83.0927 28.9158 83.6919 30.7317 83.6919 31.2585C83.6919 33.1991 82.2984 33.0605 83.2181 35.2646C83.4199 35.7339 83.5287 36.2375 83.5386 36.7478L83.5526 36.7894ZM84.3747 59.1626C84.2214 57.4992 82.5353 53.6178 80.3057 53.6178C78.3688 53.6178 75.7909 55.4199 74.6344 56.8754C72.4466 59.6478 71.3597 62.4202 68.517 63.5846C66.3282 67.0231 63.7778 70.2201 60.9087 73.1216C59.6698 74.0423 58.2427 74.6812 56.7283 74.993C50.7921 76.5178 41.6928 78.1674 34.6279 77.0862C36.3269 78.4727 37.9372 79.9635 39.4493 81.5497C40.3951 82.9455 41.2515 84.3993 42.0133 85.9024C44.5912 90.061 51.5446 89.16 55.948 88.855C58.08 88.7164 62.2186 88.7441 62.344 88.7164C62.7899 88.6055 64.8383 87.552 66.1342 87.1222C67.8203 86.5678 71.1507 85.8469 71.29 85.736C71.748 85.1865 72.1627 84.6025 72.5302 83.9894C72.5302 83.8647 74.0073 83.5597 74.2024 83.4211C74.7035 82.2774 75.3099 81.1822 76.0139 80.1497C76.3065 79.817 77.2401 79.9972 77.3238 79.9279C77.4074 79.8586 78.3131 78.3338 78.4107 78.1951C78.5082 78.0565 80.5984 77.3218 80.6681 77.1832C81.6435 75.1178 81.9361 72.789 82.7722 70.6681C83.7616 68.1729 83.8313 67.2719 83.5247 66.0659C83.2031 65.0704 83.2277 63.9962 83.5944 63.0163C84.0612 61.7819 84.3247 60.4806 84.3747 59.1626ZM27.2425 86.8866C28.3155 84.9043 25.3474 83.033 25.4728 78.3199C25.4728 77.904 25.4728 77.4743 24.9294 77.502C22.7733 77.7449 20.5926 77.656 18.4637 77.2387C16.5546 76.7535 14.5759 74.9653 11.7472 74.2306C11.3013 74.1058 10.6185 74.1197 10.3537 74.5217C10.089 74.9237 10.3537 75.5752 10.6045 76.0049C11.4964 77.3911 12.8062 78.3753 13.7398 79.6922C14.4644 80.7041 14.5341 82.2428 15.5513 82.9498C17.112 84.0172 19.2858 83.8231 20.9719 84.6825C23.2015 85.8192 22.9507 87.1222 25.8491 87.4549C26.1063 87.5089 26.3737 87.4894 26.6202 87.3986C26.8668 87.3079 27.0826 87.1496 27.2425 86.942V86.8866ZM28.636 82.728C29.3123 84.1175 29.6828 85.6344 29.7229 87.1777C29.7153 87.6621 29.8354 88.14 30.0713 88.5639C30.4859 89.1368 31.0238 89.6104 31.6459 89.9501C32.3676 90.4049 33.1907 90.6763 34.0427 90.7402C35.0964 90.5943 36.1328 90.3435 37.1362 89.9917C41.3166 89.1877 41.2051 88.4391 38.446 83.2132C37.4427 81.3279 32.9557 77.4743 30.6983 76.9198C29.295 76.7375 27.8699 77.0045 26.6294 77.6822C25.5843 78.7912 28.3155 82.1042 28.636 82.7834V82.728ZM43.1002 90.0055C41.3905 90.0121 39.6878 90.2215 38.028 90.6293C38.6075 91.0122 39.2236 91.3372 39.8673 91.5997C40.7452 91.8492 41.7067 91.7244 42.6543 91.9323C43.0445 92.0155 43.3232 92.3621 43.7133 92.473C44.1035 92.5839 44.5912 92.473 45.0232 92.6116C45.4551 92.7502 45.7338 93.0413 46.1101 92.972C47.1691 92.8057 48.1027 92.071 49.1618 91.9323C49.9658 91.9815 50.7662 92.0787 51.5585 92.2234C52.3555 92.2237 53.1452 92.0732 53.8856 91.7799C54.5042 91.4108 55.0791 90.9737 55.5996 90.4768C55.9201 90.255 56.2545 90.0748 56.589 89.8669C54.6702 90.2199 52.7281 90.433 50.7782 90.5046C48.6183 90.5046 47.1413 89.3402 44.5773 90.2689C44.1314 90.4214 43.6436 90.0471 43.1838 90.0055H43.1002Z" fill="url(#paint1_radial_3_4308)"/>
</g>
<g style="mix-blend-mode:screen">
<path fill-rule="evenodd" clip-rule="evenodd" d="M17.1816 23.4264C18.0316 21.8046 16.9168 20.2936 17.4881 17.8817C18.0595 15.4697 20.6792 14.3053 21.8497 13.03C22.3626 12.4291 22.67 11.6814 22.7276 10.8952C21.8543 11.3203 20.9904 11.7824 20.1357 12.2814C19.3268 12.7237 18.5893 13.2845 17.948 13.9449C16.6799 15.331 15.7881 16.9945 14.534 18.3668C13.5725 19.3926 12.1094 19.9471 11.329 21.1392C10.2918 23.0507 9.39303 25.0334 8.63961 27.0721C8.2355 27.9039 7.59451 28.6108 7.24614 29.4703C6.89777 30.3297 7.05106 30.9812 6.80024 31.702C6.15466 34.0719 5.71641 36.4929 5.49038 38.938C5.39328 40.3033 5.5685 41.6742 6.00595 42.9718C6.39612 41.849 6.61908 40.6153 6.81417 40.3381C8.38878 38.037 12.9036 41.2391 12.1511 34.918C11.9003 32.7694 11.3151 32.1456 12.4856 30.3713C14.3946 27.4187 15.6766 26.2127 17.1676 23.4403L17.1816 23.4264ZM20.5956 18.0064C20.7461 19.5596 20.4309 21.1224 19.6898 22.4977C16.9029 27.6821 16.5266 28.1257 15.7602 29.8723C15.2986 31.301 15.2986 32.8378 15.7602 34.2665C17.0561 37.9954 20.9161 35.0012 22.644 33.9338C24.6924 32.6585 26.908 33.0467 27.4932 32.811C30.4334 31.5773 31.4089 29.5396 31.4367 26.587C31.4367 24.4245 31.1302 19.351 31.9245 17.6044C32.3007 16.7866 33.2204 16.2182 33.3179 15.2895C33.5687 13.4042 32.7466 13.2102 34.5163 11.4636C35.4081 10.5625 36.4254 9.78625 37.3032 8.8575C37.8338 8.34705 38.268 7.7461 38.5852 7.08317C38.6967 6.77821 38.7106 6.20986 38.4041 6.09897L37.4565 5.82173C33.5143 6.70344 29.6473 7.88994 25.8907 9.3704L24.4973 10.0219C24.3605 11.0676 24.0398 12.0811 23.5497 13.0161C23.3993 13.3012 23.2014 13.559 22.9644 13.7785C22.1284 14.4439 20.3865 16.6479 20.5259 18.0064H20.5956ZM39.0172 5.53063C40.8705 6.16828 43.3509 6.91683 44.5075 6.26531H44.6189C43.1072 5.74445 41.5225 5.46377 39.923 5.43359L39.0172 5.59994V5.53063ZM46.5559 6.72276C46.4738 6.86137 46.4305 7.01932 46.4305 7.1802C46.4305 7.34109 46.4738 7.49904 46.5559 7.63765C46.9878 8.26144 51.1682 8.30302 51.9068 8.21985H52.3945C50.8059 7.73468 49.2313 7.42972 48.0608 7.15248L46.5559 6.7782V6.72276ZM44.2009 10.2991C44.396 9.80012 44.7862 8.44164 44.2009 8.08123C43.3648 7.54061 41.414 7.94261 40.4107 8.08123C39.0033 8.69316 37.8137 9.71233 36.9967 11.0061C36.8766 11.257 36.8519 11.5425 36.927 11.8101C37.0663 12.2953 40.0205 11.8101 40.2574 11.616C40.5773 11.2423 40.9268 10.8947 41.3025 10.5764C42.1664 10.0496 42.891 10.41 43.8247 10.4378C43.9501 10.4378 44.1312 10.4378 44.173 10.2576L44.2009 10.2991ZM46.1796 10.5902C46.1796 10.9922 46.1796 11.4636 45.9706 11.7824C45.8425 11.912 45.6878 12.0125 45.5171 12.0771C45.3463 12.1417 45.1635 12.1688 44.9812 12.1567C44.382 12.1567 43.8107 11.7824 43.1976 11.7824C42.7101 11.8188 42.2356 11.9557 41.8041 12.1844C38.7524 13.7369 34.4745 15.1508 34.1401 19.1154C33.8614 22.5809 34.586 24.4522 34.6138 26.9612C34.6138 27.4187 34.2794 29.1792 34.8786 29.8307C36.4372 30.8879 38.1742 31.6579 40.0066 32.104C42.3279 32.3272 44.6662 31.91 46.7649 30.898C48.228 30.4961 49.5518 29.6505 51.5027 31.3832C52.7429 32.4922 54.5125 33.2962 55.8642 31.605C56.5642 30.7152 57.1234 29.7242 57.5224 28.6663C57.6474 28.2028 57.5979 27.7098 57.3831 27.2801C56.896 26.388 56.3466 25.5311 55.7388 24.7156L56.0454 24.8958C56.8279 25.5956 57.5633 26.3458 58.247 27.1415C58.4421 27.4187 58.1774 27.89 58.4143 28.1395C59.0253 28.8379 59.8295 29.3418 60.7266 29.5883C61.6237 29.8348 62.5739 29.8131 63.4586 29.5257C63.8784 27.8216 63.9117 26.046 63.5562 24.3275C62.8455 21.7076 59.4733 17.8955 58.693 15.5667C58.5533 14.6489 58.4788 13.7225 58.47 12.7943C58.2688 12.1558 57.9367 11.5658 57.4946 11.0616C56.3141 10.5851 55.0854 10.2365 53.8298 10.0219C51.0428 9.5506 46.3747 9.00998 46.1796 10.6318V10.5902ZM22.839 41.142C23.4522 40.1717 24.6505 37.7736 23.494 36.8171C23.3894 36.7456 23.2655 36.7073 23.1386 36.7073C23.0117 36.7073 22.8879 36.7456 22.7833 36.8171C20.7488 38.2033 18.9931 38.3558 16.5406 39.437C13.6282 40.7123 16.025 42.2094 17.3209 42.9857C17.8783 43.2768 17.5578 44.3719 19.4111 44.9264C19.5688 45.0056 19.743 45.0468 19.9197 45.0468C20.0964 45.0468 20.2706 45.0056 20.4283 44.9264C20.8464 44.5382 20.8464 43.8729 21.153 43.4016C21.6546 42.6114 22.3374 42.0154 22.839 41.1559V41.142ZM20.7349 51.0811C18.8816 46.6868 19.5644 45.3006 15.0356 45.3006C13.0569 45.3006 13.5028 43.9144 13.2659 42.653C13.2659 42.3619 12.9036 41.045 11.0364 41.447C10.2408 41.6081 9.47159 41.8787 8.75109 42.251C7.81555 42.9857 7.03834 43.9003 6.4658 44.9402C6.73056 46.1878 7.07892 47.4354 7.39942 48.683C7.71381 49.9195 8.32597 51.0613 9.18306 52.0098C11.4405 53.7842 11.8446 55.3644 16.1504 58.6775C19.871 61.4499 23.5636 63.3074 27.9531 62.836C27.5768 62.5311 27.326 62.2816 26.685 61.7548C25.7149 61.2104 24.9586 60.3554 24.5391 59.329C23.8284 57.3744 21.4456 52.6752 20.6792 51.0118L20.7349 51.0811ZM21.4177 46.7423C21.5013 47.4077 26.6711 58.9686 27.34 59.8003C28.3154 60.9924 31.4089 61.7271 35.2966 62.1707H35.5475C36.5146 62.0438 37.4395 61.6976 38.2508 61.1588C39.3377 60.327 39.8254 58.8577 40.9402 58.0537C43.4206 56.2239 46.96 56.1407 49.092 54.8654C50.4373 54.0463 51.5993 52.9611 52.506 51.6772C57.6618 44.3303 58.9577 46.1324 61.2291 37.8152C61.8561 35.5279 62.6225 33.1853 63.1381 30.9951C60.2537 31.2307 57.8429 32.5338 54.624 33.7675C54.0109 34.0031 53.356 34.2804 53.5093 34.3497C54.1447 34.6976 54.7384 35.1161 55.279 35.5973C55.7454 35.9407 56.1426 36.3687 56.4495 36.8587C56.5011 36.9724 56.5181 37.0987 56.4982 37.2219C56.4784 37.3451 56.4227 37.4598 56.338 37.5518C56.1429 37.732 55.7109 37.8983 55.5298 37.6904C54.8324 36.617 53.8746 35.7356 52.7446 35.1276C51.6146 34.5195 50.3488 34.2043 49.0641 34.2111C47.8936 34.2111 44.8837 35.5973 41.5812 35.8884C37.0663 36.3458 32.1335 35.8884 31.0884 36.124C27.535 36.9141 24.121 42.1401 21.8915 45.3561C21.5862 45.7062 21.418 46.1541 21.4177 46.6175V46.7423Z" fill="url(#paint2_radial_3_4308)"/>
</g>
<g style="mix-blend-mode:screen" opacity="0.7">
<path fill-rule="evenodd" clip-rule="evenodd" d="M33.3318 26.4484C32.2449 26.1157 32.1753 28.3891 31.8408 29.1238C31.1023 30.7872 31.0466 32.7002 28.9006 33.3933C28.2689 33.6652 27.6034 33.8517 26.9219 33.9478C26.2882 33.9449 25.6553 33.9032 25.0268 33.823C23.6333 33.726 23.062 34.8488 24.3161 35.9439C25.2219 36.7479 24.8596 37.3301 24.6645 37.9261C24.5965 38.1134 24.584 38.3162 24.6285 38.5103C24.6729 38.7044 24.7725 38.8818 24.9153 39.0212C26.1834 39.7698 27.0473 37.7043 28.1621 36.4568C29.7924 34.6408 32.5236 35.0706 34.6138 35.3617C39.3656 35.9162 44.3681 35.0428 45.8312 34.1141C46.4444 33.7398 47.8518 32.7279 46.96 31.9655C46.6952 31.7576 40.3828 33.92 37.4286 32.714C36.0499 32.287 34.8158 31.4909 33.8614 30.4129C32.8023 29.0268 33.3319 28.3752 33.5409 27.3633C33.5409 26.989 33.7917 26.587 33.3318 26.4484V26.4484Z" fill="url(#paint3_radial_3_4308)"/>
</g>
<g style="mix-blend-mode:screen" opacity="0.7">
<path fill-rule="evenodd" clip-rule="evenodd" d="M10.7855 39.5618C9.78218 39.6277 8.79509 39.8474 7.85925 40.2133C6.633 41.1282 7.17645 41.9322 9.12731 41.0035C10.0591 40.6521 11.0262 40.4011 12.0118 40.2549C13.6143 40.2549 13.8372 41.2114 13.9766 42.6392C14.1159 44.067 13.7815 44.6076 15.816 44.3719C16.3037 44.3719 17.0422 43.7066 15.9553 43.0828C14.2831 42.154 13.67 39.7143 15.4676 38.8133C16.2619 38.3697 20.5119 38.3697 20.275 36.9835C20.1914 36.3736 14.7012 36.9835 14.9241 34.8626C14.9241 34.4468 14.102 32.2288 14.4504 30.8011C14.6348 29.8258 14.9834 28.8885 15.4815 28.0287C15.8996 27.3633 14.7708 27.0445 13.9348 29.2901C13.3077 31.4387 11.9142 31.4387 12.9872 34.2111C13.7536 36.2488 13.8233 38.9103 11.2036 39.4371C11.0085 39.4371 11.0642 39.5618 10.7855 39.548V39.5618Z" fill="black"/>
</g>
<g style="mix-blend-mode:screen" opacity="0.7">
<path fill-rule="evenodd" clip-rule="evenodd" d="M79.7762 51.5247C79.0516 52.0653 75.0662 53.0218 75.8605 54.0753C76.2089 54.5327 77.4491 53.4792 78.3269 53.396C79.2048 53.3129 80.6122 52.5089 81.8246 53.1881C83.0369 53.8673 83.2877 55.7803 84.486 56.7922C84.8969 57.6998 85.0603 58.699 84.9599 59.6894C84.9599 59.828 84.3188 61.0756 85.0992 60.826C85.5033 60.729 85.9492 57.0417 85.4197 56.0714C85.1956 54.8168 84.8978 53.5763 84.5278 52.3564C84.266 50.4029 84.4811 48.4154 85.1549 46.5621C85.5073 46.043 85.6654 45.4174 85.6018 44.7943C85.5381 44.1711 85.2567 43.59 84.8066 43.152C84.1532 42.4024 83.6771 41.5166 83.4131 40.5598C82.6188 38.2865 82.0196 38.9657 82.3401 40.5598C82.4535 41.2818 82.7092 41.9743 83.0926 42.5975C83.5231 43.0528 83.8268 43.612 83.9734 44.2198C84.12 44.8276 84.1046 45.463 83.9287 46.063C83.6162 47.3736 83.0889 48.6241 82.368 49.7642C80.9745 51.2751 80.9745 50.6514 79.804 51.5385L79.7762 51.5247Z" fill="black"/>
</g>
<g style="mix-blend-mode:screen" opacity="0.7">
<path fill-rule="evenodd" clip-rule="evenodd" d="M82.2705 33.2546C82.173 33.7814 82.4099 34.7656 81.7271 35.0705C81.5051 35.1327 81.2718 35.1439 81.0448 35.103C80.8179 35.0622 80.6032 34.9705 80.4172 34.8349C79.4383 33.8982 78.7143 32.7296 78.3131 31.4387C78.1727 30.9552 77.8527 30.5429 77.4179 30.2854C76.9832 30.028 76.4663 29.9447 75.9721 30.0525C75.4961 30.2018 75.0306 30.3824 74.5786 30.5931C74.0073 30.7872 72.1539 31.6466 72.0425 30.4683C71.931 29.2901 72.8507 29.4703 73.4359 28.9574C74.0212 28.4445 74.1048 28.7495 74.2999 27.9871C74.495 27.2246 74.4671 27.3633 73.8819 26.8088C73.2966 26.2543 73.5056 26.6424 73.1991 25.9632C73.0876 25.7137 72.9622 25.076 73.4777 25.3533C74.3138 25.7969 73.9794 25.6998 74.6204 26.2682C75.7352 27.2246 76.0139 28.0425 76.9196 28.9158C77.6627 29.4847 78.2995 30.1791 78.8008 30.9674C78.9317 31.2272 79.1298 31.4476 79.3747 31.6059C79.6196 31.7643 79.9025 31.8549 80.1943 31.8684C80.5536 31.9636 80.9323 31.9584 81.2888 31.8532C81.6453 31.748 81.9658 31.547 82.2148 31.2723C82.4578 30.8559 82.6029 30.3902 82.6391 29.91C82.6753 29.4298 82.6017 28.9478 82.4238 28.4999C82.3542 28.2782 82.9394 27.1137 83.037 29.0267C83.1206 30.2881 83.5107 30.4129 82.8976 31.7991C82.7768 32.0611 82.7059 32.3431 82.6886 32.6308C82.605 32.8942 82.3402 32.8249 82.2705 33.1992V33.2546Z" fill="black"/>
</g>
<path fill-rule="evenodd" clip-rule="evenodd" d="M14.4086 34.4329C14.4086 33.9755 13.7954 33.3378 13.7815 34.2111C13.7815 34.4884 13.7815 34.9735 13.7815 35.3755C13.7815 36.6508 13.9905 37.7736 12.9594 38.7856C12.3564 39.3879 11.5748 39.7816 10.7298 39.9084C10.3257 40.0193 10.7995 40.1856 11.1478 40.0609C11.4962 39.9361 12.9733 39.7143 13.238 40.1302C13.5028 40.546 13.7536 41.156 13.9348 40.3242C13.9706 39.8046 14.1745 39.3104 14.5161 38.9156C14.8577 38.5208 15.3186 38.2466 15.8299 38.1341C16.0668 38.1341 16.875 38.0509 17.4463 37.9123C18.0176 37.7736 18.143 37.6905 18.0455 37.4825C17.8225 36.9558 16.4709 36.9558 15.9414 36.7201C15.1471 36.3736 14.4364 36.3043 14.3389 34.4329H14.4086Z" fill="url(#paint4_radial_3_4308)"/>
<path fill-rule="evenodd" clip-rule="evenodd" d="M25.849 35.1121C25.9465 35.4171 26.3646 35.5419 26.3088 36.027C26.2531 36.5122 27.6187 36.4706 28.1621 35.7221C28.7056 34.9735 29.3744 35.029 29.9597 34.7656C31.6319 34.0448 34.2655 34.7656 35.7287 34.9735C37.1918 35.1814 40.1878 35.4448 41.3025 34.1279C41.7345 33.6012 40.7591 33.4764 40.4665 33.5041C38.4166 33.745 36.3474 33.2537 34.6278 32.1179C33.8077 31.5182 33.2022 30.6729 32.8999 29.706C32.5934 28.4029 31.9524 30.0109 31.813 31.0922C31.604 32.6447 30.5032 33.3239 29.2769 33.9477C28.836 34.1424 28.3646 34.2596 27.8835 34.2943L26.6851 34.3774C26.267 34.3774 25.5842 34.4606 25.7932 35.0844L25.849 35.1121Z" fill="url(#paint5_radial_3_4308)"/>
<path fill-rule="evenodd" clip-rule="evenodd" d="M35.8677 12.2536C35.6029 11.9348 35.0316 12.2536 34.8505 12.5725C34.6693 12.8913 34.8505 13.4874 34.6832 13.9587C34.516 14.43 34.5439 15.2478 34.2234 15.5389C33.9029 15.83 33.5824 16.9251 34.3906 16.038C34.8923 15.4558 34.3906 15.2756 35.6029 14.7488C36.23 14.4716 35.0455 13.7923 36.0767 13.7923C36.4272 13.8112 36.7787 13.7832 37.1218 13.7092C38.0136 13.4458 38.6268 12.9052 37.2333 12.9052C36.971 12.9157 36.7097 12.8677 36.4685 12.7645C36.2274 12.6614 36.0125 12.5058 35.8398 12.3091L35.8677 12.2536Z" fill="url(#paint6_radial_3_4308)"/>
<path fill-rule="evenodd" clip-rule="evenodd" d="M73.9929 29.0406C73.8285 29.3052 73.5697 29.4983 73.2683 29.5812C72.9896 29.6921 72.6134 29.8723 72.8782 30.2466C73.1429 30.6209 74.0765 30.4684 74.4388 30.2466C74.6876 30.076 74.9665 29.9537 75.261 29.8862C75.8334 29.7134 76.4444 29.7134 77.0168 29.8862C77.0168 29.8862 77.6717 29.8862 77.0168 29.5396C76.6365 29.3153 76.3087 29.0128 76.0553 28.6525C75.902 28.4168 75.9159 28.6524 75.7766 28.2089C75.6031 27.8433 75.3673 27.5103 75.0798 27.2247C74.9544 27.1138 74.5503 26.5038 74.4667 26.9613C74.3831 27.4187 75.0798 27.9039 74.8848 28.4584C74.6897 29.0129 74.2438 28.7911 73.9651 29.1238L73.9929 29.0406Z" fill="url(#paint7_radial_3_4308)"/>
<path fill-rule="evenodd" clip-rule="evenodd" d="M79.2324 31.9238C78.6889 31.8545 79.4275 32.9358 79.7201 33.1437C80.0127 33.3516 80.2218 33.8922 80.5144 34.0031C80.5144 34.0031 80.7513 34.1972 80.9603 34.2111C81.7824 34.2111 81.7267 34.2111 81.7267 33.2823C81.7267 32.3536 82.2423 33.1021 82.2701 32.3813C82.3795 32.3267 82.4767 32.2507 82.5557 32.1578C82.6347 32.0649 82.694 31.957 82.73 31.8407C82.73 31.7575 83.0784 31.1753 82.5628 31.2446C82.0472 31.3139 82.3398 32.312 80.4587 32.312C79.4832 32.312 79.748 31.9793 79.2324 31.9238Z" fill="url(#paint8_radial_3_4308)"/>
<path fill-rule="evenodd" clip-rule="evenodd" d="M83.3015 49.0157C82.8835 49.6949 82.549 50.8177 81.908 51.1365C81.3764 51.4618 80.8051 51.718 80.208 51.8989L78.0342 52.6059C76.7104 53.2713 78.5637 53.2851 79.5113 52.7584C80.3385 52.4941 81.2159 52.423 82.0753 52.5505C83.3851 53.2851 83.1482 53.7149 83.8171 54.9902C83.9286 55.1981 84.7925 56.6259 84.9876 55.808C84.9331 54.5769 84.5429 53.3838 83.8589 52.3564C83.5245 51.8712 83.2597 52.1346 83.6499 51.1643C83.9425 50.4157 83.6499 50.7068 83.9564 49.9028C84.0819 49.584 84.3605 49.182 84.263 48.877C84.0679 48.1978 83.5384 48.6691 83.3294 49.0157H83.3015Z" fill="url(#paint9_radial_3_4308)"/>
<path fill-rule="evenodd" clip-rule="evenodd" d="M31.1718 62.9331C30.4054 63.2796 31.7849 63.6678 31.9939 64.5133C32.2029 65.3589 33.2202 65.8995 32.5095 67.7986C32.0867 68.6363 31.7235 69.5025 31.4226 70.3908C30.8564 71.4994 30.209 72.565 29.4857 73.5791L28.3291 74.9653C28.3291 75.797 30.907 74.7019 31.0185 74.3969C31.4087 73.2325 30.6144 72.9137 32.412 71.9572C32.9972 71.6523 33.1226 70.0304 33.2759 69.365C33.5685 68.2006 32.9415 67.3689 34.0005 65.2064C34.7112 63.8202 35.394 64.2223 35.394 64.0836C35.9514 63.1965 33.5267 63.7925 33.1366 63.5707C32.5049 63.2638 31.8414 63.0268 31.1578 62.8638L31.1718 62.9331Z" fill="url(#paint10_radial_3_4308)"/>
<path fill-rule="evenodd" clip-rule="evenodd" d="M51.6282 64.042C51.4471 63.3351 49.538 63.5984 49.0224 63.5984C48.2179 63.5703 47.4124 63.5981 46.6117 63.6816C46.1798 63.6816 43.9502 63.5707 43.8248 63.8757C43.56 64.4579 47.4896 64.9292 48.0052 64.9153C49.2733 64.9153 50.6528 65.6084 51.6421 64.347C51.6572 64.2459 51.6572 64.1431 51.6421 64.042H51.6282Z" fill="url(#paint11_radial_3_4308)"/>
<path fill-rule="evenodd" clip-rule="evenodd" d="M59.3897 62.3509C58.832 62.7148 58.2333 63.0125 57.606 63.238C57.1887 63.3965 56.7418 63.4627 56.2962 63.4321C55.6691 63.4321 55.3765 64.9153 56.7979 64.652C56.9651 64.652 58.2749 63.3489 58.7069 63.1271C59.1331 62.7983 59.6017 62.5278 60.1003 62.3231C61.4938 61.935 61.4938 62.7113 62.2184 62.3231C62.943 61.935 63.7512 62.5727 64.0717 62.5311C64.3922 62.4895 64.3504 62.0182 63.7373 61.9766C63.0185 61.7962 62.3256 61.526 61.675 61.1726C61.2012 60.8676 60.6717 60.6458 60.2815 61.1726C60.0307 61.4776 59.6823 62.1707 59.4036 62.2538L59.3897 62.3509Z" fill="url(#paint12_radial_3_4308)"/>
<g style="mix-blend-mode:screen" opacity="0.7">
<path fill-rule="evenodd" clip-rule="evenodd" d="M56.5053 8.89906C55.3766 8.78816 54.3315 9.07926 55.3766 9.91098C56.4217 10.7427 60.9505 11.5744 63.3333 13.626C64.8347 14.6387 66.277 15.7355 67.6531 16.9113C68.7409 18.0352 69.7293 19.2503 70.6072 20.5431C71.8474 21.3471 69.5621 16.135 67.8203 15.1924C65.1292 13.9706 62.5547 12.5091 60.1283 10.8259C59.1006 9.89384 57.8553 9.23158 56.5053 8.89906V8.89906Z" fill="black"/>
</g>
<g style="mix-blend-mode:screen" opacity="0.7">
<path fill-rule="evenodd" clip-rule="evenodd" d="M21.1809 14.7211C20.2616 15.288 19.4107 15.9577 18.6448 16.7173C17.6554 17.4381 18.812 19.3095 18.812 20.3768C18.812 22.567 17.9062 22.1927 17.9062 23.4126C18.8956 23.4126 19.7456 21.0422 19.6899 20.2105C19.7868 19.5951 19.7868 18.9684 19.6899 18.353C19.694 17.7849 19.8105 17.2232 20.0329 16.6999C20.2552 16.1767 20.579 15.7021 20.9858 15.3033C21.1391 15.1925 21.2645 14.6796 21.1391 14.7211H21.1809Z" fill="black"/>
</g>
<g style="mix-blend-mode:multiply" opacity="0.65">
<path fill-rule="evenodd" clip-rule="evenodd" d="M17.4882 17.8817C18.0735 15.3727 20.6792 14.3053 21.8498 13.03C23.3826 11.3527 22.7137 7.80403 21.8498 8.08127H21.6686C21.9962 8.77357 22.1376 9.53858 22.079 10.3015C22.0203 11.0644 21.7637 11.7992 21.3342 12.4339C20.1776 13.7092 16.2201 14.0835 15.6349 16.5925C15.0496 19.1015 16.9447 20.9868 16.1505 22.6363C14.7588 25.4167 13.1612 28.0902 11.3709 30.6347C9.97741 32.7972 11.5938 36.1795 10.7856 37.233C9.54544 38.7301 6.75851 37.1221 5.588 38.8271C5.19783 39.3955 4.6265 43.6372 3.16336 43.3461C2.66171 43.2491 2.20186 42.9441 1.70022 43.055C0.557573 43.3046 0.696915 45.5641 0.432156 45.8274C0.369082 45.8694 0.29789 45.8977 0.223145 45.9106C0.264731 46.0237 0.320935 46.1308 0.390354 46.2294C0.613309 46.5205 1.15677 46.7701 1.4494 46.5483C1.74203 46.3265 1.58875 44.0947 2.73139 43.7759C3.23304 43.665 3.52567 44.4412 3.99945 44.6492C5.89457 45.5086 6.43802 40.8094 6.78638 40.2411C8.361 37.94 12.8758 41.1421 12.1233 34.821C11.8725 32.6724 11.2873 32.0486 12.4578 30.2743C14.3668 27.3217 15.6488 26.1157 17.1398 23.3433C17.9899 21.7215 16.8751 20.2105 17.4464 17.7985L17.4882 17.8817Z" fill="url(#paint13_radial_3_4308)"/>
</g>
<g style="mix-blend-mode:multiply" opacity="0.65">
<path fill-rule="evenodd" clip-rule="evenodd" d="M26.5176 31.508C25.8905 31.508 23.438 30.1218 21.6126 32.5615C20.7208 33.7814 18.1011 35.7913 16.2896 35.2091C17.8781 37.4132 21.1528 34.8903 22.6995 33.9338C24.7479 32.6585 26.9635 33.0467 27.5488 32.811C30.489 31.5773 31.4644 29.5396 31.4923 26.587C31.4923 24.4245 31.1857 19.351 31.98 17.6044C32.3562 16.7866 33.2759 16.2182 33.3735 15.2895C33.6243 13.4042 32.8021 13.2102 34.5718 11.4636C35.4637 10.5625 36.4809 9.78627 37.3588 8.85752C37.8893 8.34707 38.3235 7.74612 38.6408 7.08319C38.7522 6.77823 38.7662 6.20988 38.4596 6.09899L37.6932 5.8772C37.6991 6.04175 37.6755 6.20604 37.6235 6.36237C37.3027 7.02321 36.869 7.62359 36.3415 8.1367C35.4915 9.06545 34.1817 9.5229 33.2898 10.4517C31.5201 12.1983 32.6349 12.6834 32.3841 14.6102C32.2587 15.5113 30.3218 15.5251 29.9455 16.343C29.1513 18.0896 30.489 23.7453 30.4751 25.9078C30.4751 28.8604 28.8865 31.7714 26.5176 31.5496V31.508Z" fill="url(#paint14_radial_3_4308)"/>
</g>
<g style="mix-blend-mode:multiply" opacity="0.65">
<path fill-rule="evenodd" clip-rule="evenodd" d="M36.9966 11.8101C37.136 12.2953 40.0901 11.8101 40.327 11.616C40.647 11.2423 40.9965 10.8947 41.3721 10.5764C42.2361 10.0496 42.9607 10.41 43.8943 10.4378C44.0197 10.4378 44.2009 10.4378 44.2427 10.2576C44.4378 9.78625 44.7861 8.52481 44.3402 8.09509C44.318 8.59495 44.2096 9.08728 44.0197 9.5506C44.0197 9.67536 43.8107 9.73081 43.6713 9.73081C42.7377 9.73081 41.2189 9.31495 40.3549 9.85556C39.9508 10.0912 39.6721 10.5764 39.3098 10.8952C38.5543 11.1458 37.765 11.2813 36.9688 11.2972C36.9342 11.4664 36.9342 11.6409 36.9688 11.8101H36.9966Z" fill="url(#paint15_radial_3_4308)"/>
</g>
<g style="mix-blend-mode:multiply" opacity="0.65">
<path fill-rule="evenodd" clip-rule="evenodd" d="M37.4148 4.96232C38.9754 5.4059 42.9886 7.13865 44.5075 6.22376C45.901 5.44748 47.615 4.15832 48.9387 3.45136C49.8132 2.95164 50.7503 2.56942 51.7257 2.31468C51.8929 2.31468 51.7257 1.9404 51.6142 1.81565V1.74634C50.3698 1.89993 49.1543 2.23142 48.0051 2.73054C46.6116 3.45136 44.8977 4.72666 43.5739 5.50293C42.0271 6.41782 38 4.67121 36.4811 4.24149C35.1147 3.89071 33.7117 3.69997 32.3007 3.67315C32.2577 3.75231 32.2064 3.82666 32.1475 3.89494C33.8475 4.38011 35.7983 4.49101 37.4705 4.96232H37.4148Z" fill="url(#paint16_radial_3_4308)"/>
</g>
<path style="mix-blend-mode:multiply" opacity="0.65" fill-rule="evenodd" clip-rule="evenodd" d="M30.4889 64.7906C29.9836 64.3224 29.4483 63.8871 28.8864 63.4876C28.1347 62.9711 27.4179 62.4062 26.7405 61.7964C25.7704 61.252 25.0141 60.397 24.5946 59.3706C23.8839 57.4161 21.5011 52.7168 20.7347 51.0534C19.0207 47.1582 19.4387 45.6056 16.3034 45.37C17.8502 46.5205 18.9928 48.9464 20.3724 52.0653C21.1248 53.7704 23.229 58.7607 23.9396 60.7152C24.8315 63.1411 27.7159 64.5688 28.2315 65.9966C28.7471 67.4244 26.8381 72.6642 24.7479 73.4821C22.6412 74.3286 20.3366 74.5641 18.101 74.1613C14.2327 73.3394 10.5023 71.9718 7.02295 70.0998V70.0998C9.15495 71.9157 16.7772 74.5772 19.0486 74.8267C21.8138 75.12 24.61 74.8799 27.284 74.1197C29.4299 73.3019 31.8824 67.3135 31.325 65.8026C31.1717 65.3867 30.7537 65.1233 30.4193 64.8184L30.4889 64.7906Z" fill="url(#paint17_radial_3_4308)"/>
<g style="mix-blend-mode:multiply" opacity="0.65">
<path fill-rule="evenodd" clip-rule="evenodd" d="M27.1032 86.8866C28.1762 84.9043 25.2081 83.0329 25.3335 78.3199C25.3335 77.904 25.3335 77.4743 24.7901 77.502H24.3163C24.3163 78.6387 23.7032 79.5536 23.8704 80.3714C24.3999 82.9913 26.2114 84.336 25.4032 85.9162C25.2432 86.1238 25.0275 86.2821 24.7809 86.3728C24.5343 86.4636 24.267 86.4831 24.0097 86.4291C23.6518 86.4023 23.2972 86.342 22.9507 86.2489C23.7075 86.9541 24.7008 87.3543 25.7376 87.3717C25.9949 87.4257 26.2622 87.4062 26.5088 87.3154C26.7554 87.2247 26.9711 87.0664 27.1311 86.8588L27.1032 86.8866Z" fill="url(#paint18_radial_3_4308)"/>
</g>
<g style="mix-blend-mode:multiply" opacity="0.65">
<path fill-rule="evenodd" clip-rule="evenodd" d="M37.4566 82.4508C40.2435 87.6768 40.3689 88.4253 36.1607 89.2154C35.1592 89.5766 34.1223 89.8321 33.0672 89.9779C32.2152 89.9139 31.3921 89.6426 30.6704 89.1877C31.63 90.0211 32.8197 90.5476 34.0844 90.6987C35.1381 90.5528 36.1745 90.302 37.1779 89.9501C41.3583 89.1461 41.2468 88.3976 38.4878 83.1716C37.0603 81.1536 35.2525 79.4306 33.1647 78.0981C34.8454 79.2821 36.2991 80.7563 37.4566 82.4508V82.4508Z" fill="url(#paint19_radial_3_4308)"/>
</g>
<g style="mix-blend-mode:multiply" opacity="0.65">
<path fill-rule="evenodd" clip-rule="evenodd" d="M18.2685 42.5282C18.1431 42.4312 16.6521 42.1678 15.9136 41.9599C16.3471 42.3172 16.8136 42.6328 17.307 42.9025C17.8644 43.1936 17.5439 44.2887 19.3972 44.8432C19.555 44.9224 19.7292 44.9636 19.9059 44.9636C20.0825 44.9636 20.2568 44.9224 20.4145 44.8432C20.8325 44.455 20.8325 43.7896 21.1391 43.3183C21.6407 42.5282 22.3235 41.9321 22.8252 41.0727C23.3268 40.2133 24.6367 37.7042 23.4801 36.7478C23.3756 36.6762 23.2517 36.6379 23.1248 36.6379C22.9979 36.6379 22.874 36.6762 22.7694 36.7478V36.7478C23.0481 36.7478 23.5219 36.7478 23.6473 36.9696C23.827 37.3349 23.8995 37.7433 23.8564 38.1478C23.7733 38.7212 23.5609 39.2684 23.2352 39.7485C22.9094 40.2286 22.4786 40.6292 21.9752 40.9202C19.885 42.1123 20.5817 43.249 20.0382 43.6926C19.8594 43.8758 19.6204 43.9891 19.3648 44.012C19.1091 44.0349 18.8536 43.9658 18.6448 43.8174C17.9898 43.2768 18.4776 42.6807 18.2825 42.5143L18.2685 42.5282Z" fill="url(#paint20_radial_3_4308)"/>
</g>
<g style="mix-blend-mode:multiply" opacity="0.65">
<path fill-rule="evenodd" clip-rule="evenodd" d="M74.62 56.8477C71.7495 60.4379 70.7601 64.153 65.1584 64.153C63.3887 64.153 62.3714 63.1549 60.7968 63.8619C57.4664 65.2481 60.114 67.8125 44.967 66.2045C41.7342 65.858 39.3235 65.5807 37.6792 66.0382C39.0833 65.7875 40.5297 65.9266 41.8596 66.4402C43.49 66.9531 56.3795 69.1017 57.4525 68.3115C59.5984 66.7174 60.7411 63.7371 64.0157 65.1787C64.6803 65.4945 65.4168 65.63 66.1509 65.5716C66.885 65.5132 67.5905 65.2629 68.1961 64.8461C69.4224 63.9312 73.0872 65.1094 74.2577 60.5904C75.0798 57.4438 77.6299 54.2694 80.9742 53.6594C80.7187 53.5991 80.4544 53.585 80.1939 53.6179C78.257 53.6179 75.679 55.4199 74.5225 56.8754L74.62 56.8477Z" fill="url(#paint21_radial_3_4308)"/>
</g>
<g style="mix-blend-mode:screen">
<path fill-rule="evenodd" clip-rule="evenodd" d="M60.6856 8.38616C58.1077 5.07314 48.8551 8.9545 46.3887 7.11086C46.372 7.2822 46.4164 7.45391 46.5141 7.59602C46.9461 8.21981 51.1264 8.2614 51.865 8.17823C58.9299 7.41582 58.1077 9.07926 61.8701 11.7269C63.1562 12.5329 64.5191 13.2108 65.939 13.7507C72.1817 16.5231 72.6137 22.7194 73.185 23.9947C73.4023 24.5033 73.7538 24.944 74.2023 25.27C76.599 27.0028 75.958 26.0325 77.8114 28.888C78.2851 29.6227 78.7171 30.2742 78.9261 30.5792C79.0817 30.8007 79.2931 30.9776 79.5392 31.0921C79.0066 29.9778 78.591 28.8119 78.2991 27.6127C78.1166 27.1343 77.835 26.6994 77.4725 26.3364C77.11 25.9734 76.6747 25.6903 76.1949 25.5057C74.6482 25.0344 75.2892 24.5908 74.9269 24.1195C72.0006 20.4322 74.481 19.4757 71.2342 16.4122C70.3702 15.5944 68.0431 12.42 65.4652 11.9625C62.107 11.3526 63.0267 11.3665 60.6856 8.35843V8.38616Z" fill="url(#paint22_radial_3_4308)"/>
</g>
<g style="mix-blend-mode:screen">
<path fill-rule="evenodd" clip-rule="evenodd" d="M87.872 44.1916C87.7605 43.4154 85.7261 41.2806 85.2383 40.5598C83.5383 37.9676 84.8342 37.926 84.5556 36.5398C84.2211 34.8209 83.1621 34.308 83.2875 32.8525C83.0474 33.2145 82.9136 33.636 82.9013 34.0694C82.889 34.5029 82.9987 34.9312 83.2178 35.3061C83.4197 35.7754 83.5285 36.279 83.5383 36.7893C83.5383 41.1697 86.3253 41.849 86.172 44.2609C86.1023 45.3838 85.2662 48.8077 85.2523 49.5008C85.2523 53.5069 86.4924 53.4653 86.2695 58.4279C85.9975 59.8333 85.6439 61.2218 85.2105 62.5865C85.4474 62.2954 85.6564 62.0043 85.949 61.6161C88.6663 58.1506 87.3425 57.4576 86.6736 54.6852C86.0881 52.4011 86.1605 49.9992 86.8826 47.7542C87.2589 46.7561 88.1507 45.9937 87.872 44.15V44.1916Z" fill="url(#paint23_radial_3_4308)"/>
</g>
<g style="mix-blend-mode:screen">
<path fill-rule="evenodd" clip-rule="evenodd" d="M59.4315 26.5454C58.1752 26.2656 57.0104 25.6743 56.0454 24.8265C56.8279 25.5264 57.5634 26.2765 58.2471 27.0722C58.4422 27.3494 58.1774 27.8207 58.4143 28.0702C61.3127 31.1337 63.807 28.5831 66.4407 29.3317C67.3046 29.5812 68.1686 29.7614 69.0325 30.0248C69.4228 30.1092 69.8267 30.1092 70.217 30.0248C69.2415 29.9 68.6284 29.1376 68.0153 28.8049C67.4022 28.4722 67.0677 28.6802 66.9145 28.5554C66.3292 28.0425 66.1899 27.8762 65.521 28.0009C63.4029 28.3336 62.2463 28.8742 60.6021 28.098C59.6824 27.6682 59.7103 27.0999 59.4873 26.5038L59.4315 26.5454Z" fill="url(#paint24_radial_3_4308)"/>
</g>
<g style="mix-blend-mode:screen">
<path fill-rule="evenodd" clip-rule="evenodd" d="M46.7507 30.9119C48.2138 30.5099 49.5376 29.6644 51.4885 31.3971C52.6172 32.3952 54.1779 33.1576 55.4599 32.0209C55.0501 32.0793 54.6324 32.0462 54.2371 31.9239C53.8418 31.8016 53.4788 31.5932 53.1746 31.3139C52.3803 31.3139 52.2967 30.801 52.0738 30.4268C51.0705 28.6802 50.1926 28.8604 48.8827 29.4287C46.5138 30.4545 44.7023 31.9239 40.9399 32.2011C42.9548 32.1625 44.9373 31.6895 46.7507 30.8149V30.9119Z" fill="url(#paint25_radial_3_4308)"/>
</g>
<g style="mix-blend-mode:screen">
<path fill-rule="evenodd" clip-rule="evenodd" d="M83.4409 28.6663C83.0925 28.9712 83.6917 30.7872 83.6917 31.3139C83.6917 33.2546 82.2983 33.116 83.2179 35.32C83.4198 35.7893 83.5286 36.2929 83.5384 36.8032C83.5384 41.1836 86.3254 41.8629 86.1721 44.2749C86.1024 45.3977 85.2663 48.8216 85.2524 49.5147C85.2524 53.5208 86.4926 53.4792 86.2696 58.4418C86.2696 59.3151 85.0712 62.8361 85.113 63.0856C85.1462 63.3373 85.2482 63.5751 85.4079 63.7731C85.5676 63.9711 85.7789 64.1217 86.0188 64.2084C86.3179 64.2849 86.6326 64.2774 86.9277 64.1869C87.2229 64.0964 87.487 63.9263 87.691 63.6955C88.972 61.6806 89.9971 59.5155 90.7427 57.2497C90.9238 56.7784 90.4222 56.21 90.6033 55.7387C91.2025 54.0753 92.9722 51.2474 93.0001 51.0256C93.0279 50.8039 92.1222 49.7503 91.9828 49.0018C91.8853 48.4889 92.3591 47.6849 92.3451 47.477C91.9102 46.6593 91.524 45.8169 91.1886 44.9541C91.1072 44.2799 91.1307 43.5973 91.2582 42.9302C91.2582 42.9302 90.7148 41.6827 90.7427 41.6272C91.0951 41.0503 91.3449 40.4172 91.4812 39.7559C91.0353 38.3697 89.7393 36.2349 89.5861 35.7082C89.4328 35.1814 89.7672 34.9596 89.6558 34.6131C89.0426 32.7556 85.2802 26.9474 83.4409 28.6108V28.6663ZM34.9482 69.5591C34.7932 70.8392 34.4989 72.0988 34.0703 73.3157C33.8613 73.787 31.8687 74.2999 33.2761 75.7831C35.5056 78.1258 37.763 79.5259 39.4213 81.5359C40.3671 82.9317 41.2234 84.3855 41.9852 85.8885C44.5632 90.0471 51.5165 89.1461 55.9199 88.8411C58.0519 88.7025 62.1905 88.7302 62.3159 88.7025C62.7619 88.5916 64.8102 87.5381 66.1062 87.1084C67.7923 86.5539 71.1226 85.8331 71.262 85.7222C71.72 85.1726 72.1346 84.5887 72.5022 83.9756C72.5022 83.8508 73.9792 83.5458 74.1743 83.4072C74.6851 82.2672 75.3008 81.1767 76.0137 80.1497C76.3063 79.817 77.24 79.9972 77.3236 79.9279C77.4072 79.8586 78.3129 78.3337 78.4105 78.1951C78.508 78.0565 80.5982 77.3218 80.6679 77.1832C81.6433 75.1178 81.9359 72.789 82.772 70.6681C83.7614 68.1729 83.8311 67.2719 83.5245 66.0659C83.203 65.0704 83.2275 63.9962 83.5942 63.0163C84.0611 61.7819 84.3246 60.4806 84.3745 59.1626C84.2212 57.4992 82.5351 53.6178 80.3056 53.6178C78.3686 53.6178 75.7908 55.4199 74.6342 56.8754C71.7636 60.4656 70.7743 64.1807 65.1725 64.1807C63.4028 64.1807 62.3856 63.1826 60.811 63.8896C57.4806 65.2758 60.1282 67.8402 44.9812 66.2322C38.836 65.5807 35.7146 65.1371 35.0179 69.573L34.9482 69.5591ZM31.0883 36.1933C27.535 36.9835 24.121 42.2094 21.8914 45.4254C21.5861 45.7755 21.4179 46.2234 21.4177 46.6868C21.5013 47.3522 26.671 58.9131 27.3399 59.7448C30.0293 63.0578 49.2173 62.8638 55.7527 62.4341C56.3946 62.3981 57.013 62.1818 57.5363 61.8103C58.4839 61.1172 59.1249 60.7983 60.0864 60.1191C60.5684 59.7665 61.1622 59.5991 61.7585 59.6478C62.8132 59.8797 63.8513 60.1807 64.866 60.5488C65.5625 60.7945 66.3027 60.8937 67.0398 60.8399C70.9554 60.0637 70.9275 56.2516 74.3973 53.6733C75.9438 52.5402 77.6297 51.6085 79.4138 50.9009C80.4864 50.2726 81.3989 49.4067 82.0804 48.3705C82.762 47.3343 83.1941 46.1557 83.3434 44.9264C83.0641 44.0257 82.7002 43.1531 82.2565 42.3203C80.7933 38.6746 81.7269 38.841 81.1277 36.5399C80.9605 35.9299 80.2917 35.5557 79.7343 35.1537C78.6056 34.3635 79.0375 34.6131 77.8809 32.908C77.658 32.6031 77.7137 32.1595 77.5186 31.8268C77.2829 31.4122 76.971 31.0454 76.599 30.7456C76.4875 30.6485 76.2924 30.7456 76.167 30.7456C75.6374 31.0783 75.2612 31.6882 74.676 31.91C74.3694 32.0209 74.035 31.6882 73.7005 31.6882C70.621 31.6882 71.8612 32.6724 68.8931 31.6882C62.7618 29.5119 59.6962 31.6882 54.5961 33.5873C53.983 33.8229 53.3281 34.1002 53.4813 34.1695C54.1168 34.5174 54.7105 34.9359 55.251 35.4171C55.7175 35.7605 56.1146 36.1885 56.4216 36.6785C56.4732 36.7922 56.4901 36.9185 56.4703 37.0417C56.4505 37.1649 56.3948 37.2796 56.3101 37.3716C56.115 37.5518 55.683 37.7181 55.5019 37.5102C54.7862 36.4741 53.8236 35.6305 52.7002 35.0548C51.5768 34.4791 50.3276 34.1892 49.0641 34.2111C47.8935 34.2111 44.8836 35.5973 41.5811 35.8884C37.0663 36.3458 32.1334 35.8884 31.0883 36.124V36.1933ZM34.0843 19.1431C33.8056 22.6086 34.5302 24.48 34.5581 26.989C34.5581 27.4464 34.2236 29.2069 34.8228 29.8584C36.3814 30.9156 38.1183 31.6857 39.9508 32.1318C42.2721 32.355 44.6104 31.9377 46.7091 30.9258C48.1722 30.5238 49.496 29.6782 51.4469 31.4109C52.6871 32.5199 54.4568 33.3239 55.8084 31.6327C56.5306 30.7381 57.1088 29.7373 57.5224 28.6663C57.6474 28.2028 57.5978 27.7098 57.3831 27.2801C56.896 26.388 56.3465 25.5311 55.7388 24.7156L56.0453 24.8958C56.8278 25.5956 57.5633 26.3458 58.247 27.1415C58.4421 27.4187 58.1773 27.89 58.4142 28.1395C61.3126 31.203 63.8069 28.6524 66.4406 29.401C67.3045 29.6505 68.1685 29.8307 69.0324 30.0941C70.3248 30.2498 71.6313 29.9507 72.7251 29.2485C73.0037 29.1014 73.2402 28.8866 73.4127 28.6241C73.5853 28.3615 73.6881 28.0598 73.7118 27.747C73.7354 27.4343 73.6791 27.1206 73.548 26.8354C73.4169 26.5501 73.2153 26.3025 72.962 26.1157C72.2488 25.3727 71.6009 24.5704 71.0251 23.7175C69.3808 21.264 70.4956 19.9887 66.552 16.7866C63.9574 14.5046 61.0246 12.6343 57.8568 11.2418C56.567 10.6861 55.2151 10.2859 53.8297 10.0496C51.0428 9.57833 46.3747 9.03771 46.1796 10.6596C46.1796 11.0616 46.1796 11.5329 45.9706 11.8517C45.8425 11.9813 45.6878 12.0818 45.517 12.1464C45.3462 12.211 45.1635 12.2382 44.9812 12.226C44.382 12.226 43.8107 11.8517 43.1975 11.8517C42.7101 11.8881 42.2355 12.025 41.8041 12.2537C38.7524 13.8062 34.4744 15.2202 34.14 19.1847L34.0843 19.1431ZM58.5954 3.47906C57.731 3.13617 56.8469 2.84456 55.9478 2.60575C55.0531 2.55731 54.1561 2.64139 53.2863 2.85527C52.2941 3.07052 51.3204 3.36251 50.3739 3.72857C49.4264 4.10285 45.6779 6.32076 46.5558 7.59606C46.9878 8.21985 51.1682 8.26144 51.9067 8.17827C58.9716 7.41586 58.1495 9.0793 61.9118 11.7269C63.1979 12.533 64.5608 13.2109 65.9807 13.7508C72.2235 16.5232 72.6554 22.7195 73.2268 23.9948C73.444 24.5034 73.7955 24.944 74.244 25.2701C76.6408 27.0028 75.9998 26.0325 77.8531 28.8881C78.3269 29.6227 78.7588 30.2743 78.9678 30.5792C79.1472 30.8147 79.3789 31.0057 79.6448 31.1371C79.9107 31.2686 80.2037 31.337 80.5007 31.337C80.7976 31.337 81.0906 31.2686 81.3565 31.1371C81.6224 31.0057 81.8542 30.8147 82.0335 30.5792C82.1588 30.0084 82.1588 29.4173 82.0335 28.8465C82.0335 28.597 81.6572 28.4445 81.6294 28.195C81.3786 25.2701 86.4229 27.7375 84.904 23.7037C84.4024 22.3175 83.3294 21.3333 82.7302 20.058C82.2564 19.0461 81.9499 17.2024 81.699 16.8697C81.4482 16.537 80.5007 16.5509 80.4728 16.3707C80.3649 15.8017 80.2158 15.2411 80.0269 14.6934C79.3941 14.6049 78.7663 14.4846 78.1457 14.333C77.6457 14.1678 77.1753 13.9245 76.7522 13.6122C76.585 13.4042 75.7211 11.5745 75.5957 11.4358C75.4703 11.2972 74.1325 10.9091 73.4776 10.5071C72.8227 10.1051 72.1538 9.24564 71.3735 8.76047C70.5931 8.2753 69.7013 8.23372 68.9767 7.74855C68.1608 7.1166 67.3924 6.42629 66.6775 5.68311C66.5242 5.58608 65.5766 5.47518 65.0471 5.29498C64.5176 5.11477 64.1832 4.85139 63.7373 4.67119C63.0591 4.41242 62.3657 4.19485 61.661 4.01967C60.6716 3.79788 59.6405 3.7563 58.6372 3.52064L58.5954 3.47906ZM40.4803 8.05351C39.0434 8.66102 37.8278 9.69134 36.9966 11.0061C36.8766 11.257 36.8518 11.5425 36.9269 11.8101C37.0663 12.2953 40.0204 11.8101 40.2573 11.616C40.5773 11.2423 40.9268 10.8947 41.3024 10.5764C42.1664 10.0496 42.891 10.41 43.8246 10.4378C43.95 10.4378 44.1312 10.4378 44.173 10.2576C44.3681 9.75853 44.7582 8.40006 44.173 8.03965C43.3369 7.49903 41.386 7.90103 40.3827 8.03965L40.4803 8.05351ZM32.1195 3.89492C33.8195 4.38009 35.7704 4.49098 37.4425 4.96229C39.1147 5.4336 43.0164 7.13862 44.5353 6.22373C45.9287 5.44746 47.6427 4.15829 48.9665 3.45133C49.8409 2.95162 50.7781 2.56939 51.7534 2.31465C51.9206 2.31465 51.7534 1.94038 51.642 1.81562C51.3314 1.48942 50.9432 1.24629 50.5132 1.10866C49.7468 0.900731 48.9247 1.03935 48.1444 0.886867C47.44 0.693925 46.7469 0.462541 46.0681 0.193768C45.9148 0.193768 45.2877 0.401699 45.2041 0.373975C44.6607 0.235355 43.5599 0.0551492 43.3787 0.0135632C43.1976 -0.0280227 42.4033 0.471008 41.8738 0.581904C41.3442 0.6928 41.1073 0.48487 40.7311 0.581904C40.1916 0.67913 39.6638 0.832452 39.1565 1.03935C38.7663 1.19183 38.1253 1.5661 38.0138 1.60769C37.9024 1.64928 36.6204 1.41362 36.481 1.45521C36.3417 1.4968 35.0876 2.42555 34.4187 2.67506C33.9225 2.80812 33.4132 2.88714 32.8998 2.91072C32.7465 2.91072 32.3982 3.60382 32.1334 3.95037L32.1195 3.89492ZM25.1521 6.83366C24.5948 8.21985 24.8317 10.9922 23.6333 13.0161C23.4828 13.3012 23.2849 13.559 23.048 13.7785C22.2119 14.4439 20.4701 16.6479 20.6095 18.0064C20.76 19.5596 20.4448 21.1224 19.7037 22.4977C16.9168 27.6821 16.5405 28.1257 15.7741 29.8723C15.3125 31.301 15.3125 32.8378 15.7741 34.2665C17.07 37.9954 20.93 35.0012 22.6579 33.9338C24.7062 32.6585 26.9219 33.0467 27.5071 32.811C30.4473 31.5773 31.4228 29.5396 31.4506 26.587C31.4506 24.4245 31.144 19.351 31.9383 17.6044C32.3146 16.7866 33.2343 16.2182 33.3318 15.2895C33.5826 13.4042 32.7605 13.2102 34.5302 11.4636C35.422 10.5625 36.4392 9.78626 37.3171 8.8575C37.8476 8.34706 38.2818 7.7461 38.5991 7.08317C38.7106 6.77821 38.7245 6.20987 38.418 6.09897C36.3603 5.50751 34.2517 5.1084 32.1195 4.90684C31.6318 4.83753 31.1301 5.08705 30.6285 5.05932C30.1268 5.0316 29.3465 4.7405 28.7055 4.69891C28.3101 4.63165 27.9035 4.6798 27.535 4.83753C26.6292 5.37815 25.5005 5.86332 25.0964 6.83366H25.1521ZM16.5545 39.4093C13.6421 40.6846 16.0389 42.1817 17.3348 42.958C17.8922 43.2491 17.5717 44.3442 19.425 44.8986C19.5827 44.9778 19.7569 45.0191 19.9336 45.0191C20.1103 45.0191 20.2845 44.9778 20.4422 44.8986C20.8603 44.5105 20.8603 43.8451 21.1668 43.3738C21.6685 42.5837 22.3513 41.9876 22.8529 41.1282C23.3546 40.2688 24.6644 37.7597 23.5079 36.8032C23.4033 36.7317 23.2794 36.6934 23.1525 36.6934C23.0256 36.6934 22.9017 36.7317 22.7972 36.8032C20.7627 38.1894 19.007 38.3419 16.5545 39.4232V39.4093ZM38.0835 90.6986C39.7433 90.2908 41.4461 90.0814 43.1557 90.0748C43.6435 90.0748 44.1312 90.4907 44.5492 90.3382C47.1132 89.4095 48.5903 90.6293 50.7501 90.5739C52.7001 90.5023 54.6422 90.2892 56.5609 89.9362C56.2265 90.1441 55.892 90.3243 55.5715 90.5461C55.0511 91.043 54.4762 91.4801 53.8576 91.8492C53.1172 92.1425 52.3274 92.293 51.5305 92.2927C50.7381 92.148 49.9378 92.0508 49.1337 92.0016C48.0747 92.1403 47.1411 92.875 46.082 93.0413C45.7058 93.0413 45.3574 92.7641 44.9951 92.6809C44.6328 92.5977 44.1033 92.6809 43.6853 92.5423C43.2672 92.4036 43.0164 92.0848 42.6262 92.0016C41.7344 91.7937 40.7729 91.9185 39.8393 91.669C39.1956 91.4065 38.5795 91.0815 37.9999 90.6986H38.0835ZM30.7539 76.9337C29.3506 76.7514 27.9254 77.0184 26.685 77.6961C25.6399 78.805 28.371 82.1181 28.6915 82.7973C29.3678 84.1868 29.7384 85.7037 29.7785 87.247C29.7708 87.7314 29.891 88.2093 30.1268 88.6332C30.5414 89.2061 31.0794 89.6797 31.7014 90.0194C32.4232 90.4742 33.2463 90.7456 34.0982 90.8095C35.152 90.6636 36.1883 90.4128 37.1917 90.061C41.3721 89.257 41.2606 88.5084 38.5016 83.2825C37.4983 81.3972 33.0113 77.5436 30.7539 76.9891V76.9337ZM11.6216 74.2999C11.1757 74.1751 10.4929 74.189 10.2281 74.591C9.96334 74.993 10.2281 75.6445 10.4789 76.0742C11.3708 77.4604 12.6806 78.4446 13.6142 79.7615C14.3388 80.7735 14.4085 82.3121 15.4258 83.0191C16.9864 84.0865 19.1602 83.8924 20.8463 84.7518C23.0759 85.8885 22.8251 87.1915 25.7235 87.5242C25.9807 87.5782 26.2481 87.5587 26.4946 87.4679C26.7412 87.3772 26.957 87.2189 27.1169 87.0113C28.1899 85.0291 25.2218 83.1577 25.3472 78.4446C25.3472 78.0288 25.3472 77.5991 24.8038 77.6268C22.6477 77.8696 20.467 77.7808 18.3381 77.3634C16.429 76.8782 14.4503 75.09 11.6216 74.3554V74.2999ZM13.3077 42.6391C13.3077 42.348 12.9454 41.0312 11.0781 41.4332C10.2825 41.5942 9.51334 41.8648 8.79283 42.2371C7.39937 43.0273 6.25673 45.564 5.18376 46.77C4.84933 47.1443 3.95751 46.6868 3.59521 46.4928C3.47567 46.4345 3.34031 46.4165 3.20959 46.4415C3.07887 46.4665 2.95988 46.5332 2.8706 46.6314C2.70338 46.8532 2.27141 47.6017 1.65829 48.5721C1.47073 48.8691 1.26113 49.1517 1.03123 49.4177C0.48778 50.0414 0.0697291 50.1939 0.432031 51.9821C0.720989 53.2326 0.921224 54.5018 1.03123 55.7803C1.10091 57.1665 0.529571 59.329 0.668917 59.7726C0.808264 60.2161 1.9091 61.3251 2.06238 61.7271C2.21567 62.1291 2.06239 63.1133 2.13206 63.238C3.00995 64.7213 3.52554 64.9847 4.4731 66.4263C4.86327 67.0362 5.16984 67.7155 5.58788 68.3115C6.01159 68.9687 6.51207 69.5736 7.07888 70.1136C9.21088 71.9295 16.8332 74.591 19.1045 74.8405C21.8698 75.1338 24.666 74.8938 27.3399 74.1336C29.4858 73.3157 31.9383 67.3273 31.3809 65.8164C31.2277 65.4005 30.8096 65.1371 30.4752 64.8322C29.9698 64.3639 29.4345 63.9287 28.8727 63.5292C28.121 63.0127 27.4042 62.4478 26.7268 61.838C25.7567 61.2936 25.0003 60.4386 24.5808 59.4121C23.8702 57.4576 21.4873 52.7584 20.7209 51.095C18.8816 46.6868 19.5644 45.3006 15.0356 45.3006C13.0569 45.3006 13.5028 43.9144 13.2659 42.653L13.3077 42.6391ZM0.0418614 44.566C-0.000845042 45.147 0.135241 45.7272 0.432031 46.2294C0.654985 46.5205 1.19845 46.77 1.49108 46.5482C1.78371 46.3264 1.63042 44.0947 2.77307 43.7758C3.27472 43.6649 3.56735 44.4412 4.04113 44.6491C5.93624 45.5086 6.47969 40.8094 6.82806 40.241C8.40268 37.9399 12.9175 41.142 12.165 34.821C11.9142 32.6724 11.3289 32.0486 12.4995 30.2743C14.4085 27.3217 15.6905 26.1157 17.1815 23.3433C18.0315 21.7214 16.9168 20.2105 17.4881 17.7985C18.0594 15.3865 20.6791 14.2221 21.8496 12.9468C23.3825 11.2695 22.7136 7.72082 21.8496 7.99806C19.6619 8.69116 17.934 10.3685 16.011 11.6299C14.7151 12.4755 12.4716 14.1528 12.2347 14.3053C11.9978 14.4577 11.3708 16.1628 10.8412 16.9806C9.87974 18.3668 8.63955 19.4342 7.63625 20.7511C7.00919 21.5828 6.61903 22.5947 5.9641 23.4264C5.36436 24.152 4.70736 24.8288 3.99932 25.4503C3.76244 25.5751 2.94029 29.8168 2.25749 31.9654C1.99273 32.7971 1.42139 33.518 1.17057 34.3497C0.841519 35.4342 0.622141 36.5487 0.515656 37.6766C0.248718 39.9361 0.0998709 42.2079 0.0697367 44.4828L0.0418614 44.566Z" fill="url(#paint26_radial_3_4308)"/>
</g>
</g>
<defs>
<radialGradient id="paint0_radial_3_4308" cx="0" cy="0" r="1" gradientUnits="userSpaceOnUse" gradientTransform="translate(39.6837 87.4412) rotate(180) scale(65.8554 82.8422)">
<stop stop-color="#4F4F4F"/>
<stop offset="0.16" stop-color="#414141"/>
<stop offset="0.72" stop-color="#141516"/>
<stop offset="1" stop-color="#030405"/>
</radialGradient>
<radialGradient id="paint1_radial_3_4308" cx="0" cy="0" r="1" gradientUnits="userSpaceOnUse" gradientTransform="translate(78.5728 -0.67673) scale(201.246 91.7118)">
<stop stop-color="#777779"/>
<stop offset="1" stop-color="#4F4F4F"/>
</radialGradient>
<radialGradient id="paint2_radial_3_4308" cx="0" cy="0" r="1" gradientUnits="userSpaceOnUse" gradientTransform="translate(54.7352 5.02562) scale(126.319 56.68)">
<stop stop-color="#777779"/>
<stop offset="1" stop-color="#4F4F4F"/>
</radialGradient>
<radialGradient id="paint3_radial_3_4308" cx="0" cy="0" r="1" gradientUnits="userSpaceOnUse" gradientTransform="translate(33.6984 38.412) rotate(180) scale(16.7361 11.3671)">
<stop stop-color="#4F4F4F"/>
<stop offset="0.16" stop-color="#414141"/>
<stop offset="0.72" stop-color="#141516"/>
<stop offset="1" stop-color="#030405"/>
</radialGradient>
<radialGradient id="paint4_radial_3_4308" cx="0" cy="0" r="1" gradientUnits="userSpaceOnUse" gradientTransform="translate(16.9099 33.7271) scale(16.242 6.86549)">
<stop stop-color="#777779"/>
<stop offset="1" stop-color="#4F4F4F"/>
</radialGradient>
<radialGradient id="paint5_radial_3_4308" cx="0" cy="0" r="1" gradientUnits="userSpaceOnUse" gradientTransform="translate(38.9783 29.1688) scale(33.9028 7.02837)">
<stop stop-color="#777779"/>
<stop offset="1" stop-color="#4F4F4F"/>
</radialGradient>
<radialGradient id="paint6_radial_3_4308" cx="0" cy="0" r="1" gradientUnits="userSpaceOnUse" gradientTransform="translate(37.4068 12.0914) scale(9.03705 4.19763)">
<stop stop-color="#777779"/>
<stop offset="1" stop-color="#4F4F4F"/>
</radialGradient>
<radialGradient id="paint7_radial_3_4308" cx="0" cy="0" r="1" gradientUnits="userSpaceOnUse" gradientTransform="translate(76.6055 26.7672) scale(9.78693 3.62937)">
<stop stop-color="#777779"/>
<stop offset="1" stop-color="#4F4F4F"/>
</radialGradient>
<radialGradient id="paint8_radial_3_4308" cx="0" cy="0" r="1" gradientUnits="userSpaceOnUse" gradientTransform="translate(82.2535 31.2178) scale(8.24355 2.93104)">
<stop stop-color="#777779"/>
<stop offset="1" stop-color="#4F4F4F"/>
</radialGradient>
<radialGradient id="paint9_radial_3_4308" cx="0" cy="0" r="1" gradientUnits="userSpaceOnUse" gradientTransform="translate(83.8355 48.4776) scale(16.0548 7.42345)">
<stop stop-color="#777779"/>
<stop offset="1" stop-color="#4F4F4F"/>
</radialGradient>
<radialGradient id="paint10_radial_3_4308" cx="0" cy="0" r="1" gradientUnits="userSpaceOnUse" gradientTransform="translate(34.3661 62.7757) scale(15.4774 12.2356)">
<stop stop-color="#777779"/>
<stop offset="1" stop-color="#4F4F4F"/>
</radialGradient>
<radialGradient id="paint11_radial_3_4308" cx="0" cy="0" r="1" gradientUnits="userSpaceOnUse" gradientTransform="translate(50.4349 63.5394) scale(16.9796 1.53336)">
<stop stop-color="#777779"/>
<stop offset="1" stop-color="#4F4F4F"/>
</radialGradient>
<radialGradient id="paint12_radial_3_4308" cx="0" cy="0" r="1" gradientUnits="userSpaceOnUse" gradientTransform="translate(62.9494 60.8282) scale(18.3888 3.77497)">
<stop stop-color="#777779"/>
<stop offset="1" stop-color="#4F4F4F"/>
</radialGradient>
<radialGradient id="paint13_radial_3_4308" cx="0" cy="0" r="1" gradientUnits="userSpaceOnUse" gradientTransform="translate(19.2625 7.79216) scale(48.8123 38.0335)">
<stop stop-color="#777779"/>
<stop offset="1" stop-color="#4F4F4F"/>
</radialGradient>
<radialGradient id="paint14_radial_3_4308" cx="0" cy="0" r="1" gradientUnits="userSpaceOnUse" gradientTransform="translate(35.2289 5.66276) scale(48.556 29.7922)">
<stop stop-color="#777779"/>
<stop offset="1" stop-color="#4F4F4F"/>
</radialGradient>
<radialGradient id="paint15_radial_3_4308" cx="0" cy="0" r="1" gradientUnits="userSpaceOnUse" gradientTransform="translate(43.374 8.06724) scale(16.4879 3.86976)">
<stop stop-color="#777779"/>
<stop offset="1" stop-color="#4F4F4F"/>
</radialGradient>
<radialGradient id="paint16_radial_3_4308" cx="0" cy="0" r="1" gradientUnits="userSpaceOnUse" gradientTransform="translate(48.7431 1.71269) scale(42.5472 4.67459)">
<stop stop-color="#777779"/>
<stop offset="1" stop-color="#4F4F4F"/>
</radialGradient>
<radialGradient id="paint17_radial_3_4308" cx="0" cy="0" r="1" gradientUnits="userSpaceOnUse" gradientTransform="translate(5098.78 2079.15) scale(684.899 830.844)">
<stop offset="0.33" stop-color="white"/>
<stop offset="0.41" stop-color="#FDFAFA"/>
<stop offset="0.49" stop-color="#222222"/>
<stop offset="0.58"/>
<stop offset="0.67"/>
<stop offset="0.76"/>
<stop offset="0.86"/>
<stop offset="0.96"/>
<stop offset="1"/>
</radialGradient>
<radialGradient id="paint18_radial_3_4308" cx="0" cy="0" r="1" gradientUnits="userSpaceOnUse" gradientTransform="translate(26.6558 77.4305) scale(9.499 9.7638)">
<stop stop-color="#777779"/>
<stop offset="1" stop-color="#4F4F4F"/>
</radialGradient>
<radialGradient id="paint19_radial_3_4308" cx="0" cy="0" r="1" gradientUnits="userSpaceOnUse" gradientTransform="translate(38.9343 78.0087) scale(21.1865 12.4261)">
<stop stop-color="#777779"/>
<stop offset="1" stop-color="#4F4F4F"/>
</radialGradient>
<radialGradient id="paint20_radial_3_4308" cx="0" cy="0" r="1" gradientUnits="userSpaceOnUse" gradientTransform="translate(22.6961 36.5788) scale(17.3886 8.21044)">
<stop stop-color="#777779"/>
<stop offset="1" stop-color="#4F4F4F"/>
</radialGradient>
<radialGradient id="paint21_radial_3_4308" cx="0" cy="0" r="1" gradientUnits="userSpaceOnUse" gradientTransform="translate(74.2465 53.4949) scale(93.7496 14.6776)">
<stop stop-color="#777779"/>
<stop offset="1" stop-color="#4F4F4F"/>
</radialGradient>
<radialGradient id="paint22_radial_3_4308" cx="0" cy="0" r="1" gradientUnits="userSpaceOnUse" gradientTransform="translate(74.3874 6.82112) scale(71.7906 23.7663)">
<stop stop-color="#777779"/>
<stop offset="1" stop-color="#4F4F4F"/>
</radialGradient>
<radialGradient id="paint23_radial_3_4308" cx="0" cy="0" r="1" gradientUnits="userSpaceOnUse" gradientTransform="translate(87.1443 32.6415) scale(10.8803 29.3224)">
<stop stop-color="#777779"/>
<stop offset="1" stop-color="#4F4F4F"/>
</radialGradient>
<radialGradient id="paint24_radial_3_4308" cx="0" cy="0" r="1" gradientUnits="userSpaceOnUse" gradientTransform="translate(68.0148 24.7892) scale(30.6866 5.18873)">
<stop stop-color="#777779"/>
<stop offset="1" stop-color="#4F4F4F"/>
</radialGradient>
<radialGradient id="paint25_radial_3_4308" cx="0" cy="0" r="1" gradientUnits="userSpaceOnUse" gradientTransform="translate(53.2036 29.0061) scale(31.441 3.50728)">
<stop stop-color="#777779"/>
<stop offset="1" stop-color="#4F4F4F"/>
</radialGradient>
<radialGradient id="paint26_radial_3_4308" cx="0" cy="0" r="1" gradientUnits="userSpaceOnUse" gradientTransform="translate(39.6837 87.4412) rotate(180) scale(65.8554 82.8422)">
<stop stop-color="#4F4F4F"/>
<stop offset="0.16" stop-color="#414141"/>
<stop offset="0.72" stop-color="#141516"/>
<stop offset="1" stop-color="#030405"/>
</radialGradient>
<clipPath id="clip0_3_4308">
<rect width="93" height="93" fill="white" transform="translate(0 -0.000244141)"/>
</clipPath>
</defs>
</svg>
