<svg width="89" height="93" viewBox="0 0 89 93" fill="none" xmlns="http://www.w3.org/2000/svg">
<g clip-path="url(#clip0_3_4205)">
<path fill-rule="evenodd" clip-rule="evenodd" d="M0.467414 47.808C-0.541594 54.0045 0.158961 60.3597 2.4933 66.1858C7.09759 74.5794 18.6154 88.0147 25.0473 91.8352C27.4459 92.383 29.8788 92.7674 32.3292 92.9855C40.8325 92.1172 49.2397 90.4772 57.4474 88.0857C64.6404 84.4826 71.1434 79.6365 76.6579 73.7698C79.1339 70.645 81.271 67.2647 83.0331 63.6862C85.5969 56.8008 86.9393 49.5189 86.9999 42.1697C86.5324 36.4888 85.8665 30.9073 85.0732 25.3542C82.9142 20.9557 80.1637 16.8748 76.8988 13.2254C72.7781 9.5698 68.0375 6.68376 62.9017 4.70403C56.314 3.49683 49.273 2.48846 43.9745 3.17017C37.837 5.48629 31.9354 8.38742 26.3507 11.8336C15.4845 22.9114 4.95838 37.9658 0.467414 47.7654V47.808Z" fill="url(#paint0_radial_3_4205)"/>
<path fill-rule="evenodd" clip-rule="evenodd" d="M0.467529 47.808C1.23255 47.1689 2.15341 46.3878 3.30094 45.351C7.09772 41.0903 12.1837 34.33 15.7396 29.6433C19.3664 24.0902 23.2198 17.6424 26.4074 11.8762C15.5413 22.954 5.01517 38.0084 0.52421 47.808H0.467529Z" fill="url(#paint1_radial_3_4205)"/>
<path fill-rule="evenodd" clip-rule="evenodd" d="M15.6829 29.6432C20.1616 28.3788 24.7067 27.3641 29.2974 26.6039C35.8001 21.5053 42.1611 16.0942 48.3096 10.2855C47.0662 7.80049 45.616 5.42505 43.9745 3.18433C37.837 5.50044 31.9354 8.40153 26.3507 11.8477C23.1631 17.6139 19.2671 24.0617 15.6829 29.6148V29.6432Z" fill="url(#paint2_radial_3_4205)"/>
<path fill-rule="evenodd" clip-rule="evenodd" d="M43.9746 3.21283C45.6161 5.45355 47.0664 7.82901 48.3098 10.314C51.7126 8.9568 55.3437 8.26735 59.0059 8.28306C60.1185 6.92139 61.4323 5.73835 62.9018 4.77507C56.3141 3.56787 49.2731 2.55951 43.9746 3.24122V3.21283Z" fill="url(#paint3_radial_3_4205)"/>
<path fill-rule="evenodd" clip-rule="evenodd" d="M59.0059 8.25459C61.2159 8.68066 66.9394 11.6631 70.6512 15.3557C75.1563 16.634 81.9848 21.5906 85.0733 25.2974C82.9142 20.8989 80.1638 16.818 76.8988 13.1686C72.7782 9.51297 68.0376 6.62695 62.9018 4.64722C61.4322 5.6105 60.1184 6.79349 59.0059 8.15517V8.25459Z" fill="url(#paint4_radial_3_4205)"/>
<path fill-rule="evenodd" clip-rule="evenodd" d="M70.6511 15.3557C71.7844 24.2464 67.5343 34.4294 60.7341 43.6041C63.1121 48.2836 65.7808 52.8088 68.7244 57.1531C73.342 59.727 78.2967 61.6393 83.4439 62.834C85.7562 56.1972 86.9764 49.2276 87.0566 42.1981C86.5891 36.5171 85.9231 30.9356 85.1298 25.3825C82.013 21.6189 75.2128 16.6623 70.7077 15.4409L70.6511 15.3557Z" fill="url(#paint5_radial_3_4205)"/>
<path fill-rule="evenodd" clip-rule="evenodd" d="M60.6775 43.6042C67.5344 34.4295 71.7845 24.2465 70.5945 15.3558C66.8827 11.6632 61.1591 8.68073 58.9491 8.25466C55.2869 8.23895 51.6558 8.9284 48.253 10.2856C42.1044 16.0943 35.7434 21.5054 29.2407 26.6041C30.8139 30.845 32.1709 35.1633 33.3067 39.5423C37.3844 42.6112 41.8537 45.1189 46.5954 46.9985C51.3738 46.3497 56.0734 45.2123 60.6208 43.6042H60.6775Z" fill="url(#paint6_radial_3_4205)"/>
<path fill-rule="evenodd" clip-rule="evenodd" d="M33.3634 39.5423C32.2276 35.1632 30.8706 30.8449 29.2974 26.604C24.7067 27.3642 20.1616 28.3788 15.6829 29.6433C12.1269 34.33 7.04092 41.0761 3.24414 45.351C3.87219 49.3027 4.94143 53.1711 6.43173 56.8833C10.3753 57.492 14.3886 57.492 18.3321 56.8833C23.8143 51.5264 28.8421 45.7213 33.3634 39.5281V39.5423Z" fill="url(#paint7_radial_3_4205)"/>
<path fill-rule="evenodd" clip-rule="evenodd" d="M6.43177 56.8832C4.94147 53.171 3.87223 49.3027 3.24418 45.351C2.15331 46.3735 1.23245 47.1689 0.410764 47.808C-0.598244 54.0045 0.102354 60.3596 2.43669 66.1858C4.02113 65.8543 5.62537 65.6266 7.2393 65.504C6.60127 62.6766 6.31106 59.7814 6.37513 56.8832H6.43177Z" fill="url(#paint8_radial_3_4205)"/>
<path fill-rule="evenodd" clip-rule="evenodd" d="M18.318 56.8975C14.3744 57.5061 10.3612 57.5061 6.41763 56.8975C6.35356 59.7957 6.64376 62.6908 7.2818 65.5183C14.6487 72.236 21.8881 79.1099 28.915 86.1968C30.8906 84.5703 33.0379 83.1654 35.3185 82.0071C30.0625 73.2301 24.3248 64.9644 18.318 56.8975Z" fill="url(#paint9_radial_3_4205)"/>
<path fill-rule="evenodd" clip-rule="evenodd" d="M28.9292 86.1826C21.8456 79.0814 14.6629 72.2217 7.29607 65.504C5.68213 65.6266 4.07785 65.8543 2.49341 66.1858C7.09771 74.5793 18.6156 88.0147 25.0474 91.8351C26.1524 90.074 27.4275 88.1993 28.9292 86.1542V86.1826Z" fill="url(#paint10_radial_3_4205)"/>
<path fill-rule="evenodd" clip-rule="evenodd" d="M18.3179 56.8975C24.2822 64.9502 30.0199 73.2301 35.3184 82.0071C38.5045 80.4948 41.5323 78.6678 44.357 76.5534C44.7253 66.6118 45.5328 56.7554 46.6803 46.9984C41.9387 45.1188 37.4694 42.6111 33.3917 39.5422C28.8568 45.7371 23.8148 51.5423 18.3179 56.8975Z" fill="url(#paint11_radial_3_4205)"/>
<path fill-rule="evenodd" clip-rule="evenodd" d="M46.652 46.9985C45.5045 56.7554 44.697 66.5976 44.3286 76.5534C51.5822 72.2928 58.9491 68.3161 66.5285 64.6945C66.9603 62.1089 67.6777 59.5796 68.6676 57.1531C65.7241 52.8088 63.0555 48.2836 60.6775 43.6041C56.1301 45.2122 51.4304 46.3496 46.652 46.9985Z" fill="url(#paint12_radial_3_4205)"/>
<path fill-rule="evenodd" clip-rule="evenodd" d="M44.3286 76.5535C41.5129 78.6663 38.4947 80.4931 35.3184 82.0072C38.7362 81.8482 42.1613 81.9622 45.5612 82.348C45.037 80.4591 44.7536 78.485 44.357 76.5535H44.3286Z" fill="url(#paint13_radial_3_4205)"/>
<path fill-rule="evenodd" clip-rule="evenodd" d="M45.5329 82.348C42.1331 81.9621 38.7081 81.8481 35.2902 82.0071C33.0251 83.1635 30.8922 84.5636 28.9291 86.1826C27.4274 88.1993 26.0957 90.074 25.0474 91.8635C27.446 92.4113 29.8788 92.7957 32.3293 93.0139C40.8326 92.1455 49.2398 90.5056 57.4475 88.1141C53.6907 85.7974 49.6962 83.8928 45.5329 82.4332V82.348Z" fill="url(#paint14_radial_3_4205)"/>
<path fill-rule="evenodd" clip-rule="evenodd" d="M44.3286 76.5534C44.7253 78.4849 45.0086 80.4591 45.5328 82.348C49.6961 83.8076 53.6906 85.7122 57.4473 88.0289C64.6403 84.4258 71.1434 79.5796 76.6579 73.713C79.1339 70.5881 81.271 67.2078 83.0331 63.6293C83.1606 63.3453 83.2739 63.047 83.3872 62.7488C78.3013 62.8766 70.7503 63.3311 66.5285 64.6377C58.9491 68.2593 51.5822 72.2644 44.3286 76.4966V76.5534Z" fill="url(#paint15_radial_3_4205)"/>
<path fill-rule="evenodd" clip-rule="evenodd" d="M68.6677 57.1531C67.6778 59.5796 66.9604 62.109 66.5286 64.6946C70.7787 63.388 78.3014 62.9335 83.3873 62.8057C78.2401 61.611 73.2853 59.6987 68.6677 57.1248V57.1531Z" fill="url(#paint16_radial_3_4205)"/>
<g style="mix-blend-mode:screen">
<path fill-rule="evenodd" clip-rule="evenodd" d="M16.9014 29.3166C20.9983 28.3416 25.0336 27.1228 28.9859 25.6666C33.7385 22.5663 38.2993 19.1799 42.643 15.5261C38.3928 19.3891 33.4627 23.8345 30.7284 27.0016C30.8637 29.454 31.2723 31.8835 31.9468 34.2448C30.9765 32.0046 29.6566 29.9335 28.0367 28.1094C24.3 28.2326 20.5779 28.6361 16.9014 29.3166Z" fill="url(#paint17_radial_3_4205)"/>
</g>
<path style="mix-blend-mode:screen" fill-rule="evenodd" clip-rule="evenodd" d="M32.2725 35.4379C32.5926 36.7229 32.7074 38.0508 32.6125 39.3719C29.1033 44.5032 25.2753 49.4079 21.1514 54.0571C25.3307 50.052 29.3824 45.9476 33.1509 41.5591C33.668 41.3722 34.2169 41.2901 34.7659 41.3176C37.3526 42.8384 40.0468 44.1675 42.827 45.2943C39.6595 43.5292 36.6705 41.4602 33.9017 39.1163C33.1782 37.9712 32.6112 36.7341 32.2158 35.4379H32.2725Z" fill="url(#paint18_radial_3_4205)"/>
<path style="mix-blend-mode:screen" fill-rule="evenodd" clip-rule="evenodd" d="M44.5129 13.7934C45.5755 12.5578 46.6239 11.3223 47.7289 10.1009C47.036 8.33682 46.2021 6.6317 45.2355 5.0022C46.4316 6.4879 47.525 8.05383 48.5081 9.68898C50.1713 9.27061 51.8611 8.96689 53.5657 8.78002C51.8312 9.19537 50.1489 9.80518 48.5506 10.5979C47.1354 11.572 45.7865 12.6395 44.5129 13.7934Z" fill="url(#paint19_radial_3_4205)"/>
<g style="mix-blend-mode:screen">
<path fill-rule="evenodd" clip-rule="evenodd" d="M25.5149 27.2999C26.6094 27.1402 27.7213 27.1402 28.8158 27.2999C29.4505 28.0628 29.9707 28.9144 30.3601 29.8279C30.0304 28.8842 29.8302 27.9 29.765 26.9022C31.0915 25.4785 32.5113 24.1453 34.0151 22.9114C32.3718 24.1186 30.7425 25.2831 29.0567 26.3057C27.9085 26.7473 26.7295 27.1033 25.5291 27.3709L25.5149 27.2999Z" fill="url(#paint20_radial_3_4205)"/>
</g>
<path fill-rule="evenodd" clip-rule="evenodd" d="M50.0382 16.0375C48.4956 17.3186 47.038 18.6991 45.6747 20.1704C44.4563 21.3491 42.5012 22.3007 41.9487 23.9056C41.2545 25.9507 43.1954 28.0952 46.3405 28.3651C48.7527 28.541 51.1774 28.3301 53.5232 27.7402C56.3567 26.7886 59.4451 25.3968 60.9043 22.7125C62.0235 20.6532 61.3576 16.847 59.2042 15.7534C57.0508 14.6598 52.1207 14.4326 50.0382 16.0375Z" fill="url(#paint21_radial_3_4205)"/>
<path fill-rule="evenodd" clip-rule="evenodd" d="M47.7147 31.1346C45.3912 31.9299 42.8128 33.975 42.742 36.7019C42.6712 39.7411 47.4313 39.8974 49.5989 39.9258C50.5859 39.9412 51.5388 39.5631 52.2481 38.8748C53.6648 37.3126 55.4782 31.2624 52.7581 30.6943C51.068 30.3856 49.3261 30.5376 47.7147 31.1346Z" fill="url(#paint22_radial_3_4205)"/>
<path fill-rule="evenodd" clip-rule="evenodd" d="M31.0682 11.8477C30.2465 13.4526 30.119 17.6139 31.8474 18.7785C33.8024 20.0993 43.0819 13.9923 41.0418 11.5353C39.0018 9.07827 31.7057 10.6121 31.1249 11.8477H31.0682Z" fill="url(#paint23_radial_3_4205)"/>
<path fill-rule="evenodd" clip-rule="evenodd" d="M33.6043 46.6292C30.6575 47.1973 27.5124 52.2249 26.8182 55.1506C26.124 58.0762 27.4558 59.8941 28.915 59.3118C32.1734 58.0194 41.3678 54.2842 41.977 50.336C42.0861 49.8729 42.0981 49.3921 42.0122 48.9241C41.9263 48.4562 41.7444 48.0112 41.4781 47.6173C41.2117 47.2235 40.8667 46.8894 40.4648 46.6362C40.063 46.3829 39.6131 46.2161 39.1436 46.1463C37.2802 45.9648 35.3995 46.1188 33.5901 46.6007L33.6043 46.6292Z" fill="url(#paint24_radial_3_4205)"/>
<path fill-rule="evenodd" clip-rule="evenodd" d="M30.6716 64.2685C29.9066 65.5467 29.0849 68.7138 30.3174 70.1341C31.5499 71.5543 35.7434 69.6938 37.0326 68.7848C38.2504 67.9562 39.2279 66.8195 39.866 65.4899C40.4043 64.3111 39.866 60.3345 38.2793 60.1925C35.0775 59.9084 31.6774 62.5784 30.6716 64.2685Z" fill="url(#paint25_radial_3_4205)"/>
<path fill-rule="evenodd" clip-rule="evenodd" d="M43.9321 24.6298C45.3488 22.5705 47.7856 22.0308 50.7465 18.6364C51.405 17.7845 52.1505 17.0039 52.9707 16.3073C53.4937 15.8497 54.103 15.502 54.7625 15.2849C55.422 15.0678 56.1183 14.9856 56.81 15.0432C54.7983 14.532 51.3557 14.5746 49.8256 15.7392C48.3192 17.0666 46.8996 18.4897 45.5755 19.9999C44.3571 21.1929 42.3454 22.2012 41.7929 23.8061C41.2404 25.4109 42.3171 26.8738 44.0455 27.6975C43.8148 27.5122 43.6265 27.2794 43.4932 27.015C43.3598 26.7505 43.2845 26.4604 43.2724 26.1643C43.2604 25.8682 43.3118 25.573 43.4231 25.2985C43.5345 25.024 43.7032 24.7766 43.918 24.573L43.9321 24.6298Z" fill="url(#paint26_radial_3_4205)"/>
<path fill-rule="evenodd" clip-rule="evenodd" d="M44.4137 39.102C43.9179 37.2273 44.5412 36.4178 46.0571 34.8413C47.5729 33.2649 52.0922 30.7937 54.1606 32.782C54.1606 31.6884 53.7781 30.68 52.8431 30.4812C51.0608 30.1962 49.2358 30.3572 47.5305 30.9499C45.1929 31.7594 42.6712 34.0034 42.6003 36.6308C42.6228 37.1684 42.8084 37.6863 43.1325 38.1152C43.4566 38.5442 43.9036 38.8637 44.4137 39.031V39.102Z" fill="url(#paint27_radial_3_4205)"/>
<path fill-rule="evenodd" clip-rule="evenodd" d="M27.6258 55.5199C28.9989 52.7258 31.2833 50.4859 34.1001 49.1714C35.8569 48.3193 39.4695 47.666 41.3962 48.4329C41.5915 48.5192 41.7729 48.634 41.9345 48.7738C41.7922 48.0856 41.4453 47.4567 40.9396 46.9699C40.4338 46.4832 39.7929 46.1614 39.1011 46.047C37.1992 45.8125 35.2694 45.977 33.4343 46.5298C30.53 47.2968 27.3708 52.2108 26.6624 55.179C26.4302 55.8419 26.376 56.5544 26.5054 57.2449C26.6347 57.9355 26.9429 58.5797 27.3991 59.1131C27.1127 58.5499 26.9802 57.9208 27.015 57.2897C27.0498 56.6585 27.2508 56.0479 27.5974 55.5199H27.6258Z" fill="url(#paint28_radial_3_4205)"/>
<path fill-rule="evenodd" clip-rule="evenodd" d="M32.2301 12.842C33.0518 12.0892 36.8769 12.0466 37.9677 12.1602C38.5561 12.1761 39.1203 12.3978 39.5628 12.7869C40.0052 13.176 40.2979 13.7079 40.3903 14.2906C41.2403 13.2538 41.6654 12.1176 41.0845 11.4501C39.0303 8.97893 31.5501 10.598 30.9267 11.8194C30.1192 13.4101 30.0909 17.5003 31.7342 18.7643C31.2101 18.1252 30.7851 16.6908 31.4367 14.3758C31.5644 13.8127 31.8381 13.2934 32.2301 12.8704V12.842Z" fill="url(#paint29_radial_3_4205)"/>
<path fill-rule="evenodd" clip-rule="evenodd" d="M31.7767 65.1916C33.3368 63.0779 35.5799 61.5721 38.1235 60.9309C38.3345 60.8747 38.5545 60.8608 38.7709 60.89C38.9873 60.9193 39.1958 60.9911 39.3844 61.1013C39.2735 60.8479 39.108 60.6223 38.8998 60.4405C38.6916 60.2588 38.4458 60.1256 38.1802 60.0504C34.9926 59.7663 31.5075 62.5216 30.5016 64.2116C29.7366 65.4899 28.9574 68.6996 30.19 70.134C30.4812 70.4022 30.8467 70.5755 31.2383 70.6311C30.1899 69.0689 30.8983 66.6687 31.7767 65.1774V65.1916Z" fill="url(#paint30_radial_3_4205)"/>
<path style="mix-blend-mode:screen" fill-rule="evenodd" clip-rule="evenodd" d="M32.4 13.1118C31.21 14.2622 33.4909 15.8528 34.3976 16.2221C35.8143 16.8328 38.6477 15.4126 39.3277 13.9923C39.3632 13.8693 39.3662 13.7392 39.3364 13.6147C39.3066 13.4902 39.245 13.3757 39.1577 13.2822C38.166 11.862 33.3209 12.217 32.4 13.1118Z" fill="url(#paint31_radial_3_4205)"/>
<path style="mix-blend-mode:screen" fill-rule="evenodd" clip-rule="evenodd" d="M54.0191 16.2505C52.744 17.0174 50.9873 18.8069 51.0298 19.5738C51.0723 20.3407 52.8574 20.0993 54.3733 20.781C56.215 21.6048 57.6458 24.1754 59.0484 23.9056C60.8901 23.5363 61.301 20.8378 60.9326 19.2472C60.7718 18.5337 60.5143 17.8456 60.1675 17.2021C59.8952 16.7806 59.5131 16.4417 59.0626 16.2221C58.3074 15.7453 57.4332 15.4923 56.5408 15.4923C55.6484 15.4923 54.7742 15.7453 54.0191 16.2221V16.2505Z" fill="url(#paint32_radial_3_4205)"/>
<path style="mix-blend-mode:screen" fill-rule="evenodd" clip-rule="evenodd" d="M49.3014 34.5431C50.1089 34.8413 50.9873 35.1253 51.894 35.4662C53.2257 35.9491 53.6082 35.594 53.8207 34.5288C53.92 34.1134 53.92 33.6803 53.8207 33.2649C53.7785 33.1254 53.7076 32.9964 53.6124 32.8863C53.5172 32.7761 53.3999 32.6874 53.2682 32.6257C51.8251 32.3321 50.3252 32.5426 49.018 33.2223C48.0122 33.8614 48.5789 34.259 49.3297 34.5431H49.3014Z" fill="url(#paint33_radial_3_4205)"/>
<path style="mix-blend-mode:screen" fill-rule="evenodd" clip-rule="evenodd" d="M32.9241 50.336C31.9466 51.245 32.6408 51.7563 33.0374 51.9409C34.3661 52.5112 35.7768 52.8659 37.2167 52.9919C38.3642 53.1197 40.7301 52.5232 41.2543 51.2592C41.4668 50.7195 41.6935 49.5549 41.2543 49.072C41.004 48.8301 40.6795 48.68 40.3335 48.646C38.2934 48.3335 34.5108 48.8448 32.9241 50.336Z" fill="url(#paint34_radial_3_4205)"/>
<path style="mix-blend-mode:screen" fill-rule="evenodd" clip-rule="evenodd" d="M35.5309 64.2258C36.5084 64.4105 39.8802 64.7229 39.781 63.1181C39.7134 62.4816 39.4101 61.8937 38.931 61.4706C38.7344 61.3393 38.5011 61.2746 38.2651 61.2859C37.3794 61.4033 36.5237 61.6876 35.7434 62.1239C34.6667 62.763 34.6667 64.0412 35.6018 64.2258H35.5309Z" fill="url(#paint35_radial_3_4205)"/>
<path fill-rule="evenodd" clip-rule="evenodd" d="M73.2863 35.0259C70.7928 37 65.0127 43.4053 67.0811 47.0695C68.7811 50.0519 75.5813 46.757 77.5364 45.4504C79.4914 44.1438 79.7748 40.2807 79.3498 38.0794C78.7973 35.2389 75.638 33.1654 73.2863 35.0259Z" fill="url(#paint36_radial_3_4205)"/>
<path fill-rule="evenodd" clip-rule="evenodd" d="M77.2955 23.9908C76.8953 23.9512 76.4914 24.0049 76.1153 24.1478C75.7393 24.2907 75.4013 24.5189 75.1278 24.8145C74.0792 26.1091 73.3468 27.6313 72.9887 29.2598C72.6203 30.9499 75.5104 32.5548 76.8987 32.6116C77.4725 32.6486 78.0471 32.5526 78.5778 32.3309C79.1085 32.1092 79.5811 31.7679 79.9589 31.3334C81.0072 29.9131 79.463 24.2322 77.2955 23.9908Z" fill="url(#paint37_radial_3_4205)"/>
<path fill-rule="evenodd" clip-rule="evenodd" d="M75.4963 44.6552C73.597 45.8962 71.4589 46.7236 69.2203 47.0837C67.3361 47.3536 66.6277 45.9191 66.7269 44.4705C66.5042 45.391 66.6095 46.3606 67.0244 47.2115C68.7103 50.194 75.7797 46.9559 77.7914 45.6493C79.8031 44.3427 79.8456 40.4513 79.4206 38.2499C79.2924 37.6806 79.0773 37.1345 78.7831 36.6309C79.1594 38.7141 78.8146 40.8638 77.8056 42.7237C77.1505 43.494 76.3697 44.1471 75.4963 44.6552Z" fill="url(#paint38_radial_3_4205)"/>
<path fill-rule="evenodd" clip-rule="evenodd" d="M76.7854 31.8731C75.9355 32.0889 75.0349 31.9614 74.2778 31.518C75.0028 32.1253 75.8711 32.536 76.7996 32.711C77.4121 32.7371 78.023 32.63 78.5903 32.3971C79.1576 32.1642 79.6679 31.811 80.0863 31.3618C81.0638 30.041 79.6755 24.9566 77.7488 24.0902C79.0805 25.7377 79.803 28.5782 78.6271 30.3819C78.1567 31.0176 77.519 31.5094 76.7854 31.8021V31.8731Z" fill="url(#paint39_radial_3_4205)"/>
<path style="mix-blend-mode:screen" fill-rule="evenodd" clip-rule="evenodd" d="M73.6545 35.0402C72.1717 36.1172 70.8667 37.4208 69.7869 38.9032C67.8744 41.5591 70.3536 41.204 72.6203 40.5223C74.1079 40.0536 77.8621 38.6192 77.5788 36.5598C77.4773 36.1664 77.2842 35.8027 77.0153 35.4985C76.7464 35.1944 76.4094 34.9585 76.032 34.8102C75.6545 34.6619 75.2474 34.6054 74.844 34.6454C74.4405 34.6854 74.0523 34.8207 73.7111 35.0402H73.6545Z" fill="url(#paint40_radial_3_4205)"/>
<path style="mix-blend-mode:screen" fill-rule="evenodd" clip-rule="evenodd" d="M76.0063 24.4026C74.9155 24.8287 73.8671 27.0301 73.4704 28.0242C72.4788 30.5664 77.0972 26.8738 77.5506 26.2773C78.0039 25.6808 78.1173 24.1754 77.1256 24.147C76.739 24.1547 76.3581 24.2417 76.0063 24.4026Z" fill="url(#paint41_radial_3_4205)"/>
<path fill-rule="evenodd" clip-rule="evenodd" d="M19.7345 32.1145C17.4098 32.5993 15.2543 33.6919 13.4869 35.2816C11.4893 37.2415 8.92508 43.4196 10.3985 46.118C10.8256 46.9078 11.4336 47.5849 12.1724 48.0934C12.9112 48.602 13.7598 48.9277 14.6486 49.0437C17.3542 49.2029 20.0317 48.4202 22.228 46.8281C24.2539 45.2801 25.3022 43.0645 26.8748 41.0478C27.9685 39.7901 28.9721 38.4565 29.8782 37.0569C31.2949 34.6283 29.014 32.1287 27.2714 31.8305C24.7726 31.3204 22.1882 31.4178 19.7345 32.1145Z" fill="url(#paint42_radial_3_4205)"/>
<path fill-rule="evenodd" clip-rule="evenodd" d="M14.8471 37.5539C17.213 35.1253 23.6874 33.6341 27.0025 33.7903C27.7567 33.8436 28.4727 34.1433 29.0407 34.6435C29.6088 35.1437 29.9976 35.8168 30.1476 36.5597C30.2833 36.0579 30.3173 35.5339 30.2476 35.0187C30.1779 34.5034 30.0059 34.0074 29.7417 33.5599C29.4776 33.1124 29.1267 32.7225 28.7098 32.4133C28.2928 32.104 27.8183 31.8817 27.3142 31.7594C24.8016 31.252 22.2051 31.3444 19.7348 32.0292C17.3767 32.5069 15.1841 33.5938 13.3738 35.1821C11.3762 37.142 8.75531 43.4337 10.2287 46.1321C10.5123 46.5834 10.8554 46.9943 11.2487 47.3535C10.2712 45.2373 11.7162 40.7494 14.8046 37.5539H14.8471Z" fill="url(#paint43_radial_3_4205)"/>
<path style="mix-blend-mode:screen" fill-rule="evenodd" clip-rule="evenodd" d="M17.0004 36.5882C16.1646 37.2984 16.4621 37.8806 16.8588 38.3067C17.8465 39.399 19.1572 40.1456 20.5988 40.4371C22.4119 40.6724 24.2548 40.4829 25.9824 39.8832C27.1441 39.5139 29.5808 37.3978 29.2974 36.0059C29.175 35.6329 28.966 35.2942 28.6877 35.0177C28.4095 34.7412 28.0698 34.5348 27.6966 34.4153C25.6848 33.6484 18.5446 35.2674 17.0004 36.5882Z" fill="url(#paint44_radial_3_4205)"/>
<path style="mix-blend-mode:multiply" fill-rule="evenodd" clip-rule="evenodd" d="M0.467414 47.808C-0.541594 54.0045 0.158961 60.3597 2.4933 66.1858C7.09759 74.5794 18.6154 88.0147 25.0473 91.8352C27.4459 92.383 29.8788 92.7674 32.3292 92.9855C40.8325 92.1172 49.2397 90.4772 57.4474 88.0857C64.6404 84.4826 71.1434 79.6365 76.6579 73.7698C79.1339 70.645 81.271 67.2647 83.0331 63.6862C85.5969 56.8008 86.9393 49.5189 86.9999 42.1697C86.5324 36.4888 85.8665 30.9073 85.0732 25.3542C82.9142 20.9557 80.1637 16.8748 76.8988 13.2254C72.7781 9.5698 68.0375 6.68376 62.9017 4.70403C56.314 3.49683 49.273 2.48846 43.9745 3.17017C37.837 5.48629 31.9354 8.38742 26.3507 11.8336C15.4845 22.9114 4.95838 37.9658 0.467414 47.7654V47.808Z" fill="url(#paint45_radial_3_4205)"/>
<path style="mix-blend-mode:screen" fill-rule="evenodd" clip-rule="evenodd" d="M0.467414 47.808C-0.541594 54.0045 0.158961 60.3597 2.4933 66.1858C7.09759 74.5794 18.6154 88.0147 25.0473 91.8352C27.4459 92.383 29.8788 92.7674 32.3292 92.9855C40.8325 92.1172 49.2397 90.4772 57.4474 88.0857C64.6404 84.4826 71.1434 79.6365 76.6579 73.7698C79.1339 70.645 81.271 67.2647 83.0331 63.6862C85.5969 56.8008 86.9394 49.5189 86.9999 42.1697C86.5324 36.4888 85.8665 30.9073 85.0732 25.3542C82.9142 20.9557 80.1637 16.8748 76.8988 13.2254C72.7781 9.5698 68.0375 6.68376 62.9017 4.70403C56.314 3.49683 49.273 2.48846 43.9745 3.17017C37.837 5.48629 31.9354 8.38742 26.3507 11.8336C15.4845 22.9114 4.95838 37.9658 0.467414 47.7654V47.808Z" fill="url(#paint46_radial_3_4205)"/>
</g>
<g clip-path="url(#clip1_3_4205)">
<path fill-rule="evenodd" clip-rule="evenodd" d="M2.46741 44.8083C1.45841 51.0048 2.15896 57.3599 4.4933 63.1861C9.09759 71.5796 20.6154 85.015 27.0473 88.8354C29.4459 89.3833 31.8788 89.7676 34.3292 89.9858C42.8325 89.1175 51.2397 87.4775 59.4474 85.086C66.6404 81.4829 73.1434 76.6367 78.6579 70.7701C81.1339 67.6452 83.271 64.2649 85.0331 60.6864C87.5969 53.801 88.9393 46.5191 88.9999 39.17C88.5324 33.489 87.8665 27.9075 87.0732 22.3544C84.9142 17.956 82.1637 13.875 78.8988 10.2257C74.7781 6.57004 70.0375 3.684 64.9017 1.70427C58.314 0.497073 51.273 -0.511293 45.9745 0.170418C39.837 2.48654 33.9354 5.38766 28.3507 8.83385C17.4845 19.9117 6.95838 34.9661 2.46741 44.7657V44.8083Z" fill="url(#paint47_radial_3_4205)"/>
<path fill-rule="evenodd" clip-rule="evenodd" d="M2.46753 44.8083C3.23255 44.1692 4.15341 43.388 5.30094 42.3513C9.09772 38.0906 14.1837 31.3303 17.7396 26.6435C21.3664 21.0904 25.2198 14.6426 28.4074 8.87646C17.5413 19.9543 7.01517 35.0087 2.52421 44.8083H2.46753Z" fill="url(#paint48_radial_3_4205)"/>
<path fill-rule="evenodd" clip-rule="evenodd" d="M17.6829 26.6434C22.1616 25.379 26.7067 24.3644 31.2974 23.6042C37.8001 18.5055 44.1611 13.0944 50.3096 7.2857C49.0662 4.80073 47.616 2.42529 45.9745 0.18457C39.837 2.50069 33.9354 5.40177 28.3507 8.84796C25.1631 14.6141 21.2671 21.062 17.6829 26.6151V26.6434Z" fill="url(#paint49_radial_3_4205)"/>
<path fill-rule="evenodd" clip-rule="evenodd" d="M45.9746 0.213074C47.6161 2.4538 49.0664 4.82926 50.3098 7.31422C53.7126 5.95705 57.3437 5.2676 61.0059 5.28331C62.1185 3.92163 63.4323 2.7386 64.9018 1.77531C58.3141 0.568118 51.2731 -0.440248 45.9746 0.241463V0.213074Z" fill="url(#paint50_radial_3_4205)"/>
<path fill-rule="evenodd" clip-rule="evenodd" d="M61.0059 5.25484C63.2159 5.68091 68.9394 8.66339 72.6512 12.356C77.1563 13.6342 83.9848 18.5908 87.0733 22.2976C84.9142 17.8991 82.1638 13.8182 78.8988 10.1688C74.7782 6.51321 70.0376 3.62719 64.9018 1.64746C63.4322 2.61075 62.1184 3.79374 61.0059 5.15541V5.25484Z" fill="url(#paint51_radial_3_4205)"/>
<path fill-rule="evenodd" clip-rule="evenodd" d="M72.6511 12.356C73.7844 21.2466 69.5343 31.4297 62.7341 40.6044C65.1121 45.2838 67.7808 49.809 70.7244 54.1533C75.342 56.7273 80.2967 58.6395 85.4439 59.8343C87.7562 53.1974 88.9764 46.2278 89.0566 39.1983C88.5891 33.5174 87.9231 27.9359 87.1298 22.3828C84.013 18.6192 77.2128 13.6626 72.7077 12.4412L72.6511 12.356Z" fill="url(#paint52_radial_3_4205)"/>
<path fill-rule="evenodd" clip-rule="evenodd" d="M62.6775 40.6045C69.5344 31.4298 73.7845 21.2467 72.5945 12.3561C68.8827 8.66345 63.1591 5.68097 60.9491 5.2549C57.2869 5.23919 53.6558 5.92864 50.253 7.28582C44.1044 13.0946 37.7434 18.5057 31.2407 23.6043C32.8139 27.8452 34.1709 32.1635 35.3067 36.5426C39.3844 39.6114 43.8537 42.1191 48.5954 43.9988C53.3738 43.3499 58.0734 42.2126 62.6208 40.6045H62.6775Z" fill="url(#paint53_radial_3_4205)"/>
<path fill-rule="evenodd" clip-rule="evenodd" d="M35.3634 36.5425C34.2276 32.1635 32.8706 27.8452 31.2974 23.6042C26.7067 24.3645 22.1616 25.3791 17.6829 26.6435C14.1269 31.3303 9.04092 38.0764 5.24414 42.3513C5.87219 46.303 6.94143 50.1714 8.43173 53.8835C12.3753 54.4922 16.3886 54.4922 20.3321 53.8835C25.8143 48.5267 30.8421 42.7216 35.3634 36.5284V36.5425Z" fill="url(#paint54_radial_3_4205)"/>
<path fill-rule="evenodd" clip-rule="evenodd" d="M8.43177 53.8835C6.94147 50.1713 5.87223 46.3029 5.24418 42.3512C4.15331 43.3738 3.23245 44.1691 2.41076 44.8082C1.40176 51.0047 2.10235 57.3599 4.43669 63.186C6.02113 62.8546 7.62537 62.6269 9.2393 62.5043C8.60127 59.6768 8.31106 56.7817 8.37513 53.8835H8.43177Z" fill="url(#paint55_radial_3_4205)"/>
<path fill-rule="evenodd" clip-rule="evenodd" d="M20.318 53.8977C16.3744 54.5064 12.3612 54.5064 8.41763 53.8977C8.35356 56.7959 8.64376 59.6911 9.2818 62.5185C16.6487 69.2362 23.8881 76.1101 30.915 83.1971C32.8906 81.5706 35.0379 80.1656 37.3185 79.0074C32.0625 70.2303 26.3248 61.9646 20.318 53.8977Z" fill="url(#paint56_radial_3_4205)"/>
<path fill-rule="evenodd" clip-rule="evenodd" d="M30.9292 83.1828C23.8456 76.0817 16.6629 69.222 9.29607 62.5043C7.68213 62.6269 6.07785 62.8546 4.49341 63.186C9.09771 71.5796 20.6156 85.0149 27.0474 88.8354C28.1524 87.0743 29.4275 85.1996 30.9292 83.1544V83.1828Z" fill="url(#paint57_radial_3_4205)"/>
<path fill-rule="evenodd" clip-rule="evenodd" d="M20.3179 53.8977C26.2822 61.9504 32.0199 70.2303 37.3184 79.0074C40.5045 77.495 43.5323 75.6681 46.357 73.5537C46.7253 63.6121 47.5328 53.7557 48.6803 43.9987C43.9387 42.119 39.4694 39.6113 35.3917 36.5425C30.8568 42.7374 25.8148 48.5425 20.3179 53.8977Z" fill="url(#paint58_radial_3_4205)"/>
<path fill-rule="evenodd" clip-rule="evenodd" d="M48.652 43.9987C47.5045 53.7557 46.697 63.5979 46.3286 73.5537C53.5822 69.293 60.9491 65.3163 68.5285 61.6948C68.9603 59.1092 69.6777 56.5798 70.6676 54.1533C67.7241 49.809 65.0555 45.2838 62.6775 40.6044C58.1301 42.2125 53.4304 43.3498 48.652 43.9987Z" fill="url(#paint59_radial_3_4205)"/>
<path fill-rule="evenodd" clip-rule="evenodd" d="M46.3286 73.5537C43.5129 75.6665 40.4947 77.4934 37.3184 79.0074C40.7362 78.8484 44.1613 78.9624 47.5612 79.3483C47.037 77.4594 46.7536 75.4852 46.357 73.5537H46.3286Z" fill="url(#paint60_radial_3_4205)"/>
<path fill-rule="evenodd" clip-rule="evenodd" d="M47.5329 79.3482C44.1331 78.9624 40.7081 78.8484 37.2902 79.0073C35.0251 80.1638 32.8922 81.5639 30.9291 83.1828C29.4274 85.1995 28.0957 87.0742 27.0474 88.8637C29.446 89.4116 31.8788 89.7959 34.3293 90.0141C42.8326 89.1458 51.2398 87.5058 59.4475 85.1143C55.6907 82.7977 51.6962 80.8931 47.5329 79.4334V79.3482Z" fill="url(#paint61_radial_3_4205)"/>
<path fill-rule="evenodd" clip-rule="evenodd" d="M46.3286 73.5537C46.7253 75.4852 47.0086 77.4593 47.5328 79.3482C51.6961 80.8079 55.6906 82.7125 59.4473 85.0291C66.6403 81.426 73.1434 76.5799 78.6579 70.7132C81.1339 67.5883 83.271 64.2081 85.0331 60.6296C85.1606 60.3455 85.2739 60.0473 85.3872 59.749C80.3013 59.8768 72.7503 60.3313 68.5285 61.638C60.9491 65.2595 53.5822 69.2646 46.3286 73.4969V73.5537Z" fill="url(#paint62_radial_3_4205)"/>
<path fill-rule="evenodd" clip-rule="evenodd" d="M70.6677 54.1534C69.6778 56.5799 68.9604 59.1092 68.5286 61.6948C72.7787 60.3882 80.3014 59.9337 85.3873 59.8059C80.2401 58.6112 75.2853 56.6989 70.6677 54.125V54.1534Z" fill="url(#paint63_radial_3_4205)"/>
<g style="mix-blend-mode:screen">
<path fill-rule="evenodd" clip-rule="evenodd" d="M18.9014 26.3168C22.9983 25.3418 27.0336 24.123 30.9859 22.6668C35.7385 19.5665 40.2993 16.1802 44.643 12.5264C40.3928 16.3894 35.4627 20.8347 32.7284 24.0019C32.8637 26.4543 33.2723 28.8838 33.9468 31.245C32.9765 29.0048 31.6566 26.9338 30.0367 25.1096C26.3 25.2328 22.5779 25.6364 18.9014 26.3168Z" fill="url(#paint64_radial_3_4205)"/>
</g>
<path style="mix-blend-mode:screen" fill-rule="evenodd" clip-rule="evenodd" d="M34.2725 32.4381C34.5926 33.7232 34.7074 35.051 34.6125 36.3721C31.1033 41.5034 27.2753 46.4082 23.1514 51.0573C27.3307 47.0523 31.3824 42.9478 35.1509 38.5593C35.668 38.3724 36.2169 38.2903 36.7659 38.3178C39.3526 39.8386 42.0468 41.1678 44.827 42.2945C41.6595 40.5294 38.6705 38.4604 35.9017 36.1165C35.1782 34.9715 34.6112 33.7343 34.2158 32.4381H34.2725Z" fill="url(#paint65_radial_3_4205)"/>
<path style="mix-blend-mode:screen" fill-rule="evenodd" clip-rule="evenodd" d="M46.5129 10.7937C47.5755 9.55807 48.6239 8.3225 49.7289 7.10111C49.036 5.33706 48.2021 3.63194 47.2355 2.00244C48.4316 3.48815 49.525 5.05407 50.5081 6.68923C52.1713 6.27085 53.8611 5.96714 55.5657 5.78026C53.8312 6.19562 52.1489 6.80542 50.5506 7.59815C49.1354 8.57225 47.7865 9.63979 46.5129 10.7937Z" fill="url(#paint66_radial_3_4205)"/>
<g style="mix-blend-mode:screen">
<path fill-rule="evenodd" clip-rule="evenodd" d="M27.5149 24.3001C28.6094 24.1405 29.7213 24.1405 30.8158 24.3001C31.4505 25.063 31.9707 25.9147 32.3601 26.8281C32.0304 25.8844 31.8302 24.9002 31.765 23.9025C33.0915 22.4788 34.5113 21.1455 36.0151 19.9116C34.3718 21.1188 32.7425 22.2834 31.0567 23.306C29.9085 23.7475 28.7295 24.1036 27.5291 24.3711L27.5149 24.3001Z" fill="url(#paint67_radial_3_4205)"/>
</g>
<path fill-rule="evenodd" clip-rule="evenodd" d="M52.0382 13.0377C50.4956 14.3188 49.038 15.6994 47.6747 17.1706C46.4563 18.3494 44.5012 19.301 43.9487 20.9058C43.2545 22.9509 45.1954 25.0955 48.3405 25.3653C50.7527 25.5413 53.1774 25.3303 55.5232 24.7404C58.3567 23.7889 61.4451 22.397 62.9043 19.7128C64.0235 17.6534 63.3576 13.8472 61.2042 12.7537C59.0508 11.6601 54.1207 11.4329 52.0382 13.0377Z" fill="url(#paint68_radial_3_4205)"/>
<path fill-rule="evenodd" clip-rule="evenodd" d="M49.7147 28.1348C47.3912 28.9301 44.8128 30.9753 44.742 33.7021C44.6712 36.7414 49.4313 36.8976 51.5989 36.926C52.5859 36.9414 53.5388 36.5634 54.2481 35.875C55.6648 34.3128 57.4782 28.2626 54.7581 27.6945C53.068 27.3858 51.3261 27.5379 49.7147 28.1348Z" fill="url(#paint69_radial_3_4205)"/>
<path fill-rule="evenodd" clip-rule="evenodd" d="M33.0682 8.84796C32.2465 10.4528 32.119 14.6141 33.8474 15.7787C35.8024 17.0995 45.0819 10.9925 43.0418 8.53551C41.0018 6.07851 33.7057 7.61236 33.1249 8.84796H33.0682Z" fill="url(#paint70_radial_3_4205)"/>
<path fill-rule="evenodd" clip-rule="evenodd" d="M35.6043 43.6294C32.6575 44.1975 29.5124 49.2251 28.8182 52.1508C28.124 55.0765 29.4558 56.8944 30.915 56.3121C34.1734 55.0197 43.3678 51.2844 43.977 47.3362C44.0861 46.8731 44.0981 46.3924 44.0122 45.9244C43.9263 45.4564 43.7444 45.0114 43.4781 44.6176C43.2117 44.2237 42.8667 43.8896 42.4648 43.6364C42.063 43.3832 41.6131 43.2164 41.1436 43.1465C39.2802 42.9651 37.3995 43.119 35.5901 43.601L35.6043 43.6294Z" fill="url(#paint71_radial_3_4205)"/>
<path fill-rule="evenodd" clip-rule="evenodd" d="M32.6716 61.2688C31.9066 62.547 31.0849 65.7141 32.3174 67.1343C33.5499 68.5545 37.7434 66.694 39.0326 65.7851C40.2504 64.9565 41.2279 63.8198 41.866 62.4902C42.4043 61.3114 41.866 57.3347 40.2793 57.1927C37.0775 56.9087 33.6774 59.5787 32.6716 61.2688Z" fill="url(#paint72_radial_3_4205)"/>
<path fill-rule="evenodd" clip-rule="evenodd" d="M45.9321 21.63C47.3488 19.5707 49.7856 19.031 52.7465 15.6367C53.405 14.7848 54.1505 14.0042 54.9707 13.3075C55.4937 12.8499 56.103 12.5022 56.7625 12.2851C57.422 12.068 58.1183 11.9858 58.81 12.0435C56.7983 11.5322 53.3557 11.5748 51.8256 12.7394C50.3192 14.0668 48.8996 15.49 47.5755 17.0001C46.3571 18.1931 44.3454 19.2015 43.7929 20.8063C43.2404 22.4112 44.3171 23.874 46.0455 24.6977C45.8148 24.5124 45.6265 24.2797 45.4932 24.0152C45.3598 23.7507 45.2845 23.4607 45.2724 23.1646C45.2604 22.8685 45.3118 22.5733 45.4231 22.2988C45.5345 22.0243 45.7032 21.7768 45.918 21.5732L45.9321 21.63Z" fill="url(#paint73_radial_3_4205)"/>
<path fill-rule="evenodd" clip-rule="evenodd" d="M46.4137 36.1023C45.9179 34.2276 46.5412 33.418 48.0571 31.8416C49.5729 30.2651 54.0922 27.7939 56.1606 29.7823C56.1606 28.6887 55.7781 27.6803 54.8431 27.4814C53.0608 27.1964 51.2358 27.3574 49.5305 27.9501C47.1929 28.7597 44.6712 31.0036 44.6003 33.6311C44.6228 34.1687 44.8084 34.6866 45.1325 35.1155C45.4566 35.5444 45.9036 35.8639 46.4137 36.0313V36.1023Z" fill="url(#paint74_radial_3_4205)"/>
<path fill-rule="evenodd" clip-rule="evenodd" d="M29.6258 52.5201C30.9989 49.726 33.2833 47.4861 36.1001 46.1717C37.8569 45.3196 41.4695 44.6663 43.3962 45.4332C43.5915 45.5194 43.7729 45.6343 43.9345 45.774C43.7922 45.0858 43.4453 44.4569 42.9396 43.9702C42.4338 43.4834 41.7929 43.1617 41.1011 43.0472C39.1992 42.8128 37.2694 42.9772 35.4343 43.5301C32.53 44.297 29.3708 49.211 28.6624 52.1793C28.4302 52.8422 28.376 53.5547 28.5054 54.2452C28.6347 54.9357 28.9429 55.58 29.3991 56.1133C29.1127 55.5502 28.9802 54.921 29.015 54.2899C29.0498 53.6588 29.2508 53.0481 29.5974 52.5201H29.6258Z" fill="url(#paint75_radial_3_4205)"/>
<path fill-rule="evenodd" clip-rule="evenodd" d="M34.2301 9.84221C35.0518 9.08949 38.8769 9.04687 39.9677 9.16049C40.5561 9.17638 41.1203 9.39806 41.5628 9.78713C42.0052 10.1762 42.2979 10.7081 42.3903 11.2908C43.2403 10.2541 43.6654 9.11788 43.0845 8.45037C41.0303 5.97917 33.5501 7.59825 32.9267 8.81965C32.1192 10.4103 32.0909 14.5005 33.7342 15.7646C33.2101 15.1254 32.7851 13.691 33.4367 11.376C33.5644 10.813 33.8381 10.2937 34.2301 9.8706V9.84221Z" fill="url(#paint76_radial_3_4205)"/>
<path fill-rule="evenodd" clip-rule="evenodd" d="M33.7767 62.1918C35.3368 60.0782 37.5799 58.5724 40.1235 57.9312C40.3345 57.8749 40.5545 57.861 40.7709 57.8903C40.9873 57.9195 41.1958 57.9913 41.3844 58.1016C41.2735 57.8482 41.108 57.6225 40.8998 57.4408C40.6916 57.2591 40.4458 57.1258 40.1802 57.0506C36.9926 56.7666 33.5075 59.5218 32.5016 61.2119C31.7366 62.4901 30.9574 65.6998 32.19 67.1343C32.4812 67.4024 32.8467 67.5758 33.2383 67.6314C32.1899 66.0691 32.8983 63.6689 33.7767 62.1777V62.1918Z" fill="url(#paint77_radial_3_4205)"/>
<path style="mix-blend-mode:screen" fill-rule="evenodd" clip-rule="evenodd" d="M34.4 10.112C33.21 11.2624 35.4909 12.8531 36.3976 13.2223C37.8143 13.833 40.6477 12.4128 41.3277 10.9926C41.3632 10.8696 41.3662 10.7395 41.3364 10.615C41.3066 10.4905 41.245 10.3759 41.1577 10.2825C40.166 8.86223 35.3209 9.21729 34.4 10.112Z" fill="url(#paint78_radial_3_4205)"/>
<path style="mix-blend-mode:screen" fill-rule="evenodd" clip-rule="evenodd" d="M56.0191 13.2507C54.744 14.0177 52.9873 15.8071 53.0298 16.5741C53.0723 17.341 54.8574 17.0996 56.3733 17.7813C58.215 18.605 59.6458 21.1756 61.0484 20.9058C62.8901 20.5365 63.301 17.8381 62.9326 16.2474C62.7718 15.5339 62.5143 14.8459 62.1675 14.2023C61.8952 13.7808 61.5131 13.4419 61.0626 13.2223C60.3074 12.7456 59.4332 12.4926 58.5408 12.4926C57.6484 12.4926 56.7742 12.7456 56.0191 13.2223V13.2507Z" fill="url(#paint79_radial_3_4205)"/>
<path style="mix-blend-mode:screen" fill-rule="evenodd" clip-rule="evenodd" d="M51.3014 31.5433C52.1089 31.8416 52.9873 32.1256 53.894 32.4664C55.2257 32.9493 55.6082 32.5943 55.8207 31.5291C55.92 31.1136 55.92 30.6806 55.8207 30.2651C55.7785 30.1256 55.7076 29.9966 55.6124 29.8865C55.5172 29.7764 55.3999 29.6876 55.2682 29.626C53.8251 29.3323 52.3252 29.5429 51.018 30.2225C50.0122 30.8616 50.5789 31.2593 51.3297 31.5433H51.3014Z" fill="url(#paint80_radial_3_4205)"/>
<path style="mix-blend-mode:screen" fill-rule="evenodd" clip-rule="evenodd" d="M34.9241 47.3363C33.9466 48.2452 34.6408 48.7565 35.0374 48.9411C36.3661 49.5114 37.7768 49.8661 39.2167 49.9921C40.3642 50.1199 42.7301 49.5234 43.2543 48.2594C43.4668 47.7197 43.6935 46.5551 43.2543 46.0722C43.004 45.8303 42.6795 45.6802 42.3335 45.6462C40.2934 45.3337 36.5108 45.845 34.9241 47.3363Z" fill="url(#paint81_radial_3_4205)"/>
<path style="mix-blend-mode:screen" fill-rule="evenodd" clip-rule="evenodd" d="M37.5309 61.2261C38.5084 61.4107 41.8802 61.7232 41.781 60.1183C41.7134 59.4818 41.4101 58.8939 40.931 58.4708C40.7344 58.3395 40.5011 58.2748 40.2651 58.2862C39.3794 58.4036 38.5237 58.6879 37.7434 59.1241C36.6667 59.7632 36.6667 61.0414 37.6018 61.2261H37.5309Z" fill="url(#paint82_radial_3_4205)"/>
<path fill-rule="evenodd" clip-rule="evenodd" d="M75.2863 32.0261C72.7928 34.0003 67.0127 40.4055 69.0811 44.0697C70.7811 47.0522 77.5813 43.7572 79.5364 42.4506C81.4914 41.144 81.7748 37.281 81.3498 35.0796C80.7973 32.2392 77.638 30.1656 75.2863 32.0261Z" fill="url(#paint83_radial_3_4205)"/>
<path fill-rule="evenodd" clip-rule="evenodd" d="M79.2955 20.991C78.8953 20.9514 78.4914 21.0052 78.1153 21.1481C77.7393 21.291 77.4013 21.5191 77.1278 21.8148C76.0792 23.1093 75.3468 24.6315 74.9887 26.2601C74.6203 27.9502 77.5104 29.555 78.8987 29.6118C79.4725 29.6489 80.0471 29.5528 80.5778 29.3312C81.1085 29.1095 81.5811 28.7681 81.9589 28.3336C83.0072 26.9134 81.463 21.2325 79.2955 20.991Z" fill="url(#paint84_radial_3_4205)"/>
<path fill-rule="evenodd" clip-rule="evenodd" d="M77.4963 41.6554C75.597 42.8964 73.4589 43.7238 71.2203 44.084C69.3361 44.3538 68.6277 42.9194 68.7269 41.4708C68.5042 42.3913 68.6095 43.3608 69.0244 44.2118C70.7103 47.1943 77.7797 43.9562 79.7914 42.6496C81.8031 41.343 81.8456 37.4515 81.4206 35.2501C81.2924 34.6808 81.0773 34.1348 80.7831 33.6311C81.1594 35.7144 80.8146 37.864 79.8056 39.7239C79.1505 40.4942 78.3697 41.1474 77.4963 41.6554Z" fill="url(#paint85_radial_3_4205)"/>
<path fill-rule="evenodd" clip-rule="evenodd" d="M78.7854 28.8733C77.9355 29.0892 77.0349 28.9617 76.2778 28.5183C77.0028 29.1255 77.8711 29.5363 78.7996 29.7113C79.4121 29.7373 80.023 29.6302 80.5903 29.3973C81.1576 29.1644 81.6679 28.8113 82.0863 28.3621C83.0638 27.0413 81.6755 21.9568 79.7488 21.0905C81.0805 22.7379 81.803 25.5784 80.6271 27.3821C80.1567 28.0178 79.519 28.5096 78.7854 28.8023V28.8733Z" fill="url(#paint86_radial_3_4205)"/>
<path style="mix-blend-mode:screen" fill-rule="evenodd" clip-rule="evenodd" d="M75.6545 32.0405C74.1717 33.1175 72.8667 34.421 71.7869 35.9035C69.8744 38.5593 72.3536 38.2042 74.6203 37.5225C76.1079 37.0538 79.8621 35.6194 79.5788 33.5601C79.4773 33.1666 79.2842 32.8029 79.0153 32.4988C78.7464 32.1947 78.4094 31.9587 78.032 31.8104C77.6545 31.6621 77.2474 31.6057 76.844 31.6456C76.4405 31.6856 76.0523 31.8209 75.7111 32.0405H75.6545Z" fill="url(#paint87_radial_3_4205)"/>
<path style="mix-blend-mode:screen" fill-rule="evenodd" clip-rule="evenodd" d="M78.0063 21.4028C76.9155 21.8289 75.8671 24.0303 75.4704 25.0245C74.4788 27.5667 79.0972 23.8741 79.5506 23.2776C80.0039 22.6811 80.1173 21.1756 79.1256 21.1472C78.739 21.155 78.3581 21.242 78.0063 21.4028Z" fill="url(#paint88_radial_3_4205)"/>
<path fill-rule="evenodd" clip-rule="evenodd" d="M21.7345 29.1148C19.4098 29.5995 17.2543 30.6921 15.4869 32.2819C13.4893 34.2418 10.9251 40.4198 12.3985 43.1182C12.8256 43.9081 13.4336 44.5851 14.1724 45.0937C14.9112 45.6023 15.7598 45.9279 16.6486 46.0439C19.3542 46.2031 22.0317 45.4205 24.228 43.8284C26.2539 42.2803 27.3022 40.0647 28.8748 38.048C29.9685 36.7904 30.9721 35.4568 31.8782 34.0572C33.2949 31.6286 31.014 29.129 29.2714 28.8307C26.7726 28.3207 24.1882 28.4181 21.7345 29.1148Z" fill="url(#paint89_radial_3_4205)"/>
<path fill-rule="evenodd" clip-rule="evenodd" d="M16.8471 34.5542C19.213 32.1256 25.6874 30.6343 29.0025 30.7906C29.7567 30.8438 30.4727 31.1435 31.0407 31.6437C31.6088 32.144 31.9976 32.8171 32.1476 33.56C32.2833 33.0581 32.3173 32.5341 32.2476 32.0189C32.1779 31.5037 32.0059 31.0076 31.7417 30.5601C31.4776 30.1127 31.1267 29.7228 30.7098 29.4135C30.2928 29.1043 29.8183 28.8819 29.3142 28.7596C26.8016 28.2522 24.2051 28.3446 21.7348 29.0294C19.3767 29.5072 17.1841 30.594 15.3738 32.1824C13.3762 34.1423 10.7553 40.4339 12.2287 43.1324C12.5123 43.5837 12.8554 43.9945 13.2487 44.3537C12.2712 42.2376 13.7162 37.7497 16.8046 34.5542H16.8471Z" fill="url(#paint90_radial_3_4205)"/>
<path style="mix-blend-mode:screen" fill-rule="evenodd" clip-rule="evenodd" d="M19.0004 33.5885C18.1646 34.2986 18.4621 34.8809 18.8588 35.307C19.8465 36.3993 21.1572 37.1458 22.5988 37.4373C24.4119 37.6727 26.2548 37.4831 27.9824 36.8834C29.1441 36.5142 31.5808 34.398 31.2974 33.0062C31.175 32.6331 30.966 32.2944 30.6877 32.0179C30.4095 31.7415 30.0698 31.535 29.6966 31.4155C27.6848 30.6486 20.5446 32.2677 19.0004 33.5885Z" fill="url(#paint91_radial_3_4205)"/>
<path style="mix-blend-mode:multiply" fill-rule="evenodd" clip-rule="evenodd" d="M2.46741 44.8083C1.45841 51.0048 2.15896 57.3599 4.4933 63.1861C9.09759 71.5796 20.6154 85.015 27.0473 88.8354C29.4459 89.3833 31.8788 89.7676 34.3292 89.9858C42.8325 89.1175 51.2397 87.4775 59.4474 85.086C66.6404 81.4829 73.1434 76.6367 78.6579 70.7701C81.1339 67.6452 83.271 64.2649 85.0331 60.6864C87.5969 53.801 88.9393 46.5191 88.9999 39.17C88.5324 33.489 87.8665 27.9075 87.0732 22.3544C84.9142 17.956 82.1637 13.875 78.8988 10.2257C74.7781 6.57004 70.0375 3.684 64.9017 1.70427C58.314 0.497073 51.273 -0.511293 45.9745 0.170418C39.837 2.48654 33.9354 5.38766 28.3507 8.83385C17.4845 19.9117 6.95838 34.9661 2.46741 44.7657V44.8083Z" fill="url(#paint92_radial_3_4205)"/>
<path style="mix-blend-mode:screen" fill-rule="evenodd" clip-rule="evenodd" d="M2.46741 44.8083C1.45841 51.0048 2.15896 57.3599 4.4933 63.1861C9.09759 71.5796 20.6154 85.015 27.0473 88.8354C29.4459 89.3833 31.8788 89.7676 34.3292 89.9858C42.8325 89.1175 51.2397 87.4775 59.4474 85.086C66.6404 81.4829 73.1434 76.6367 78.6579 70.7701C81.1339 67.6452 83.271 64.2649 85.0331 60.6864C87.5969 53.801 88.9394 46.5191 88.9999 39.17C88.5324 33.489 87.8665 27.9075 87.0732 22.3544C84.9142 17.956 82.1637 13.875 78.8988 10.2257C74.7781 6.57004 70.0375 3.684 64.9017 1.70427C58.314 0.497073 51.273 -0.511293 45.9745 0.170418C39.837 2.48654 33.9354 5.38766 28.3507 8.83385C17.4845 19.9117 6.95838 34.9661 2.46741 44.7657V44.8083Z" fill="url(#paint93_radial_3_4205)"/>
</g>
<defs>
<radialGradient id="paint0_radial_3_4205" cx="0" cy="0" r="1" gradientUnits="userSpaceOnUse" gradientTransform="translate(37.1156 87.5657) rotate(180) scale(61.6155 80.1758)">
<stop stop-color="#4F4F4F"/>
<stop offset="0.16" stop-color="#414141"/>
<stop offset="0.72" stop-color="#141516"/>
<stop offset="1" stop-color="#030405"/>
</radialGradient>
<radialGradient id="paint1_radial_3_4205" cx="0" cy="0" r="1" gradientUnits="userSpaceOnUse" gradientTransform="translate(11.5307 45.6451) rotate(180) scale(18.3753 31.9968)">
<stop stop-color="#4F4F4F"/>
<stop offset="0.16" stop-color="#414141"/>
<stop offset="0.72" stop-color="#141516"/>
<stop offset="1" stop-color="#030405"/>
</radialGradient>
<radialGradient id="paint2_radial_3_4205" cx="0" cy="0" r="1" gradientUnits="userSpaceOnUse" gradientTransform="translate(29.5979 28.0505) rotate(180) scale(23.1121 23.5613)">
<stop stop-color="#4F4F4F"/>
<stop offset="0.16" stop-color="#414141"/>
<stop offset="0.72" stop-color="#141516"/>
<stop offset="1" stop-color="#030405"/>
</radialGradient>
<radialGradient id="paint3_radial_3_4205" cx="0" cy="0" r="1" gradientUnits="userSpaceOnUse" gradientTransform="translate(49.1031 11.507) scale(51.1431 51.2704)">
<stop/>
<stop offset="1" stop-color="#004A75"/>
</radialGradient>
<radialGradient id="paint4_radial_3_4205" cx="0" cy="0" r="1" gradientUnits="userSpaceOnUse" gradientTransform="translate(70.1234 24.0543) rotate(180) scale(18.4656 18.3887)">
<stop stop-color="#4F4F4F"/>
<stop offset="0.16" stop-color="#414141"/>
<stop offset="0.72" stop-color="#141516"/>
<stop offset="1" stop-color="#030405"/>
</radialGradient>
<radialGradient id="paint5_radial_3_4205" cx="0" cy="0" r="1" gradientUnits="userSpaceOnUse" gradientTransform="translate(71.9605 59.976) rotate(180) scale(18.6462 42.2788)">
<stop stop-color="#4F4F4F"/>
<stop offset="0.16" stop-color="#414141"/>
<stop offset="0.72" stop-color="#141516"/>
<stop offset="1" stop-color="#030405"/>
</radialGradient>
<radialGradient id="paint6_radial_3_4205" cx="0" cy="0" r="1" gradientUnits="userSpaceOnUse" gradientTransform="translate(64.3366 7.97938) scale(89.9772 38.2079)">
<stop stop-color="#777779"/>
<stop offset="1" stop-color="#4F4F4F"/>
</radialGradient>
<radialGradient id="paint7_radial_3_4205" cx="0" cy="0" r="1" gradientUnits="userSpaceOnUse" gradientTransform="translate(28.683 26.3858) scale(65.2192 30.3104)">
<stop stop-color="#777779"/>
<stop offset="1" stop-color="#4F4F4F"/>
</radialGradient>
<radialGradient id="paint8_radial_3_4205" cx="0" cy="0" r="1" gradientUnits="userSpaceOnUse" gradientTransform="translate(3.06581 64.9316) rotate(180) scale(5.15497 18.5531)">
<stop stop-color="#4F4F4F"/>
<stop offset="0.16" stop-color="#414141"/>
<stop offset="0.72" stop-color="#141516"/>
<stop offset="1" stop-color="#030405"/>
</radialGradient>
<radialGradient id="paint9_radial_3_4205" cx="0" cy="0" r="1" gradientUnits="userSpaceOnUse" gradientTransform="translate(30.8261 56.6895) scale(62.5997 28.8938)">
<stop stop-color="#777779"/>
<stop offset="1" stop-color="#4F4F4F"/>
</radialGradient>
<radialGradient id="paint10_radial_3_4205" cx="0" cy="0" r="1" gradientUnits="userSpaceOnUse" gradientTransform="translate(13.7681 90.2501) rotate(180) scale(18.7265 23.4475)">
<stop stop-color="#4F4F4F"/>
<stop offset="0.16" stop-color="#414141"/>
<stop offset="0.72" stop-color="#141516"/>
<stop offset="1" stop-color="#030405"/>
</radialGradient>
<radialGradient id="paint11_radial_3_4205" cx="0" cy="0" r="1" gradientUnits="userSpaceOnUse" gradientTransform="translate(30.4143 79.4509) rotate(180) scale(20.0913 37.8144)">
<stop stop-color="#4F4F4F"/>
<stop offset="0.16" stop-color="#414141"/>
<stop offset="0.72" stop-color="#141516"/>
<stop offset="1" stop-color="#030405"/>
</radialGradient>
<radialGradient id="paint12_radial_3_4205" cx="0" cy="0" r="1" gradientUnits="userSpaceOnUse" gradientTransform="translate(54.709 74.57) rotate(180) scale(17.2412 29.341)">
<stop stop-color="#4F4F4F"/>
<stop offset="0.16" stop-color="#414141"/>
<stop offset="0.72" stop-color="#141516"/>
<stop offset="1" stop-color="#030405"/>
</radialGradient>
<radialGradient id="paint13_radial_3_4205" cx="0" cy="0" r="1" gradientUnits="userSpaceOnUse" gradientTransform="translate(39.6868 81.9992) rotate(180) scale(7.25578 5.15999)">
<stop stop-color="#4F4F4F"/>
<stop offset="0.16" stop-color="#414141"/>
<stop offset="0.72" stop-color="#141516"/>
<stop offset="1" stop-color="#030405"/>
</radialGradient>
<radialGradient id="paint14_radial_3_4205" cx="0" cy="0" r="1" gradientUnits="userSpaceOnUse" gradientTransform="translate(38.8658 92.3471) rotate(180) scale(22.9515 9.86325)">
<stop stop-color="#4F4F4F"/>
<stop offset="0.16" stop-color="#414141"/>
<stop offset="0.72" stop-color="#141516"/>
<stop offset="1" stop-color="#030405"/>
</radialGradient>
<radialGradient id="paint15_radial_3_4205" cx="0" cy="0" r="1" gradientUnits="userSpaceOnUse" gradientTransform="translate(60.9868 86.5071) rotate(180) scale(27.6683 22.5116)">
<stop stop-color="#4F4F4F"/>
<stop offset="0.16" stop-color="#414141"/>
<stop offset="0.72" stop-color="#141516"/>
<stop offset="1" stop-color="#030405"/>
</radialGradient>
<radialGradient id="paint16_radial_3_4205" cx="0" cy="0" r="1" gradientUnits="userSpaceOnUse" gradientTransform="translate(73.7187 64.2389) rotate(180) scale(11.9424 6.74082)">
<stop stop-color="#4F4F4F"/>
<stop offset="0.16" stop-color="#414141"/>
<stop offset="0.72" stop-color="#141516"/>
<stop offset="1" stop-color="#030405"/>
</radialGradient>
<radialGradient id="paint17_radial_3_4205" cx="0" cy="0" r="1" gradientUnits="userSpaceOnUse" gradientTransform="translate(27.88 33.118) rotate(180) scale(18.2348 16.6687)">
<stop stop-color="#4F4F4F"/>
<stop offset="0.16" stop-color="#414141"/>
<stop offset="0.72" stop-color="#141516"/>
<stop offset="1" stop-color="#030405"/>
</radialGradient>
<radialGradient id="paint18_radial_3_4205" cx="0" cy="0" r="1" gradientUnits="userSpaceOnUse" gradientTransform="translate(10714.4 5269.67) scale(248.836 213.748)">
<stop stop-color="#009499"/>
<stop offset="1"/>
</radialGradient>
<radialGradient id="paint19_radial_3_4205" cx="0" cy="0" r="1" gradientUnits="userSpaceOnUse" gradientTransform="translate(4613.36 2283.43) scale(28.5163 27.6924)">
<stop stop-color="#009499"/>
<stop offset="1"/>
</radialGradient>
<radialGradient id="paint20_radial_3_4205" cx="0" cy="0" r="1" gradientUnits="userSpaceOnUse" gradientTransform="translate(29.1402 29.4115) rotate(180) scale(6.02138 6.15907)">
<stop stop-color="#4F4F4F"/>
<stop offset="0.16" stop-color="#414141"/>
<stop offset="0.72" stop-color="#141516"/>
<stop offset="1" stop-color="#030405"/>
</radialGradient>
<radialGradient id="paint21_radial_3_4205" cx="0" cy="0" r="1" gradientUnits="userSpaceOnUse" gradientTransform="translate(51.7523 13.6941) scale(15.768 15.8072)">
<stop stop-color="#00FF19"/>
<stop offset="0.35" stop-color="#00FF19"/>
<stop offset="0.52" stop-color="#00FF19"/>
<stop offset="0.65" stop-color="#00FF19"/>
<stop offset="0.77" stop-color="#00FF19"/>
<stop offset="0.87" stop-color="#00FF19"/>
<stop offset="0.96" stop-color="#00FF19"/>
<stop offset="1" stop-color="#00FF19"/>
</radialGradient>
<radialGradient id="paint22_radial_3_4205" cx="0" cy="0" r="1" gradientUnits="userSpaceOnUse" gradientTransform="translate(5808 2602.39) scale(77.1153 63.3668)">
<stop stop-color="#00FF19"/>
<stop offset="0.35" stop-color="#00FF19"/>
<stop offset="0.52" stop-color="#00FF19"/>
<stop offset="0.65" stop-color="#00FF19"/>
<stop offset="0.77" stop-color="#00FF19"/>
<stop offset="0.87" stop-color="#00FF19"/>
<stop offset="0.96" stop-color="#00FF19"/>
<stop offset="1" stop-color="#00FF19"/>
</radialGradient>
<radialGradient id="paint23_radial_3_4205" cx="0" cy="0" r="1" gradientUnits="userSpaceOnUse" gradientTransform="translate(5401.16 2279.08) scale(70.0744 56.4353)">
<stop stop-color="#00FF19"/>
<stop offset="0.35" stop-color="#00FF19"/>
<stop offset="0.52" stop-color="#00FF19"/>
<stop offset="0.65" stop-color="#00FF19"/>
<stop offset="0.77" stop-color="#00FF19"/>
<stop offset="0.87" stop-color="#00FF19"/>
<stop offset="0.96" stop-color="#00FF19"/>
<stop offset="1" stop-color="#00FF19"/>
</radialGradient>
<radialGradient id="paint24_radial_3_4205" cx="0" cy="0" r="1" gradientUnits="userSpaceOnUse" gradientTransform="translate(7644.36 3868.85) scale(122.13 105.58)">
<stop stop-color="#00FF19"/>
<stop offset="0.35" stop-color="#00FF19"/>
<stop offset="0.52" stop-color="#00FF19"/>
<stop offset="0.65" stop-color="#00FF19"/>
<stop offset="0.77" stop-color="#00FF19"/>
<stop offset="0.87" stop-color="#00FF19"/>
<stop offset="0.96" stop-color="#00FF19"/>
<stop offset="1" stop-color="#00FF19"/>
</radialGradient>
<radialGradient id="paint25_radial_3_4205" cx="0" cy="0" r="1" gradientUnits="userSpaceOnUse" gradientTransform="translate(5157.08 3146.35) scale(89.4954 90.3323)">
<stop stop-color="#00FF19"/>
<stop offset="0.35" stop-color="#00FF19"/>
<stop offset="0.52" stop-color="#00FF19"/>
<stop offset="0.65" stop-color="#00FF19"/>
<stop offset="0.77" stop-color="#00FF19"/>
<stop offset="0.87" stop-color="#00FF19"/>
<stop offset="0.96" stop-color="#11E5C1"/>
<stop offset="1" stop-color="#00FF19"/>
</radialGradient>
<radialGradient id="paint26_radial_3_4205" cx="0" cy="0" r="1" gradientUnits="userSpaceOnUse" gradientTransform="translate(48.114 26.917) rotate(180) scale(10.741 11.5461)">
<stop stop-color="#4F4F4F"/>
<stop offset="0.16" stop-color="#414141"/>
<stop offset="0.72" stop-color="#141516"/>
<stop offset="1" stop-color="#030405"/>
</radialGradient>
<radialGradient id="paint27_radial_3_4205" cx="0" cy="0" r="1" gradientUnits="userSpaceOnUse" gradientTransform="translate(47.5307 38.5748) rotate(180) scale(8.18906 7.79879)">
<stop stop-color="#4F4F4F"/>
<stop offset="0.16" stop-color="#414141"/>
<stop offset="0.72" stop-color="#141516"/>
<stop offset="1" stop-color="#030405"/>
</radialGradient>
<radialGradient id="paint28_radial_3_4205" cx="0" cy="0" r="1" gradientUnits="userSpaceOnUse" gradientTransform="translate(39.5263 45.8499) scale(33.5584 12.9874)">
<stop stop-color="#777779"/>
<stop offset="1" stop-color="#4F4F4F"/>
</radialGradient>
<radialGradient id="paint29_radial_3_4205" cx="0" cy="0" r="1" gradientUnits="userSpaceOnUse" gradientTransform="translate(39.6484 10.0975) scale(23.7421 8.48662)">
<stop stop-color="#777779"/>
<stop offset="1" stop-color="#4F4F4F"/>
</radialGradient>
<radialGradient id="paint30_radial_3_4205" cx="0" cy="0" r="1" gradientUnits="userSpaceOnUse" gradientTransform="translate(37.8554 59.9548) scale(21.3055 10.4543)">
<stop stop-color="#777779"/>
<stop offset="1" stop-color="#4F4F4F"/>
</radialGradient>
<radialGradient id="paint31_radial_3_4205" cx="0" cy="0" r="1" gradientUnits="userSpaceOnUse" gradientTransform="translate(37.0185 9.74584) scale(11.8295 11.8589)">
<stop stop-color="#D2FFF1"/>
<stop offset="1"/>
</radialGradient>
<radialGradient id="paint32_radial_3_4205" cx="0" cy="0" r="1" gradientUnits="userSpaceOnUse" gradientTransform="translate(5164.61 2230) scale(85.3266 71.7648)">
<stop stop-color="#D2FFF1"/>
<stop offset="1"/>
</radialGradient>
<radialGradient id="paint33_radial_3_4205" cx="0" cy="0" r="1" gradientUnits="userSpaceOnUse" gradientTransform="translate(2795.71 902.983) scale(35.2765 20.7115)">
<stop stop-color="#D2FFF1"/>
<stop offset="1"/>
</radialGradient>
<radialGradient id="paint34_radial_3_4205" cx="0" cy="0" r="1" gradientUnits="userSpaceOnUse" gradientTransform="translate(4545.88 1316.79) scale(62.1975 30.4873)">
<stop stop-color="#D2FFF1"/>
<stop offset="1"/>
</radialGradient>
<radialGradient id="paint35_radial_3_4205" cx="0" cy="0" r="1" gradientUnits="userSpaceOnUse" gradientTransform="translate(2453.28 970.413) scale(26.3246 16.744)">
<stop stop-color="#D2FFF1"/>
<stop offset="1"/>
</radialGradient>
<radialGradient id="paint36_radial_3_4205" cx="0" cy="0" r="1" gradientUnits="userSpaceOnUse" gradientTransform="translate(6758.92 3896.93) scale(118.482 128.484)">
<stop stop-color="#00FF19"/>
<stop offset="0.35" stop-color="#00FF19"/>
<stop offset="0.52" stop-color="#00FF19"/>
<stop offset="0.65" stop-color="#00FF19"/>
<stop offset="0.77" stop-color="#00FF19"/>
<stop offset="0.87" stop-color="#00FF19"/>
<stop offset="0.96" stop-color="#00FF19"/>
<stop offset="1" stop-color="#00FF19"/>
</radialGradient>
<radialGradient id="paint37_radial_3_4205" cx="0" cy="0" r="1" gradientUnits="userSpaceOnUse" gradientTransform="translate(3913.56 2353.98) scale(42.4181 49.946)">
<stop stop-color="#00FF19"/>
<stop offset="0.35" stop-color="#00FF19"/>
<stop offset="0.52" stop-color="#00FF19"/>
<stop offset="0.65" stop-color="#00FF19"/>
<stop offset="0.77" stop-color="#00FF19"/>
<stop offset="0.87" stop-color="#00FF19"/>
<stop offset="0.96" stop-color="#00FF19"/>
<stop offset="1" stop-color="#00FF19"/>
</radialGradient>
<radialGradient id="paint38_radial_3_4205" cx="0" cy="0" r="1" gradientUnits="userSpaceOnUse" gradientTransform="translate(77.6127 36.5471) scale(28.201 11.6421)">
<stop stop-color="#777779"/>
<stop offset="1" stop-color="#4F4F4F"/>
</radialGradient>
<radialGradient id="paint39_radial_3_4205" cx="0" cy="0" r="1" gradientUnits="userSpaceOnUse" gradientTransform="translate(79.4551 24.029) scale(13.2733 8.50526)">
<stop stop-color="#777779"/>
<stop offset="1" stop-color="#4F4F4F"/>
</radialGradient>
<radialGradient id="paint40_radial_3_4205" cx="0" cy="0" r="1" gradientUnits="userSpaceOnUse" gradientTransform="translate(4496.29 1799.15) scale(61.892 46.5019)">
<stop stop-color="#D2FFF1"/>
<stop offset="1"/>
</radialGradient>
<radialGradient id="paint41_radial_3_4205" cx="0" cy="0" r="1" gradientUnits="userSpaceOnUse" gradientTransform="translate(2458.74 1306.06) scale(19.678 20.5661)">
<stop stop-color="#D2FFF1"/>
<stop offset="1"/>
</radialGradient>
<radialGradient id="paint42_radial_3_4205" cx="0" cy="0" r="1" gradientUnits="userSpaceOnUse" gradientTransform="translate(9845.15 4872.9) scale(221.107 190.65)">
<stop stop-color="#00FF19"/>
<stop offset="0.35" stop-color="#00FF19"/>
<stop offset="0.52" stop-color="#00FF19"/>
<stop offset="0.65" stop-color="#00FF19"/>
<stop offset="0.77" stop-color="#00FF19"/>
<stop offset="0.87" stop-color="#00FF19"/>
<stop offset="0.96" stop-color="#00FF19"/>
<stop offset="1" stop-color="#00FF19"/>
</radialGradient>
<radialGradient id="paint43_radial_3_4205" cx="0" cy="0" r="1" gradientUnits="userSpaceOnUse" gradientTransform="translate(18.5347 46.3954) rotate(180) scale(14.5109 14.1735)">
<stop stop-color="#4F4F4F"/>
<stop offset="0.16" stop-color="#414141"/>
<stop offset="0.72" stop-color="#141516"/>
<stop offset="1" stop-color="#030405"/>
</radialGradient>
<radialGradient id="paint44_radial_3_4205" cx="0" cy="0" r="1" gradientUnits="userSpaceOnUse" gradientTransform="translate(6280.13 1770.97) scale(124.561 61.219)">
<stop stop-color="#D2FFF1"/>
<stop offset="1"/>
</radialGradient>
<radialGradient id="paint45_radial_3_4205" cx="0" cy="0" r="1" gradientUnits="userSpaceOnUse" gradientTransform="translate(18.5163 20.1703) scale(91.3776 91.6049)">
<stop offset="0.57" stop-color="white"/>
<stop offset="1" stop-color="#3D5A66"/>
</radialGradient>
<radialGradient id="paint46_radial_3_4205" cx="0" cy="0" r="1" gradientUnits="userSpaceOnUse" gradientTransform="translate(75.4254 85.2027) scale(91.3776 91.6049)">
<stop offset="0.04"/>
<stop offset="0.82"/>
<stop offset="0.86" stop-color="#020303"/>
<stop offset="0.89" stop-color="#070B0B"/>
<stop offset="0.91" stop-color="#0F1919"/>
<stop offset="0.92" stop-color="#1B2D2D"/>
<stop offset="0.94" stop-color="#2B4848"/>
<stop offset="0.96" stop-color="#3E6868"/>
<stop offset="0.97" stop-color="#558E8E"/>
<stop offset="0.98" stop-color="#70BBBB"/>
<stop offset="1" stop-color="#99FFFF"/>
</radialGradient>
<radialGradient id="paint47_radial_3_4205" cx="0" cy="0" r="1" gradientUnits="userSpaceOnUse" gradientTransform="translate(39.1156 84.5659) rotate(180) scale(61.6155 80.1758)">
<stop stop-color="#4F4F4F"/>
<stop offset="0.16" stop-color="#414141"/>
<stop offset="0.72" stop-color="#141516"/>
<stop offset="1" stop-color="#030405"/>
</radialGradient>
<radialGradient id="paint48_radial_3_4205" cx="0" cy="0" r="1" gradientUnits="userSpaceOnUse" gradientTransform="translate(13.5307 42.6453) rotate(180) scale(18.3753 31.9968)">
<stop stop-color="#4F4F4F"/>
<stop offset="0.16" stop-color="#414141"/>
<stop offset="0.72" stop-color="#141516"/>
<stop offset="1" stop-color="#030405"/>
</radialGradient>
<radialGradient id="paint49_radial_3_4205" cx="0" cy="0" r="1" gradientUnits="userSpaceOnUse" gradientTransform="translate(31.5979 25.0507) rotate(180) scale(23.1121 23.5613)">
<stop stop-color="#4F4F4F"/>
<stop offset="0.16" stop-color="#414141"/>
<stop offset="0.72" stop-color="#141516"/>
<stop offset="1" stop-color="#030405"/>
</radialGradient>
<radialGradient id="paint50_radial_3_4205" cx="0" cy="0" r="1" gradientUnits="userSpaceOnUse" gradientTransform="translate(51.1031 8.50722) scale(51.1431 51.2704)">
<stop/>
<stop offset="1" stop-color="#004A75"/>
</radialGradient>
<radialGradient id="paint51_radial_3_4205" cx="0" cy="0" r="1" gradientUnits="userSpaceOnUse" gradientTransform="translate(72.1234 21.0545) rotate(180) scale(18.4656 18.3887)">
<stop stop-color="#4F4F4F"/>
<stop offset="0.16" stop-color="#414141"/>
<stop offset="0.72" stop-color="#141516"/>
<stop offset="1" stop-color="#030405"/>
</radialGradient>
<radialGradient id="paint52_radial_3_4205" cx="0" cy="0" r="1" gradientUnits="userSpaceOnUse" gradientTransform="translate(73.9605 56.9762) rotate(180) scale(18.6462 42.2788)">
<stop stop-color="#4F4F4F"/>
<stop offset="0.16" stop-color="#414141"/>
<stop offset="0.72" stop-color="#141516"/>
<stop offset="1" stop-color="#030405"/>
</radialGradient>
<radialGradient id="paint53_radial_3_4205" cx="0" cy="0" r="1" gradientUnits="userSpaceOnUse" gradientTransform="translate(66.3366 4.97962) scale(89.9772 38.2079)">
<stop stop-color="#777779"/>
<stop offset="1" stop-color="#4F4F4F"/>
</radialGradient>
<radialGradient id="paint54_radial_3_4205" cx="0" cy="0" r="1" gradientUnits="userSpaceOnUse" gradientTransform="translate(30.683 23.3861) scale(65.2192 30.3104)">
<stop stop-color="#777779"/>
<stop offset="1" stop-color="#4F4F4F"/>
</radialGradient>
<radialGradient id="paint55_radial_3_4205" cx="0" cy="0" r="1" gradientUnits="userSpaceOnUse" gradientTransform="translate(5.06581 61.9318) rotate(180) scale(5.15497 18.5531)">
<stop stop-color="#4F4F4F"/>
<stop offset="0.16" stop-color="#414141"/>
<stop offset="0.72" stop-color="#141516"/>
<stop offset="1" stop-color="#030405"/>
</radialGradient>
<radialGradient id="paint56_radial_3_4205" cx="0" cy="0" r="1" gradientUnits="userSpaceOnUse" gradientTransform="translate(32.8261 53.6897) scale(62.5997 28.8938)">
<stop stop-color="#777779"/>
<stop offset="1" stop-color="#4F4F4F"/>
</radialGradient>
<radialGradient id="paint57_radial_3_4205" cx="0" cy="0" r="1" gradientUnits="userSpaceOnUse" gradientTransform="translate(15.7681 87.2503) rotate(180) scale(18.7265 23.4475)">
<stop stop-color="#4F4F4F"/>
<stop offset="0.16" stop-color="#414141"/>
<stop offset="0.72" stop-color="#141516"/>
<stop offset="1" stop-color="#030405"/>
</radialGradient>
<radialGradient id="paint58_radial_3_4205" cx="0" cy="0" r="1" gradientUnits="userSpaceOnUse" gradientTransform="translate(32.4143 76.4511) rotate(180) scale(20.0913 37.8144)">
<stop stop-color="#4F4F4F"/>
<stop offset="0.16" stop-color="#414141"/>
<stop offset="0.72" stop-color="#141516"/>
<stop offset="1" stop-color="#030405"/>
</radialGradient>
<radialGradient id="paint59_radial_3_4205" cx="0" cy="0" r="1" gradientUnits="userSpaceOnUse" gradientTransform="translate(56.709 71.5702) rotate(180) scale(17.2412 29.341)">
<stop stop-color="#4F4F4F"/>
<stop offset="0.16" stop-color="#414141"/>
<stop offset="0.72" stop-color="#141516"/>
<stop offset="1" stop-color="#030405"/>
</radialGradient>
<radialGradient id="paint60_radial_3_4205" cx="0" cy="0" r="1" gradientUnits="userSpaceOnUse" gradientTransform="translate(41.6868 78.9995) rotate(180) scale(7.25578 5.15999)">
<stop stop-color="#4F4F4F"/>
<stop offset="0.16" stop-color="#414141"/>
<stop offset="0.72" stop-color="#141516"/>
<stop offset="1" stop-color="#030405"/>
</radialGradient>
<radialGradient id="paint61_radial_3_4205" cx="0" cy="0" r="1" gradientUnits="userSpaceOnUse" gradientTransform="translate(40.8658 89.3474) rotate(180) scale(22.9515 9.86325)">
<stop stop-color="#4F4F4F"/>
<stop offset="0.16" stop-color="#414141"/>
<stop offset="0.72" stop-color="#141516"/>
<stop offset="1" stop-color="#030405"/>
</radialGradient>
<radialGradient id="paint62_radial_3_4205" cx="0" cy="0" r="1" gradientUnits="userSpaceOnUse" gradientTransform="translate(62.9868 83.5074) rotate(180) scale(27.6683 22.5116)">
<stop stop-color="#4F4F4F"/>
<stop offset="0.16" stop-color="#414141"/>
<stop offset="0.72" stop-color="#141516"/>
<stop offset="1" stop-color="#030405"/>
</radialGradient>
<radialGradient id="paint63_radial_3_4205" cx="0" cy="0" r="1" gradientUnits="userSpaceOnUse" gradientTransform="translate(75.7187 61.2391) rotate(180) scale(11.9424 6.74082)">
<stop stop-color="#4F4F4F"/>
<stop offset="0.16" stop-color="#414141"/>
<stop offset="0.72" stop-color="#141516"/>
<stop offset="1" stop-color="#030405"/>
</radialGradient>
<radialGradient id="paint64_radial_3_4205" cx="0" cy="0" r="1" gradientUnits="userSpaceOnUse" gradientTransform="translate(29.88 30.1182) rotate(180) scale(18.2348 16.6687)">
<stop stop-color="#4F4F4F"/>
<stop offset="0.16" stop-color="#414141"/>
<stop offset="0.72" stop-color="#141516"/>
<stop offset="1" stop-color="#030405"/>
</radialGradient>
<radialGradient id="paint65_radial_3_4205" cx="0" cy="0" r="1" gradientUnits="userSpaceOnUse" gradientTransform="translate(10716.4 5266.67) scale(248.836 213.748)">
<stop stop-color="#009499"/>
<stop offset="1"/>
</radialGradient>
<radialGradient id="paint66_radial_3_4205" cx="0" cy="0" r="1" gradientUnits="userSpaceOnUse" gradientTransform="translate(4615.36 2280.43) scale(28.5163 27.6924)">
<stop stop-color="#009499"/>
<stop offset="1"/>
</radialGradient>
<radialGradient id="paint67_radial_3_4205" cx="0" cy="0" r="1" gradientUnits="userSpaceOnUse" gradientTransform="translate(31.1402 26.4118) rotate(180) scale(6.02138 6.15907)">
<stop stop-color="#4F4F4F"/>
<stop offset="0.16" stop-color="#414141"/>
<stop offset="0.72" stop-color="#141516"/>
<stop offset="1" stop-color="#030405"/>
</radialGradient>
<radialGradient id="paint68_radial_3_4205" cx="0" cy="0" r="1" gradientUnits="userSpaceOnUse" gradientTransform="translate(53.7523 10.6943) scale(15.768 15.8072)">
<stop stop-color="#00FF19"/>
<stop offset="0.35" stop-color="#00FF19"/>
<stop offset="0.52" stop-color="#00FF19"/>
<stop offset="0.65" stop-color="#00FF19"/>
<stop offset="0.77" stop-color="#00FF19"/>
<stop offset="0.87" stop-color="#00FF19"/>
<stop offset="0.96" stop-color="#00FF19"/>
<stop offset="1" stop-color="#00FF19"/>
</radialGradient>
<radialGradient id="paint69_radial_3_4205" cx="0" cy="0" r="1" gradientUnits="userSpaceOnUse" gradientTransform="translate(5810 2599.39) scale(77.1153 63.3668)">
<stop stop-color="#00FF19"/>
<stop offset="0.35" stop-color="#00FF19"/>
<stop offset="0.52" stop-color="#00FF19"/>
<stop offset="0.65" stop-color="#00FF19"/>
<stop offset="0.77" stop-color="#00FF19"/>
<stop offset="0.87" stop-color="#00FF19"/>
<stop offset="0.96" stop-color="#00FF19"/>
<stop offset="1" stop-color="#00FF19"/>
</radialGradient>
<radialGradient id="paint70_radial_3_4205" cx="0" cy="0" r="1" gradientUnits="userSpaceOnUse" gradientTransform="translate(5403.16 2276.08) scale(70.0744 56.4353)">
<stop stop-color="#00FF19"/>
<stop offset="0.35" stop-color="#00FF19"/>
<stop offset="0.52" stop-color="#00FF19"/>
<stop offset="0.65" stop-color="#00FF19"/>
<stop offset="0.77" stop-color="#00FF19"/>
<stop offset="0.87" stop-color="#00FF19"/>
<stop offset="0.96" stop-color="#00FF19"/>
<stop offset="1" stop-color="#00FF19"/>
</radialGradient>
<radialGradient id="paint71_radial_3_4205" cx="0" cy="0" r="1" gradientUnits="userSpaceOnUse" gradientTransform="translate(7646.36 3865.85) scale(122.13 105.58)">
<stop stop-color="#00FF19"/>
<stop offset="0.35" stop-color="#00FF19"/>
<stop offset="0.52" stop-color="#00FF19"/>
<stop offset="0.65" stop-color="#00FF19"/>
<stop offset="0.77" stop-color="#00FF19"/>
<stop offset="0.87" stop-color="#00FF19"/>
<stop offset="0.96" stop-color="#00FF19"/>
<stop offset="1" stop-color="#00FF19"/>
</radialGradient>
<radialGradient id="paint72_radial_3_4205" cx="0" cy="0" r="1" gradientUnits="userSpaceOnUse" gradientTransform="translate(5159.08 3143.35) scale(89.4954 90.3323)">
<stop stop-color="#00FF19"/>
<stop offset="0.35" stop-color="#00FF19"/>
<stop offset="0.52" stop-color="#00FF19"/>
<stop offset="0.65" stop-color="#00FF19"/>
<stop offset="0.77" stop-color="#00FF19"/>
<stop offset="0.87" stop-color="#00FF19"/>
<stop offset="0.96" stop-color="#11E5C1"/>
<stop offset="1" stop-color="#00FF19"/>
</radialGradient>
<radialGradient id="paint73_radial_3_4205" cx="0" cy="0" r="1" gradientUnits="userSpaceOnUse" gradientTransform="translate(50.114 23.9172) rotate(180) scale(10.741 11.5461)">
<stop stop-color="#4F4F4F"/>
<stop offset="0.16" stop-color="#414141"/>
<stop offset="0.72" stop-color="#141516"/>
<stop offset="1" stop-color="#030405"/>
</radialGradient>
<radialGradient id="paint74_radial_3_4205" cx="0" cy="0" r="1" gradientUnits="userSpaceOnUse" gradientTransform="translate(49.5307 35.5751) rotate(180) scale(8.18906 7.79879)">
<stop stop-color="#4F4F4F"/>
<stop offset="0.16" stop-color="#414141"/>
<stop offset="0.72" stop-color="#141516"/>
<stop offset="1" stop-color="#030405"/>
</radialGradient>
<radialGradient id="paint75_radial_3_4205" cx="0" cy="0" r="1" gradientUnits="userSpaceOnUse" gradientTransform="translate(41.5263 42.8501) scale(33.5584 12.9874)">
<stop stop-color="#777779"/>
<stop offset="1" stop-color="#4F4F4F"/>
</radialGradient>
<radialGradient id="paint76_radial_3_4205" cx="0" cy="0" r="1" gradientUnits="userSpaceOnUse" gradientTransform="translate(41.6484 7.09773) scale(23.7421 8.48662)">
<stop stop-color="#777779"/>
<stop offset="1" stop-color="#4F4F4F"/>
</radialGradient>
<radialGradient id="paint77_radial_3_4205" cx="0" cy="0" r="1" gradientUnits="userSpaceOnUse" gradientTransform="translate(39.8554 56.955) scale(21.3055 10.4543)">
<stop stop-color="#777779"/>
<stop offset="1" stop-color="#4F4F4F"/>
</radialGradient>
<radialGradient id="paint78_radial_3_4205" cx="0" cy="0" r="1" gradientUnits="userSpaceOnUse" gradientTransform="translate(39.0185 6.74608) scale(11.8295 11.8589)">
<stop stop-color="#D2FFF1"/>
<stop offset="1"/>
</radialGradient>
<radialGradient id="paint79_radial_3_4205" cx="0" cy="0" r="1" gradientUnits="userSpaceOnUse" gradientTransform="translate(5166.61 2227) scale(85.3266 71.7648)">
<stop stop-color="#D2FFF1"/>
<stop offset="1"/>
</radialGradient>
<radialGradient id="paint80_radial_3_4205" cx="0" cy="0" r="1" gradientUnits="userSpaceOnUse" gradientTransform="translate(2797.71 899.983) scale(35.2765 20.7115)">
<stop stop-color="#D2FFF1"/>
<stop offset="1"/>
</radialGradient>
<radialGradient id="paint81_radial_3_4205" cx="0" cy="0" r="1" gradientUnits="userSpaceOnUse" gradientTransform="translate(4547.88 1313.79) scale(62.1975 30.4873)">
<stop stop-color="#D2FFF1"/>
<stop offset="1"/>
</radialGradient>
<radialGradient id="paint82_radial_3_4205" cx="0" cy="0" r="1" gradientUnits="userSpaceOnUse" gradientTransform="translate(2455.28 967.413) scale(26.3246 16.744)">
<stop stop-color="#D2FFF1"/>
<stop offset="1"/>
</radialGradient>
<radialGradient id="paint83_radial_3_4205" cx="0" cy="0" r="1" gradientUnits="userSpaceOnUse" gradientTransform="translate(6760.92 3893.93) scale(118.482 128.484)">
<stop stop-color="#00FF19"/>
<stop offset="0.35" stop-color="#00FF19"/>
<stop offset="0.52" stop-color="#00FF19"/>
<stop offset="0.65" stop-color="#00FF19"/>
<stop offset="0.77" stop-color="#00FF19"/>
<stop offset="0.87" stop-color="#00FF19"/>
<stop offset="0.96" stop-color="#00FF19"/>
<stop offset="1" stop-color="#00FF19"/>
</radialGradient>
<radialGradient id="paint84_radial_3_4205" cx="0" cy="0" r="1" gradientUnits="userSpaceOnUse" gradientTransform="translate(3915.56 2350.98) scale(42.4181 49.946)">
<stop stop-color="#00FF19"/>
<stop offset="0.35" stop-color="#00FF19"/>
<stop offset="0.52" stop-color="#00FF19"/>
<stop offset="0.65" stop-color="#00FF19"/>
<stop offset="0.77" stop-color="#00FF19"/>
<stop offset="0.87" stop-color="#00FF19"/>
<stop offset="0.96" stop-color="#00FF19"/>
<stop offset="1" stop-color="#00FF19"/>
</radialGradient>
<radialGradient id="paint85_radial_3_4205" cx="0" cy="0" r="1" gradientUnits="userSpaceOnUse" gradientTransform="translate(79.6127 33.5473) scale(28.201 11.6421)">
<stop stop-color="#777779"/>
<stop offset="1" stop-color="#4F4F4F"/>
</radialGradient>
<radialGradient id="paint86_radial_3_4205" cx="0" cy="0" r="1" gradientUnits="userSpaceOnUse" gradientTransform="translate(81.4551 21.0292) scale(13.2733 8.50526)">
<stop stop-color="#777779"/>
<stop offset="1" stop-color="#4F4F4F"/>
</radialGradient>
<radialGradient id="paint87_radial_3_4205" cx="0" cy="0" r="1" gradientUnits="userSpaceOnUse" gradientTransform="translate(4498.29 1796.15) scale(61.892 46.5019)">
<stop stop-color="#D2FFF1"/>
<stop offset="1"/>
</radialGradient>
<radialGradient id="paint88_radial_3_4205" cx="0" cy="0" r="1" gradientUnits="userSpaceOnUse" gradientTransform="translate(2460.74 1303.06) scale(19.678 20.5661)">
<stop stop-color="#D2FFF1"/>
<stop offset="1"/>
</radialGradient>
<radialGradient id="paint89_radial_3_4205" cx="0" cy="0" r="1" gradientUnits="userSpaceOnUse" gradientTransform="translate(9847.15 4869.9) scale(221.107 190.65)">
<stop stop-color="#00FF19"/>
<stop offset="0.35" stop-color="#00FF19"/>
<stop offset="0.52" stop-color="#00FF19"/>
<stop offset="0.65" stop-color="#00FF19"/>
<stop offset="0.77" stop-color="#00FF19"/>
<stop offset="0.87" stop-color="#00FF19"/>
<stop offset="0.96" stop-color="#00FF19"/>
<stop offset="1" stop-color="#00FF19"/>
</radialGradient>
<radialGradient id="paint90_radial_3_4205" cx="0" cy="0" r="1" gradientUnits="userSpaceOnUse" gradientTransform="translate(20.5347 43.3956) rotate(180) scale(14.5109 14.1735)">
<stop stop-color="#4F4F4F"/>
<stop offset="0.16" stop-color="#414141"/>
<stop offset="0.72" stop-color="#141516"/>
<stop offset="1" stop-color="#030405"/>
</radialGradient>
<radialGradient id="paint91_radial_3_4205" cx="0" cy="0" r="1" gradientUnits="userSpaceOnUse" gradientTransform="translate(6282.13 1767.97) scale(124.561 61.219)">
<stop stop-color="#D2FFF1"/>
<stop offset="1"/>
</radialGradient>
<radialGradient id="paint92_radial_3_4205" cx="0" cy="0" r="1" gradientUnits="userSpaceOnUse" gradientTransform="translate(20.5163 17.1706) scale(91.3776 91.6049)">
<stop offset="0.57" stop-color="white"/>
<stop offset="1" stop-color="#3D5A66"/>
</radialGradient>
<radialGradient id="paint93_radial_3_4205" cx="0" cy="0" r="1" gradientUnits="userSpaceOnUse" gradientTransform="translate(77.4254 82.2029) scale(91.3776 91.6049)">
<stop offset="0.04"/>
<stop offset="0.82"/>
<stop offset="0.86" stop-color="#020303"/>
<stop offset="0.89" stop-color="#070B0B"/>
<stop offset="0.91" stop-color="#0F1919"/>
<stop offset="0.92" stop-color="#1B2D2D"/>
<stop offset="0.94" stop-color="#2B4848"/>
<stop offset="0.96" stop-color="#3E6868"/>
<stop offset="0.97" stop-color="#558E8E"/>
<stop offset="0.98" stop-color="#70BBBB"/>
<stop offset="1" stop-color="#99FFFF"/>
</radialGradient>
<clipPath id="clip0_3_4205">
<rect width="87" height="90" fill="white" transform="translate(0 2.99976)"/>
</clipPath>
<clipPath id="clip1_3_4205">
<rect width="87" height="90" fill="white" transform="translate(2)"/>
</clipPath>
</defs>
</svg>
