<svg width="1086" height="436" viewBox="0 0 1086 436" fill="none" xmlns="http://www.w3.org/2000/svg">
<path fill-rule="evenodd" clip-rule="evenodd" d="M676.235 429.303H379.74V363.265L515.061 221.004C531.609 202.157 543.967 185.307 552.18 170.447C560.408 155.561 564.403 142.804 564.403 132.115C564.403 114.303 560.514 101.078 553.034 92.1378C545.6 83.253 534.763 78.7023 520.209 78.7023C506.07 78.7023 494.621 84.7149 485.735 96.9335L485.727 96.9447C476.797 109.037 472.27 124.27 472.27 142.774V144.674H371.097V142.774C371.097 116.705 377.619 92.6511 390.663 70.6498C403.711 48.4505 421.83 31.116 444.983 18.6642C468.138 6.21086 493.996 0 522.514 0C568.107 0 603.47 10.5276 628.323 31.857C653.419 53.2288 665.864 83.8672 665.864 123.472C665.864 140.231 662.745 156.598 656.515 172.561L656.512 172.569C650.288 188.324 640.587 204.895 627.453 222.279C614.51 239.47 593.613 262.479 564.814 291.281L513.422 350.601H676.235V429.303ZM509.262 352.501L563.422 289.986C592.231 261.177 613.069 238.226 625.937 221.133C638.997 203.848 648.599 187.427 654.745 171.871C660.891 156.122 663.964 139.989 663.964 123.472C663.964 84.2926 651.672 54.2356 627.089 33.3014C602.698 12.3671 567.839 1.89999 522.514 1.89999C494.281 1.89999 468.738 8.04582 445.883 20.3375C423.028 32.6292 405.167 49.7223 392.299 71.6168C379.748 92.7842 373.318 115.87 373.009 140.874C373.001 141.506 372.997 142.139 372.997 142.774H470.37C470.37 123.952 474.98 108.3 484.198 95.816C493.417 83.1402 505.421 76.8023 520.209 76.8023C535.19 76.8023 546.617 81.5077 554.491 90.9185C562.366 100.329 566.303 114.061 566.303 132.115C566.303 154.393 549.69 184.45 516.464 222.286L381.64 364.024V427.403H674.335V352.501H509.262Z" fill="url(#paint0_linear_3_3860)"/>
<path fill-rule="evenodd" clip-rule="evenodd" d="M877.47 175.156H925.176C943.042 175.156 956.092 170.784 964.683 162.374C973.267 153.972 977.724 141.222 977.724 123.76C977.724 110.364 973.555 99.6361 965.317 91.3978L965.309 91.3904L965.302 91.3829C957.108 83.0072 945.459 78.7023 930.073 78.7023C917.606 78.7023 906.79 82.3196 897.543 89.5305C888.549 96.6921 884.151 105.476 884.151 115.982V117.882H783.266V115.982C783.266 93.5182 789.525 73.4439 802.055 55.8233C814.567 38.2292 831.846 24.5814 853.82 14.8574C875.98 4.94427 900.254 0 926.616 0C973.561 0 1010.71 10.722 1037.85 32.3928C1065.04 54.1075 1078.61 83.9667 1078.61 121.744C1078.61 140.216 1072.9 157.681 1061.56 174.103C1051.09 189.349 1036.1 201.867 1016.67 211.693C1037.29 219.86 1053.7 231.829 1065.82 247.628C1078.8 264.34 1085.24 285.031 1085.24 309.576C1085.24 347.595 1070.57 378.116 1041.29 400.957C1012.06 423.754 973.781 435.065 926.616 435.065C898.906 435.065 873.101 429.831 849.222 419.348L849.213 419.344L849.205 419.34C825.5 408.654 807.43 393.936 795.101 375.149L795.096 375.142C782.784 356.184 776.64 334.694 776.64 310.728V308.828H878.101V310.728C878.101 323.009 883.021 333.653 893.035 342.739C903.026 351.805 915.33 356.362 930.073 356.362C946.801 356.362 959.934 351.768 969.684 342.758C979.455 333.537 984.35 321.855 984.35 307.559C984.35 286.693 979.13 272.391 969.186 264.075C959.069 255.613 944.958 251.266 926.616 251.266H877.47V175.156ZM970.982 344.146C960.803 353.557 947.166 358.262 930.073 358.262C914.901 358.262 902.129 353.557 891.758 344.146C881.387 334.735 876.201 323.596 876.201 310.728H778.54C778.54 311.363 778.545 311.997 778.553 312.628C778.87 335.485 784.915 355.978 796.69 374.107C808.789 392.545 826.554 407.045 849.985 417.608C873.608 427.979 899.152 433.165 926.616 433.165C973.478 433.165 1011.31 421.929 1040.12 399.459C1068.93 376.988 1083.34 347.027 1083.34 309.576C1083.34 285.377 1077 265.115 1064.32 248.79C1052.12 232.889 1035.47 220.904 1014.36 212.835C1013.55 212.523 1012.72 212.216 1011.89 211.915C1012.69 211.536 1013.48 211.154 1014.27 210.767C1034.22 200.941 1049.47 188.36 1060 173.023C1071.14 156.89 1076.71 139.797 1076.71 121.744C1076.71 84.4846 1063.36 55.1959 1036.67 33.8775C1009.97 12.5592 973.286 1.89999 926.616 1.89999C900.497 1.89999 876.489 6.79745 854.595 16.5924C832.892 26.1952 815.895 39.6393 803.604 56.9244C791.666 73.7124 785.525 92.7649 785.181 114.082C785.171 114.713 785.166 115.347 785.166 115.982H882.251C882.251 104.843 886.956 95.5279 896.367 88.0377C905.97 80.5475 917.205 76.8023 930.073 76.8023C945.822 76.8023 958.018 81.2197 966.66 90.0543C975.303 98.6969 979.624 109.932 979.624 123.76C979.624 159.291 961.475 177.056 925.176 177.056H879.37V249.366H926.616C945.246 249.366 959.842 253.783 970.405 262.618C980.969 271.452 986.25 286.433 986.25 307.559C986.25 322.348 981.161 334.543 970.982 344.146Z" fill="url(#paint1_linear_3_3860)"/>
<path fill-rule="evenodd" clip-rule="evenodd" d="M198 429.403H96.0741V118.318L0 146.424V68.0314L186.626 3.40332H198V429.403ZM98.1319 115.57V427.343H195.942V5.46378H186.971L2.05781 69.499V143.676L98.1319 115.57Z" fill="url(#paint2_linear_3_3860)"/>
<defs>
<linearGradient id="paint0_linear_3_3860" x1="527" y1="190.403" x2="527" y2="427.403" gradientUnits="userSpaceOnUse">
<stop stop-color="white"/>
<stop offset="1" stop-color="white" stop-opacity="0"/>
</linearGradient>
<linearGradient id="paint1_linear_3_3860" x1="936" y1="190.403" x2="951" y2="408.403" gradientUnits="userSpaceOnUse">
<stop stop-color="white"/>
<stop offset="1" stop-color="white" stop-opacity="0"/>
</linearGradient>
<linearGradient id="paint2_linear_3_3860" x1="99" y1="3.40332" x2="99" y2="429.403" gradientUnits="userSpaceOnUse">
<stop stop-color="white"/>
<stop offset="1" stop-color="white" stop-opacity="0"/>
</linearGradient>
</defs>
</svg>
