<svg width="12" height="22" viewBox="0 0 12 22" fill="none" xmlns="http://www.w3.org/2000/svg">
<path d="M3.16785 12.091C3.08866 12.091 1.34634 12.091 0.554374 12.091C0.131994 12.091 0 11.9329 0 11.5378C0 10.484 0 9.40393 0 8.35018C0 7.92868 0.158393 7.79696 0.554374 7.79696H3.16785C3.16785 7.71793 3.16785 6.18999 3.16785 5.47871C3.16785 4.42496 3.35264 3.4239 3.88062 2.50187C4.43499 1.55349 5.22696 0.921242 6.23011 0.55243C6.89008 0.315336 7.55005 0.209961 8.26282 0.209961H10.8499C11.2195 0.209961 11.3779 0.368023 11.3779 0.736836V3.74002C11.3779 4.10884 11.2195 4.2669 10.8499 4.2669C10.1371 4.2669 9.42436 4.2669 8.71159 4.29324C7.99883 4.29324 7.62924 4.63571 7.62924 5.37334C7.60285 6.16365 7.62924 6.92762 7.62924 7.74427H10.6915C11.1139 7.74427 11.2723 7.90234 11.2723 8.32384V11.5114C11.2723 11.9329 11.1403 12.0647 10.6915 12.0647C9.74115 12.0647 7.70844 12.0647 7.62924 12.0647V20.6527C7.62924 21.1006 7.49725 21.2586 7.02207 21.2586C5.91332 21.2586 4.83097 21.2586 3.72223 21.2586C3.32625 21.2586 3.16785 21.1006 3.16785 20.7054C3.16785 17.9393 3.16785 12.17 3.16785 12.091Z" fill="white"/>
</svg>
