<svg width="24" height="25" viewBox="0 0 24 25" fill="none" xmlns="http://www.w3.org/2000/svg">
<path d="M12.2367 24.21C12.1572 24.21 12.0777 24.21 11.9977 24.2096C10.1164 24.2142 8.37813 24.1664 6.68763 24.0635C5.13777 23.9692 3.72304 23.4336 2.59617 22.5148C1.50885 21.6282 0.766326 20.4294 0.389297 18.9521C0.0611596 17.6659 0.0437639 16.4034 0.0271006 15.1823C0.0150152 14.3061 0.00256357 13.2679 0 12.2121C0.00256357 11.1519 0.0150152 10.1137 0.0271006 9.23757C0.0437639 8.01662 0.0611596 6.7541 0.389297 5.46778C0.766326 3.99048 1.50885 2.79169 2.59617 1.90509C3.72304 0.986263 5.13777 0.450678 6.68782 0.356378C8.37831 0.253656 10.117 0.205682 12.0023 0.21026C13.8841 0.206231 15.6219 0.253656 17.3124 0.356378C18.8622 0.450678 20.277 0.986263 21.4038 1.90509C22.4913 2.79169 23.2337 3.99048 23.6107 5.46778C23.9388 6.75392 23.9562 8.01662 23.9729 9.23757C23.985 10.1137 23.9976 11.1519 24 12.2077V12.2121C23.9976 13.2679 23.985 14.3061 23.9729 15.1823C23.9562 16.4032 23.939 17.6658 23.6107 18.9521C23.2337 20.4294 22.4913 21.6282 21.4038 22.5148C20.277 23.4336 18.8622 23.9692 17.3124 24.0635C15.6935 24.162 14.0304 24.21 12.2367 24.21ZM11.9977 22.3346C13.8484 22.339 15.5477 22.2923 17.1985 22.192C18.3704 22.1207 19.3865 21.7404 20.2189 21.0616C20.9883 20.4341 21.5183 19.5684 21.7939 18.4885C22.0671 17.4178 22.0828 16.2683 22.098 15.1567C22.1099 14.2864 22.1224 13.2555 22.1249 12.2099C22.1224 11.1642 22.1099 10.1335 22.098 9.2632C22.0828 8.15157 22.0671 7.00203 21.7939 5.93122C21.5183 4.85126 20.9883 3.98554 20.2189 3.35804C19.3865 2.67944 18.3704 2.29913 17.1985 2.2279C15.5477 2.12738 13.8484 2.08105 12.0021 2.08508C10.1518 2.08069 8.45229 2.12738 6.80153 2.2279C5.62961 2.29913 4.61352 2.67944 3.78109 3.35804C3.01165 3.98554 2.48172 4.85126 2.20614 5.93122C1.93294 7.00203 1.91719 8.15138 1.90199 9.2632C1.89009 10.1342 1.87764 11.1657 1.87507 12.2121C1.87764 13.254 1.89009 14.2856 1.90199 15.1567C1.91719 16.2683 1.93294 17.4178 2.20614 18.4885C2.48172 19.5684 3.01165 20.4341 3.78109 21.0616C4.61352 21.7402 5.62961 22.1205 6.80153 22.1918C8.45229 22.2923 10.1521 22.3392 11.9977 22.3346ZM11.953 18.0693C8.7222 18.0693 6.09343 15.4408 6.09343 12.2099C6.09343 8.97902 8.7222 6.35054 11.953 6.35054C15.1841 6.35054 17.8126 8.97902 17.8126 12.2099C17.8126 15.4408 15.1841 18.0693 11.953 18.0693ZM11.953 8.22554C9.75605 8.22554 7.9685 10.013 7.9685 12.2099C7.9685 14.4068 9.75605 16.1943 11.953 16.1943C14.1502 16.1943 15.9376 14.4068 15.9376 12.2099C15.9376 10.013 14.1502 8.22554 11.953 8.22554ZM18.4689 4.47553C17.6923 4.47553 17.0626 5.10505 17.0626 5.88178C17.0626 6.65852 17.6923 7.28804 18.4689 7.28804C19.2457 7.28804 19.8752 6.65852 19.8752 5.88178C19.8752 5.10505 19.2457 4.47553 18.4689 4.47553Z" fill="white"/>
</svg>
