<svg width="22" height="19" viewBox="0 0 22 19" fill="none" xmlns="http://www.w3.org/2000/svg">
<path d="M21.913 2.43353C21.0982 2.81063 20.2298 3.06058 19.3246 3.18195C20.2559 2.59535 20.9667 1.67356 21.3008 0.562496C20.4325 1.10864 19.4738 1.4944 18.4522 1.70968C17.6277 0.783553 16.4526 0.209961 15.1707 0.209961C12.6835 0.209961 10.6812 2.33962 10.6812 4.9504C10.6812 5.32606 10.7114 5.68726 10.7853 6.03113C7.05052 5.83896 3.74576 3.95059 1.5257 1.07396C1.13811 1.78337 0.910761 2.59535 0.910761 3.46947C0.910761 5.11078 1.71196 6.56571 2.90622 7.40803C2.18446 7.39359 1.47639 7.17253 0.876522 6.82433C0.876522 6.83878 0.876522 6.85756 0.876522 6.87634C0.876522 9.17938 2.43372 11.0923 4.47574 11.533C4.11007 11.6385 3.71152 11.689 3.29791 11.689C3.0103 11.689 2.71996 11.6717 2.44741 11.6081C3.02948 13.4849 4.68117 14.8647 6.64513 14.9095C5.1167 16.1708 3.17602 16.9308 1.07511 16.9308C0.706696 16.9308 0.353348 16.9135 0 16.8658C1.98998 18.2196 4.34837 18.9926 6.89165 18.9926C15.1583 18.9926 19.6779 11.7685 19.6779 5.50666C19.6779 5.29716 19.6711 5.09488 19.6615 4.89405C20.5531 4.22655 21.3022 3.39289 21.913 2.43353Z" fill="white"/>
</svg>
