<svg width="26" height="19" viewBox="0 0 26 19" fill="none" xmlns="http://www.w3.org/2000/svg">
<path d="M12.5208 18.9926C12.5187 18.9926 12.5164 18.9926 12.5141 18.9926C11.7585 18.9872 5.07802 18.924 3.18532 18.3927C1.86256 18.0237 0.818386 16.9412 0.461855 15.5681C-0.033389 13.6385 -0.00186303 9.9233 0.00157617 9.62665C-0.00167196 9.33138 -0.0335801 5.58549 0.460327 3.63996C0.4609 3.63818 0.461282 3.63619 0.461855 3.63441C0.814373 2.27704 1.88205 1.16101 3.18207 0.790981C3.18532 0.789989 3.18876 0.789196 3.19201 0.788205C5.06331 0.27778 11.7569 0.215315 12.5141 0.209961H12.5277C13.2853 0.215315 19.9835 0.278573 21.8588 0.810613C23.1781 1.17866 24.2216 2.25979 24.579 3.63104C25.0928 5.57795 25.0452 9.33197 25.0401 9.64886C25.0437 9.96098 25.0737 13.6428 24.5813 15.5822C24.5809 15.5842 24.5804 15.586 24.58 15.5878C24.2233 16.9608 23.1793 18.0433 21.855 18.4127C21.8533 18.4133 21.8514 18.4137 21.8497 18.4143C19.9785 18.9246 13.2847 18.987 12.5277 18.9926C12.5254 18.9926 12.5231 18.9926 12.5208 18.9926ZM2.3515 4.1607C1.91664 5.87798 1.95772 9.57608 1.9581 9.61336V9.64013C1.94511 10.6657 1.99077 13.6359 2.35169 15.0426C2.52671 15.7163 3.04164 16.2499 3.6947 16.4321C5.09121 16.8242 10.5322 16.9475 12.5208 16.962C14.5146 16.9475 19.9636 16.8275 21.3498 16.4512C22.0008 16.2683 22.514 15.7365 22.6902 15.0621C23.0515 13.6347 23.0967 10.679 23.0836 9.65996C23.0836 9.64925 23.0836 9.63855 23.0838 9.62784C23.1017 8.58993 23.0664 5.58509 22.6919 4.16704C22.6915 4.16566 22.6911 4.16427 22.6909 4.16288C22.5151 3.48628 22 2.95265 21.347 2.77041C19.964 2.37798 14.5142 2.25503 12.5208 2.24056C10.5284 2.25503 5.08471 2.37481 3.69432 2.75078C3.05367 2.9352 2.52709 3.48786 2.3515 4.1607ZM10.0272 13.713V5.48931L16.875 9.60127L10.0272 13.713Z" fill="white"/>
</svg>
